<svg fill="none" height="20" viewBox="0 0 34 20" width="34" xmlns="http://www.w3.org/2000/svg"><path d="m27.2418 7.58747c-.0069 0-.0104 0-.0174 0-.268-4.23576-3.7902-7.58747-8.0922-7.58747-3.9712 0-7.2742 2.854-7.9737 6.6199-.0906-.00348-.1845-.00696-.275-.00696-2.95842 0-5.45393 1.95951-6.26837 4.64996-.12529-.0104-.25407-.0174-.38285-.0174-2.33541 0-4.23228 1.8934-4.23228 4.2323s1.89339 4.2323 4.2288 4.2323h23.0095c3.3483 0 6.0596-2.7148 6.0596-6.0596-.0001-3.3448-2.7078-6.06303-6.0561-6.06303z" fill="#fff"/></svg>