<svg fill="none" height="148" viewBox="0 0 148 148" width="148" xmlns="http://www.w3.org/2000/svg"><path d="m44.5166 106.164h-5.2441l4.5448-19.6947 12.2363-5.1275 1.3984 13.6346-8.5071 4.3118z" fill="#067788"/><path d="m103.483 106.164h5.245l-4.545-19.6947-12.2365-5.1275-1.3985 13.6346 8.5071 4.3118z" fill="#067788"/><path d="m90.548 99.8709c3.0299-8.5071 4.778-19.3449 4.778-31.2315 0-27.2693-21.326-49.411-21.326-49.411s-21.326 22.1417-21.326 49.411c0 11.8866 1.748 22.7244 4.778 31.2315z" fill="#fff"/><g fill="#067788"><path d="m88.2174 40.2048c-6.1764-12.7024-14.2174-20.9764-14.2174-20.9764s-8.0409 8.274-14.2173 20.9764z"/><path d="m71.4363 103.367c0-.583 0-1.282 0-1.981 0-8.0411-2.9134-14.6836-6.526-14.6836s-6.526 6.526-6.526 14.6836v1.981z"/><path d="m89.4992 103.367c0-.583 0-1.282 0-1.981 0-8.0411-2.9134-14.6836-6.526-14.6836s-6.5259 6.526-6.5259 14.6836v1.981z"/></g><path d="m65.0268 128.772c1.0488-5.244 6.4094-9.207 6.4094-15.383s-2.9134-6.992-6.4094-6.992c-3.6126 0-6.4095.816-6.4095 6.992s5.2441 10.139 6.4095 15.383z" fill="#ff7058"/><path d="m65.0268 123.644c.8157-4.079 5.011-7.109 5.011-11.77 0-4.778-2.2142-5.361-5.011-5.361-2.6803 0-5.0111.583-5.0111 5.361 0 4.661 4.0788 7.691 5.0111 11.77z" fill="#ffd05b"/><path d="m82.9732 128.772c1.0488-5.244 6.4095-9.207 6.4095-15.383s-2.9134-6.992-6.4095-6.992c-3.496 0-6.4094.816-6.4094 6.992s5.3606 10.139 6.4094 15.383z" fill="#ff7058"/><path d="m82.9732 123.644c.8158-4.079 5.0111-7.109 5.0111-11.77 0-4.778-2.2142-5.361-5.0111-5.361-2.6803 0-5.011.583-5.011 5.361.1166 4.661 4.1953 7.691 5.011 11.77z" fill="#ffd05b"/><path d="m74 68.6395c5.5994 0 10.1386-4.5392 10.1386-10.1386s-4.5392-10.1386-10.1386-10.1386-10.1386 4.5392-10.1386 10.1386 4.5392 10.1386 10.1386 10.1386z" fill="#4cdbc4"/><path d="m79.9433 50.2268c-.8157-.5827-1.6315-1.0488-2.5638-1.3984l-12.9354 13.0519c.3496.9323.8157 1.7481 1.3984 2.5638z" fill="#2c9984"/><path d="m81.4582 51.6252-14.3338 14.4504c.3496.3496.8157.6992 1.1653.9323l14.1008-14.1008c-.233-.4661-.5826-.9322-.9323-1.2819z" fill="#2c9984"/><circle cx="135.5" cy="141.5" fill="#ff7a7a" r="1.5"/></svg>