<svg fill="none" height="65" viewBox="0 0 65 65" width="65" xmlns="http://www.w3.org/2000/svg"><path d="m3.01455 49.2684 16.08465 5.5262c1.0069.346 2.0879.2792 3.0441-.188l34.3759-16.7953c.7652-.3735 1.339-1.0231 1.6156-1.8282s.2231-1.6698-.1509-2.4348l-10.7632-22.0306c-.3739-.7654-1.0228-1.3388-1.8287-1.61571-.8051-.27663-1.6694-.22305-2.4348.15091l-34.37588 16.7953c-.95624.4672-1.67369 1.2789-2.01932 2.2849l-5.52637 16.085c-.571001 1.6623.3164 3.4791 1.97892 4.0503zm10.54875-9.8573c1.4568.5005 2.232 2.0872 1.7315 3.544s-2.0872 2.232-3.544 1.7315-2.23198-2.0872-1.7315-3.544c.5005-1.4568 2.0872-2.232 3.544-1.7315z" fill="#ff4f19"/><path d="m3.01455 49.2684 16.08465 5.5262c1.0069.346 2.0879.2792 3.0441-.188l34.3759-16.7953c.7652-.3735 1.339-1.0231 1.6156-1.8282s.2231-1.6698-.1509-2.4348l-10.7632-22.0306c-.3739-.7654-1.0228-1.3388-1.8287-1.61571-.8051-.27663-1.6694-.22305-2.4348.15091l-34.37588 16.7953c-.95624.4672-1.67369 1.2789-2.01932 2.2849l-5.52637 16.085c-.571001 1.6623.3164 3.4791 1.97892 4.0503zm7.31565-18.8405 33.6603-16.4455 10.0639 20.5988-33.6603 16.4454-15.33127-5.2675z" fill="#ff9500"/><path d="m44.2492 13.2285c.1928.0663.3604.2061.4569.4039l.2256.4617c.1933.3956.0294.8725-.3661 1.0658-.3056.1493-.6606.0857-.8952-.1347l-.3006.1469c-.3955.1932-.8724.0293-1.0657-.3662-.1932-.3955-.0294-.8725.3662-1.0657l.97-.474c.198-.0965.4161-.1039.6089-.0377zm1.6247 3.3256c.1929.0662.3604.206.457.4038l.6994 1.4322c.1933.3955.0293.8728-.3661 1.0657-.3955.1933-.8725.0294-1.0657-.3661l-.6995-1.4322c-.1933-.3955-.0293-.8728.3661-1.0657.1979-.0967.416-.104.6088-.0377zm-5.4592-1.4524c.1928.0663.3604.2061.4569.4039.1933.3955.0294.8725-.3661 1.0657l-1.4319.6996c-.3955.1933-.8725.0294-1.0657-.3661-.1933-.3956-.0294-.8725.3661-1.0658l1.4319-.6996c.1978-.0965.416-.1039.6088-.0377zm7.5584 5.7484c.1929.0663.3604.2061.457.4039l.6996 1.4319c.1932.3955.0294.8725-.3662 1.0657-.3955.1933-.8725.0294-1.0657-.3661l-.6995-1.4319c-.1932-.3955-.0294-.8725.3662-1.0657.1977-.0966.4158-.104.6086-.0378zm-11.8541-3.6493c.1929.0662.3604.206.457.4038.1932.3956.0294.8725-.3662 1.0658l-1.4319.6996c-.3955.1932-.8725.0293-1.0657-.3662-.1933-.3955-.0294-.8725.3661-1.0657l1.4319-.6996c.1979-.0967.416-.104.6088-.0377zm13.9527 7.9452c.1928.0663.3604.2061.4569.4039l.6996 1.4319c.1933.3955.0294.8725-.3661 1.0657-.3956.1933-.8725.0294-1.0658-.3661l-.6995-1.4319c-.1933-.3955-.0294-.8725.3661-1.0657.1978-.0967.416-.104.6088-.0378zm-18.2482-5.8462c.1928.0662.3604.206.4569.4038.1933.3956.0293.8728-.3662 1.066l-1.4326.6994c-.3953.1925-.8723.029-1.0656-.3665-.1932-.3956-.0293-.8728.3663-1.0661l1.4325-.6993c.1977-.0962.4158-.1036.6087-.0373zm20.3474 10.1423c.1929.0662.3604.2061.457.4039l.6996 1.4319c.1932.3955.0293.8724-.3662 1.0657-.3955.1932-.8725.0294-1.0657-.3662l-.6996-1.4319c-.1933-.3955-.0294-.8724.3661-1.0657.1979-.0966.416-.104.6088-.0377zm-24.6439-8.0436c.1929.0663.3604.2061.457.4039.1932.3956.0294.8725-.3662 1.0658l-1.4318.6995c-.3956.1933-.8725.0294-1.0658-.3661-.1932-.3956-.0294-.8725.3662-1.0658l1.4319-.6995c.1979-.0967.4159-.104.6087-.0378zm26.7425 12.3395c.192.066.3591.2048.456.4019l.0441.0896c.0935.1901.1078.4094.0391.6096-.0688.2001-.2136.3652-.4043.458l-1.342.6559c-.3955.1933-.8725.0294-1.0657-.3661-.1934-.3952-.0294-.8725.3661-1.0658l.9941-.4862c.0745-.1069.1762-.1969.3018-.2584.1982-.0976.4172-.105.6108-.0385zm-31.038-10.2405c.1928.0663.3604.2061.457.4039.1932.3955.0293.8725-.3662 1.0657l-1.4319.6996c-.3955.1933-.8725.0294-1.0657-.3661-.1933-.3956-.0294-.8725.3661-1.0658l1.4319-.6995c.1978-.0967.416-.104.6088-.0378zm26.8755 12.3852c.1929.0663.3604.2061.457.4039.1932.3955.0294.8725-.3662 1.0657l-1.4319.6996c-.3955.1933-.8725.0294-1.0657-.3661-.1932-.3956-.0294-.8725.3662-1.0658l1.4318-.6995c.1979-.0967.416-.104.6088-.0378zm-31.1719-10.2865c.1928.0663.3604.2061.457.4039.1932.3955.0293.8725-.3662 1.0657l-1.4319.6996c-.3955.1933-.8725.0294-1.0657-.3661-.1933-.3956-.0294-.8725.3661-1.0658l1.4319-.6996c.1979-.0965.4161-.1039.6088-.0377zm26.8765 12.3851c.1928.0663.3604.2061.457.4039.1933.3952.0293.8725-.3662 1.0658l-1.432.6998c-.3955.1933-.8725.0294-1.0657-.3661-.1934-.3952-.0294-.8725.3661-1.0658l1.432-.6998c.1978-.0966.416-.104.6088-.0378zm-31.1721-10.286c.1929.0663.3604.2061.457.4039.1932.3955.0293.8725-.3662 1.0657l-1.4319.6996c-.3955.1932-.8725.0294-1.0657-.3662-.1933-.3955-.0294-.8724.3661-1.0657l1.4319-.6996c.1979-.0966.416-.1039.6088-.0377zm26.8757 12.3848c.1928.0663.3604.2061.4569.4039.1934.3952.0294.8725-.3661 1.0657l-1.432.6999c-.3955.1932-.8725.0294-1.0657-.3662-.1934-.3951-.0294-.8724.3661-1.0657l1.432-.6998c.1979-.0967.4159-.104.6088-.0378zm-31.0148-10.1473c.4166.1431.6377.5964.4947 1.0126l-.5179 1.5073c-.143.4162-.59595.6378-1.01252.4947-.41657-.1432-.6377-.5964-.49471-1.0126l.51786-1.5073c.14299-.4162.59597-.6378 1.01257-.4947zm26.7192 12.2463c.1929.0663.3604.2061.457.4039.1932.3955.0294.8725-.3662 1.0657l-1.4319.6996c-.3955.1933-.8725.0294-1.0657-.3662-.1932-.3955-.0294-.8724.3662-1.0657l1.4319-.6996c.1977-.0965.4159-.1039.6087-.0377zm-28.27278-7.7245c.41657.1432.6377.5964.49471 1.0126l-.51786 1.5073c-.14299.4162-.59599.6378-1.01256.4947s-.6377-.5964-.49471-1.0126l.51786-1.5073c.14299-.4162.59599-.6378 1.01256-.4947zm23.97638 9.8233c.1928.0663.3604.2061.457.4039.1932.3955.0293.8725-.3662 1.0657l-1.4319.6996c-.3955.1932-.8725.0294-1.0657-.3662-.1933-.3955-.0294-.8724.3661-1.0657l1.4319-.6996c.1979-.0966.4161-.1039.6088-.0377zm-25.52995-5.3015c.41657.1432.6377.5964.49471 1.0126l-.51786 1.5073c-.14299.4162-.59599.6378-1.01256.4947s-.6377-.5964-.49471-1.0126l.51786-1.5072c.14299-.4162.59599-.6379 1.01256-.4948zm21.23445 7.4005c.1928.0662.3603.2061.4569.4039.1933.3955.0294.8725-.3661 1.0657l-1.4319.6996c-.3956.1932-.8725.0294-1.0658-.3662-.1932-.3955-.0293-.8725.3662-1.0657l1.4319-.6996c.1978-.0966.4159-.104.6088-.0377zm-4.2963 2.0987c.1928.0663.3603.2061.4569.4039.1933.3955.0294.8725-.3662 1.0657l-1.4318.6996c-.3956.1933-.8725.0294-1.0658-.3661-.1932-.3956-.0294-.8725.3662-1.0658l1.4319-.6996c.1978-.0965.4159-.1039.6088-.0377zm-18.49171-4.9773c.41657.1431.6377.5963.4947 1.0125l-.25893.7537.36212.1244c.41658.1431.6377.5963.49471 1.0125s-.59599.6379-1.01256.4947l-1.11576-.3833c-.41657-.1431-.6377-.5964-.4947-1.0126l.51785-1.5072c.143-.4162.59599-.6379 1.01257-.4947zm3.61244 2.9263 1.50727.5178c.4166.1432.6377.5964.4947 1.0126s-.596.6378-1.0126.4947l-1.50723-.5178c-.41657-.1432-.6377-.5964-.49471-1.0126.143-.4162.59599-.6378 1.01257-.4947zm4.52177 1.5535 1.5073.5179c.4166.1431.6377.5964.4947 1.0126s-.596.6378-1.0125.4947l-1.5073-.5179c-.4166-.1431-.6377-.5963-.4947-1.0125s.596-.6379 1.0125-.4948zm4.5218 1.5536 1.5073.5179c.4166.1431.6377.5963.4947 1.0125s-.596.6379-1.0125.4947l-1.5073-.5178c-.4166-.1431-.6377-.5964-.4947-1.0126s.596-.6378 1.0125-.4947z" fill="#ffee43"/></svg>