<svg fill="none" height="5" viewBox="0 0 5 5" width="5" xmlns="http://www.w3.org/2000/svg"><path d="m4.98887 3.10749c-.02675.08614-.09788.14891-.1835.16191l-1.45211.2208-.64942 1.37718c-.0383.0812-.11732.13262-.20384.13262-.08653 0-.16556-.05142-.20384-.13262l-.64937-1.37717-1.452158-.22079c-.085621-.01302-.1567702-.07579-.1835022-.16191-.0267321-.08613-.00444023-.18067.0575254-.24387l1.0507748-1.07181-.248146-1.513719c-.014624-.089257.020428-.1794501.090425-.2326741.039601-.0301171.086501-.0454369.133631-.0454369.03617 0 .0725.00902367.10576.0273256l1.29888.7146094 1.29887-.7146094c.03346-.01841304.07011-.02718303.1064-.0273256.1254.00019026.227.106623.227.237891 0 .01827-.00197.03608-.0057.053161l-.246 1.500758 1.05078 1.07183c.06198.0632.08427.15774.05754.24385z" fill="#5bfc7f"/></svg>