<svg fill="none" height="24" viewBox="0 0 24 24" width="24" xmlns="http://www.w3.org/2000/svg"><path d="m21 10.5h-1v-1c0-.26522-.1054-.51957-.2929-.70711-.1875-.18753-.4419-.29289-.7071-.29289s-.5196.10536-.7071.29289c-.1875.18754-.2929.44189-.2929.70711v1h-1c-.2652 0-.5196.1054-.7071.2929s-.2929.4419-.2929.7071.1054.5196.2929.7071.4419.2929.7071.2929h1v1c0 .2652.1054.5196.2929.7071s.4419.2929.7071.2929.5196-.1054.7071-.2929.2929-.4419.2929-.7071v-1h1c.2652 0 .5196-.1054.7071-.2929s.2929-.4419.2929-.7071-.1054-.5196-.2929-.7071-.4419-.2929-.7071-.2929zm-7.7 1.72c.5336-.4619.9616-1.0331 1.2549-1.675.2933-.64184.4451-1.33929.4451-2.045 0-1.32608-.5268-2.59785-1.4645-3.53553-.9376-.93769-2.2094-1.46447-3.5355-1.46447-1.32608 0-2.59785.52678-3.53553 1.46447-.93769.93768-1.46447 2.20945-1.46447 3.53553-.00001.70571.1518 1.40316.44513 2.045.29332.6419.72129 1.2131 1.25487 1.675-1.39986.6339-2.58753 1.6575-3.42102 2.9485-.83348 1.2911-1.27751 2.7948-1.27898 4.3315 0 .2652.10536.5196.29289.7071.18754.1875.44189.2929.70711.2929s.51957-.1054.70711-.2929c.18753-.1875.29289-.4419.29289-.7071 0-1.5913.63214-3.1174 1.75736-4.2426 1.12522-1.1253 2.65134-1.7574 4.24264-1.7574s3.1174.6321 4.2426 1.7574c1.1253 1.1252 1.7574 2.6513 1.7574 4.2426 0 .2652.1054.5196.2929.7071s.4419.2929.7071.2929.5196-.1054.7071-.2929.2929-.4419.2929-.7071c-.0015-1.5367-.4455-3.0404-1.279-4.3315-.8335-1.291-2.0211-2.3146-3.421-2.9485zm-3.3-.72c-.59334 0-1.17336-.1759-1.66671-.5056-.49335-.3296-.87787-.7982-1.10493-1.34635-.22706-.54818-.28647-1.15138-.17072-1.73332.11576-.58194.40148-1.11649.82104-1.53605s.95411-.70528 1.53605-.82104c.58194-.11575 1.18517-.05634 1.73337.17072.5481.22706 1.0167.61158 1.3463 1.10493.3297.49335.5056 1.07337.5056 1.66671 0 .79565-.3161 1.5587-.8787 2.1213s-1.3257.8787-2.1213.8787z" fill="#9e9e9e"/></svg>