<svg fill="none" height="24" viewBox="0 0 24 24" width="24" xmlns="http://www.w3.org/2000/svg"><g fill="#9e9e9e"><path d="m16.4065 6.99097c.1219.05077.2325.12516.3254.21889.1015.09364.1825.20729.2379.33379s.0841.26311.0841.40121-.0287.27471-.0841.40121-.1364.24015-.2379.33379l-8.15998 8.16004c-.09296.0937-.20356.1681-.32542.2189-.12186.0507-.25257.0769-.38458.0769s-.26271-.0262-.38457-.0769c-.12186-.0508-.23246-.1252-.32543-.2189l-3.84-3.84c-.09652-.0933-.17373-.2046-.22722-.3277-.0535-.1231-.08223-.2555-.08455-.3897-.00232-.1341.02181-.2675.07102-.3923.0492-.1249.12251-.2388.21575-.3353.09324-.0966.20458-.1738.32766-.2273.12307-.0535.25548-.0822.38966-.0845.13419-.0023.26751.0218.39236.071.12486.0492.2388.1225.33532.2158l3.13 3.14 7.44998-7.46004c.093-.09373.2036-.16812.3254-.21889.1219-.05077.2526-.07691.3846-.07691s.2627.02614.3846.07691z"/><path d="m19.729 10.1212c.3906-.39056.3906-1.02372 0-1.41424-.3905-.39053-1.0236-.39053-1.4142 0l-6.5857 6.58574c-.3906.3906-.3906 1.0237 0 1.4143.3905.3905 1.0236.3905 1.4142 0z"/></g></svg>