<svg fill="none" height="24" viewBox="0 0 24 24" width="24" xmlns="http://www.w3.org/2000/svg"><path d="m21.92 6.62c-.1015-.24435-.2957-.43853-.54-.54-.1202-.05124-.2493-.07842-.38-.08h-5c-.2652 0-.5196.10536-.7071.29289-.1875.18754-.2929.44189-.2929.70711s.1054.51957.2929.70711c.1875.18753.4419.29289.7071.29289h2.59l-5.59 5.59-3.29-3.3c-.09296-.0937-.20356-.1681-.32542-.2189s-.25257-.0769-.38458-.0769-.26272.0261-.38458.0769-.23246.1252-.32542.2189l-6 6c-.09373.093-.16812.2036-.21889.3254-.05077.1219-.07691.2526-.07691.3846s.02614.2627.07691.3846c.05077.1218.12516.2324.21889.3254.09296.0937.20356.1681.32542.2189s.25257.0769.38458.0769.26272-.0261.38458-.0769.23246-.1252.32542-.2189l5.29-5.3 3.29 3.3c.093.0937.2036.1681.3254.2189.1219.0508.2526.0769.3846.0769s.2627-.0261.3846-.0769c.1218-.0508.2324-.1252.3254-.2189l6.29-6.3v2.59c0 .2652.1054.5196.2929.7071s.4419.2929.7071.2929.5196-.1054.7071-.2929.2929-.4419.2929-.7071v-5c-.0016-.13068-.0288-.25978-.08-.38z" fill="#9e9e9e"/></svg>