<svg fill="none" height="24" viewBox="0 0 24 24" width="24" xmlns="http://www.w3.org/2000/svg"><path d="m15.71 6.29-5.3 5.3-2.12-2.12c-.08965-.10468-.19997-.1897-.32403-.24973-.12406-.06002-.2592-.09375-.39692-.09907s-.27505.01789-.40337.06816c-.12833.05028-.24488.12654-.34233.22399-.09746.09745-.17371.214-.22399.34233-.05027.12832-.07348.26562-.06816.40342.00532.1377.03905.2728.09907.3969.06003.124.14505.2344.24973.324l2.83 2.83c.18626.1847.4377.2889.7.29.1316.0008.2621-.0245.3839-.0742.1218-.0498.2327-.1231.3261-.2158l6-6c.0937-.09296.1681-.20356.2189-.32542s.0769-.25257.0769-.38458-.0261-.26272-.0769-.38458-.1252-.23246-.2189-.32542c-.1874-.18625-.4408-.29079-.705-.29079s-.5176.10454-.705.29079zm3.29-4.29h-14c-.79565 0-1.55871.31607-2.12132.87868s-.87868 1.32567-.87868 2.12132v10c0 .7956.31607 1.5587.87868 2.1213s1.32567.8787 2.12132.8787h11.59l3.7 3.71c.0934.0927.2043.166.3261.2158.1218.0497.2523.075.3839.0742.1312.0034.2613-.024.38-.08.1826-.075.3389-.2024.4493-.3661.1103-.1638.1697-.3565.1707-.5539v-16c0-.79565-.3161-1.55871-.8787-2.12132s-1.3257-.87868-2.1213-.87868zm1 16.59-2.29-2.3c-.0934-.0927-.2043-.166-.3261-.2158-.1218-.0497-.2523-.075-.3839-.0742h-12c-.26522 0-.51957-.1054-.70711-.2929-.18753-.1875-.29289-.4419-.29289-.7071v-10c0-.26522.10536-.51957.29289-.70711.18754-.18753.44189-.29289.70711-.29289h14c.2652 0 .5196.10536.7071.29289.1875.18754.2929.44189.2929.70711z" fill="#9e9e9e"/></svg>