<svg fill="none" height="24" viewBox="0 0 24 24" width="24" xmlns="http://www.w3.org/2000/svg"><path d="m14 9.45002h-1v-1c0-.26522-.1054-.51957-.2929-.70711s-.4419-.29289-.7071-.29289-.5196.10535-.7071.29289-.2929.44189-.2929.70711v1h-1c-.26522 0-.51957.10535-.70711.29289-.18753.18754-.29289.44189-.29289.70709s.10536.5196.29289.7071c.18754.1876.44189.2929.70711.2929h1v1c0 .2652.1054.5196.2929.7071.1875.1876.4419.2929.7071.2929s.5196-.1053.7071-.2929c.1875-.1875.2929-.4419.2929-.7071v-1h1c.2652 0 .5196-.1053.7071-.2929.1875-.1875.2929-.4419.2929-.7071s-.1054-.51955-.2929-.70709-.4419-.29289-.7071-.29289zm6.46.18c-.1296-1.35817-.5843-2.66518-1.3256-3.81058s-1.7474-2.09553-2.9333-2.7701-2.5168-1.05377-3.8801-1.10554c-1.3634-.05176-2.71917.22541-3.95282.80811s-2.30891 1.4538-3.13491 2.53969c-.826 1.08588-1.37848 2.35465-1.61074 3.69908-.23226 1.34442-.13748 2.72502.27633 4.02512.41381 1.3 1.13449 2.4814 2.10114 3.4442l5.3 5.31c.093.0937.2036.1681.3254.2189.1219.0508.2526.0769.3846.0769s.2627-.0261.3846-.0769c.1218-.0508.2324-.1252.3254-.2189l5.28-5.31c.8912-.8845 1.5743-1.9564 1.9998-3.1377.4255-1.1814.5827-2.4426.4602-3.69228zm-3.86 5.41998-4.6 4.6-4.6-4.6c-.67791-.6779-1.1972-1.4977-1.52053-2.4002-.32334-.9026-.44268-1.8656-.34947-2.81978.09382-.9689.40176-1.90484.90157-2.74016s1.17899-1.54914 1.98843-2.08984c1.06095-.70477 2.3063-1.08071 3.58-1.08071s2.5191.37594 3.58 1.08071c.807.53861 1.4847 1.24928 1.9844 2.08093.4996.83166.8089 1.76367.9056 2.72907.0963.95738-.0216 1.92428-.345 2.83058-.3234.9062-.8443 1.7292-1.525 2.4094z" fill="#9e9e9e"/></svg>