<svg fill="none" height="24" viewBox="0 0 24 24" width="24" xmlns="http://www.w3.org/2000/svg"><g fill="#9e9e9e"><path d="m20.5655 22.0237h-16.67037c-1.89393 0-3.434498-1.5405-3.434498-3.4345v-7.3179c0-.5102.41286-.9231.923078-.9231.51022 0 .92308.4129.92308.9231v7.3179c0 .8762.71214 1.5884 1.58834 1.5884h16.67037c.8762 0 1.5883-.7122 1.5883-1.5884v-11.63578c0-.8762-.7121-1.58834-1.5883-1.58834h-10.2692c-.51025 0-.92311-.41286-.92311-.92308s.41286-.92308.92311-.92308h10.2692c1.8939 0 3.4345 1.54057 3.4345 3.4345v11.63578c0 1.894-1.5406 3.4345-3.4345 3.4345z"/><path d="m17.177 16.9117h-9.44534c-.64994 0-1.24129-.3579-1.54237-.9339-.30108-.5769-.25781-1.2665.11358-1.8002l1.85427-2.6628c.27043-.3895.69501-.6536 1.16376-.7257.46424-.0748.9519.0523 1.3269.3416l.8041.6211 1.2683-1.83351c.3228-.46605.8546-.74639 1.4216-.75.5796-.02885 1.0998.27133 1.4288.73287l3.0252 4.26294c.3786.5327.4273 1.225.1271 1.8056-.3001.5814-.8924.942-1.5459.942zm-9.24252-1.8462h9.03692l-2.8188-3.9726-1.2458 1.8011c-.2695.3903-.6941.6571-1.1646.7292-.467.073-.9546-.0514-1.3305-.3425l-.80323-.6202z"/><path d="m3.91768 9.83714c-.51022 0-.92308-.41286-.92308-.92308v-5.99098c0-.51022.41286-.92308.92308-.92308s.92308.41286.92308.92308v5.99099c-.00001.51021-.41287.92307-.92308.92307z"/><path d="m6.91316 6.84164h-5.99008c-.51022 0-.92308-.41286-.92308-.92308s.41286-.92308.92308-.92308h5.99008c.51022 0 .92308.41286.92308.92308s-.41286.92308-.92308.92308z"/></g></svg>