<svg fill="none" height="24" viewBox="0 0 24 24" width="24" xmlns="http://www.w3.org/2000/svg"><path d="m13 14h-4c-.26522 0-.51957.1054-.70711.2929-.18753.1875-.29289.4419-.29289.7071s.10536.5196.29289.7071c.18754.1875.44189.2929.70711.2929h4c.2652 0 .5196-.1054.7071-.2929s.2929-.4419.2929-.7071-.1054-.5196-.2929-.7071-.4419-.2929-.7071-.2929zm4-10h-1.18c-.2063-.58355-.5881-1.089-1.0929-1.44706-.5049-.35806-1.1082-.5512-1.7271-.55294h-2c-.6189.00174-1.2222.19488-1.72707.55294-.50486.35806-.88662.86351-1.09293 1.44706h-1.18c-.79565 0-1.55871.31607-2.12132.87868s-.87868 1.32567-.87868 2.12132v12c0 .7956.31607 1.5587.87868 2.1213s1.32567.8787 2.12132.8787h10c.7956 0 1.5587-.3161 2.1213-.8787s.8787-1.3257.8787-2.1213v-12c0-.79565-.3161-1.55871-.8787-2.12132s-1.3257-.87868-2.1213-.87868zm-7 1c0-.26522.1054-.51957.2929-.70711.1875-.18753.4419-.29289.7071-.29289h2c.2652 0 .5196.10536.7071.29289.1875.18754.2929.44189.2929.70711v1h-4zm8 14c0 .2652-.1054.5196-.2929.7071s-.4419.2929-.7071.2929h-10c-.26522 0-.51957-.1054-.70711-.2929-.18753-.1875-.29289-.4419-.29289-.7071v-12c0-.26522.10536-.51957.29289-.70711.18754-.18753.44189-.29289.70711-.29289h1v1c0 .26522.10536.51957.29289.70711.18754.18753.44189.29289.70711.29289h6c.2652 0 .5196-.10536.7071-.29289.1875-.18754.2929-.44189.2929-.70711v-1h1c.2652 0 .5196.10536.7071.29289.1875.18754.2929.44189.2929.70711zm-3-9h-6c-.26522 0-.51957.1054-.70711.2929-.18753.1875-.29289.4419-.29289.7071s.10536.5196.29289.7071c.18754.1875.44189.2929.70711.2929h6c.2652 0 .5196-.1054.7071-.2929s.2929-.4419.2929-.7071-.1054-.5196-.2929-.7071-.4419-.2929-.7071-.2929z" fill="#9e9e9e"/></svg>