<svg fill="none" height="24" viewBox="0 0 24 24" width="24" xmlns="http://www.w3.org/2000/svg"><path d="m14.81 12.28c.633-.6798.9896-1.5712 1-2.5 0-1.00252-.3982-1.96398-1.1071-2.67286-.7089-.70889-1.6704-1.10714-2.6729-1.10714s-1.964.39825-2.67286 1.10714c-.70889.70888-1.10714 1.67034-1.10714 2.67286.01044.9288.36702 1.8202 1 2.5-.88135.4389-1.63978 1.0899-2.20708 1.8946-.56731.8047-.92569 1.7378-1.04292 2.7154-.02917.2652.0482.5312.21511.7393.16691.2082.40967.3415.67489.3707s.53116-.0482.73932-.2151c.20817-.1669.34151-.4097.37068-.6749.11933-.9689.58885-1.8606 1.32009-2.5073.73121-.6467 1.67371-1.0037 2.64991-1.0037s1.9187.357 2.6499 1.0037c.7313.6467 1.2008 1.5384 1.3201 2.5073.0278.2564.1536.4922.3511.658.1976.1659.4515.249.7089.232h.11c.2621-.0302.5017-.1627.6666-.3687.1648-.2061.2415-.4689.2134-.7313-.1085-.9724-.4556-1.903-1.0104-2.709-.5548-.8059-1.3-1.4624-2.1696-1.911zm-2.81-.72c-.3521 0-.6962-.1044-.9889-.3s-.5209-.4736-.6556-.7988c-.1347-.3253-.17-.68317-.1013-1.02846s.2382-.66245.4872-.91139c.2489-.24894.5661-.41847.9113-.48715.3453-.06868.7032-.03343 1.0285.10129.3252.13473.6032.36288.7988.6556.1956.29271.3.63686.3.98891 0 .4721-.1875.9248-.5214 1.2587-.3338.3338-.7865.5213-1.2586.5213zm7-9.56h-14c-.79565 0-1.55871.31607-2.12132.87868s-.87868 1.32567-.87868 2.12132v14c0 .7956.31607 1.5587.87868 2.1213s1.32567.8787 2.12132.8787h14c.7956 0 1.5587-.3161 2.1213-.8787s.8787-1.3257.8787-2.1213v-14c0-.79565-.3161-1.55871-.8787-2.12132s-1.3257-.87868-2.1213-.87868zm1 17c0 .2652-.1054.5196-.2929.7071s-.4419.2929-.7071.2929h-14c-.26522 0-.51957-.1054-.70711-.2929-.18753-.1875-.29289-.4419-.29289-.7071v-14c0-.26522.10536-.51957.29289-.70711.18754-.18753.44189-.29289.70711-.29289h14c.2652 0 .5196.10536.7071.29289.1875.18754.2929.44189.2929.70711z" fill="#9e9e9e"/></svg>