<svg fill="none" height="24" viewBox="0 0 24 24" width="24" xmlns="http://www.w3.org/2000/svg"><path d="m15.71 12.71c.9804-.7713 1.696-1.8291 2.0472-3.02606.3513-1.19697.3207-2.47367-.0874-3.65247s-1.1735-2.20108-2.1897-2.92461c-1.0162-.72354-2.2327-1.11235-3.4801-1.11235-1.2475 0-2.46389.38881-3.48007 1.11235-1.01619.72353-1.78159 1.74581-2.18972 2.92461s-.4387 2.4555-.08745 3.65247c.35125 1.19696 1.06684 2.25476 2.04724 3.02606-1.67993.673-3.14572 1.7894-4.24111 3.2299-1.0954 1.4406-1.77933 3.1514-1.97889 4.9501-.01445.1313-.00289.2642.03402.3911.03691.1268.09844.2452.18109.3482.16691.2082.40967.3415.67489.3707.26521.0292.53116-.0482.73932-.2151.20817-.1669.3415-.4097.37068-.6749.21958-1.9548 1.15168-3.7602 2.61822-5.0712 1.46653-1.311 3.36468-2.0358 5.33178-2.0358s3.8652.7248 5.3318 2.0358c1.4665 1.311 2.3986 3.1164 2.6182 5.0712.0272.2457.1444.4727.3291.637.1847.1644.4237.2545.6709.253h.11c.2621-.0302.5017-.1627.6666-.3687.1648-.2061.2415-.4689.2134-.7313-.2005-1.8038-.8881-3.519-1.9892-4.9618-1.101-1.4428-2.5739-2.5587-4.2608-3.2282zm-3.71-.71c-.7911 0-1.5645-.2346-2.22228-.6741-.6578-.4395-1.17049-1.0643-1.47324-1.79516-.30275-.73091-.38197-1.53517-.22762-2.3111.15434-.77592.5353-1.48865 1.09471-2.04806s1.27213-.94038 2.04803-1.09472c.776-.15434 1.5802-.07513 2.3111.22762.7309.30276 1.3556.81545 1.7952 1.47324.4395.6578.6741 1.43116.6741 2.22228 0 1.06087-.4214 2.0783-1.1716 2.8284-.7501.7502-1.7675 1.1716-2.8284 1.1716z" fill="#9e9e9e"/></svg>