<svg fill="none" height="24" viewBox="0 0 24 24" width="24" xmlns="http://www.w3.org/2000/svg"><g fill="#9e9e9e"><path d="m5.01243 7.3884c0-.21544.01725-.43088.06035-.6377.10345-.50844.64655-.82729 1.14655-.70664.57759.14649.80173.48258.80173 1.24093 0 4.07611.00862 5.15221.00862 9.22841 0 .5601 0 1.1202-.05173 1.6718-.0431.4653-.43965.7842-.90517.8273-.38793.0344-.85345-.25-.98276-.6377-.06896-.2155-.08621-.4482-.08621-.6808-.00862-2.2061 0-4.4209 0-5.627.00863-1.2319 0-2.45526.00862-4.6786zm9.99997 10.5899c0 .586-.3965.9997-.9396 1.0342-.5086.0344-.9828-.3878-1.0517-.9394-.0173-.112-.0087-.2326-.0087-.3447 0-4.4897 0-5.9795 0-10.47788 0-.10341-.0172-.20682 0-.30162.0776-.43949.3018-.76696.75-.89623.4224-.12064.8018.00862 1.0259.34471.1552.23267.2069.56014.2155.84452.0173 2.24919.0086 3.507.0086 4.7562zm-5.98273-10.80534c0-.18097.00863-.37917.07759-.54291.17242-.4395.63793-.68079 1.07754-.59461.5173.10341.8363.49982.8363 1.09443v6.72923c0 .7153-.3794 1.1462-.9914 1.1462-.62071 0-.9914-.4223-.9914-1.1375 0-1.6202 0-1.2403 0-2.8604-.00862-1.62008-.00863-2.23157-.00863-3.83444zm8.01723.03447c.0086-.30161.1121-.66355.2931-.89623.25-.31885.6552-.39641 1.0604-.21544.4051.18097.6207.50844.6293.93932.0172.60323.0086 1.20646.0086 1.80969v4.96263c0 .655-.2931 1.0772-.7931 1.1634-.6897.1207-1.1983-.3102-1.2069-1.0341-.0086-1.6373 0-1.2747 0-2.9034-.0086-1.61151-.0259-2.223.0086-3.82587zm-6.0517 10.77087c.0086.5343-.4655 1.0255-1.00001 1.0342-.53448.0086-1.00862-.4568-1.02586-.9997-.01724-.5343.4569-.991 1.02586-.991.55171 0 .99141.4223 1.00001.9565zm6.9741 1.0342c-.5258-.0087-.9913-.4826-.9913-.9997 0-.5601.4568-.9996 1.0258-.991.569 0 .9742.4136.9742.9824-.0087.5688-.4569 1.0169-1.0087 1.0083z"/><g clip-rule="evenodd" fill-rule="evenodd"><path d="m1 3c0-.55228.44772-1 1-1h4c.55228 0 1 .44772 1 1s-.44772 1-1 1h-3v3c0 .55228-.44772 1-1 1s-1-.44772-1-1z"/><path d="m23 22c0 .5523-.4477 1-1 1h-4c-.5523 0-1-.4477-1-1s.4477-1 1-1h3v-3c0-.5523.4477-1 1-1s1 .4477 1 1z"/><path d="m22 2c.5523 0 1 .44772 1 1v4c0 .55228-.4477 1-1 1s-1-.44772-1-1v-3h-3c-.5523 0-1-.44772-1-1s.4477-1 1-1z"/><path d="m2 23c-.55228 0-1-.4477-1-1v-4c0-.5523.44772-1 1-1 .55229 0 1 .4477 1 1v3h3c.55229 0 1 .4477 1 1s-.44772 1-1 1z"/></g></g></svg>