<svg fill="none" height="24" viewBox="0 0 24 24" width="24" xmlns="http://www.w3.org/2000/svg"><path d="m14 18c.2652 0 .5195-.1054.7071-.2929.1875-.1875.2929-.4419.2929-.7071v-2c0-.2652-.1054-.5196-.2929-.7071-.1876-.1875-.4419-.2929-.7071-.2929s-.5196.1054-.7071.2929c-.1876.1875-.2929.4419-.2929.7071v2c0 .2652.1053.5196.2929.7071.1875.1875.4419.2929.7071.2929zm-4.00002 0c.26522 0 .51952-.1054.70712-.2929.1875-.1875.2929-.4419.2929-.7071v-2c0-.2652-.1054-.5196-.2929-.7071-.1876-.1875-.4419-.2929-.70712-.2929s-.51957.1054-.70711.2929-.29289.4419-.29289.7071v2c0 .2652.10535.5196.29289.7071s.44189.2929.70711.2929zm9.00002-12h-1.38l-1.73-3.45c-.0529-.12695-.1314-.24163-.2306-.33688-.0991-.09524-.2169-.16901-.3459-.21668-.129-.04768-.2664-.06824-.4037-.0604s-.2715.04392-.3942.10597c-.1227.06204-.2313.14874-.319.25465-.0877.10592-.1526.22879-.1907.36093s-.0485.27071-.0306.40705c.0179.13635.0638.26753.1347.38536l1.27 2.55h-6.76002l1.27-2.55c.09706-.2331.10236-.49428.01482-.73112-.08754-.23683-.26143-.43179-.48676-.54572s-.48542-.1384-.72805-.0685c-.24263.06989-.44983.22899-.58001.44534l-1.73 3.45h-1.38c-.70682.01075-1.38713.27074-1.92095.73413-.53383.46339-.88688 1.10039-.99688 1.79867-.11001.69829.0301 1.41298.39561 2.018.36551.6051.93294 1.0617 1.60222 1.2892l.74 7.46c.07462.7426.42334 1.4307.97807 1.9299.55473.4993 1.27563.7738 2.02193.7701h8.38002c.7463.0037 1.4672-.2708 2.0219-.7701.5547-.4992.9035-1.1873.9781-1.9299l.74-7.46c.6707-.2282 1.239-.6864 1.6043-1.2935.3652-.60711.5038-1.32387.3912-2.02336-.1125-.69949-.4691-1.33656-1.0064-1.79837s-1.2207-.71856-1.9291-.72477zm-1.81 13.1c-.0249.2475-.1411.4769-.326.6433-.185.1664-.4253.2579-.674.2567h-8.38002c-.24877.0012-.48907-.0903-.67398-.2567s-.30115-.3958-.32602-.6433l-.71-7.1h11.80002zm1.81-9.1h-14.00002c-.26522 0-.51957-.10536-.70711-.2929-.18754-.18753-.29289-.44189-.29289-.7071 0-.26522.10535-.51957.29289-.70711s.44189-.29289.70711-.29289h14.00002c.2652 0 .5195.10535.7071.29289.1875.18754.2929.44189.2929.70711 0 .26521-.1054.51957-.2929.7071-.1876.18754-.4419.2929-.7071.2929z" fill="#9e9e9e"/></svg>