<svg fill="none" height="24" viewBox="0 0 24 24" width="24" xmlns="http://www.w3.org/2000/svg"><path d="m8.82001 11.29c-.09373.093-.16812.2036-.21889.3254-.05077.1219-.0769.2526-.0769.3846s.02613.2627.0769.3846.12516.2325.21889.3254c.18737.1863.44082.2908.705.2908.26419 0 .51769-.1045.70499-.2908.0937-.0929.1681-.2035.2189-.3254s.0769-.2526.0769-.3846-.0261-.2627-.0769-.3846c-.0508-.1218-.1252-.2324-.2189-.3254-.1873-.1862-.4408-.2908-.70499-.2908-.26418 0-.51763.1046-.705.2908zm2.46999 2.48c-.1862.1874-.2908.4408-.2908.705s.1046.5177.2908.705c.093.0937.2036.1681.3254.2189.1219.0508.2526.0769.3846.0769s.2627-.0261.3846-.0769.2325-.1252.3254-.2189c.1863-.1873.2908-.4408.2908-.705s-.1045-.5176-.2908-.705c-.0929-.0937-.2035-.1681-.3254-.2189-.1219-.0507-.2526-.0769-.3846-.0769s-.2627.0262-.3846.0769c-.1218.0508-.2324.1252-.3254.2189zm9-9.99998c-1.0878-1.09678-2.5567-1.73175-4.1009-1.77273s-3.0447.51519-4.1891 1.55273c-1.1391-1.02542-2.62752-1.57602-4.15976-1.53883-1.53225.03719-2.99217.65935-4.08023 1.73883-1.08098 1.08984-1.70315 2.55254-1.73849 4.08715s.51883 3.02443 1.54849 4.16283c-.76982.8607-1.27496 1.9251-1.45478 3.0658-.17983 1.1406-.02671 2.3088.44098 3.3646.4677 1.0557 1.23009 1.9541 2.19571 2.5873.96561.6331 2.09342.9742 3.24809.9823 1.48023.0016 2.90729-.5514 3.99999-1.55 1.1397 1.0284 2.6302 1.5808 4.1649 1.5436 1.5346-.0372 2.9966-.6612 4.0851-1.7436 1.0796-1.0911 1.7-2.5545 1.7334-4.0891.0335-1.5346-.5224-3.0237-1.5534-4.1609 1.031-1.1372 1.5869-2.62624 1.5534-4.16084-.0334-1.5346-.6538-2.998-1.7334-4.08914zm-1.46 1.4c.6954.71539 1.0984 1.66484 1.1299 2.66204.0314.99721-.3109 1.97017-.9599 2.72794l-5.56-5.55998c.7644-.63427 1.7344-.96709 2.7272-.93578s1.9399.4246 2.6628 1.10578zm-13.65999 13.65998c-.69543-.7154-1.09841-1.6648-1.12986-2.662s.3109-1.9702.95986-2.728l5.59999 5.6c-.77288.638-1.75357.9693-2.75503.9305-1.00147-.0387-1.95365-.4447-2.67496-1.1405zm13.65999 0c-.7593.7262-1.7694 1.1315-2.82 1.1315s-2.0607-.4053-2.82-1.1315l-7.99999-8c-.745-.7494-1.16317-1.76324-1.16317-2.81998 0-1.05675.41817-2.07055 1.16317-2.82.74945-.74501 1.76326-1.16317 2.82-1.16317 1.05675 0 2.07059.41816 2.81999 1.16317l8 7.99998c.745.7495 1.1632 1.7633 1.1632 2.82 0 1.0568-.4182 2.0706-1.1632 2.82zm-5.06-7.54c-.0937.093-.1681.2036-.2189.3254-.0507.1219-.0769.2526-.0769.3846s.0262.2627.0769.3846c.0508.1219.1252.2325.2189.3254.1874.1863.4408.2908.705.2908s.5177-.1045.705-.2908c.0937-.0929.1681-.2035.2189-.3254s.0769-.2526.0769-.3846-.0261-.2627-.0769-.3846c-.0508-.1218-.1252-.2324-.2189-.3254-.1873-.1862-.4408-.2908-.705-.2908s-.5176.1046-.705.2908zm-2.48-2.46998c-.1862.18736-.2908.44081-.2908.705 0 .26418.1046.51768.2908.70498.093.0937.2036.1681.3254.2189.1219.0508.2526.0769.3846.0769s.2627-.0261.3846-.0769.2325-.1252.3254-.2189c.1863-.1873.2908-.4408.2908-.70498 0-.26419-.1045-.51764-.2908-.705-.0929-.09373-.2035-.16813-.3254-.21889-.1219-.05077-.2526-.07691-.3846-.07691s-.2627.02614-.3846.07691c-.1218.05076-.2324.12516-.3254.21889z" fill="#9e9e9e"/></svg>