<svg fill="none" height="24" viewBox="0 0 24 24" width="24" xmlns="http://www.w3.org/2000/svg"><path d="m21.17 2.06c-.7168-.12347-1.4427-.18702-2.17-.19-2.4816-.00204-4.9115.70957-7 2.05-2.09386-1.32283-4.52336-2.01697-7.00001-2-.72735.00298-1.45319.06653-2.17.19-.23479.04048-.44742.16346-.59958.34679-.15217.18334-.23388.41498-.23042.65321v12c-.00214.1469.02813.2925.08865.4264.06053.1339.14982.2529.26153.3483.1117.0955.24308.1652.38478.2041.1417.039.29024.0462.43504.0212 1.43302-.2481 2.9012-.2069 4.31807.1211 1.41686.328 2.75374.9363 3.93194 1.7889l.12.07h.11c.1109.0462.2298.07.35.07.1201 0 .2391-.0238.35-.07h.11l.12-.07c1.17-.8717 2.503-1.4997 3.9201-1.8466 1.4172-.347 2.8896-.406 4.3299-.1734.1448.025.2933.0178.435-.0212.1417-.0389.2731-.1086.3848-.2041.1117-.0954.201-.2144.2615-.3483.0606-.1339.0908-.2795.0887-.4264v-12c-.0104-.22785-.0984-.44529-.2494-.61626-.1509-.17098-.3558-.2852-.5806-.32374zm-10.17 13.29c-1.85012-.9733-3.90949-1.4813-6.00001-1.48h-1v-10c.33306-.0192.66695-.0192 1 0 2.13339-.00236 4.22022.62369 6.00001 1.8zm9-1.44h-1c-2.0905-.0013-4.1499.5067-6 1.48v-9.72c1.7798-1.17631 3.8666-1.80236 6-1.8.333-.0192.6669-.0192 1 0zm1.17 4.15c-.7168-.1235-1.4427-.187-2.17-.19-2.4816-.002-4.9115.7096-7 2.05-2.08849-1.3404-4.51837-2.052-7.00001-2.05-.72735.003-1.45319.0665-2.17.19-.13017.0207-.25497.0668-.36723.1359s-.20977.1596-.2869.2665-.13238.2279-.16256.3562-.03471.2613-.01331.3914c.05082.2597.20249.4886.42179.6367s.48835.2032.74821.1533c1.43302-.2481 2.9012-.2069 4.31807.1211 1.41686.328 2.75374.9363 3.93194 1.7889.1694.1206.3721.1854.58.1854s.4106-.0648.58-.1854c1.1782-.8526 2.5151-1.4609 3.9319-1.7889 1.4169-.328 2.8851-.3692 4.3181-.1211.2599.0499.5289-.0052.7482-.1533s.371-.377.4218-.6367c.0214-.1301.0169-.2631-.0133-.3914s-.0854-.2493-.1626-.3562c-.0771-.1069-.1746-.1974-.2869-.2665-.1122-.0691-.237-.1152-.3672-.1359z" fill="#9e9e9e"/></svg>