<svg fill="none" height="24" viewBox="0 0 24 24" width="24" xmlns="http://www.w3.org/2000/svg"><path d="m20.49 7.51996c-.0057-.02637-.0057-.05364 0-.08-.0048-.02308-.0048-.04692 0-.07v-.09l-.06-.15c-.0244-.04093-.0547-.078-.09-.11l-.09-.08h-.05l-3.94-2.49-3.72-2.3c-.0861-.06827-.1845-.11921-.29-.15h-.08c-.0894-.01492-.1806-.01492-.27 0h-.1c-.1162.02569-.2275.06956-.33.13l-7.46999 4.65-.09.07-.09.08-.1.07-.05.06-.06.15v.15c-.00972.06631-.00972.13369 0 .2v8.73004c-.00034.1699.04263.3371.12487.4859.08223.1487.20101.274.34513.3641l7.49999 4.64.15.06h.08c.1692.0536.3508.0536.52 0h.08l.15-.06 7.44-4.57c.1441-.0901.2629-.2154.3451-.3641.0823-.1488.1252-.316.1249-.4859v-8.73004s.02-.07.02-.11zm-8.49-3.35 1.78 1.1-5.58999 3.46-1.79-1.1zm-1 15.00004-5.49999-3.36v-6.39004l5.49999 3.40004zm1-8.11-1.91-1.15004 5.59-3.47 1.92 1.19zm6.5 4.72-5.5 3.42v-6.38l5.5-3.40004z" fill="#000"/></svg>