<svg fill="none" height="24" viewBox="0 0 24 24" width="24" xmlns="http://www.w3.org/2000/svg"><path d="m10 8h6c.2652 0 .5196-.10536.7071-.29289.1875-.18754.2929-.44189.2929-.70711s-.1054-.51957-.2929-.70711c-.1875-.18753-.4419-.29289-.7071-.29289h-6c-.26522 0-.51957.10536-.70711.29289-.18753.18754-.29289.44189-.29289.70711s.10536.51957.29289.70711c.18754.18753.44189.29289.70711.29289zm-2 4h8c.2652 0 .5196-.1054.7071-.2929s.2929-.4419.2929-.7071-.1054-.5196-.2929-.7071-.4419-.2929-.7071-.2929h-8c-.26522 0-.51957.1054-.70711.2929-.18753.1875-.29289.4419-.29289.7071s.10536.5196.29289.7071c.18754.1875.44189.2929.70711.2929zm0 4h8c.2652 0 .5196-.1054.7071-.2929s.2929-.4419.2929-.7071-.1054-.5196-.2929-.7071-.4419-.2929-.7071-.2929h-8c-.26522 0-.51957.1054-.70711.2929-.18753.1875-.29289.4419-.29289.7071s.10536.5196.29289.7071c.18754.1875.44189.2929.70711.2929zm12-14h-16c-.26522 0-.51957.10536-.70711.29289-.18753.18754-.29289.44189-.29289.70711v18c0 .1857.05171.3678.14935.5257.09763.158.23733.2857.40344.3687.1661.0831.35205.1182.53702.1016.18496-.0167.36162-.0846.51019-.196l2.07-1.55 2.06 1.55c.1731.1298.38363.2.6.2s.4269-.0702.6-.2l2.07-1.55 2.07 1.55c.1731.1298.3836.2.6.2s.4269-.0702.6-.2l2.06-1.55 2.07 1.55c.1493.1113.3267.1786.5122.1945s.3718-.0203.5378-.1045c.1649-.0831.3036-.2102.4007-.3673s.1487-.338.1493-.5227v-18c0-.26522-.1054-.51957-.2929-.70711-.1875-.18753-.4419-.29289-.7071-.29289zm-1 17-1.07-.8c-.1731-.1298-.3836-.2-.6-.2s-.4269.0702-.6.2l-2.06 1.55-2.07-1.55c-.1731-.1298-.3836-.2-.6-.2s-.4269.0702-.6.2l-2.07 1.55-2.06-1.55c-.1731-.1298-.38363-.2-.6-.2s-.4269.0702-.6.2l-1.07.8v-15h14z" fill="#9e9e9e"/></svg>