<svg fill="none" height="24" viewBox="0 0 24 24" width="24" xmlns="http://www.w3.org/2000/svg"><path d="m14 8h1c.2652 0 .5196-.10536.7071-.29289.1875-.18754.2929-.44189.2929-.70711s-.1054-.51957-.2929-.70711c-.1875-.18753-.4419-.29289-.7071-.29289h-1c-.2652 0-.5196.10536-.7071.29289-.1875.18754-.2929.44189-.2929.70711s.1054.51957.2929.70711c.1875.18753.4419.29289.7071.29289zm0 4h1c.2652 0 .5196-.1054.7071-.2929s.2929-.4419.2929-.7071-.1054-.5196-.2929-.7071-.4419-.2929-.7071-.2929h-1c-.2652 0-.5196.1054-.7071.2929s-.2929.4419-.2929.7071.1054.5196.2929.7071.4419.2929.7071.2929zm-5-4h1c.2652 0 .5196-.10536.7071-.29289.1875-.18754.2929-.44189.2929-.70711s-.1054-.51957-.2929-.70711c-.1875-.18753-.4419-.29289-.7071-.29289h-1c-.26522 0-.51957.10536-.70711.29289-.18753.18754-.29289.44189-.29289.70711s.10536.51957.29289.70711c.18754.18753.44189.29289.70711.29289zm0 4h1c.2652 0 .5196-.1054.7071-.2929s.2929-.4419.2929-.7071-.1054-.5196-.2929-.7071-.4419-.2929-.7071-.2929h-1c-.26522 0-.51957.1054-.70711.2929-.18753.1875-.29289.4419-.29289.7071s.10536.5196.29289.7071c.18754.1875.44189.2929.70711.2929zm12 8h-1v-17c0-.26522-.1054-.51957-.2929-.70711-.1875-.18753-.4419-.29289-.7071-.29289h-14c-.26522 0-.51957.10536-.70711.29289-.18753.18754-.29289.44189-.29289.70711v17h-1c-.26522 0-.51957.1054-.70711.2929-.18753.1875-.29289.4419-.29289.7071s.10536.5196.29289.7071c.18754.1875.44189.2929.70711.2929h18c.2652 0 .5196-.1054.7071-.2929s.2929-.4419.2929-.7071-.1054-.5196-.2929-.7071-.4419-.2929-.7071-.2929zm-8 0h-2v-4h2zm5 0h-3v-5c0-.2652-.1054-.5196-.2929-.7071s-.4419-.2929-.7071-.2929h-4c-.26522 0-.51957.1054-.70711.2929-.18753.1875-.29289.4419-.29289.7071v5h-3v-16h12z" fill="#9e9e9e"/></svg>