<svg fill="none" height="24" viewBox="0 0 24 24" width="24" xmlns="http://www.w3.org/2000/svg"><path d="m16 3h-7.99999c-.79565 0-1.55871.31607-2.12132.87868s-.87868 1.32567-.87868 2.12132v14c-.0007.1762.04517.3495.13298.5023.0878.1527.21441.2796.36702.3677.15202.0878.32446.134.5.134.17553 0 .34798-.0462.5-.134l5.49999-3.18 5.5 3.18c.1524.0864.3248.1312.5.13.1752.0012.3476-.0436.5-.13.1526-.0881.2792-.215.367-.3677.0878-.1528.1337-.3261.133-.5023v-14c0-.79565-.3161-1.55871-.8787-2.12132s-1.3256-.87868-2.1213-.87868zm1 15.27-4.5-2.6c-.152-.0878-.3245-.134-.5-.134s-.348.0462-.5.134l-4.49999 2.6v-12.27c0-.26522.10535-.51957.29289-.70711.18754-.18753.44189-.29289.70711-.29289h7.99999c.2652 0 .5196.10536.7071.29289.1876.18754.2929.44189.2929.70711z" fill="#9e9e9e"/></svg>