<svg fill="none" height="24" viewBox="0 0 24 24" width="24" xmlns="http://www.w3.org/2000/svg"><g fill="#9e9e9e"><path d="m8 9h-2c-1.6543 0-3-1.3457-3-3v-3c0-.55225.44775-1 1-1h6c.5522 0 1 .44775 1 1v3c0 1.6543-1.3457 3-3 3zm-3-5v2c0 .55127.44873 1 1 1h2c.55127 0 1-.44873 1-1v-2z"/><path d="m20 22h-6c-.5523 0-1-.4478-1-1v-3c0-1.6543 1.3457-3 3-3h2c1.6543 0 3 1.3457 3 3v3c0 .5522-.4478 1-1 1zm-5-2h4v-2c0-.5513-.4487-1-1-1h-2c-.5513 0-1 .4487-1 1z"/><path d="m17 16c-.5522 0-1-.4478-1-1v-1c0-.5513-.4487-1-1-1h-6c-1.6543 0-3-1.3457-3-3v-2c0-.55225.44775-1 1-1s1 .44775 1 1v2c0 .5513.44873 1 1 1h6c1.6543 0 3 1.3457 3 3v1c0 .5522-.4478 1-1 1z"/></g></svg>