<svg fill="none" height="17" viewBox="0 0 17 17" width="17" xmlns="http://www.w3.org/2000/svg"><g fill="#1265b6"><path d="m8.77837 13.0446-2.41881 2.417c-.64375.6433-1.49966.9976-2.41005.9976s-1.76634-.3543-2.41005-.9976c-1.328914-1.3279-1.328914-3.4886 0-4.8166l4.5536-4.5503c.64374-.64329 1.49965-.99755 2.41004-.99755.9104 0 1.7663.35426 2.4101.99755.3755.37527.6582.8338.8244 1.33356l-2.15503 2.15348c-.28996.28975-.6755.44936-1.08555.44936s-.79562-.15961-1.08558-.44936c-.14627-.1462-.25948-.31671-.33652-.5069-.05626-.13892-.21455-.20592-.35357-.1497-.13903.05622-.20608.21443-.14982.35332.10452.25798.25792.48912.45592.68698.39257.39226.91449.60826 1.46961.60826s1.07704-.216 1.46957-.60826l4.55357-4.55028c.3925-.39224.6087-.91379.6087-1.46851s-.2162-1.07627-.6087-1.46851c-.3926-.39225-.9145-.60827-1.4696-.60827s-1.0771.21602-1.4696.60827l-1.4378 1.43674c-.106.10597-.106.27778 0 .38371.1061.10597.278.10597.384 0l1.4378-1.43675c.29-.28975.6755-.44933 1.0855-.44933.4101 0 .7957.15958 1.0856.4493.29.28979.4497.67501.4497 1.0848s-.1597.79502-.4497 1.08481l-1.9764 1.97493c-.1979-.48204-.491-.92399-.8626-1.29536-1.54068-1.53957-4.0475-1.53957-5.58813 0l-4.55349 4.55031c-1.540639 1.5395-1.540639 4.0445 0 5.5841.77032.7698 1.78219 1.1547 2.79403 1.1547 1.01187 0 2.02375-.3849 2.79407-1.1547l2.4188-2.4171c.10605-.1059.10605-.2778 0-.3837-.10604-.106-.27797-.106-.38401 0z"/><path d="m15.8445 1.15466c-1.5407-1.539565-4.0475-1.539529-5.5881 0l-2.42183 2.42011c-.10604.10596-.10604.27778 0 .38371.10604.10596.27798.10596.38398 0l2.42185-2.42011c1.329-1.327962 3.4912-1.327962 4.8201 0 1.3289 1.32796 1.3289 3.48867 0 4.81663l-4.5536 4.5503c-.6437.6433-1.49965.9976-2.41005.9976-.91039 0-1.7663-.3543-2.41004-.9976-.37562-.3753-.65823-.8337-.82445-1.33355l2.15499-2.15344c.28996-.28975.6755-.44933 1.08555-.44933s.79559.15958 1.08559.44933c.1463.14616.25951.31667.33655.50686.05626.13892.21466.20589.35356.1497.139-.05622.2061-.21443.1498-.35331-.1045-.25799-.2579-.48913-.45593-.68699-.39257-.39225-.91445-.60827-1.46957-.60827s-1.07704.21602-1.46957.60827l-2.21968 2.21809c-.03994.02358-.07249.05654-.09537.09529l-2.23851 2.23695c-.39256.3922-.60874.9137-.60874 1.4685 0 .5547.21618 1.0762.60874 1.4685.39253.3922.91441.6082 1.46953.6082s1.07705-.216 1.46957-.6082l1.43568-1.4347c.10605-.1059.10605-.2778 0-.3837-.10604-.1059-.27797-.1059-.38398 0l-1.43568 1.4347c-.28996.2897-.6755.4493-1.08559.4493-.41008 0-.79559-.1596-1.08555-.4493-.28996-.2898-.44965-.675-.44965-1.0848s.15969-.795.44965-1.0848l1.97632-1.9749c.1979.482.49097.9239.86268 1.2954.74632.7457 1.7386 1.1565 2.79403 1.1565 1.05547 0 2.04772-.4108 2.79402-1.1565l4.5536-4.55036c1.5407-1.53957 1.5407-4.04455.0001-5.58408z"/></g></svg>