<svg fill="none" height="24" viewBox="0 0 24 24" width="24" xmlns="http://www.w3.org/2000/svg"><g fill="#9e9e9e"><path d="m14.2899 13.2941-3.29 3.3-1.28996-1.3c-.1883-.1883-.4437-.2941-.71-.2941s-.5217.1058-.71.2941-.29409.4437-.29409.71.10579.5217.29409.71l1.99996 2c.093.0937.2036.1681.3255.2189.1218.0508.2525.0769.3845.0769.1321 0 .2628-.0261.3846-.0769.1219-.0508.2325-.1252.3254-.2189l4-4c.1883-.1883.2941-.4437.2941-.71s-.1058-.5217-.2941-.71-.4437-.2941-.71-.2941-.5217.1058-.71.2941z"/><path clip-rule="evenodd" d="m18 3h1c.7956 0 1.5587.31607 2.1213.87868s.8787 1.32567.8787 2.12132v14c0 .7956-.3161 1.5587-.8787 2.1213s-1.3257.8787-2.1213.8787h-14c-.79565 0-1.55871-.3161-2.12132-.8787s-.87868-1.3257-.87868-2.1213v-14c0-.79565.31607-1.55871.87868-2.12132s1.32567-.87868 2.12132-.87868h1v-1c0-.26522.10536-.51957.29289-.70711.18754-.18753.44189-.29289.70711-.29289s.51957.10536.70711.29289c.18753.18754.29289.44189.29289.70711v1h8v-1c0-.26522.1054-.51957.2929-.70711.1875-.18753.4419-.29289.7071-.29289s.5196.10536.7071.29289c.1875.18754.2929.44189.2929.70711zm1.7071 17.7071c.1875-.1875.2929-.4419.2929-.7071v-9h-16v9c0 .2652.10536.5196.29289.7071.18754.1875.44189.2929.70711.2929h14c.2652 0 .5196-.1054.7071-.2929zm-15.7071-11.7071h16v-3c0-.26522-.1054-.51957-.2929-.70711-.1875-.18753-.4419-.29289-.7071-.29289h-1v1c0 .26522-.1054.51957-.2929.70711-.1875.18753-.4419.29289-.7071.29289s-.5196-.10536-.7071-.29289c-.1875-.18754-.2929-.44189-.2929-.70711v-1h-8v1c0 .26522-.10536.51957-.29289.70711-.18754.18753-.44189.29289-.70711.29289s-.51957-.10536-.70711-.29289c-.18753-.18754-.29289-.44189-.29289-.70711v-1h-1c-.26522 0-.51957.10536-.70711.29289-.18753.18754-.29289.44189-.29289.70711z" fill-rule="evenodd"/></g></svg>