<svg fill="none" height="24" viewBox="0 0 24 24" width="24" xmlns="http://www.w3.org/2000/svg"><path d="m19.44 13c-.22 0-.45-.07-.67-.12-.4455-.0982-.8833-.2285-1.31-.39-.4639-.1688-.9739-.16-1.4317.0246s-.8312.532-1.0483.9754l-.22.45c-.974-.5418-1.869-1.2148-2.66-2-.7852-.791-1.4582-1.686-2-2.66001l.42-.28c.4434-.21708.7908-.59047.9754-1.04831s.1934-.96778.0246-1.43169c-.1588-.42758-.2891-.8652-.39-1.31-.05-.22-.09-.45-.12-.68-.1214-.70438-.4904-1.34226-1.04038-1.79876-.55001-.4565-1.24493-.70163-1.95963-.69124h-3c-.43096-.00405-.85775.08481-1.25129.26053s-.7446.43417-1.02928.75775c-.28468.32359-.49629.70471-.62044 1.11743-.12414.41272-.15791.84735-.09899 1.27429.53274 4.18938 2.44603 8.08191 5.43766 11.06261 2.99165 2.9808 6.89105 4.8799 11.08235 5.3974h.38c.7374.0011 1.4494-.2695 2-.76.3164-.283.5691-.6298.7415-1.0177.1723-.3879.2605-.8079.2585-1.2323v-3c-.0123-.6946-.2652-1.3635-.7157-1.8923-.4504-.5289-1.0705-.8851-1.7543-1.0077zm.5 6c-.0002.142-.0306.2823-.0892.4116s-.1441.2447-.2508.3384c-.1114.097-.242.1694-.3833.2125s-.2901.0558-.4367.0375c-3.7451-.4802-7.2238-2.1935-9.88729-4.8697-2.66352-2.6762-4.36031-6.16297-4.82272-9.91031-.01591-.14648-.00196-.29467.04101-.43561s.11406-.2717.20899-.38439c.09371-.10667.20907-.19216.33838-.25078.12932-.05863.26964-.08904.41162-.08922h3c.23255-.00517.45963.07088.64215.21507s.30906.3475.35785.57493c.04.27333.09.54333.15.81.11552.52714.26926 1.04518.46 1.55l-1.4.65c-.1197.05492-.22737.13295-.31684.2296-.08946.09664-.15896.21001-.20448.33359-.04553.12359-.0662.25494-.06083.38653.00538.13159.03669.26083.09215.38028 1.4392 3.08271 3.91721 5.56081 7.00001 7.00001.2435.1.5165.1.76 0 .1247-.0446.2393-.1136.3372-.2028.0978-.0893.177-.1971.2328-.3172l.62-1.4c.517.1849 1.0446.3385 1.58.46.2667.06.5367.11.81.15.2274.0488.4307.1753.5749.3578.1442.1826.2203.4096.2151.6422z" fill="#9e9e9e"/></svg>