<?xml version="1.0" standalone="yes"?>
<svg width="50" height="50">
<path style="fill:#ffffff; stroke:none;" d="M0 0L0 50L50 50L50 0L0 0z"/>
<path style="fill:#4f4f4f; stroke:none;" d="M18.6667 2.33333L19.3333 2.66667L18.6667 2.33333z"/>
<path style="fill:#b5b5b5; stroke:none;" d="M20.6667 2.33333L21.3333 2.66667L20.6667 2.33333z"/>
<path style="fill:#8b8b8b; stroke:none;" d="M28 2L28 3L31 3L28 2z"/>
<path style="fill:#0f0f0f; stroke:none;" d="M31 2L32 3L31 2z"/>
<path style="fill:#5a5a5a; stroke:none;" d="M15.6667 3.33333L16.3333 3.66667L15.6667 3.33333z"/>
<path style="fill:#060606; stroke:none;" d="M33.6667 3.33333L34.3333 3.66667L33.6667 3.33333z"/>
<path style="fill:#080808; stroke:none;" d="M13 4L14 5L13 4z"/>
<path style="fill:#717171; stroke:none;" d="M14 4L15 5L14 4z"/>
<path style="fill:#6f6f6f; stroke:none;" d="M35 4L36 5L35 4z"/>
<path style="fill:#070707; stroke:none;" d="M36 4L37 5L36 4z"/>
<path style="fill:#484848; stroke:none;" d="M12 5L13 6L12 5z"/>
<path style="fill:#464646; stroke:none;" d="M37 5L38 6L37 5z"/>
<path style="fill:#060606; stroke:none;" d="M10 6L11 7L10 6z"/>
<path style="fill:#919191; stroke:none;" d="M11 6L12 7L11 6z"/>
<path style="fill:#a2a2a2; stroke:none;" d="M38 6L39 7L38 6z"/>
<path style="fill:#080808; stroke:none;" d="M39 6L40 7L39 6z"/>
<path style="fill:#161616; stroke:none;" d="M9 7L10 8L9 7z"/>
<path style="fill:#151515; stroke:none;" d="M40 7L41 8L40 7z"/>
<path style="fill:#1f1f1f; stroke:none;" d="M8 8L9 9L8 8z"/>
<path style="fill:#757575; stroke:none;" d="M23 8L24 9L23 8z"/>
<path style="fill:#191919; stroke:none;" d="M24.6667 8.33333L25.3333 8.66667L24.6667 8.33333z"/>
<path style="fill:#767676; stroke:none;" d="M26 8L28 10L26 8z"/>
<path style="fill:#1f1f1f; stroke:none;" d="M41 8L42 9L41 8z"/>
<path style="fill:#161616; stroke:none;" d="M7 9L8 10L7 9z"/>
<path style="fill:#767676; stroke:none;" d="M22 9L23 10L22 9z"/>
<path style="fill:#ffffff; stroke:none;" d="M23 9L23 13L27 13L27 9L23 9z"/>
<path style="fill:#151515; stroke:none;" d="M42 9L43 10L42 9z"/>
<path style="fill:#070707; stroke:none;" d="M6 10L7 11L6 10z"/>
<path style="fill:#191919; stroke:none;" d="M22.3333 10.6667L22.6667 11.3333L22.3333 10.6667z"/>
<path style="fill:#1a1a1a; stroke:none;" d="M27.3333 10.6667L27.6667 11.3333L27.3333 10.6667z"/>
<path style="fill:#060606; stroke:none;" d="M43 10L44 11L43 10z"/>
<path style="fill:#979797; stroke:none;" d="M6 11L7 12L6 11z"/>
<path style="fill:#939393; stroke:none;" d="M43 11L44 12L43 11z"/>
<path style="fill:#484848; stroke:none;" d="M5 12L6 13L5 12z"/>
<path style="fill:#767676; stroke:none;" d="M22 12L23 13L22 12z"/>
<path style="fill:#777777; stroke:none;" d="M27 12L28 13L27 12z"/>
<path style="fill:#454545; stroke:none;" d="M44 12L45 13L44 12z"/>
<path style="fill:#080808; stroke:none;" d="M4 13L5 14L4 13z"/>
<path style="fill:#767676; stroke:none;" d="M23 13L24 14L23 13z"/>
<path style="fill:#191919; stroke:none;" d="M24.6667 13.3333L25.3333 13.6667L24.6667 13.3333z"/>
<path style="fill:#767676; stroke:none;" d="M26 13L27 14L26 13z"/>
<path style="fill:#060606; stroke:none;" d="M45 13L46 14L45 13z"/>
<path style="fill:#717171; stroke:none;" d="M4 14L5 15L4 14z"/>
<path style="fill:#6e6e6e; stroke:none;" d="M45 14L46 15L45 14z"/>
<path style="fill:#5a5a5a; stroke:none;" d="M3.33333 15.6667L3.66667 16.3333L3.33333 15.6667z"/>
<path style="fill:#868686; stroke:none;" d="M12.6667 15.3333L13.3333 15.6667L12.6667 15.3333z"/>
<path style="fill:#8e8e8e; stroke:none;" d="M36.6667 15.3333L37.3333 15.6667L36.6667 15.3333z"/>
<path style="fill:#585858; stroke:none;" d="M46.3333 15.6667L46.6667 16.3333L46.3333 15.6667z"/>
<path style="fill:#888888; stroke:none;" d="M11.3333 16.6667L11.6667 17.3333L11.3333 16.6667z"/>
<path style="fill:#7e7e7e; stroke:none;" d="M15.6667 16.3333L16.3333 16.6667L15.6667 16.3333z"/>
<path style="fill:#292929; stroke:none;" d="M33.6667 16.3333L34.3333 16.6667L33.6667 16.3333z"/>
<path style="fill:#8a8a8a; stroke:none;" d="M38.3333 16.6667L38.6667 17.3333L38.3333 16.6667z"/>
<path style="fill:#7e7e7e; stroke:none;" d="M18.6667 17.3333L19.3333 17.6667L18.6667 17.3333z"/>
<path style="fill:#292929; stroke:none;" d="M30.6667 17.3333L31.3333 17.6667L30.6667 17.3333z"/>
<path style="fill:#4f4f4f; stroke:none;" d="M2.33333 18.6667L2.66667 19.3333L2.33333 18.6667z"/>
<path style="fill:#7d7d7d; stroke:none;" d="M12 18L13 19L12 18z"/>
<path style="fill:#1d1d1d; stroke:none;" d="M13 18L14 19L13 18M36 18L37 19L36 18z"/>
<path style="fill:#7e7e7e; stroke:none;" d="M37 18L38 19L37 18z"/>
<path style="fill:#4b4b4b; stroke:none;" d="M47.3333 18.6667L47.6667 19.3333L47.3333 18.6667z"/>
<path style="fill:#6e6e6e; stroke:none;" d="M15 19L16 20L15 19z"/>
<path style="fill:#141414; stroke:none;" d="M16 19L17 20L16 19z"/>
<path style="fill:#5d5d5d; stroke:none;" d="M33.6667 19.3333L34.3333 19.6667L33.6667 19.3333z"/>
<path style="fill:#b4b4b4; stroke:none;" d="M2.33333 20.6667L2.66667 21.3333L2.33333 20.6667z"/>
<path style="fill:#070707; stroke:none;" d="M18.6667 20.3333L19.3333 20.6667L18.6667 20.3333z"/>
<path style="fill:#545454; stroke:none;" d="M30.6667 20.3333L31.3333 20.6667L30.6667 20.3333z"/>
<path style="fill:#b3b3b3; stroke:none;" d="M47.3333 20.6667L47.6667 21.3333L47.3333 20.6667z"/>
<path style="fill:#9e9e9e; stroke:none;" d="M20 21L21 22L20 21z"/>
<path style="fill:#8b8b8b; stroke:none;" d="M2 28L2 31L3 31L2 28z"/>
<path style="fill:#898989; stroke:none;" d="M47 28L47 31L48 31L47 28z"/>
<path style="fill:#292929; stroke:none;" d="M24.6667 29.3333L25.3333 29.6667L24.6667 29.3333z"/>
<path style="fill:#5f5f5f; stroke:none;" d="M20 30L20 33L21 33L20 30z"/>
<path style="fill:#7e7e7e; stroke:none;" d="M24.6667 30.3333L25.3333 30.6667L24.6667 30.3333z"/>
<path style="fill:#5f5f5f; stroke:none;" d="M29 30L29 33L30 33L29 30z"/>
<path style="fill:#0f0f0f; stroke:none;" d="M2 31L3 32L2 31z"/>
<path style="fill:#0d0d0d; stroke:none;" d="M47 31L48 32L47 31z"/>
<path style="fill:#808080; stroke:none;" d="M23.3333 32.6667L23.6667 33.3333L23.3333 32.6667z"/>
<path style="fill:#7e7e7e; stroke:none;" d="M26.3333 32.6667L26.6667 33.3333L26.3333 32.6667z"/>
<path style="fill:#060606; stroke:none;" d="M3.33333 33.6667L3.66667 34.3333L3.33333 33.6667z"/>
<path style="fill:#050505; stroke:none;" d="M46.3333 33.6667L46.6667 34.3333L46.3333 33.6667z"/>
<path style="fill:#5e5e5e; stroke:none;" d="M19 34L19 37L20 37L19 34M30 34L30 37L31 37L30 34z"/>
<path style="fill:#6f6f6f; stroke:none;" d="M4 35L5 36L4 35z"/>
<path style="fill:#2a2a2a; stroke:none;" d="M22 35L23 36L22 35z"/>
<path style="fill:#292929; stroke:none;" d="M27 35L28 36L27 35z"/>
<path style="fill:#6c6c6c; stroke:none;" d="M45 35L46 36L45 35z"/>
<path style="fill:#060606; stroke:none;" d="M4 36L5 37L4 36M45 36L46 37L45 36z"/>
<path style="fill:#464646; stroke:none;" d="M5 37L6 38L5 37z"/>
<path style="fill:#434343; stroke:none;" d="M44 37L45 38L44 37z"/>
<path style="fill:#949494; stroke:none;" d="M6 38L7 39L6 38z"/>
<path style="fill:#767676; stroke:none;" d="M18.3333 38.6667L18.6667 39.3333L18.3333 38.6667z"/>
<path style="fill:#808080; stroke:none;" d="M21.3333 38.6667L21.6667 39.3333L21.3333 38.6667z"/>
<path style="fill:#2a2a2a; stroke:none;" d="M28 38L29 39L28 38z"/>
<path style="fill:#777777; stroke:none;" d="M31.3333 38.6667L31.6667 39.3333L31.3333 38.6667z"/>
<path style="fill:#909090; stroke:none;" d="M43 38L44 39L43 38z"/>
<path style="fill:#060606; stroke:none;" d="M6 39L7 40L6 39z"/>
<path style="fill:#808080; stroke:none;" d="M28 39L29 40L28 39z"/>
<path style="fill:#050505; stroke:none;" d="M43 39L44 40L43 39z"/>
<path style="fill:#151515; stroke:none;" d="M7 40L8 41L7 40z"/>
<path style="fill:#353535; stroke:none;" d="M19.6667 40.3333L20.3333 40.6667L19.6667 40.3333z"/>
<path style="fill:#1d1d1d; stroke:none;" d="M29.6667 40.3333L30.3333 40.6667L29.6667 40.3333z"/>
<path style="fill:#141414; stroke:none;" d="M42 40L43 41L42 40z"/>
<path style="fill:#1f1f1f; stroke:none;" d="M8 41L9 42L8 41z"/>
<path style="fill:#1e1e1e; stroke:none;" d="M41 41L42 42L41 41z"/>
<path style="fill:#151515; stroke:none;" d="M9 42L10 43L9 42z"/>
<path style="fill:#141414; stroke:none;" d="M40 42L41 43L40 42z"/>
<path style="fill:#060606; stroke:none;" d="M10 43L11 44L10 43z"/>
<path style="fill:#919191; stroke:none;" d="M11 43L12 44L11 43z"/>
<path style="fill:#999999; stroke:none;" d="M38 43L39 44L38 43z"/>
<path style="fill:#060606; stroke:none;" d="M39 43L40 44L39 43z"/>
<path style="fill:#454545; stroke:none;" d="M12 44L13 45L12 44z"/>
<path style="fill:#434343; stroke:none;" d="M37 44L38 45L37 44z"/>
<path style="fill:#060606; stroke:none;" d="M13 45L14 46L13 45z"/>
<path style="fill:#6e6e6e; stroke:none;" d="M14 45L15 46L14 45z"/>
<path style="fill:#6c6c6c; stroke:none;" d="M35 45L36 46L35 45z"/>
<path style="fill:#060606; stroke:none;" d="M36 45L37 46L36 45z"/>
<path style="fill:#585858; stroke:none;" d="M15.6667 46.3333L16.3333 46.6667L15.6667 46.3333z"/>
<path style="fill:#050505; stroke:none;" d="M33.6667 46.3333L34.3333 46.6667L33.6667 46.3333z"/>
<path style="fill:#4c4c4c; stroke:none;" d="M18.6667 47.3333L19.3333 47.6667L18.6667 47.3333z"/>
<path style="fill:#b3b3b3; stroke:none;" d="M20.6667 47.3333L21.3333 47.6667L20.6667 47.3333z"/>
<path style="fill:#898989; stroke:none;" d="M28 47L28 48L31 48L28 47z"/>
<path style="fill:#0c0c0c; stroke:none;" d="M31 47L32 48L31 47z"/>
</svg>
