<svg fill="none" height="24" viewBox="0 0 24 24" width="24" xmlns="http://www.w3.org/2000/svg" xmlns:xlink="http://www.w3.org/1999/xlink"><linearGradient id="a" gradientUnits="userSpaceOnUse" x1="2.90667" x2="19.1482" y1="2" y2="20.8742"><stop offset="0" stop-color="#00a3ff"/><stop offset="1" stop-color="#0033e7"/></linearGradient><path d="m17 2h-10c-1.32608 0-2.59785.52678-3.53553 1.46447-.93769.93768-1.46447 2.20945-1.46447 3.53553v10c0 1.3261.52678 2.5979 1.46447 3.5355.93768.9377 2.20945 1.4645 3.53553 1.4645h10c1.3261 0 2.5979-.5268 3.5355-1.4645.9377-.9376 1.4645-2.2094 1.4645-3.5355v-10c0-1.32608-.5268-2.59785-1.4645-3.53553-.9376-.93769-2.2094-1.46447-3.5355-1.46447z" fill="url(#a)"/><path d="m15.2628 8.32428c.3732-.40712 1.0058-.43462 1.4129-.06143s.4346 1.00576.0614 1.41288l-5.5 5.99997c-.409.4463-1.1177.4296-1.50533-.0355l-2.5-3c-.35356-.4243-.29624-1.0549.12804-1.4084.42428-.3536 1.05484-.2963 1.40841.128l1.76768 2.1212z" fill="#fff"/></svg>