<svg fill="none" height="24" viewBox="0 0 24 24" width="24" xmlns="http://www.w3.org/2000/svg"><path d="m7.99999 11c-.19778 0-.39112.0586-.55557.1685s-.29262.2661-.36831.4488-.09549.3838-.05691.5778c.03859.194.13383.3722.27368.512.13985.1399.31804.2351.51202.2737s.39505.0188.57777-.0569c.18273-.0757.33891-.2039.44879-.3683.10988-.1645.16853-.3578.16853-.5556 0-.2652-.10536-.5196-.2929-.7071-.18753-.1875-.44189-.2929-.7071-.2929zm4.00001 0c-.1978 0-.3911.0586-.5556.1685-.1644.1099-.2926.2661-.3683.4488s-.0955.3838-.0569.5778.1338.3722.2737.512c.1398.1399.318.2351.512.2737s.395.0188.5778-.0569c.1827-.0757.3389-.2039.4488-.3683.1098-.1645.1685-.3578.1685-.5556 0-.2652-.1054-.5196-.2929-.7071s-.4419-.2929-.7071-.2929zm4 0c-.1978 0-.3911.0586-.5556.1685-.1644.1099-.2926.2661-.3683.4488s-.0955.3838-.0569.5778.1338.3722.2737.512c.1398.1399.318.2351.512.2737s.395.0188.5778-.0569c.1827-.0757.3389-.2039.4488-.3683.1098-.1645.1685-.3578.1685-.5556 0-.2652-.1054-.5196-.2929-.7071s-.4419-.2929-.7071-.2929zm-4-9c-1.3132 0-2.61359.25866-3.82685.7612-1.21325.50255-2.31564 1.23915-3.24423 2.16773-1.87536 1.87537-2.92893 4.41891-2.92893 7.07107-.00874 2.3091.79079 4.5485 2.26 6.33l-2 2c-.13876.1406-.23276.3192-.27013.5132s-.01645.3947.06013.5768c.08306.1799.2177.3311.38684.4344.16915.1033.36516.1539.56316.1456h9.00001c2.6522 0 5.1957-1.0536 7.0711-2.9289 1.8753-1.8754 2.9289-4.4189 2.9289-7.0711 0-2.65216-1.0536-5.1957-2.9289-7.07107-1.8754-1.87536-4.4189-2.92893-7.0711-2.92893zm0 18h-6.59001l.93-.93c.09449-.0926.16966-.2031.22115-.3249.0515-.1219.0783-.2528.07885-.3851-.00376-.2638-.11159-.5154-.3-.7-1.30942-1.308-2.12483-3.0295-2.30731-4.8712-.18248-1.8418.27925-3.68979 1.30654-5.22928 1.02728-1.53948 2.55656-2.67516 4.32728-3.21355 1.7707-.53838 3.6733-.44617 5.3837.26094s3.1226 1.98536 3.9962 3.61698 1.1545 3.51561.7947 5.33111c-.3597 1.8155-1.3378 3.45-2.7676 4.6252-1.4297 1.1752-3.2227 1.8183-5.0735 1.8198z" fill="#9e9e9e"/></svg>