<svg fill="none" height="24" viewBox="0 0 24 24" width="24" xmlns="http://www.w3.org/2000/svg"><path d="m12 11c-.2652 0-.5196.1054-.7071.2929-.1876.1875-.2929.4419-.2929.7071v3c0 .2652.1053.5196.2929.7071.1875.1875.4419.2929.7071.2929s.5196-.1054.7071-.2929.2929-.4419.2929-.7071v-3c0-.2652-.1054-.5196-.2929-.7071s-.4419-.2929-.7071-.2929zm0-3c-.1978 0-.3911.05865-.5556.16853-.1644.10988-.2926.26606-.3683.44879-.0757.18272-.0955.38379-.0569.57777s.1338.37216.2737.51202c.1398.13985.318.23509.512.27368.194.03861.395.01878.5778-.05691.1827-.07569.3389-.20386.4488-.36831.1098-.16445.1685-.35779.1685-.55557 0-.26522-.1054-.51957-.2929-.70711-.1875-.18753-.4419-.29289-.7071-.29289zm0-6c-1.3132 0-2.61359.25866-3.82685.7612-1.21325.50255-2.31564 1.23915-3.24423 2.16773-1.87536 1.87537-2.92893 4.41891-2.92893 7.07107-.00874 2.3091.79079 4.5485 2.26 6.33l-2 2c-.13876.1406-.23276.3192-.27013.5132s-.01645.3947.06013.5768c.08306.1799.2177.3311.38684.4344.16915.1033.36516.1539.56316.1456h9.00001c2.6522 0 5.1957-1.0536 7.0711-2.9289 1.8753-1.8754 2.9289-4.4189 2.9289-7.0711 0-2.65216-1.0536-5.1957-2.9289-7.07107-1.8754-1.87536-4.4189-2.92893-7.0711-2.92893zm0 18h-6.59001l.93-.93c.09449-.0926.16966-.2031.22115-.3249.0515-.1219.0783-.2528.07885-.3851-.00376-.2638-.11159-.5154-.3-.7-1.30942-1.308-2.12483-3.0295-2.30731-4.8712-.18248-1.8418.27925-3.68979 1.30654-5.22928 1.02728-1.53948 2.55656-2.67516 4.32728-3.21355 1.7707-.53838 3.6733-.44617 5.3837.26094s3.1226 1.98536 3.9962 3.61698 1.1545 3.51561.7947 5.33111c-.3597 1.8155-1.3378 3.45-2.7676 4.6252-1.4297 1.1752-3.2227 1.8183-5.0735 1.8198z" fill="#9e9e9e"/></svg>