<svg width="24" height="24" viewBox="0 0 24 24" fill="none" xmlns="http://www.w3.org/2000/svg">
<path d="M17 2H7C5.67392 2 4.40215 2.52678 3.46447 3.46447C2.52678 4.40215 2 5.67392 2 7V17C2 18.3261 2.52678 19.5979 3.46447 20.5355C4.40215 21.4732 5.67392 22 7 22H17C18.3261 22 19.5979 21.4732 20.5355 20.5355C21.4732 19.5979 22 18.3261 22 17V7C22 5.67392 21.4732 4.40215 20.5355 3.46447C19.5979 2.52678 18.3261 2 17 2Z" fill="white"/>
<path d="M15.2629 8.32428C15.6361 7.91716 16.2686 7.88966 16.6757 8.26285C17.0829 8.63604 17.1104 9.26861 16.7372 9.67573L11.2372 15.6757C10.8281 16.122 10.1194 16.1053 9.7318 15.6402L7.2318 12.6402C6.87824 12.2159 6.93556 11.5853 7.35984 11.2318C7.78412 10.8782 8.41468 10.9355 8.76825 11.3598L10.5359 13.481L15.2629 8.32428Z" fill="#0033E7"/>
</svg>
