<svg fill="none" height="24" viewBox="0 0 24 24" width="24" xmlns="http://www.w3.org/2000/svg"><g fill="#9e9e9e"><path d="m10 11h-6c-.55225 0-1-.4478-1-1v-6c0-.55225.44775-1 1-1h6c.5522 0 1 .44775 1 1v6c0 .5522-.4478 1-1 1zm-5-2h4v-4h-4z"/><path d="m20 21h-4c-.5523 0-1-.4478-1-1v-4c0-.5523.4477-1 1-1h4c.5522 0 1 .4477 1 1v4c0 .5522-.4478 1-1 1zm-3-2h2v-2h-2z"/><path d="m19 11h-4c-.5523 0-1-.4478-1-1v-4c0-.55225.4477-1 1-1h4c.5522 0 1 .44775 1 1v4c0 .5522-.4478 1-1 1zm-3-2h2v-2h-2z"/><path d="m10 20h-4c-.55225 0-1-.4478-1-1v-4c0-.5523.44775-1 1-1h4c.5522 0 1 .4477 1 1v4c0 .5522-.4478 1-1 1zm-3-2h2v-2h-2z"/><path d="m16 17c-.2559 0-.5117-.0977-.707-.293l-6.00003-6c-.39063-.3906-.39063-1.02341 0-1.41403s1.02343-.39063 1.41403 0l6 6.00003c.3907.3906.3907 1.0234 0 1.414-.1953.1953-.4511.293-.707.293z"/><path d="m10 16c-.25586 0-.51172-.0977-.70703-.293-.39063-.3906-.39063-1.0234 0-1.414l5.00003-5.00003c.3906-.39063 1.0234-.39063 1.414 0 .3907.39063.3907 1.02343 0 1.41403l-5 5c-.1953.1953-.4511.293-.707.293z"/></g></svg>