<svg fill="none" height="24" viewBox="0 0 24 24" width="24" xmlns="http://www.w3.org/2000/svg"><g fill="#9e9e9e"><path d="m20 2h-16c-.26522 0-.51957.10536-.70711.29289-.18753.18754-.29289.44189-.29289.70711v18c0 .1857.05171.3678.14935.5257.09763.158.23733.2857.40344.3687.1661.0831.35205.1182.53702.1016.18496-.0167.36162-.0846.51019-.196l2.07-1.55 2.06 1.55c.1731.1298.38363.2.6.2s.4269-.0702.6-.2l2.07-1.55 2.07 1.55c.1731.1298.3836.2.6.2s.4269-.0702.6-.2l2.06-1.55 2.07 1.55c.1493.1113.3267.1786.5122.1945s.3718-.0203.5378-.1045c.1649-.0831.3036-.2102.4007-.3673s.1487-.338.1493-.5227v-18c0-.26522-.1054-.51957-.2929-.70711-.1875-.18753-.4419-.29289-.7071-.29289zm-1 17-1.07-.8c-.1731-.1298-.3836-.2-.6-.2s-.4269.0702-.6.2l-2.06 1.55-2.07-1.55c-.1731-.1298-.3836-.2-.6-.2s-.4269.0702-.6.2l-2.07 1.55-2.06-1.55c-.1731-.1298-.38363-.2-.6-.2s-.4269.0702-.6.2l-1.07.8v-15h14z"/><path clip-rule="evenodd" d="m15.5355 7.46446c.3906.39053.3906 1.02369 0 1.41422l-2.1213 2.12132 2.1213 2.1213c.3906.3905.3906 1.0237 0 1.4142-.3905.3906-1.0237.3906-1.4142 0l-2.1213-2.1213-2.12132 2.1213c-.39053.3906-1.02369.3906-1.41422 0-.39052-.3905-.39052-1.0237 0-1.4142l2.12134-2.1213-2.12134-2.12132c-.39052-.39053-.39052-1.02369 0-1.41422.39053-.39052 1.02369-.39052 1.41422 0l2.12132 2.12132 2.1213-2.12132c.3905-.39052 1.0237-.39052 1.4142 0z" fill-rule="evenodd"/></g></svg>