<svg fill="none" height="24" viewBox="0 0 24 24" width="24" xmlns="http://www.w3.org/2000/svg"><path d="m21.71 9.29-4-4c-.0932-.09324-.2039-.1672-.3257-.21766-.1219-.05046-.2524-.07643-.3843-.07643-.2663 0-.5217.10579-.71.29409-.1883.18831-.2941.4437-.2941.71s.1058.5217.2941.71l2.3 2.29h-11.58998c-.26522 0-.51957.10536-.70711.2929-.18754.18753-.29289.44189-.29289.7071 0 .2652.10535.5196.29289.7071s.44189.2929.70711.2929h13.99998c.1974-.001.3902-.0604.5539-.1707.1637-.1104.2911-.2667.3661-.4493.0766-.1821.0975-.38282.0601-.57681-.0373-.19399-.1313-.37256-.2701-.51319zm-4.71 3.71h-13.99998c-.19743.001-.39014.0604-.55386.1707-.16372.1104-.29112.2667-.36614.4493-.07658.1821-.0975.3828-.06013.5768s.13137.3726.27013.5132l4 4c.09296.0937.20356.1681.32542.2189s.25257.0769.38458.0769.26272-.0261.38457-.0769c.12186-.0508.23246-.1252.32543-.2189.09373-.093.16812-.2036.21889-.3254.05077-.1219.07691-.2526.07691-.3846s-.02614-.2627-.07691-.3846c-.05077-.1218-.12516-.2324-.21889-.3254l-2.3-2.29h11.58998c.2652 0 .5196-.1054.7071-.2929.1876-.1875.2929-.4419.2929-.7071s-.1053-.5196-.2929-.7071c-.1875-.1875-.4419-.2929-.7071-.2929z" fill="#9e9e9e"/></svg>