<svg fill="none" height="24" viewBox="0 0 24 24" width="24" xmlns="http://www.w3.org/2000/svg"><path d="m8 6h3c.2652 0 .5196-.10536.7071-.29289.1875-.18754.2929-.44189.2929-.70711s-.1054-.51957-.2929-.70711c-.1875-.18753-.4419-.29289-.7071-.29289h-3c-.26522 0-.51957.10536-.70711.29289-.18753.18754-.29289.44189-.29289.70711s.10536.51957.29289.70711c.18754.18753.44189.29289.70711.29289zm8 0c.1978 0 .3911-.05865.5556-.16853.1644-.10988.2926-.26606.3683-.44879.0757-.18272.0955-.38379.0569-.57777s-.1338-.37216-.2737-.51202c-.1398-.13985-.318-.23509-.512-.27368-.194-.03858-.3951-.01878-.5778.05691s-.3389.20386-.4488.36831-.1685.35779-.1685.55557c0 .26522.1054.51957.2929.70711.1875.18753.4419.29289.7071.29289zm0 4c-.1978 0-.3911.0586-.5556.1685-.1644.1099-.2926.2661-.3683.4488s-.0955.3838-.0569.5778.1338.3722.2737.512c.1398.1399.318.2351.512.2737s.3951.0188.5778-.0569.3389-.2039.4488-.3683c.1099-.1645.1685-.3578.1685-.5556 0-.2652-.1054-.5196-.2929-.7071s-.4419-.2929-.7071-.2929zm5 9h-6.18c-.1493-.4194-.3901-.8003-.7049-1.1151s-.6957-.5556-1.1151-.7049v-2.18h4c.7956 0 1.5587-.3161 2.1213-.8787s.8787-1.3257.8787-2.1213v-2c-.0044-.74006-.2822-1.45236-.78-2 .4978-.54764.7756-1.25995.78-2v-2c0-.79565-.3161-1.55871-.8787-2.12132s-1.3257-.87868-2.1213-.87868h-10c-.79565 0-1.55871.31607-2.12132.87868s-.87868 1.32567-.87868 2.12132v2c.00441.74005.28221 1.45236.78 2-.49779.54764-.77559 1.25994-.78 2v2c0 .7956.31607 1.5587.87868 2.1213s1.32567.8787 2.12132.8787h4v2.18c-.4194.1493-.8003.3901-1.1151.7049-.31479.3148-.55558.6957-.7049 1.1151h-6.18c-.26522 0-.51957.1054-.70711.2929-.18753.1875-.29289.4419-.29289.7071s.10536.5196.29289.7071c.18754.1875.44189.2929.70711.2929h6.18c.2102.5792.59363 1.0795 1.0982 1.4332.5045.3536 1.1057.5433 1.7218.5433s1.2173-.1897 1.7218-.5433c.5046-.3537.888-.854 1.0982-1.4332h6.18c.2652 0 .5196-.1054.7071-.2929s.2929-.4419.2929-.7071-.1054-.5196-.2929-.7071-.4419-.2929-.7071-.2929zm-15-15c0-.26522.10536-.51957.29289-.70711.18754-.18753.44189-.29289.70711-.29289h10c.2652 0 .5196.10536.7071.29289.1875.18754.2929.44189.2929.70711v2c0 .26522-.1054.51957-.2929.70711-.1875.18753-.4419.29289-.7071.29289h-10c-.26522 0-.51957-.10536-.70711-.29289-.18753-.18754-.29289-.44189-.29289-.70711zm1 9c-.26522 0-.51957-.1054-.70711-.2929-.18753-.1875-.29289-.4419-.29289-.7071v-2c0-.26522.10536-.51957.29289-.70711.18754-.18753.44189-.29289.70711-.29289h10c.2652 0 .5196.10536.7071.29289.1875.18754.2929.44189.2929.70711v2c0 .2652-.1054.5196-.2929.7071s-.4419.2929-.7071.2929zm5 8c-.1978 0-.3911-.0586-.5556-.1685-.1644-.1099-.2926-.2661-.3683-.4488s-.0955-.3838-.0569-.5778.1338-.3722.2737-.512c.1398-.1399.318-.2351.512-.2737s.3951-.0188.5778.0569.3389.2039.4488.3683c.1099.1645.1685.3578.1685.5556 0 .2652-.1054.5196-.2929.7071s-.4419.2929-.7071.2929zm-1-11h-3c-.26522 0-.51957.1054-.70711.2929-.18753.1875-.29289.4419-.29289.7071s.10536.5196.29289.7071c.18754.1875.44189.2929.70711.2929h3c.2652 0 .5196-.1054.7071-.2929s.2929-.4419.2929-.7071-.1054-.5196-.2929-.7071-.4419-.2929-.7071-.2929z" fill="#9e9e9e"/></svg>