<svg fill="none" height="24" viewBox="0 0 24 24" width="24" xmlns="http://www.w3.org/2000/svg"><path d="m13.41 12 4.3-4.29c.1883-.1883.2941-.4437.2941-.71s-.1058-.52169-.2941-.71c-.1883-.1883-.4437-.29409-.71-.29409s-.5217.10579-.71.29409l-4.29 4.3-4.29-4.3c-.1883-.1883-.4437-.29409-.71-.29409s-.5217.10579-.71.29409c-.1883.18831-.29409.4437-.29409.71s.10579.5217.29409.71l4.3 4.29-4.3 4.29c-.09373.093-.16812.2036-.21889.3254-.05077.1219-.07691.2526-.07691.3846s.02614.2627.07691.3846c.05077.1218.12516.2324.21889.3254.09296.0937.20356.1681.32542.2189s.25257.0769.38458.0769.26272-.0261.38458-.0769.23246-.1252.32542-.2189l4.29-4.3 4.29 4.3c.093.0937.2036.1681.3254.2189.1219.0508.2526.0769.3846.0769s.2627-.0261.3846-.0769c.1218-.0508.2324-.1252.3254-.2189.0937-.093.1681-.2036.2189-.3254.0508-.1219.0769-.2526.0769-.3846s-.0261-.2627-.0769-.3846c-.0508-.1218-.1252-.2324-.2189-.3254z" fill="#9e9e9e"/></svg>