<svg fill="none" height="24" viewBox="0 0 24 24" width="24" xmlns="http://www.w3.org/2000/svg"><path d="m3.71 2.28994c-.09324-.09324-.20393-.1672-.32575-.21766s-.25239-.07643-.38425-.07643-.26242.02597-.38425.07643c-.12182.05046-.23251.12442-.32575.21766-.1883.1883-.29409.4437-.29409.71s.10579.5217.29409.71l2.8 2.79h-.09c-.79565 0-1.55871.31607-2.12132.87868s-.87868 1.32567-.87868 2.12132v7.99996c0 .7957.31607 1.5588.87868 2.1214s1.32567.8786 2.12132.8786h14.08l1.21 1.22c.093.0938.2036.1682.3254.2189.1219.0508.2526.0769.3846.0769s.2627-.0261.3846-.0769c.1218-.0507.2324-.1251.3254-.2189.0937-.0929.1681-.2035.2189-.3254.0508-.1218.0769-.2525.0769-.3846 0-.132-.0261-.2627-.0769-.3845-.0508-.1219-.1252-.2325-.2189-.3255zm6.49 9.32996 2.68 2.68c-.2743.1329-.5753.2013-.88.2-.5304 0-1.0391-.2107-1.4142-.5857-.3751-.3751-.5858-.8838-.5858-1.4143-.00125-.3047.0672-.6057.2-.88zm-5.2 6.88c-.26521 0-.51957-.1053-.7071-.2929-.18754-.1875-.2929-.4418-.2929-.7071v-7.99996c0-.26522.10536-.51957.2929-.70711.18753-.18753.44189-.29289.7071-.29289h2.07l1.7 1.68996c-.49537.6688-.76505 1.4778-.77 2.31 0 1.0609.42143 2.0783 1.17158 2.8285.75014.7501 1.76752 1.1715 2.82842 1.1715.8356-.0028 1.6485-.2726 2.32-.77l2.77 2.77zm14-11.99996h-1.28l-.31-1c-.208-.58839-.5943-1.09726-1.1052-1.45575-.5108-.35848-1.1207-.54873-1.7448-.54425h-4.4c-.26521 0-.51957.10536-.7071.29289-.18754.18754-.2929.44189-.2929.70711s.10536.51957.2929.70711c.18753.18753.44189.29289.7071.29289h4.4c.2096-.00054.4142.06482.5846.18684.1705.12203.2983.29454.3654.49316l.54 1.63c.0654.20049.1925.37518.3631.49911.1706.12392.376.19074.5869.19089h2c.2652 0 .5196.10536.7071.29289.1875.18754.2929.44189.2929.70711v5.83996c0 .2653.1054.5196.2929.7071.1875.1876.4419.2929.7071.2929s.5196-.1053.7071-.2929c.1875-.1875.2929-.4418.2929-.7071v-5.83996c0-.79565-.3161-1.55871-.8787-2.12132s-1.3256-.87868-2.1213-.87868z" fill="#9e9e9e"/></svg>