<svg fill="none" height="24" viewBox="0 0 24 24" width="24" xmlns="http://www.w3.org/2000/svg"><path d="m19 4h-2v-1c0-.26522-.1054-.51957-.2929-.70711-.1875-.18753-.4419-.29289-.7071-.29289s-.5196.10536-.7071.29289c-.1875.18754-.2929.44189-.2929.70711v1h-6v-1c0-.26522-.10536-.51957-.29289-.70711-.18754-.18753-.44189-.29289-.70711-.29289s-.51957.10536-.70711.29289c-.18753.18754-.29289.44189-.29289.70711v1h-2c-.79565 0-1.55871.31607-2.12132.87868s-.87868 1.32567-.87868 2.12132v12c0 .7956.31607 1.5587.87868 2.1213s1.32567.8787 2.12132.8787h14c.7956 0 1.5587-.3161 2.1213-.8787s.8787-1.3257.8787-2.1213v-12c0-.79565-.3161-1.55871-.8787-2.12132s-1.3257-.87868-2.1213-.87868zm1 15c0 .2652-.1054.5196-.2929.7071s-.4419.2929-.7071.2929h-14c-.26522 0-.51957-.1054-.70711-.2929-.18753-.1875-.29289-.4419-.29289-.7071v-7h16zm0-9h-16v-3c0-.26522.10536-.51957.29289-.70711.18754-.18753.44189-.29289.70711-.29289h2v1c0 .26522.10536.51957.29289.70711.18754.18753.44189.29289.70711.29289s.51957-.10536.70711-.29289c.18753-.18754.29289-.44189.29289-.70711v-1h6v1c0 .26522.1054.51957.2929.70711.1875.18753.4419.29289.7071.29289s.5196-.10536.7071-.29289c.1875-.18754.2929-.44189.2929-.70711v-1h2c.2652 0 .5196.10536.7071.29289.1875.18754.2929.44189.2929.70711z" fill="#9e9e9e"/></svg>