<svg width="14" height="14" viewBox="0 0 14 14" fill="none" xmlns="http://www.w3.org/2000/svg">
<path d="M8.95909 3.37292H11.3458L10.8191 3.90625C10.6949 4.03116 10.6252 4.20013 10.6252 4.37625C10.6252 4.55238 10.6949 4.72134 10.8191 4.84625C10.944 4.97042 11.113 5.04011 11.2891 5.04011C11.4652 5.04011 11.6342 4.97042 11.7591 4.84625L13.4258 3.17959C13.5499 3.05468 13.6196 2.88571 13.6196 2.70959C13.6196 2.53346 13.5499 2.36449 13.4258 2.23959L11.7591 0.57292C11.6316 0.463702 11.4675 0.406632 11.2997 0.413112C11.1319 0.419593 10.9728 0.489148 10.854 0.607878C10.7353 0.726607 10.6658 0.885767 10.6593 1.05355C10.6528 1.22133 10.7099 1.38539 10.8191 1.51292L11.3458 2.03959H8.95909C8.78228 2.03959 8.61271 2.10982 8.48769 2.23485C8.36266 2.35987 8.29242 2.52944 8.29242 2.70625C8.29242 2.88306 8.36266 3.05263 8.48769 3.17766C8.61271 3.30268 8.78228 3.37292 8.95909 3.37292ZM11.9591 7.66625C11.8124 7.66625 11.6591 7.61959 11.5124 7.58625C11.2154 7.5208 10.9235 7.43391 10.6391 7.32625C10.3298 7.21374 9.98986 7.21958 9.68463 7.34266C9.3794 7.46573 9.13048 7.69734 8.98576 7.99292L8.83909 8.29292C8.18976 7.9317 7.59308 7.48307 7.06576 6.95959C6.54227 6.43226 6.09364 5.83558 5.73242 5.18625L6.01242 4.99959C6.308 4.85486 6.53961 4.60594 6.66269 4.30071C6.78576 3.99549 6.7916 3.65553 6.67909 3.34625C6.57324 3.0612 6.48638 2.76945 6.41909 2.47292C6.38576 2.32625 6.35909 2.17292 6.33909 2.01959C6.25813 1.55 6.01217 1.12475 5.6455 0.820413C5.27884 0.516078 4.81555 0.352659 4.33909 0.359587H2.33909C2.05178 0.356889 1.76726 0.416129 1.5049 0.533274C1.24254 0.650418 1.0085 0.822717 0.818711 1.03844C0.628924 1.25417 0.487847 1.50825 0.405083 1.7834C0.322318 2.05854 0.29981 2.34829 0.339091 2.63292C0.694249 5.42584 1.96978 8.02084 3.96419 10.008C5.95861 11.9952 8.55823 13.2613 11.3524 13.6063H11.6058C12.0974 13.607 12.572 13.4266 12.9391 13.0996C13.15 12.9109 13.3185 12.6797 13.4334 12.4211C13.5483 12.1626 13.6071 11.8825 13.6058 11.5996V9.59959C13.5976 9.13651 13.429 8.69062 13.1286 8.33803C12.8283 7.98544 12.415 7.748 11.9591 7.66625ZM12.2924 11.6663C12.2923 11.7609 12.272 11.8545 12.2329 11.9407C12.1939 12.0269 12.1369 12.1038 12.0658 12.1663C11.9913 12.2306 11.9042 12.2786 11.81 12.3073C11.7159 12.336 11.6168 12.3447 11.5191 12.3329C9.02236 12.0128 6.70325 10.8706 4.92757 9.08645C3.15189 7.30232 2.0207 4.97781 1.71242 2.47959C1.70181 2.38193 1.71111 2.28314 1.73976 2.18918C1.7684 2.09522 1.8158 2.00804 1.87909 1.93292C1.94156 1.86181 2.01846 1.80481 2.10468 1.76573C2.19089 1.72665 2.28443 1.70637 2.37909 1.70625H4.37909C4.53412 1.7028 4.68551 1.75351 4.80719 1.84963C4.92887 1.94576 5.01323 2.0813 5.04576 2.23292C5.07242 2.41514 5.10576 2.59514 5.14576 2.77292C5.22277 3.12435 5.32526 3.46971 5.45242 3.80625L4.51909 4.23959C4.43929 4.2762 4.36751 4.32822 4.30786 4.39265C4.24822 4.45708 4.20189 4.53266 4.17154 4.61505C4.14118 4.69744 4.1274 4.78501 4.13099 4.87273C4.13457 4.96046 4.15545 5.04662 4.19242 5.12625C5.15189 7.18142 6.80392 8.83345 8.85909 9.79292C9.0214 9.8596 9.20345 9.8596 9.36576 9.79292C9.4489 9.76318 9.5253 9.71722 9.59054 9.65771C9.65577 9.5982 9.70853 9.52632 9.74576 9.44625L10.1591 8.51292C10.5037 8.63617 10.8555 8.73858 11.2124 8.81959C11.3902 8.85959 11.5702 8.89292 11.7524 8.91959C11.904 8.95211 12.0396 9.03648 12.1357 9.15816C12.2318 9.27984 12.2825 9.43122 12.2791 9.58625L12.2924 11.6663Z" fill="#4CAF50"/>
</svg>
