<svg fill="none" height="24" viewBox="0 0 24 24" width="24" xmlns="http://www.w3.org/2000/svg"><g fill="#9e9e9e"><path d="m17 2h-10c-1.32608 0-2.59785.52678-3.53553 1.46447-.93769.93768-1.46447 2.20945-1.46447 3.53553v10c0 1.3261.52678 2.5979 1.46447 3.5355.93768.9377 2.20945 1.4645 3.53553 1.4645h10c1.3261 0 2.5979-.5268 3.5355-1.4645.9377-.9376 1.4645-2.2094 1.4645-3.5355v-10c0-1.32608-.5268-2.59785-1.4645-3.53553-.9376-.93769-2.2094-1.46447-3.5355-1.46447zm3 15c0 .7956-.3161 1.5587-.8787 2.1213s-1.3257.8787-2.1213.8787h-10c-.79565 0-1.55871-.3161-2.12132-.8787s-.87868-1.3257-.87868-2.1213v-10c0-.79565.31607-1.55871.87868-2.12132s1.32567-.87868 2.12132-.87868h10c.7956 0 1.5587.31607 2.1213.87868s.8787 1.32567.8787 2.12132z"/><path d="m8 11h8c.2652 0 .5196.1054.7071.2929s.2929.4419.2929.7071-.1054.5196-.2929.7071-.4419.2929-.7071.2929h-8c-.26522 0-.51957-.1054-.70711-.2929-.18753-.1875-.29289-.4419-.29289-.7071s.10536-.5196.29289-.7071c.18754-.1875.44189-.2929.70711-.2929z"/></g></svg>