<svg fill="none" height="24" viewBox="0 0 24 24" width="24" xmlns="http://www.w3.org/2000/svg"><g fill="#e8eaed"><path d="m3 3h18v18h-18z"/><path d="m7 2.5h10c1.1935 0 2.3381.47411 3.182 1.31802s1.318 1.98851 1.318 3.18198v10c0 1.1935-.4741 2.3381-1.318 3.182s-1.9885 1.318-3.182 1.318h-10c-1.19347 0-2.33807-.4741-3.18198-1.318s-1.31802-1.9885-1.31802-3.182v-10c0-1.19347.47411-2.33807 1.31802-3.18198s1.98851-1.31802 3.18198-1.31802zm12.4749 16.9749c.6564-.6564 1.0251-1.5466 1.0251-2.4749v-10c0-.92826-.3687-1.8185-1.0251-2.47487-.6564-.65638-1.5466-1.02513-2.4749-1.02513h-10c-.92826 0-1.8185.36875-2.47487 1.02513-.65638.65637-1.02513 1.54661-1.02513 2.47487v10c0 .9283.36875 1.8185 1.02513 2.4749.65637.6564 1.54661 1.0251 2.47487 1.0251h10c.9283 0 1.8185-.3687 2.4749-1.0251z" stroke="#d5d7db"/></g></svg>