<svg fill="none" height="24" viewBox="0 0 24 24" width="24" xmlns="http://www.w3.org/2000/svg"><path d="m3 3h18v18h-18z" fill="#e8eaed"/><path d="m7 2.5h10c1.1935 0 2.3381.47411 3.182 1.31802s1.318 1.98851 1.318 3.18198v10c0 1.1935-.4741 2.3381-1.318 3.182s-1.9885 1.318-3.182 1.318h-10c-1.19347 0-2.33807-.4741-3.18198-1.318s-1.31802-1.9885-1.31802-3.182v-10c0-1.19347.47411-2.33807 1.31802-3.18198s1.98851-1.31802 3.18198-1.31802zm12.4749 16.9749c.6564-.6564 1.0251-1.5466 1.0251-2.4749v-10c0-.92826-.3687-1.8185-1.0251-2.47487-.6564-.65638-1.5466-1.02513-2.4749-1.02513h-10c-.92826 0-1.8185.36875-2.47487 1.02513-.65638.65637-1.02513 1.54661-1.02513 2.47487v10c0 .9283.36875 1.8185 1.02513 2.4749.65637.6564 1.54661 1.0251 2.47487 1.0251h10c.9283 0 1.8185-.3687 2.4749-1.0251z" fill="#e8eaed" stroke="#d5d7db"/><path d="m15.2628 8.32428c.3732-.40712 1.0058-.43462 1.4129-.06143s.4346 1.00576.0614 1.41288l-5.5 5.99997c-.409.4463-1.1177.4296-1.50533-.0355l-2.5-3c-.35356-.4243-.29624-1.0549.12804-1.4084.42428-.3536 1.05484-.2963 1.40841.128l1.76768 2.1212z" fill="#babdc2"/></svg>