<svg fill="none" height="24" viewBox="0 0 24 24" width="24" xmlns="http://www.w3.org/2000/svg"><g fill="#9e9e9e"><path d="m2.22 2.21995c.14063-.14045.33125-.21934.53-.21934s.38937.07889.53.21934l18.5 18.49995c.1325.1422.2046.3303.2012.5246-.0035.1943-.0822.3797-.2196.5171s-.3228.2161-.5171.2195c-.1943.0035-.3823-.0687-.5245-.2011l-.946-.9451c-.3303.1096-.676.1653-1.024.1651h-13.5c-.86195 0-1.6886-.3425-2.2981-.952-.60949-.6094-.9519-1.4361-.9519-2.298v-9.50005c0-1.403.89-2.599 2.135-3.054l-1.915-1.916c-.14045-.14062-.21934-.33125-.21934-.53s.07889-.38937.21934-.53zm11.602 12.66305c-.5774.4425-1.296.6601-2.0219.6123-.726-.0478-1.4098-.3578-1.92423-.8722-.51442-.5144-.82439-1.1983-.87219-1.9242-.04781-.7259.1698-1.4445.61232-2.0219l-1.066-1.06505c-.72414.86215-1.09875 1.96455-1.0499 3.08935.04885 1.1249.51762 2.1906 1.31378 2.9868.79616.7961 1.86182 1.2649 2.98672 1.3138 1.1249.0488 2.2272-.3258 3.0894-1.0499z"/><path d="m16.437 13.255c.1208-.7089.07-1.4363-.1482-2.1215-.2182-.6851-.5974-1.30803-1.1059-1.81648-.5084-.50845-1.1313-.88765-1.8165-1.10584-.6851-.21819-1.4126-.26902-2.1214-.14823l-3.59-3.59.55-.897c.20119-.32778.48304-.59852.81864-.78637.33561-.18784.71376-.28653 1.09836-.28663h3.803c.392-.00003.7773.10238 1.1176.29707.3403.1947.6238.47493.8224.81293l.814 1.387h2.071c.4268 0 .8494.08406 1.2437.24739s.7526.40272 1.0544.70451.5412.66007.7045 1.05438.2474.81692.2474 1.24372v9.50005c0 .3239-.047.637-.136.933z"/></g></svg>