<?xml version="1.0" standalone="yes"?>
<svg width="50" height="50">
<path style="fill:#ffffff; stroke:none;" d="M0 0L0 30L2 42L2 43L0 50L50 50L48 43L48 42C50.9548 39.418 50 34.7069 50 31C50 22.0515 52.4097 9.52057 47 2L50 3C48.987 -1.72718 41.9855 0 38 0L0 0z"/>
<path style="fill:#000000; stroke:none;" d="M24.6667 1.33333L25.3333 1.66667L24.6667 1.33333z"/>
<path style="fill:#5a5a5a; stroke:none;" d="M2 2L3 3L2 2z"/>
<path style="fill:#020202; stroke:none;" d="M3 2L4 3L3 2z"/>
<path style="fill:#111111; stroke:none;" d="M22 2L23 3L22 2z"/>
<path style="fill:#878787; stroke:none;" d="M23 2L24 3L23 2z"/>
<path style="fill:#717171; stroke:none;" d="M26 2L27 3L26 2z"/>
<path style="fill:#0b0b0b; stroke:none;" d="M27 2L28 3L27 2z"/>
<path style="fill:#3a3a3a; stroke:none;" d="M42 2L43 3L42 2z"/>
<path style="fill:#626262; stroke:none;" d="M47 2L48 3L47 2z"/>
<path style="fill:#000000; stroke:none;" d="M48 2L50 4L48 2z"/>
<path style="fill:#5a5a5a; stroke:none;" d="M4 3L5 4L4 3z"/>
<path style="fill:#020202; stroke:none;" d="M5 3L6 4L5 3z"/>
<path style="fill:#0c0c0c; stroke:none;" d="M20 3L21 4L20 3z"/>
<path style="fill:#7e7e7e; stroke:none;" d="M21 3L22 4L21 3z"/>
<path style="fill:#838383; stroke:none;" d="M28 3L29 4L28 3z"/>
<path style="fill:#151515; stroke:none;" d="M29 3L30 4L29 3z"/>
<path style="fill:#656565; stroke:none;" d="M41 3L42 4L41 3z"/>
<path style="fill:#a1a1a1; stroke:none;" d="M48 3L49 4L48 3z"/>
<path style="fill:#595959; stroke:none;" d="M6 4L7 5L6 4z"/>
<path style="fill:#010101; stroke:none;" d="M7 4L8 5L7 4z"/>
<path style="fill:#090909; stroke:none;" d="M18 4L19 5L18 4z"/>
<path style="fill:#747474; stroke:none;" d="M19 4L20 5L19 4z"/>
<path style="fill:#949494; stroke:none;" d="M30 4L31 5L30 4z"/>
<path style="fill:#202020; stroke:none;" d="M31 4L32 5L31 4z"/>
<path style="fill:#686868; stroke:none;" d="M40 4L41 5L40 4z"/>
<path style="fill:#9d9d9d; stroke:none;" d="M43 4L46 8L43 4z"/>
<path style="fill:#050505; stroke:none;" d="M44 6L47 5L44 6z"/>
<path style="fill:#616161; stroke:none;" d="M49 4L50 5L49 4z"/>
<path style="fill:#585858; stroke:none;" d="M8 5L9 6L8 5z"/>
<path style="fill:#010101; stroke:none;" d="M9 5L10 6L9 5z"/>
<path style="fill:#050505; stroke:none;" d="M16 5L17 6L16 5z"/>
<path style="fill:#6b6b6b; stroke:none;" d="M17 5L18 6L17 5z"/>
<path style="fill:#a6a6a6; stroke:none;" d="M32 5L33 6L32 5z"/>
<path style="fill:#2e2e2e; stroke:none;" d="M33 5L34 6L33 5z"/>
<path style="fill:#686868; stroke:none;" d="M39 5L40 6L39 5z"/>
<path style="fill:#ffffff; stroke:none;" d="M45 5L47 7L47 5L45 5z"/>
<path style="fill:#1e1e1e; stroke:none;" d="M47 5L46 8L47 5z"/>
<path style="fill:#585858; stroke:none;" d="M10 6L11 7L10 6z"/>
<path style="fill:#010101; stroke:none;" d="M11 6L12 7L11 6z"/>
<path style="fill:#030303; stroke:none;" d="M14 6L15 7L14 6z"/>
<path style="fill:#626262; stroke:none;" d="M15 6L16 7L15 6z"/>
<path style="fill:#262626; stroke:none;" d="M35 6L36 7L35 6z"/>
<path style="fill:#686868; stroke:none;" d="M38 6L39 7L38 6z"/>
<path style="fill:#929292; stroke:none;" d="M41 6L42 7L41 6z"/>
<path style="fill:#010101; stroke:none;" d="M45 6L46 7L45 6z"/>
<path style="fill:#595959; stroke:none;" d="M12.6667 7.33333L13.3333 7.66667L12.6667 7.33333z"/>
<path style="fill:#767676; stroke:none;" d="M36.6667 7.33333L37.3333 7.66667L36.6667 7.33333z"/>
<path style="fill:#686868; stroke:none;" d="M40 7L39 9L40 7z"/>
<path style="fill:#ffffff; stroke:none;" d="M41 7C38.6037 9.39627 23.3392 21.8361 26.7515 25.2485C30.1639 28.6608 42.6037 13.3963 45 11L45 10L41 7z"/>
<path style="fill:#414141; stroke:none;" d="M42 7L43 8L42 7M43 8L44 9L43 8z"/>
<path style="fill:#8b8b8b; stroke:none;" d="M46.6667 8.33333L47.3333 8.66667L46.6667 8.33333z"/>
<path style="fill:#6a6a6a; stroke:none;" d="M38 9L39 10L38 9z"/>
<path style="fill:#3c3c3c; stroke:none;" d="M44 9L45 10L44 9z"/>
<path style="fill:#686868; stroke:none;" d="M37 10L38 11L37 10z"/>
<path style="fill:#919191; stroke:none;" d="M45 10L46 11L45 10z"/>
<path style="fill:#6a6a6a; stroke:none;" d="M36 11L37 12L36 11z"/>
<path style="fill:#646464; stroke:none;" d="M44 11L45 12L44 11z"/>
<path style="fill:#6a6a6a; stroke:none;" d="M35 12L36 13L35 12z"/>
<path style="fill:#646464; stroke:none;" d="M43 12L44 13L43 12z"/>
<path style="fill:#6a6a6a; stroke:none;" d="M34 13L35 14L34 13z"/>
<path style="fill:#646464; stroke:none;" d="M42 13L43 14L42 13z"/>
<path style="fill:#6a6a6a; stroke:none;" d="M33 14L34 15L33 14z"/>
<path style="fill:#646464; stroke:none;" d="M41 14L42 15L41 14z"/>
<path style="fill:#6a6a6a; stroke:none;" d="M32 15L33 16L32 15z"/>
<path style="fill:#646464; stroke:none;" d="M40 15L41 16L40 15z"/>
<path style="fill:#6a6a6a; stroke:none;" d="M31 16L32 17L31 16z"/>
<path style="fill:#646464; stroke:none;" d="M39 16L40 17L39 16z"/>
<path style="fill:#6a6a6a; stroke:none;" d="M30 17L31 18L30 17z"/>
<path style="fill:#646464; stroke:none;" d="M38 17L39 18L38 17z"/>
<path style="fill:#6a6a6a; stroke:none;" d="M29 18L30 19L29 18z"/>
<path style="fill:#646464; stroke:none;" d="M37 18L38 19L37 18z"/>
<path style="fill:#6a6a6a; stroke:none;" d="M28 19L29 20L28 19z"/>
<path style="fill:#646464; stroke:none;" d="M36 19L37 20L36 19z"/>
<path style="fill:#6a6a6a; stroke:none;" d="M27 20L28 21L27 20z"/>
<path style="fill:#646464; stroke:none;" d="M35 20L36 21L35 20z"/>
<path style="fill:#6a6a6a; stroke:none;" d="M26 21L27 22L26 21z"/>
<path style="fill:#646464; stroke:none;" d="M34 21L35 22L34 21z"/>
<path style="fill:#6a6a6a; stroke:none;" d="M25 22L26 23L25 22z"/>
<path style="fill:#646464; stroke:none;" d="M33 22L34 23L33 22z"/>
<path style="fill:#6a6a6a; stroke:none;" d="M24 23L25 24L24 23z"/>
<path style="fill:#646464; stroke:none;" d="M32 23L33 24L32 23z"/>
<path style="fill:#050505; stroke:none;" d="M24 24L25 25L24 24z"/>
<path style="fill:#686868; stroke:none;" d="M31 24L32 25L31 24z"/>
<path style="fill:#060606; stroke:none;" d="M25 25L26 26L25 25z"/>
<path style="fill:#646464; stroke:none;" d="M30 25L31 26L30 25z"/>
<path style="fill:#050505; stroke:none;" d="M26 26L27 27L26 26z"/>
<path style="fill:#686868; stroke:none;" d="M29 26L30 27L29 26z"/>
<path style="fill:#2d2d2d; stroke:none;" d="M22 27L22 29L24 27L22 27z"/>
<path style="fill:#060606; stroke:none;" d="M27 27L28 28L27 27z"/>
<path style="fill:#646464; stroke:none;" d="M28 27L29 28L28 27z"/>
<path style="fill:#ffffff; stroke:none;" d="M23 28L24 29L23 28z"/>
<path style="fill:#373737; stroke:none;" d="M24 28L23 30L25 30L24 28z"/>
<path style="fill:#bdbdbd; stroke:none;" d="M21 29L21 31L23 31L23 29L21 29z"/>
<path style="fill:#a6a6a6; stroke:none;" d="M25 29L26 30L25 29z"/>
<path style="fill:#050505; stroke:none;" d="M0 42L1 43L0 42z"/>
<path style="fill:#676767; stroke:none;" d="M1 42L2 43L1 42z"/>
<path style="fill:#525252; stroke:none;" d="M24.6667 42.3333L25.3333 42.6667L24.6667 42.3333z"/>
<path style="fill:#727272; stroke:none;" d="M48 42L49 43L48 42z"/>
<path style="fill:#060606; stroke:none;" d="M49 42L50 43L49 42z"/>
<path style="fill:#040404; stroke:none;" d="M2 43L3 44L2 43z"/>
<path style="fill:#5d5d5d; stroke:none;" d="M3 43L4 44L3 43M22 43L23 44L22 43z"/>
<path style="fill:#020202; stroke:none;" d="M23 43L24 44L23 43z"/>
<path style="fill:#3b3b3b; stroke:none;" d="M27 43L28 44L27 43z"/>
<path style="fill:#999999; stroke:none;" d="M46 43L47 44L46 43z"/>
<path style="fill:#141414; stroke:none;" d="M47 43L48 44L47 43z"/>
<path style="fill:#040404; stroke:none;" d="M4 44L5 45L4 44z"/>
<path style="fill:#5d5d5d; stroke:none;" d="M5 44L6 45L5 44z"/>
<path style="fill:#656565; stroke:none;" d="M20 44L21 45L20 44z"/>
<path style="fill:#020202; stroke:none;" d="M21 44L22 45L21 44z"/>
<path style="fill:#2b2b2b; stroke:none;" d="M29 44L30 45L29 44z"/>
<path style="fill:#999999; stroke:none;" d="M30 44L31 45L30 44z"/>
<path style="fill:#202020; stroke:none;" d="M45 44L46 45L45 44z"/>
<path style="fill:#040404; stroke:none;" d="M6 45L7 46L6 45z"/>
<path style="fill:#5d5d5d; stroke:none;" d="M7 45L8 46L7 45z"/>
<path style="fill:#656565; stroke:none;" d="M18 45L19 46L18 45z"/>
<path style="fill:#020202; stroke:none;" d="M19 45L20 46L19 45z"/>
<path style="fill:#171717; stroke:none;" d="M31 45L32 46L31 45z"/>
<path style="fill:#808080; stroke:none;" d="M32 45L33 46L32 45z"/>
<path style="fill:#303030; stroke:none;" d="M43 45L44 46L43 45z"/>
<path style="fill:#040404; stroke:none;" d="M8 46L9 47L8 46z"/>
<path style="fill:#5d5d5d; stroke:none;" d="M9 46L10 47L9 46z"/>
<path style="fill:#656565; stroke:none;" d="M16 46L17 47L16 46z"/>
<path style="fill:#030303; stroke:none;" d="M17 46L18 47L17 46z"/>
<path style="fill:#0d0d0d; stroke:none;" d="M33 46L34 47L33 46z"/>
<path style="fill:#6e6e6e; stroke:none;" d="M34 46L35 47L34 46z"/>
<path style="fill:#4b4b4b; stroke:none;" d="M41 46L42 47L41 46z"/>
<path style="fill:#050505; stroke:none;" d="M10 47L11 48L10 47z"/>
<path style="fill:#676767; stroke:none;" d="M11 47L12 48L11 47z"/>
<path style="fill:#5a5a5a; stroke:none;" d="M14 47L15 48L14 47z"/>
<path style="fill:#020202; stroke:none;" d="M15 47L16 48L15 47z"/>
<path style="fill:#070707; stroke:none;" d="M35 47L36 48L35 47z"/>
<path style="fill:#656565; stroke:none;" d="M36 47L37 48L36 47z"/>
<path style="fill:#5b5b5b; stroke:none;" d="M39 47L40 48L39 47z"/>
<path style="fill:#010101; stroke:none;" d="M40 47L41 48L40 47z"/>
</svg>
