<svg fill="none" height="24" viewBox="0 0 24 24" width="24" xmlns="http://www.w3.org/2000/svg"><path d="m9 15c-.19778 0-.39112.0586-.55557.1685s-.29262.2661-.36831.4488-.09549.3838-.05691.5778c.03859.194.13383.3722.27368.512.13986.1399.31804.2351.51202.2737s.39505.0188.57777-.0569c.18273-.0757.33891-.2039.44879-.3683.10988-.1645.16853-.3578.16853-.5556 0-.2652-.10536-.5196-.29289-.7071-.18754-.1875-.44189-.2929-.70711-.2929zm-7-1c-.26522 0-.51957.1054-.70711.2929-.18753.1875-.29289.4419-.29289.7071v2c0 .2652.10536.5196.29289.7071.18754.1875.44189.2929.70711.2929s.51957-.1054.70711-.2929c.18753-.1875.29289-.4419.29289-.7071v-2c0-.2652-.10536-.5196-.29289-.7071-.18754-.1875-.44189-.2929-.70711-.2929zm20 0c-.2652 0-.5196.1054-.7071.2929s-.2929.4419-.2929.7071v2c0 .2652.1054.5196.2929.7071s.4419.2929.7071.2929.5196-.1054.7071-.2929.2929-.4419.2929-.7071v-2c0-.2652-.1054-.5196-.2929-.7071s-.4419-.2929-.7071-.2929zm-5-7h-4v-1.28c.3023-.17451.5536-.42509.7291-.72683.1754-.30174.2688-.64414.2709-.99317 0-.53043-.2107-1.03914-.5858-1.41421-.3751-.37508-.8838-.58579-1.4142-.58579s-1.0391.21071-1.4142.58579c-.3751.37507-.5858.88378-.5858 1.41421.0021.34903.0955.69143.2709.99317.1755.30174.4268.55232.7291.72683v1.28h-4c-.79565 0-1.55871.31607-2.12132.87868s-.87868 1.32567-.87868 2.12132v9c0 .7956.31607 1.5587.87868 2.1213s1.32567.8787 2.12132.8787h10c.7956 0 1.5587-.3161 2.1213-.8787s.8787-1.3257.8787-2.1213v-9c0-.79565-.3161-1.55871-.8787-2.12132s-1.3257-.87868-2.1213-.87868zm-3.28 2-.5 2h-2.44l-.5-2zm4.28 10c0 .2652-.1054.5196-.2929.7071s-.4419.2929-.7071.2929h-10c-.26522 0-.51957-.1054-.70711-.2929-.18753-.1875-.29289-.4419-.29289-.7071v-9c0-.26522.10536-.51957.29289-.70711.18754-.18753.44189-.29289.70711-.29289h1.22l.78 3.24c.05475.2219.18385.4183.36579.5566.18195.1383.40578.2101.63421.2034h4c.2284.0067.4523-.0651.6342-.2034.182-.1383.311-.3347.3658-.5566l.78-3.24h1.22c.2652 0 .5196.10536.7071.29289.1875.18754.2929.44189.2929.70711zm-3-4c-.1978 0-.3911.0586-.5556.1685-.1644.1099-.2926.2661-.3683.4488s-.0955.3838-.0569.5778.1338.3722.2737.512c.1398.1399.318.2351.512.2737s.3951.0188.5778-.0569.3389-.2039.4488-.3683c.1099-.1645.1685-.3578.1685-.5556 0-.2652-.1054-.5196-.2929-.7071s-.4419-.2929-.7071-.2929z" fill="#9e9e9e"/></svg>