<svg fill="none" height="24" viewBox="0 0 24 24" width="24" xmlns="http://www.w3.org/2000/svg"><g fill="#9e9e9e"><path d="m19.91 15.51h-4.53c-.2652 0-.5196.1054-.7071.2929s-.2929.4419-.2929.7071.1054.5196.2929.7071.4419.2929.7071.2929h2.4c-1.1031 1.1527-2.5256 1.9493-4.0848 2.2874-1.5593.3381-3.184.2022-4.66542-.3902-1.48144-.5923-2.75191-1.6141-3.64819-2.934-.89628-1.32-1.37741-2.8777-1.38159-4.4732 0-.2652-.10536-.5196-.29289-.7071-.18754-.1875-.44189-.2929-.70711-.2929s-.51957.1054-.70711.2929c-.18753.1875-.29289.4419-.29289.7071.00529 1.9528.58222 3.8613 1.6596 5.49 1.07739 1.6287 2.60807 2.9064 4.40314 3.6752 1.79508.7689 3.77596.9953 5.69826.6514s3.7018-1.2431 5.119-2.5866v1.77c0 .2652.1054.5196.2929.7071s.4419.2929.7071.2929.5196-.1054.7071-.2929.2929-.4419.2929-.7071v-4.5c-.0025-.2584-.1048-.5057-.2857-.6903-.1808-.1846-.426-.292-.6843-.2997zm-7.91-13.51c-2.56361.00731-5.02651.99891-6.88 2.77v-1.77c0-.26522-.10536-.51957-.29289-.70711-.18754-.18753-.44189-.29289-.70711-.29289s-.51957.10536-.70711.29289c-.18753.18754-.29289.44189-.29289.70711v4.5c0 .26522.10536.51957.29289.70711.18754.18753.44189.29289.70711.29289h4.5c.26522 0 .51957-.10536.70711-.29289.18753-.18754.29289-.44189.29289-.70711s-.10536-.51957-.29289-.70711c-.18754-.18753-.44189-.29289-.70711-.29289h-2.4c1.10247-1.15213 2.52409-1.9485 4.0824-2.28689 1.5583-.33839 3.1822-.20336 4.6632.38775 1.481.59112 2.7516 1.61135 3.6486 2.92974.8971 1.3184 1.3796 2.8748 1.3858 4.4694 0 .2652.1054.5196.2929.7071s.4419.2929.7071.2929.5196-.1054.7071-.2929.2929-.4419.2929-.7071c0-1.3132-.2587-2.61358-.7612-3.82683-.5026-1.21326-1.2391-2.31565-2.1677-3.24424-.9286-.92858-2.031-1.66518-3.2443-2.16773-1.2132-.50254-2.5136-.7612-3.8268-.7612z"/><path d="m11.5 9.93499h2.5c.2652 0 .5196-.10536.7071-.2929.1875-.18753.2929-.44189.2929-.7071 0-.26522-.1054-.51957-.2929-.70711s-.4419-.29289-.7071-.29289h-1v-.5c0-.26522-.1054-.51957-.2929-.70711s-.4419-.29289-.7071-.29289-.5196.10535-.7071.29289-.2929.44189-.2929.70711v.55c-.6076.12337-1.14764.4681-1.51534.96726-.36771.49916-.53682 1.11715-.47451 1.73395.0623.6169.35158 1.1886.81168 1.6041.46007.4155 1.05817.6453 1.67817.6447h1c.1326 0 .2598.0527.3536.1464.0937.0938.1464.221.1464.3536s-.0527.2598-.1464.3535c-.0938.0938-.221.1465-.3536.1465h-2.5c-.26522 0-.51957.1053-.70711.2929-.18753.1875-.29289.4419-.29289.7071s.10536.5196.29289.7071c.18754.1875.44189.2929.70711.2929h1v.5c0 .2652.1054.5196.2929.7071s.4419.2929.7071.2929.5196-.1054.7071-.2929.2929-.4419.2929-.7071v-.55c.6076-.1234 1.1476-.4681 1.5153-.9673.3677-.4991.5369-1.1171.4746-1.734-.0623-.6168-.3516-1.1885-.8117-1.604-.4601-.4156-1.0582-.6453-1.6782-.6447h-1c-.1326 0-.2598-.0527-.3536-.1465-.0937-.0937-.1464-.2209-.1464-.3535s.0527-.2598.1464-.3536c.0938-.09374.221-.14641.3536-.14641z"/></g></svg>