<svg fill="none" height="24" viewBox="0 0 24 24" width="24" xmlns="http://www.w3.org/2000/svg"><path d="m12 2c-1.9778 0-3.91121.58649-5.5557 1.6853-1.64449 1.09882-2.92621 2.6606-3.68309 4.48787-.75688 1.82723-.95491 3.83793-.56906 5.77773s1.33826 3.7216 2.73679 5.1202c1.39852 1.3985 3.18035 2.3509 5.12016 2.7368 1.9398.3858 3.9505.1878 5.7777-.5691 1.8273-.7569 3.3891-2.0386 4.4879-3.6831s1.6853-3.5779 1.6853-5.5557c0-1.3132-.2587-2.61358-.7612-3.82683-.5025-1.21326-1.2391-2.31565-2.1677-3.24424-.9286-.92858-2.031-1.66518-3.2443-2.16773-1.2132-.50254-2.5136-.7612-3.8268-.7612zm1 17.93v-.93c0-.2652-.1054-.5196-.2929-.7071s-.4419-.2929-.7071-.2929-.5196.1054-.7071.2929-.2929.4419-.2929.7071v.93c-1.76002-.2232-3.39592-1.0251-4.65041-2.2796s-2.05639-2.8904-2.27959-4.6504h.93c.26522 0 .51957-.1054.70711-.2929s.29289-.4419.29289-.7071-.10535-.5196-.29289-.7071-.44189-.2929-.70711-.2929h-.93c.2232-1.76002 1.0251-3.39592 2.27959-4.65041s2.89039-2.0564 4.65041-2.27959v.93c0 .26522.1054.51957.2929.70711.1875.18753.4419.29289.7071.29289s.5196-.10536.7071-.29289c.1875-.18754.2929-.44189.2929-.70711v-.93c1.76.22319 3.3959 1.0251 4.6504 2.27959s2.0564 2.89039 2.2796 4.65041h-.93c-.2652 0-.5196.1054-.7071.2929s-.2929.4419-.2929.7071.1054.5196.2929.7071.4419.2929.7071.2929h.93c-.2232 1.76-1.0251 3.3959-2.2796 4.6504s-2.8904 2.0564-4.6504 2.2796zm2.14-12.38-5 2.12c-.23308.10099-.419.28691-.52.52l-2.12 5c-.07875.1834-.10084.3861-.06342.5822.03743.196.13265.3763.27342.5178.18463.1884.43623.2962.7.3.13837.0001.27503-.0306.4-.09l5-2.12c.2331-.101.419-.2869.52-.52l2.12-5c.0773-.18324.0982-.38537.06-.58054s-.1337-.37453-.2743-.51516c-.1406-.14062-.32-.23612-.5152-.27429-.1951-.03818-.3973-.01729-.5805.05999zm-2.49 5.1-2.28 1 1-2.28 2.28-1z" fill="#9e9e9e"/></svg>