<svg fill="none" height="24" viewBox="0 0 24 24" width="24" xmlns="http://www.w3.org/2000/svg"><g clip-rule="evenodd" fill="#9e9e9e" fill-rule="evenodd"><path d="m6 3c-.79565 0-1.55871.31607-2.12132.87868s-.87868 1.32567-.87868 2.12132v12c0 .7956.31607 1.5587.87868 2.1213s1.32567.8787 2.12132.8787h12c.7956 0 1.5587-.3161 2.1213-.8787s.8787-1.3257.8787-2.1213v-12c0-.79565-.3161-1.55871-.8787-2.12132s-1.3257-.87868-2.1213-.87868zm12.7071 15.7071c.1875-.1875.2929-.4419.2929-.7071v-12c0-.26522-.1054-.51957-.2929-.70711-.1875-.18753-.4419-.29289-.7071-.29289h-12c-.26522 0-.51957.10536-.70711.29289-.18753.18754-.29289.44189-.29289.70711v12c0 .2652.10536.5196.29289.7071.18754.1875.44189.2929.70711.2929h12c.2652 0 .5196-.1054.7071-.2929z"/><path d="m11.2929 7.29289c.3905-.39052 1.0237-.39052 1.4142 0l2 2c.286.286.3716.71611.2168 1.08981s-.5194.6173-.9239.6173h-5c-.55228 0-1-.4477-1-1 0-.55228.44772-1 1-1h2.5858l-.2929-.29289c-.3905-.39053-.3905-1.02369 0-1.41422z"/><path d="m13.7071 16.7071c-.3905.3905-1.0237.3905-1.4142 0l-2-2c-.286-.286-.37156-.7161-.2168-1.0898.1548-.3737.5194-.6173.9239-.6173h5c.5523 0 1 .4477 1 1s-.4477 1-1 1h-2.5858l.2929.2929c.3905.3905.3905 1.0237 0 1.4142z"/></g></svg>