<svg fill="none" height="24" viewBox="0 0 24 24" width="24" xmlns="http://www.w3.org/2000/svg"><path d="m22 17h-20c-.26522 0-.51957.1054-.70711.2929-.18753.1875-.29289.4419-.29289.7071s.10536.5196.29289.7071c.18754.1875.44189.2929.70711.2929h20c.2652 0 .5196-.1054.7071-.2929s.2929-.4419.2929-.7071-.1054-.5196-.2929-.7071-.4419-.2929-.7071-.2929zm0 4h-20c-.26522 0-.51957.1054-.70711.2929-.18753.1875-.29289.4419-.29289.7071s.10536.5196.29289.7071c.18754.1875.44189.2929.70711.2929h20c.2652 0 .5196-.1054.7071-.2929s.2929-.4419.2929-.7071-.1054-.5196-.2929-.7071-.4419-.2929-.7071-.2929zm-16-14c-.19778 0-.39112.05865-.55557.16853s-.29262.26606-.36831.44879c-.07569.18272-.09549.38379-.05691.57777.03859.19398.13383.37216.27368.51202.13986.13985.31804.23509.51202.27368.19398.03858.39505.01878.57777-.05691.18273-.07569.33891-.20386.44879-.36831s.16853-.35779.16853-.55557c0-.26522-.10536-.51957-.29289-.70711-.18754-.18753-.44189-.29289-.70711-.29289zm14-6h-16c-.79565 0-1.55871.31607-2.12132.87868s-.87868 1.32567-.87868 2.12132v8c0 .7956.31607 1.5587.87868 2.1213s1.32567.8787 2.12132.8787h16c.7956 0 1.5587-.3161 2.1213-.8787s.8787-1.3257.8787-2.1213v-8c0-.79565-.3161-1.55871-.8787-2.12132s-1.3257-.87868-2.1213-.87868zm1 11c0 .2652-.1054.5196-.2929.7071s-.4419.2929-.7071.2929h-16c-.26522 0-.51957-.1054-.70711-.2929-.18753-.1875-.29289-.4419-.29289-.7071v-8c0-.26522.10536-.51957.29289-.70711.18754-.18753.44189-.29289.70711-.29289h16c.2652 0 .5196.10536.7071.29289.1875.18754.2929.44189.2929.70711zm-9-7c-.5933 0-1.1734.17595-1.6667.50559-.49336.32965-.87788.79818-1.10494 1.34636s-.28647 1.15138-.17072 1.73332c.11576.58194.40148 1.11649.82104 1.53603.41952.4196.95412.7053 1.53602.8211.582.1157 1.1852.0563 1.7334-.1708.5481-.227 1.0167-.6115 1.3463-1.10489.3297-.49335.5056-1.07337.5056-1.66671 0-.79565-.3161-1.55871-.8787-2.12132s-1.3257-.87868-2.1213-.87868zm0 4c-.1978 0-.3911-.05865-.5556-.16853-.1644-.10988-.2926-.26606-.3683-.44879-.0757-.18272-.0955-.38379-.0569-.57777s.1338-.37216.2737-.51202c.1398-.13985.318-.23509.512-.27368.194-.03858.3951-.01878.5778.05691s.3389.20386.4488.36831.1685.35779.1685.55557c0 .26522-.1054.51957-.2929.70711-.1875.18753-.4419.29289-.7071.29289zm6-2c-.1978 0-.3911.05865-.5556.16853-.1644.10988-.2926.26606-.3683.44879-.0757.18272-.0955.38379-.0569.57777s.1338.37216.2737.51202c.1398.13985.318.23509.512.27368.194.03858.3951.01878.5778-.05691s.3389-.20386.4488-.36831.1685-.35779.1685-.55557c0-.26522-.1054-.51957-.2929-.70711-.1875-.18753-.4419-.29289-.7071-.29289z" fill="#9e9e9e"/></svg>