<svg width="20" height="19" fill="none" xmlns="http://www.w3.org/2000/svg"><path d="M6.28 18.29h-3a3 3 0 0 1-3-3v-12a3 3 0 0 1 3-3h12a3 3 0 0 1 3 3v1a1 1 0 0 1-2 0v-1a1 1 0 0 0-1-1h-12a1 1 0 0 0-1 1v12a1 1 0 0 0 1 1h3a1 1 0 1 1 0 2Z" fill="#F3F3F5"/><path d="M7.28 10.29a1 1 0 0 1-.7-.3l-2-2a1 1 0 1 1 1.4-1.4l1.2 1.18 2.3-3.08a1 1 0 0 1 1.6 1.2l-3 4a1 1 0 0 1-.8.4ZM14.28 12.29a3 3 0 1 1 0-6 3 3 0 0 1 0 6Zm0-4a1 1 0 1 0 0 2 1 1 0 0 0 0-2ZM18.28 18.29a1 1 0 0 1-1-1 2 2 0 0 0-2-2h-2a2 2 0 0 0-2 2 1 1 0 1 1-2 0 4 4 0 0 1 4-4h2a4 4 0 0 1 4 4 1 1 0 0 1-1 1Z" fill="#F3F3F5"/></svg>