<svg fill="none" height="24" viewBox="0 0 24 24" width="24" xmlns="http://www.w3.org/2000/svg"><path d="m8 17c-.19778 0-.39112.0586-.55557.1685s-.29262.2661-.36831.4488-.09549.3838-.05691.5778c.03859.194.13383.3722.27368.512.13986.1399.31804.2351.51202.2737s.39505.0188.57777-.0569c.18273-.0757.33891-.2039.44879-.3683.10988-.1645.16853-.3578.16853-.5556 0-.2652-.10536-.5196-.29289-.7071-.18754-.1875-.44189-.2929-.70711-.2929zm0-6c-.19778 0-.39112.0586-.55557.1685s-.29262.2661-.36831.4488-.09549.3838-.05691.5778c.03859.194.13383.3722.27368.512.13986.1399.31804.2351.51202.2737s.39505.0188.57777-.0569c.18273-.0757.33891-.2039.44879-.3683.10988-.1645.16853-.3578.16853-.5556 0-.2652-.10536-.5196-.29289-.7071-.18754-.1875-.44189-.2929-.70711-.2929zm8-9h-8c-1.06087 0-2.07828.42143-2.82843 1.17157-.75014.75015-1.17157 1.76756-1.17157 2.82843v12c0 1.0609.42143 2.0783 1.17157 2.8284.75015.7502 1.76756 1.1716 2.82843 1.1716h8c1.0609 0 2.0783-.4214 2.8284-1.1716.7502-.7501 1.1716-1.7675 1.1716-2.8284v-12c0-1.06087-.4214-2.07828-1.1716-2.82843-.7501-.75014-1.7675-1.17157-2.8284-1.17157zm2 16c0 .5304-.2107 1.0391-.5858 1.4142s-.8838.5858-1.4142.5858h-8c-.53043 0-1.03914-.2107-1.41421-.5858-.37508-.3751-.58579-.8838-.58579-1.4142v-2.56c.60399.3636 1.29504.557 2 .56h8c.705-.003 1.396-.1964 2-.56zm0-6c0 .5304-.2107 1.0391-.5858 1.4142s-.8838.5858-1.4142.5858h-8c-.53043 0-1.03914-.2107-1.41421-.5858-.37508-.3751-.58579-.8838-.58579-1.4142v-2.56c.60399.36355 1.29504.55705 2 .56h8c.705-.00295 1.396-.19645 2-.56zm-2-4h-8c-.53043 0-1.03914-.21071-1.41421-.58579-.37508-.37507-.58579-.88378-.58579-1.41421s.21071-1.03914.58579-1.41421c.37507-.37508.88378-.58579 1.41421-.58579h8c.5304 0 1.0391.21071 1.4142.58579.3751.37507.5858.88378.5858 1.41421s-.2107 1.03914-.5858 1.41421c-.3751.37508-.8838.58579-1.4142.58579z" fill="#9e9e9e"/></svg>