<svg fill="none" height="24" viewBox="0 0 24 24" width="24" xmlns="http://www.w3.org/2000/svg"><path d="m8 16.5c-.19778 0-.39112.0586-.55557.1685s-.29262.2661-.36831.4488-.09549.3838-.05691.5778c.03859.194.13383.3722.27368.512.13986.1399.31804.2351.51202.2737s.39505.0188.57777-.0569c.18273-.0757.33891-.2039.44879-.3683.10988-.1645.16853-.3578.16853-.5556 0-.2652-.10536-.5196-.29289-.7071-.18754-.1875-.44189-.2929-.70711-.2929zm4-14.5c-4 0-8 1.37-8 4v12c0 2.63 4 4 8 4s8-1.37 8-4v-12c0-2.63-4-4-8-4zm6 16c0 .71-2.28 2-6 2s-6-1.29-6-2v-3.27c1.87207.89 3.92789 1.3251 6 1.27 2.0721.0551 4.1279-.38 6-1.27zm0-6c0 .71-2.28 2-6 2s-6-1.29-6-2v-3.27c1.87207.88996 3.92789 1.3251 6 1.27 2.0721.0551 4.1279-.38004 6-1.27zm-6-4c-3.72 0-6-1.29-6-2s2.28-2 6-2 6 1.29 6 2-2.28 2-6 2zm-4 2.5c-.19778 0-.39112.0586-.55557.1685s-.29262.2661-.36831.4488-.09549.3838-.05691.5778c.03859.194.13383.3722.27368.512.13986.1399.31804.2351.51202.2737s.39505.0188.57777-.0569c.18273-.0757.33891-.2039.44879-.3683.10988-.1645.16853-.3578.16853-.5556 0-.2652-.10536-.5196-.29289-.7071-.18754-.1875-.44189-.2929-.70711-.2929z" fill="#9e9e9e"/></svg>