<svg fill="none" height="24" viewBox="0 0 24 24" width="24" xmlns="http://www.w3.org/2000/svg"><g clip-rule="evenodd" fill="#9e9e9e" fill-rule="evenodd"><path d="m17.7071 2.29289c-.3905-.39052-1.0237-.39052-1.4142 0l-3.2929 3.2929-2.2929-2.2929c-.3905-.39052-1.02368-.39052-1.41421 0-.39052.39053-.39052 1.02369 0 1.41422l1.29291 1.29289h-4.5858c-.79565 0-1.55871.31607-2.12132.87868s-.87868 1.32567-.87868 2.12132v9c0 .7956.31607 1.5587.87868 2.1213s1.32567.8787 2.12132.8787c0 .5523.44772 1 1 1s1-.4477 1-1h8c0 .5523.4477 1 1 1s1-.4477 1-1c.7956 0 1.5587-.3161 2.1213-.8787s.8787-1.3257.8787-2.1213v-9c0-.79565-.3161-1.55871-.8787-2.12132s-1.3257-.87868-2.1213-.87868h-2.5858l2.2929-2.29289c.3905-.39053.3905-1.02369 0-1.41422zm.2929 16.70711h-12c-.26522 0-.51957-.1054-.70711-.2929-.18753-.1875-.29289-.4419-.29289-.7071v-9c0-.26522.10536-.51957.29289-.70711.18754-.18753.44189-.29289.70711-.29289h12c.2652 0 .5196.10536.7071.29289.1875.18754.2929.44189.2929.70711v9c0 .2652-.1054.5196-.2929.7071s-.4419.2929-.7071.2929z"/><path d="m9.29289 11.2929c.3519-.3519.90901-.3915 1.30711-.0929l3.3062 2.4796 1.3867-1.3867c.3905-.3905 1.0237-.3905 1.4142 0s.3905 1.0237 0 1.4142l-2 2c-.3519.3519-.909.3915-1.3071.0929l-3.3062-2.4796-1.38669 1.3867c-.39053.3905-1.02369.3905-1.41422 0-.39052-.3905-.39052-1.0237 0-1.4142z"/></g></svg>