<svg width="14" height="14" viewBox="0 0 14 14" fill="none" xmlns="http://www.w3.org/2000/svg">
<path d="M11.6668 1.66666H10.3335V0.999995C10.3335 0.823184 10.2633 0.653615 10.1382 0.52859C10.0132 0.403566 9.84364 0.333328 9.66683 0.333328C9.49002 0.333328 9.32045 0.403566 9.19543 0.52859C9.0704 0.653615 9.00016 0.823184 9.00016 0.999995V1.66666H5.00016V0.999995C5.00016 0.823184 4.92992 0.653615 4.8049 0.52859C4.67988 0.403566 4.51031 0.333328 4.3335 0.333328C4.15669 0.333328 3.98712 0.403566 3.86209 0.52859C3.73707 0.653615 3.66683 0.823184 3.66683 0.999995V1.66666H2.3335C1.80306 1.66666 1.29436 1.87738 0.919283 2.25245C0.54421 2.62752 0.333496 3.13623 0.333496 3.66666V11.6667C0.333496 12.1971 0.54421 12.7058 0.919283 13.0809C1.29436 13.4559 1.80306 13.6667 2.3335 13.6667H11.6668C12.1973 13.6667 12.706 13.4559 13.081 13.0809C13.4561 12.7058 13.6668 12.1971 13.6668 11.6667V3.66666C13.6668 3.13623 13.4561 2.62752 13.081 2.25245C12.706 1.87738 12.1973 1.66666 11.6668 1.66666V1.66666ZM12.3335 11.6667C12.3335 11.8435 12.2633 12.013 12.1382 12.1381C12.0132 12.2631 11.8436 12.3333 11.6668 12.3333H2.3335C2.15669 12.3333 1.98712 12.2631 1.86209 12.1381C1.73707 12.013 1.66683 11.8435 1.66683 11.6667V7H12.3335V11.6667ZM12.3335 5.66666H1.66683V3.66666C1.66683 3.48985 1.73707 3.32028 1.86209 3.19526C1.98712 3.07023 2.15669 2.99999 2.3335 2.99999H3.66683V3.66666C3.66683 3.84347 3.73707 4.01304 3.86209 4.13807C3.98712 4.26309 4.15669 4.33333 4.3335 4.33333C4.51031 4.33333 4.67988 4.26309 4.8049 4.13807C4.92992 4.01304 5.00016 3.84347 5.00016 3.66666V2.99999H9.00016V3.66666C9.00016 3.84347 9.0704 4.01304 9.19543 4.13807C9.32045 4.26309 9.49002 4.33333 9.66683 4.33333C9.84364 4.33333 10.0132 4.26309 10.1382 4.13807C10.2633 4.01304 10.3335 3.84347 10.3335 3.66666V2.99999H11.6668C11.8436 2.99999 12.0132 3.07023 12.1382 3.19526C12.2633 3.32028 12.3335 3.48985 12.3335 3.66666V5.66666Z" fill="#454449"/>
</svg>
