<svg fill="none" height="24" viewBox="0 0 24 24" width="24" xmlns="http://www.w3.org/2000/svg"><path d="m19 2h-12.72999c-.70181.00023-1.38133.24651-1.92032.69598-.539.44946-.90336 1.07367-1.02968 1.76402l-1.27 7c-.07913.4324-.06226.877.04943 1.3022s.31547.8206.5969 1.1584c.28144.3377.63366.6094 1.03175.796.39808.1865.8323.2833 1.27192.2834h4.56l-.56 1.43c-.23294.6261-.31051 1.2994-.22607 1.9621s.32838 1.295.71088 1.8427.89218.9944 1.48528 1.3019c.5931.3074 1.2519.4664 1.9199.4633.1924-.0004.3805-.0563.5419-.1609.1614-.1047.2892-.2537.3681-.4291l2.85-6.41h2.35c.7957 0 1.5587-.3161 2.1213-.8787s.8787-1.3257.8787-2.1213v-7c0-.79565-.3161-1.55871-.8787-2.12132s-1.3256-.87868-2.1213-.87868zm-4 11.79-2.72 6.12c-.2783-.0842-.5364-.2245-.7585-.4122-.222-.1878-.4032-.419-.5325-.6795-.1293-.2604-.2039-.5446-.2192-.8349-.0153-.2904.029-.5808.1302-.8534l.53-1.43c.1129-.3023.1511-.6273.1111-.9475-.0399-.3202-.1567-.626-.3404-.8912-.1837-.2653-.4289-.4822-.7146-.6321-.2857-.15-.60343-.2286-.92609-.2292h-4.56c-.14691.0002-.29207-.0319-.42516-.0941-.13308-.0622-.25082-.153-.34484-.2659-.09634-.1113-.1669-.2425-.20666-.3843-.03976-.1417-.04773-.2905-.02334-.4357l1.27-7c.04259-.23296.16648-.44324.34961-.5934.18312-.15016.4136-.23046.65039-.2266h8.72999zm5-1.79c0 .2652-.1053.5196-.2929.7071-.1875.1875-.4419.2929-.7071.2929h-2v-9h2c.2652 0 .5196.10536.7071.29289.1876.18754.2929.44189.2929.70711z" fill="#9e9e9e"/></svg>