<svg fill="none" height="24" viewBox="0 0 24 24" width="24" xmlns="http://www.w3.org/2000/svg"><path d="m16 5h-3v-2c0-.26522-.1054-.51957-.2929-.70711-.1875-.18753-.4419-.29289-.7071-.29289s-.5196.10536-.7071.29289c-.1875.18754-.2929.44189-.2929.70711v2h-4.99999c-.15021.00069-.29833.03521-.43336.101-.13504.06579-.25352.16115-.34664.279l-2 2.5c-.13951.17655-.2154.39499-.2154.62s.07589.44345.2154.62l2 2.5c.09312.1179.2116.2132.34664.279.13503.0658.28315.1003.43336.101h4.99999v8h-1.99999c-.26522 0-.51957.1054-.70711.2929s-.29289.4419-.29289.7071.10535.5196.29289.7071.44189.2929.70711.2929h5.99999c.2652 0 .5196-.1054.7071-.2929s.2929-.4419.2929-.7071-.1054-.5196-.2929-.7071-.4419-.2929-.7071-.2929h-2v-8h3c.2652 0 .5196-.1054.7071-.2929.1876-.1875.2929-.4419.2929-.7071v-5c0-.26522-.1053-.51957-.2929-.70711-.1875-.18753-.4419-.29289-.7071-.29289zm-1 5h-8.51999l-1.2-1.5 1.2-1.5h8.51999z" fill="#9e9e9e"/></svg>