<svg fill="none" height="24" viewBox="0 0 24 24" width="24" xmlns="http://www.w3.org/2000/svg"><g fill="#9e9e9e"><path d="m9 21h-3c-1.6543 0-3-1.3457-3-3v-12c0-1.6543 1.3457-3 3-3h12c1.6543 0 3 1.3457 3 3v1c0 .55225-.4478 1-1 1s-1-.44775-1-1v-1c0-.55127-.4487-1-1-1h-12c-.55127 0-1 .44873-1 1v12c0 .5518.44873 1 1 1h3c.55225 0 1 .4473 1 1s-.44775 1-1 1z"/><path d="m17 15c-1.6543 0-3-1.3457-3-3s1.3457-3 3-3 3 1.3457 3 3-1.3457 3-3 3zm0-4c-.5513 0-1 .4487-1 1s.4487 1 1 1 1-.4487 1-1-.4487-1-1-1z"/><path d="m21 21c-.5522 0-1-.4473-1-1 0-1.1025-.897-2-2-2h-2c-1.103 0-2 .8975-2 2 0 .5527-.4477 1-1 1s-1-.4473-1-1c0-2.206 1.7944-4 4-4h2c2.2056 0 4 1.794 4 4 0 .5527-.4478 1-1 1z"/><path clip-rule="evenodd" d="m11.5346 7.29194c.391.39.3919 1.02316.0019 1.41421l-.7071.70902.7061.70613c.3906.3905.3906 1.0237 0 1.4142-.3905.3906-1.0237.3906-1.4142 0l-.70422-.7042-.70519.7071c-.38999.391-1.02316.3919-1.41421.0019s-.39191-1.0232-.00191-1.4142l.70709-.70902-.70997-.70997c-.39052-.39053-.39052-1.02369 0-1.41422.39053-.39052 1.02369-.39052 1.41422 0l.70806.70806.70523-.7071c.39-.39105 1.0231-.39191 1.4142-.00191z" fill-rule="evenodd"/></g></svg>