<svg fill="none" height="24" viewBox="0 0 24 24" width="24" xmlns="http://www.w3.org/2000/svg"><path d="m7 6v5c0 .2652.10536.5196.29289.7071.18754.1875.44189.2929.70711.2929h3v8h-2c-.26522 0-.51957.1054-.70711.2929-.18753.1875-.29289.4419-.29289.7071s.10536.5196.29289.7071c.18754.1875.44189.2929.70711.2929h6c.2652 0 .5196-.1054.7071-.2929s.2929-.4419.2929-.7071-.1054-.5196-.2929-.7071-.4419-.2929-.7071-.2929h-2v-8h5c.1494.0005.297-.0325.432-.0965s.2539-.1575.348-.2735l2-2.5c.142-.17736.2194-.39779.2194-.625s-.0774-.44764-.2194-.625l-2-2.5c-.0931-.11785-.2116-.21321-.3466-.279-.1351-.06579-.2832-.10031-.4334-.101h-5v-2c0-.26522-.1054-.51957-.2929-.70711-.1875-.18753-.4419-.29289-.7071-.29289s-.5196.10536-.7071.29289c-.1875.18754-.2929.44189-.2929.70711v2h-3c-.26522 0-.51957.10536-.70711.29289-.18753.18754-.29289.44189-.29289.70711zm2 1h8.52l1.2 1.5-1.2 1.5h-8.52z" fill="#9e9e9e"/></svg>