<svg fill="none" height="24" viewBox="0 0 24 24" width="24" xmlns="http://www.w3.org/2000/svg"><path d="m11 9h4c.2652 0 .5196-.10536.7071-.29289.1875-.18754.2929-.44189.2929-.70711s-.1054-.51957-.2929-.70711c-.1875-.18753-.4419-.29289-.7071-.29289h-2v-1c0-.26522-.1054-.51957-.2929-.70711-.1875-.18753-.4419-.29289-.7071-.29289s-.5196.10536-.7071.29289c-.1875.18754-.2929.44189-.2929.70711v1c-.7956 0-1.55871.31607-2.12132.87868s-.87868 1.32567-.87868 2.12132c0 .7956.31607 1.5587.87868 2.1213s1.32572.8787 2.12132.8787h2c.2652 0 .5196.1054.7071.2929s.2929.4419.2929.7071-.1054.5196-.2929.7071-.4419.2929-.7071.2929h-4c-.26521 0-.51957.1054-.7071.2929-.18754.1875-.2929.4419-.2929.7071s.10536.5196.2929.7071c.18753.1875.44189.2929.7071.2929h2v1c0 .2652.1054.5196.2929.7071s.4419.2929.7071.2929.5196-.1054.7071-.2929.2929-.4419.2929-.7071v-1c.7957 0 1.5587-.3161 2.1213-.8787s.8787-1.3257.8787-2.1213-.3161-1.5587-.8787-2.1213-1.3256-.8787-2.1213-.8787h-2c-.2652 0-.5196-.1054-.7071-.2929s-.2929-.4419-.2929-.7071c0-.26522.1054-.51957.2929-.70711.1875-.18753.4419-.29289.7071-.29289zm1-8c-2.17559 0-4.30233.64514-6.11127 1.85383-1.80894 1.2087-3.21884 2.92666-4.0514 4.93665s-1.050401 4.22172-.62596 6.35552c.42443 2.1338 1.47208 4.0938 3.01046 5.6322s3.49839 2.586 5.63218 3.0104c2.13379.4245 4.34549.2066 6.35549-.6259 2.01-.8326 3.728-2.2425 4.9367-4.0514 1.2087-1.809 1.8538-3.9357 1.8538-6.1113 0-2.91738-1.1589-5.71527-3.2218-7.77817s-4.8608-3.22183-7.7782-3.22183zm0 20c-1.78 0-3.52008-.5278-5.00013-1.5168-1.48004-.9889-2.63359-2.3945-3.31478-4.039-.68119-1.6446-.85942-3.4542-.51215-5.2.34726-1.74584 1.20443-3.34949 2.4631-4.60816 1.25868-1.25867 2.86232-2.11584 4.60816-2.46311 1.7458-.34726 3.5554-.16903 5.2.51215 1.6445.68119 3.0501 1.83475 4.039 3.31479.989 1.48004 1.5168 3.22013 1.5168 5.00013 0 2.3869-.9482 4.6761-2.636 6.364-1.6879 1.6878-3.977 2.636-6.364 2.636z" fill="#9e9e9e"/></svg>