<svg fill="none" height="24" viewBox="0 0 24 24" width="24" xmlns="http://www.w3.org/2000/svg"><g fill="#9e9e9e"><path d="m14 9h-6c-.55225 0-1-.44775-1-1s.44775-1 1-1h6c.5522 0 1 .44775 1 1s-.4478 1-1 1z"/><path d="m10 13h-2c-.55225 0-1-.4477-1-1s.44775-1 1-1h2c.5522 0 1 .4477 1 1s-.4478 1-1 1z"/><path d="m20.6401 20.2319-2.1589-1.799 1.2258-1.2259c.2452-.2451.3457-.5996.2661-.937-.0795-.3369-.3281-.6089-.6567-.7187l-6-2c-.3594-.1192-.7554-.0264-1.0234.2417-.2681.2675-.3614.664-.2417 1.0234l2 6c.1098.3286.3818.5772.7187.6567.0767.0181.1533.0269.23.0269.2622 0 .5176-.103.707-.293l1.3544-1.3543 2.2985 1.9154c.187.1557.414.2319.6396.2319.2866 0 .5708-.1226.7686-.3599.3535-.4243.2964-1.0547-.128-1.4082zm-5.2031-1.583-.8559-2.5678 2.5678.8559z"/><path d="m11 21h-5.28906c-1.49463 0-2.71094-1.2163-2.71094-2.7109v-12.57816c0-1.49463 1.21631-2.71094 2.71094-2.71094h10.57816c1.4946 0 2.7109 1.21631 2.7109 2.71094v6.28906c0 .5522-.4478 1-1 1s-1-.4478-1-1v-6.28906c0-.39209-.3189-.71094-.7109-.71094h-10.57816c-.39209 0-.71094.31885-.71094.71094v12.57816c0 .3921.31885.7109.71094.7109h5.28906c.5522 0 1 .4478 1 1s-.4478 1-1 1z"/></g></svg>