<svg fill="none" height="24" viewBox="0 0 24 24" width="24" xmlns="http://www.w3.org/2000/svg"><path d="m17 9.17c-.1874-.18625-.4408-.29079-.705-.29079s-.5176.10454-.705.29079l-3.59 3.54-3.53999-3.54c-.18736-.18625-.44081-.29079-.705-.29079s-.51764.10454-.705.29079c-.09373.09297-.16812.20357-.21889.32543s-.07691.25256-.07691.38457c0 .132.02614.2627.07691.3846.05077.1218.12516.2324.21889.3254l4.23999 4.24c.093.0937.2036.1681.3254.2189.1219.0508.2526.0769.3846.0769s.2627-.0261.3846-.0769c.1218-.0508.2324-.1252.3254-.2189l4.29-4.24c.0937-.093.1681-.2036.2189-.3254.0508-.1219.0769-.2526.0769-.3846 0-.13201-.0261-.26271-.0769-.38457s-.1252-.23246-.2189-.32543z" fill="#9e9e9e"/></svg>