<svg fill="none" height="24" viewBox="0 0 24 24" width="24" xmlns="http://www.w3.org/2000/svg"><path d="m21.78 11.88-2-2.5c-.0931-.11785-.2116-.21321-.3466-.279-.1351-.06579-.2832-.10031-.4334-.101h-6v-6c0-.26522-.1054-.51957-.2929-.70711-.1875-.18753-.4419-.29289-.7071-.29289s-.5196.10536-.7071.29289c-.1875.18754-.2929.44189-.2929.70711v1h-5.99999c-.15021.00069-.29833.03521-.43336.101-.13504.06579-.25352.16115-.34664.279l-2 2.5c-.13951.17655-.2154.39499-.2154.62s.07589.44345.2154.62l2 2.5c.09312.1179.2116.2132.34664.279.13503.0658.28315.1003.43336.101h5.99999v9h-1.99999c-.26522 0-.51957.1054-.70711.2929s-.29289.4419-.29289.7071.10535.5196.29289.7071.44189.2929.70711.2929h5.99999c.2652 0 .5196-.1054.7071-.2929s.2929-.4419.2929-.7071-.1054-.5196-.2929-.7071-.4419-.2929-.7071-.2929h-2v-4h6c.1502-.0007.2983-.0352.4334-.101.135-.0658.2535-.1611.3466-.279l2-2.5c.1395-.1765.2154-.395.2154-.62s-.0759-.4435-.2154-.62zm-10.78-2.88h-5.51999l-1.2-1.5 1.2-1.5h5.51999zm7.52 5h-5.52v-3h5.52l1.2 1.5z" fill="#9e9e9e"/></svg>