<svg fill="none" height="24" viewBox="0 0 24 24" width="24" xmlns="http://www.w3.org/2000/svg"><g clip-rule="evenodd" fill="#9e9e9e" fill-rule="evenodd"><path d="m2 5c0-1.65685 1.34315-3 3-3h12c1.6569 0 3 1.34315 3 3v1c0 .55228-.4477 1-1 1s-1-.44772-1-1v-1c0-.55228-.4477-1-1-1h-12c-.55228 0-1 .44772-1 1v13c0 .5523.44772 1 1 1h2c.55228 0 1 .4477 1 1s-.44772 1-1 1h-2c-1.65685 0-3-1.3431-3-3z"/><path d="m18 12c0 .5523.4477 1 1 1s1-.4477 1-1-.4477-1-1-1-1 .4477-1 1zm-1.8341.9863c.4079 1.1723 1.5228 2.0137 2.8341 2.0137 1.6569 0 3-1.3431 3-3s-1.3431-3-3-3c-1.3113 0-2.4262.84136-2.8341 2.0137-.054-.009-.1094-.0137-.1659-.0137h-1c-1.6569 0-3 1.3431-3 3v2c0 .0565.0047.1119.0137.1659-1.1723.4079-2.0137 1.5228-2.0137 2.8341 0 1.6569 1.3431 3 3 3s3-1.3431 3-3c0-1.3113-.8414-2.4262-2.0137-2.8341.009-.054.0137-.1094.0137-.1659v-2c0-.5523.4477-1 1-1h1c.0565 0 .1119-.0047.1659-.0137zm-4.1659 6.0137c0 .5523.4477 1 1 1s1-.4477 1-1-.4477-1-1-1-1 .4477-1 1z"/><path d="m6 8c0-.55228.44772-1 1-1h6c.5523 0 1 .44772 1 1s-.4477 1-1 1h-6c-.55228 0-1-.44772-1-1z"/><path d="m6 12c0-.5523.44772-1 1-1h2c.55228 0 1 .4477 1 1s-.44772 1-1 1h-2c-.55228 0-1-.4477-1-1z"/></g></svg>