<svg fill="none" height="24" viewBox="0 0 24 24" width="24" xmlns="http://www.w3.org/2000/svg"><path d="m17 11h1c.2652 0 .5196-.1054.7071-.2929s.2929-.4419.2929-.7071v-1c0-.26522-.1054-.51957-.2929-.70711-.1875-.18753-.4419-.29289-.7071-.29289h-1c-.2652 0-.5196.10536-.7071.29289-.1875.18754-.2929.44189-.2929.70711v1c0 .2652.1054.5196.2929.7071s.4419.2929.7071.2929zm-11 1h5c.2652 0 .5196-.1054.7071-.2929s.2929-.4419.2929-.7071-.1054-.5196-.2929-.7071-.4419-.2929-.7071-.2929h-5c-.26522 0-.51957.1054-.70711.2929-.18753.1875-.29289.4419-.29289.7071s.10536.5196.29289.7071c.18754.1875.44189.2929.70711.2929zm16-8h-20c-.26522 0-.51957.10536-.70711.29289-.18753.18754-.29289.44189-.29289.70711v14c0 .2652.10536.5196.29289.7071.18754.1875.44189.2929.70711.2929h20c.2652 0 .5196-.1054.7071-.2929s.2929-.4419.2929-.7071v-14c0-.26522-.1054-.51957-.2929-.70711-.1875-.18753-.4419-.29289-.7071-.29289zm-1 14h-18v-12h18zm-15-2h5c.2652 0 .5196-.1054.7071-.2929s.2929-.4419.2929-.7071-.1054-.5196-.2929-.7071-.4419-.2929-.7071-.2929h-5c-.26522 0-.51957.1054-.70711.2929-.18753.1875-.29289.4419-.29289.7071s.10536.5196.29289.7071c.18754.1875.44189.2929.70711.2929z" fill="#9e9e9e"/></svg>