<svg fill="none" height="24" viewBox="0 0 24 24" width="24" xmlns="http://www.w3.org/2000/svg"><path d="m12 16c-.1978 0-.3911.0586-.5556.1685-.1644.1099-.2926.2661-.3683.4488s-.0955.3838-.0569.5778.1338.3722.2737.512c.1398.1399.318.2351.512.2737s.3951.0188.5778-.0569.3389-.2039.4488-.3683c.1098-.1645.1685-.3578.1685-.5556 0-.2652-.1054-.5196-.2929-.7071s-.4419-.2929-.7071-.2929zm10.67 1.47-8.05-14c-.2602-.46649-.6402-.85505-1.1008-1.12553-.4606-.27049-.9851-.4131-1.5192-.4131s-1.0586.14261-1.5192.4131c-.4606.27048-.84061.65904-1.1008 1.12553l-8 14c-.26921.454-.413859.971-.419357 1.4988-.005499.5278.128357 1.0477.388037 1.5072.25969.4596.63602.8425 1.091 1.11.45498.2676.9725.4104 1.50032.414h16.12c.5321.0052 1.0559-.1311 1.5179-.3951s.8455-.6461 1.1111-1.1071.4038-.9844.4005-1.5165c-.0033-.532-.1481-1.0536-.4195-1.5113zm-1.73 2c-.0877.1559-.2155.2855-.3703.3752s-.3308.1363-.5097.1348h-16.12c-.17889.0015-.3549-.0451-.50968-.1348-.15479-.0897-.28267-.2193-.37032-.3752-.08777-.152-.13398-.3245-.13398-.5s.04621-.348.13398-.5l8-14c.0839-.1638.2114-.30127.3684-.39726.1571-.09599.3376-.14678.5216-.14678s.3645.05079.5216.14678c.157.09599.2845.23346.3684.39726l8.05 14c.0992.1498.1562.3236.165.5031s-.0309.3581-.115.5169zm-8.94-11.47c-.2652 0-.5196.10535-.7071.29289s-.2929.44189-.2929.70711v4c0 .2652.1054.5196.2929.7071s.4419.2929.7071.2929.5196-.1054.7071-.2929.2929-.4419.2929-.7071v-4c0-.26522-.1054-.51957-.2929-.70711s-.4419-.29289-.7071-.29289z" fill="#9e9e9e"/></svg>