<svg fill="none" height="24" viewBox="0 0 24 24" width="24" xmlns="http://www.w3.org/2000/svg"><path d="m11.29 15.71c.1399.141.3186.2372.5133.2763.1948.039.3967.0192.5802-.0569.1834-.0762.34-.2053.4498-.3708s.1679-.36.1667-.5586c-.0037-.2648-.1073-.5184-.29-.71-.1406-.1388-.3192-.2328-.5132-.2701-.194-.0374-.3947-.0165-.5768.0601-.1228.0476-.2349.119-.33.21-.1827.1916-.2863.4452-.29.71-.0008.1316.0245.2621.0742.3839.0498.1218.1231.2327.2158.3261zm8.62-.2h-4.53c-.2652 0-.5196.1054-.7071.2929s-.2929.4419-.2929.7071.1054.5196.2929.7071.4419.2929.7071.2929h2.4c-1.1031 1.1527-2.5256 1.9493-4.0848 2.2874-1.5593.3381-3.184.2022-4.66542-.3902-1.48144-.5923-2.75191-1.6141-3.64819-2.934-.89628-1.32-1.37741-2.8777-1.38159-4.4732 0-.2652-.10536-.5196-.29289-.7071-.18754-.1875-.44189-.2929-.70711-.2929s-.51957.1054-.70711.2929c-.18753.1875-.29289.4419-.29289.7071.00529 1.9528.58222 3.8613 1.6596 5.49 1.07739 1.6287 2.60807 2.9064 4.40314 3.6752 1.79508.7689 3.77596.9953 5.69826.6514s3.7018-1.2431 5.119-2.5866v1.77c0 .2652.1054.5196.2929.7071s.4419.2929.7071.2929.5196-.1054.7071-.2929.2929-.4419.2929-.7071v-4.5c-.0025-.2584-.1048-.5057-.2857-.6903-.1808-.1846-.426-.292-.6843-.2997zm-7.91-13.51c-2.56361.00731-5.02651.99891-6.88 2.77v-1.77c0-.26522-.10536-.51957-.29289-.70711-.18754-.18753-.44189-.29289-.70711-.29289s-.51957.10536-.70711.29289c-.18753.18754-.29289.44189-.29289.70711v4.5c0 .26522.10536.51957.29289.70711.18754.18753.44189.29289.70711.29289h4.5c.26522 0 .51957-.10536.70711-.29289.18753-.18754.29289-.44189.29289-.70711s-.10536-.51957-.29289-.70711c-.18754-.18753-.44189-.29289-.70711-.29289h-2.4c1.10247-1.15213 2.52409-1.9485 4.0824-2.28689 1.5583-.33839 3.1822-.20336 4.6632.38775 1.481.59112 2.7516 1.61135 3.6486 2.92974.8971 1.3184 1.3796 2.8748 1.3858 4.4694 0 .2652.1054.5196.2929.7071s.4419.2929.7071.2929.5196-.1054.7071-.2929.2929-.4419.2929-.7071c0-1.3132-.2587-2.61358-.7612-3.82683-.5026-1.21326-1.2391-2.31565-2.1677-3.24424-.9286-.92858-2.031-1.66518-3.2443-2.16773-1.2132-.50254-2.5136-.7612-3.8268-.7612zm0 11c.2652 0 .5196-.1054.7071-.2929s.2929-.4419.2929-.7071v-3c0-.26522-.1054-.51957-.2929-.70711-.1875-.18753-.4419-.29289-.7071-.29289s-.5196.10536-.7071.29289c-.1875.18754-.2929.44189-.2929.70711v3c0 .2652.1054.5196.2929.7071s.4419.2929.7071.2929z" fill="#9e9e9e"/></svg>