<svg fill="none" height="24" viewBox="0 0 24 24" width="24" xmlns="http://www.w3.org/2000/svg"><path d="m10.94 6.08c.3508-.05377.7051-.08051 1.06-.08 3.18 0 6.17 2.29 7.91 6-.2661.5646-.5667 1.1123-.9 1.64-.1058.1638-.1614.355-.16.55.0022.2182.0758.4298.2095.6023.1336.1725.3201.2966.5308.3532.2108.0567.4343.0428.6365-.0394.2021-.0823.3718-.2284.4832-.4161.4659-.7321.8706-1.5013 1.21-2.3.0537-.1248.0813-.2592.0813-.395s-.0276-.2702-.0813-.395c-2.02-4.69-5.82-7.6-9.92-7.6-.4693-.00236-.9379.0378-1.4.12-.1313.02233-.257.0703-.3697.14118-.1128.07088-.2105.16328-.28761.27192-.07708.10865-.13199.23141-.16162.36128s-.03339.2643-.01107.39562c.02233.13132.0703.25696.14118.36974.07088.11279.16332.2105.27192.28758.1086.07707.2314.13199.3613.16162.1298.02963.2643.03338.3956.01106zm-7.23-3.79c-.09324-.09324-.20393-.1672-.32575-.21766s-.25239-.07643-.38425-.07643-.26242.02597-.38425.07643c-.12182.05046-.23251.12442-.32575.21766-.1883.1883-.29409.4437-.29409.71s.10579.5217.29409.71l3.1 3.09c-1.41442 1.36153-2.54014 2.99399-3.31 4.8-.05506.1262-.08348.2623-.08348.4s.02842.2738.08348.4c2.02 4.69 5.82 7.6 9.92 7.6 1.7971-.0124 3.5518-.5475 5.05-1.54l3.24 3.25c.093.0937.2036.1681.3254.2189.1219.0508.2526.0769.3846.0769s.2627-.0261.3846-.0769c.1218-.0508.2324-.1252.3254-.2189.0937-.093.1681-.2036.2189-.3254.0508-.1219.0769-.2526.0769-.3846s-.0261-.2627-.0769-.3846c-.0508-.1218-.1252-.2324-.2189-.3254zm6.36 9.19 2.45 2.45c-.169.0485-.3442.072-.52.07-.5304 0-1.0391-.2107-1.4142-.5858s-.5858-.8838-.5858-1.4142c-.00205-.1758.0215-.351.07-.52zm1.93 6.52c-3.18 0-6.17-2.29-7.9-6 .64609-1.4263 1.56307-2.71342 2.7-3.79l1.77 1.79c-.41575.7588-.57426 1.6319-.45174 2.4885.12252.8565.51946 1.6502 1.13127 2.262s1.40547 1.0087 2.26197 1.1312c.8566.1226 1.7297-.0359 2.4885-.4517l1.59 1.57c-1.0889.6409-2.3266.9856-3.59 1z" fill="#9e9e9e"/></svg>