<svg fill="none" height="24" viewBox="0 0 24 24" width="24" xmlns="http://www.w3.org/2000/svg"><path d="m5 17.9999h4.24c.13161.0008.26207-.0244.38391-.0742.12183-.0498.23265-.1231.32609-.2158l6.92-6.93 2.84-2.77996c.0937-.09296.1681-.20357.2189-.32542.0508-.12186.0769-.25257.0769-.38458s-.0261-.26272-.0769-.38458-.1252-.23246-.2189-.32542l-4.24-4.29c-.093-.09373-.2036-.16812-.3254-.21889-.1219-.05077-.2526-.07691-.3846-.07691s-.2627.02614-.3846.07691c-.1218.05077-.2324.12516-.3254.21889l-2.82 2.83-6.94 6.92996c-.09268.0935-.16601.2043-.21577.3261-.04977.1219-.07499.2523-.07423.3839v4.24c0 .2653.10536.5196.29289.7071.18754.1876.44189.2929.70711.2929zm9.76-13.58996 2.83 2.83-1.42 1.42-2.83-2.83zm-8.76 8.75996 5.93-5.92996 2.83 2.82996-5.93 5.93h-2.83zm15 6.83h-18c-.26522 0-.51957.1054-.70711.2929-.18753.1876-.29289.4419-.29289.7071 0 .2653.10536.5196.29289.7071.18754.1876.44189.2929.70711.2929h18c.2652 0 .5196-.1053.7071-.2929.1875-.1875.2929-.4418.2929-.7071 0-.2652-.1054-.5195-.2929-.7071-.1875-.1875-.4419-.2929-.7071-.2929z" fill="#9e9e9e"/></svg>