<svg fill="none" height="24" viewBox="0 0 24 24" width="24" xmlns="http://www.w3.org/2000/svg"><path d="m21.92 11.6c-2.02-4.69-5.82-7.6-9.92-7.6-4.09999 0-7.89999 2.91-9.91999 7.6-.05507.1262-.08349.2623-.08349.4s.02842.2738.08349.4c2.02 4.69 5.82 7.6 9.91999 7.6 4.1 0 7.9-2.91 9.92-7.6.0551-.1262.0835-.2623.0835-.4s-.0284-.2738-.0835-.4zm-9.92 6.4c-3.16999 0-6.16999-2.29-7.89999-6 1.73-3.71 4.73-6 7.89999-6 3.17 0 6.17 2.29 7.9 6-1.73 3.71-4.73 6-7.9 6zm0-10c-.7911 0-1.5645.2346-2.22227.67412-.6578.43953-1.17049 1.06424-1.47324 1.79518-.30275.7309-.38197 1.5351-.22763 2.3111.15434.7759.53531 1.4886 1.09472 2.048s1.27212.9404 2.04802 1.0947c.776.1544 1.5802.0752 2.3111-.2276.7309-.3027 1.3557-.8154 1.7952-1.4732s.6741-1.4312.6741-2.2223c0-1.0609-.4214-2.07828-1.1716-2.82843-.7501-.75014-1.7675-1.17157-2.8284-1.17157zm0 6c-.3956 0-.7822-.1173-1.1111-.3371-.3289-.2197-.5853-.5321-.7367-.8975-.1513-.3655-.19094-.7676-.1138-1.1556.0772-.3879.2677-.7443.5474-1.024s.6361-.4702 1.024-.5474c.388-.07714.7901-.0375 1.1556.1138.3654.1514.6778.4078.8975.7367.2198.3289.3371.7155.3371 1.1111 0 .5304-.2107 1.0391-.5858 1.4142s-.8838.5858-1.4142.5858z" fill="#9e9e9e"/></svg>