<svg fill="none" height="24" viewBox="0 0 24 24" width="24" xmlns="http://www.w3.org/2000/svg"><path d="m14 11.51h2.42c.1316.0008.2621-.0245.3839-.0742.1218-.0498.2327-.1231.3261-.2158l4.58-4.58001c.0937-.09296.1681-.20356.2189-.32542s.0769-.25256.0769-.38458c0-.13201-.0261-.26271-.0769-.38457s-.1252-.23246-.2189-.32543l-2.42-2.42c-.093-.09372-.2036-.16812-.3254-.21889-.1219-.05077-.2526-.0769-.3846-.0769s-.2627.02613-.3846.0769c-.1218.05077-.2324.12517-.3254.21889l-4.58 4.58c-.1827.19164-.2863.44524-.29.71v2.42001c0 .2652.1054.5196.2929.7071s.4419.2929.7071.2929zm1-3.00001 3.58-3.58 1 1-3.58 3.58h-1zm6 2.00001c-.2652 0-.5196.1054-.7071.2929s-.2929.4419-.2929.7071v7c0 .2652-.1054.5196-.2929.7071s-.4419.2929-.7071.2929h-14c-.26522 0-.51957-.1054-.70711-.2929-.18753-.1875-.29289-.4419-.29289-.7071v-9.61001l5.88 5.89001c.2791.2827.6115.5072.978.6604s.7598.232 1.157.232.7905-.0788 1.157-.232.6989-.3777.978-.6604c.1832-.1869.2859-.4383.2859-.7 0-.2618-.1027-.5131-.2859-.7-.0931-.0953-.2044-.1709-.3271-.2226-.1228-.0517-.2547-.0783-.3879-.0783s-.2651.0266-.3879.0783c-.1227.0517-.234.1273-.3271.2226-.1869.1832-.4382.2859-.7.2859s-.5131-.1027-.7-.2859l-5.91-5.90001h4.59c.2652 0 .5196-.10535.7071-.29289.1875-.18753.2929-.44189.2929-.70711 0-.26521-.1054-.51957-.2929-.7071-.1875-.18754-.4419-.2929-.7071-.2929h-5c-.79565 0-1.55871.31607-2.12132.87868s-.87868 1.32567-.87868 2.12132v10.00001c0 .7956.31607 1.5587.87868 2.1213s1.32567.8787 2.12132.8787h14c.7956 0 1.5587-.3161 2.1213-.8787s.8787-1.3257.8787-2.1213v-7c0-.2652-.1054-.5196-.2929-.7071s-.4419-.2929-.7071-.2929z" fill="#9e9e9e"/></svg>