<svg fill="none" height="24" viewBox="0 0 24 24" width="24" xmlns="http://www.w3.org/2000/svg"><g fill="#9e9e9e"><path d="m10 20h-4c-.26522 0-.51957-.1054-.70711-.2929-.18753-.1875-.29289-.4419-.29289-.7071v-14c0-.26522.10536-.51957.29289-.70711.18754-.18753.44189-.29289.70711-.29289h5v3c0 .79565.3161 1.55871.8787 2.12132s1.3257.87868 2.1213.87868h3v1c0 .2652.1054.5196.2929.7071s.4419.2929.7071.2929.5196-.1054.7071-.2929.2929-.4419.2929-.7071v-2s0 0 0-.06c-.0104-.09187-.0305-.18237-.06-.27v-.09c-.0481-.10282-.1122-.19733-.19-.28l-6-6c-.0827-.07778-.1772-.14192-.28-.19-.0298-.00424-.0601-.00424-.09 0l-.32-.11h-6.06c-.79565 0-1.55871.31607-2.12132.87868s-.87868 1.32567-.87868 2.12132v14c0 .7956.31607 1.5587.87868 2.1213s1.32567.8787 2.12132.8787h4c.2652 0 .5196-.1054.7071-.2929s.2929-.4419.2929-.7071-.1054-.5196-.2929-.7071-.4419-.2929-.7071-.2929zm3-14.59 2.59 2.59h-1.59c-.2652 0-.5196-.10536-.7071-.29289-.1875-.18754-.2929-.44189-.2929-.70711zm-5 8.59h3c.2652 0 .5196-.1054.7071-.2929s.2929-.4419.2929-.7071-.1054-.5196-.2929-.7071-.4419-.2929-.7071-.2929h-3c-.26522 0-.51957.1054-.70711.2929-.18753.1875-.29289.4419-.29289.7071s.10536.5196.29289.7071c.18754.1875.44189.2929.70711.2929zm0-4h1c.26522 0 .51957-.10536.70711-.29289.18753-.18754.29289-.44189.29289-.70711s-.10536-.51957-.29289-.70711c-.18754-.18753-.44189-.29289-.70711-.29289h-1c-.26522 0-.51957.10536-.70711.29289-.18753.18754-.29289.44189-.29289.70711s.10536.51957.29289.70711c.18754.18753.44189.29289.70711.29289zm2 6h-2c-.26522 0-.51957.1054-.70711.2929-.18753.1875-.29289.4419-.29289.7071s.10536.5196.29289.7071c.18754.1875.44189.2929.70711.2929h2c.2652 0 .5196-.1054.7071-.2929s.2929-.4419.2929-.7071-.1054-.5196-.2929-.7071-.4419-.2929-.7071-.2929z"/><g clip-rule="evenodd" fill-rule="evenodd"><path d="m13.2929 19.7071c-.3905-.3905-.3905-1.0237 0-1.4142l4-4c.3905-.3905 1.0237-.3905 1.4142 0s.3905 1.0237 0 1.4142l-4 4c-.3905.3905-1.0237.3905-1.4142 0z"/><path d="m14 15c0-.5523.4477-1 1-1h3c.5523 0 1 .4477 1 1s-.4477 1-1 1h-3c-.5523 0-1-.4477-1-1z"/><path d="m18 14c.5523 0 1 .4477 1 1v3c0 .5523-.4477 1-1 1s-1-.4477-1-1v-3c0-.5523.4477-1 1-1z"/></g></g></svg>