<svg width="24" height="24" viewBox="0 0 24 24" fill="none" xmlns="http://www.w3.org/2000/svg">
<path fill-rule="evenodd" clip-rule="evenodd" d="M18 4V10H6V9.62843C6 9.09799 6.21071 8.58929 6.58579 8.21421L10.2142 4.58579C10.5893 4.21071 11.098 4 11.6284 4H18ZM21 17C21 17.5523 20.5523 18 20 18V20C20 21.1 19.1 22 18 22H6C4.9 22 4 21.1 4 20L4 18C3.44772 18 3 17.5523 3 17V11C3 10.4477 3.44772 10 4 10V8.82843C4 8.29799 4.21071 7.78929 4.58579 7.41421L9.41421 2.58579C9.78929 2.21071 10.298 2 10.8284 2H18C19.1 2 20 2.9 20 4V10C20.5523 10 21 10.4477 21 11V17ZM6 18H18V20H6V18ZM6.07781 14.1924H7.695V13.4277H6.07781V12.5283H7.99383V11.7344H5.04949V16H7.98797V15.209H6.07781V14.1924ZM10.566 14.5146C10.6734 14.5986 10.7271 14.7158 10.7271 14.8662C10.7271 14.999 10.6773 15.1025 10.5777 15.1768C10.48 15.249 10.3463 15.2852 10.1763 15.2852C9.9107 15.2852 9.71832 15.2314 9.59918 15.124C9.48199 15.0146 9.4234 14.8457 9.4234 14.6172H8.39215C8.39215 14.8984 8.46246 15.1475 8.60309 15.3643C8.74566 15.5791 8.9566 15.749 9.2359 15.874C9.51715 15.9971 9.83063 16.0586 10.1763 16.0586C10.6666 16.0586 11.0523 15.9521 11.3336 15.7393C11.6148 15.5264 11.7554 15.2334 11.7554 14.8604C11.7554 14.3936 11.525 14.0273 11.064 13.7617C10.8746 13.6523 10.6324 13.5508 10.3375 13.457C10.0425 13.3613 9.83648 13.2695 9.7193 13.1816C9.60211 13.0918 9.54352 12.9922 9.54352 12.8828C9.54352 12.7578 9.59625 12.6553 9.70172 12.5752C9.80914 12.4932 9.95465 12.4521 10.1382 12.4521C10.3199 12.4521 10.4634 12.5 10.5689 12.5957C10.6763 12.6914 10.73 12.8262 10.73 13H11.7554C11.7554 12.7402 11.688 12.5098 11.5533 12.3086C11.4185 12.1055 11.2291 11.9492 10.9849 11.8398C10.7427 11.7305 10.4683 11.6758 10.1617 11.6758C9.84723 11.6758 9.56402 11.7266 9.31207 11.8281C9.06012 11.9277 8.8648 12.0684 8.72613 12.25C8.58941 12.4297 8.52105 12.6377 8.52105 12.874C8.52105 13.3486 8.79742 13.7217 9.35016 13.9932C9.52008 14.0771 9.73883 14.1641 10.0064 14.2539C10.274 14.3438 10.4605 14.4307 10.566 14.5146ZM12.4731 16H13.4985V11.7344H12.4731V16ZM16.6361 14.7021L15.6839 11.7344H14.3333V16H15.3616V15.0039L15.262 12.9619L16.2962 16H16.9759L18.0071 12.9648L17.9075 15.0039V16H18.9388V11.7344H17.5853L16.6361 14.7021Z" fill="#9E9E9E"/>
</svg>
