<svg fill="none" height="24" viewBox="0 0 24 24" width="24" xmlns="http://www.w3.org/2000/svg"><path d="m16 20h-8c-.79565 0-1.55871-.3161-2.12132-.8787s-.87868-1.3257-.87868-2.1213v-10c0-.26522-.10536-.51957-.29289-.70711-.18754-.18753-.44189-.29289-.70711-.29289s-.51957.10536-.70711.29289c-.18753.18754-.29289.44189-.29289.70711v10c0 1.3261.52678 2.5979 1.46447 3.5355.93768.9377 2.20945 1.4645 3.53553 1.4645h8c.2652 0 .5196-.1054.7071-.2929s.2929-.4419.2929-.7071-.1054-.5196-.2929-.7071-.4419-.2929-.7071-.2929zm-6-7c0 .2652.1054.5196.2929.7071s.4419.2929.7071.2929h5c.2652 0 .5196-.1054.7071-.2929s.2929-.4419.2929-.7071-.1054-.5196-.2929-.7071-.4419-.2929-.7071-.2929h-5c-.2652 0-.5196.1054-.7071.2929s-.2929.4419-.2929.7071zm11-4.06c-.0104-.09187-.0305-.18237-.06-.27v-.09c-.0481-.10282-.1122-.19733-.19-.28l-6-6c-.0827-.07778-.1772-.14192-.28-.19-.0298-.00424-.0601-.00424-.09 0-.1016-.05826-.2138-.09566-.33-.11h-4.05c-.79565 0-1.55871.31607-2.12132.87868s-.87868 1.32567-.87868 2.12132v10c0 .7956.31607 1.5587.87868 2.1213s1.32567.8787 2.12132.8787h8c.7956 0 1.5587-.3161 2.1213-.8787s.8787-1.3257.8787-2.1213v-6zm-6-3.53 2.59 2.59h-1.59c-.2652 0-.5196-.10536-.7071-.29289-.1875-.18754-.2929-.44189-.2929-.70711zm4 9.59c0 .2652-.1054.5196-.2929.7071s-.4419.2929-.7071.2929h-8c-.26522 0-.51957-.1054-.70711-.2929-.18753-.1875-.29289-.4419-.29289-.7071v-10c0-.26522.10536-.51957.29289-.70711.18754-.18753.44189-.29289.70711-.29289h3v3c.0027.34114.0636.67933.18 1h-2.18c-.2652 0-.5196.10536-.7071.29289-.1875.18754-.2929.44189-.2929.70711s.1054.51957.2929.70711c.1875.18753.4419.29289.7071.29289h8z" fill="#9e9e9e"/></svg>