<svg fill="none" height="24" viewBox="0 0 24 24" width="24" xmlns="http://www.w3.org/2000/svg"><path d="m19 2h-14c-.79565 0-1.55871.31607-2.12132.87868s-.87868 1.32567-.87868 2.12132v1.17c-.00014.41294.08497.82147.25 1.2v.06c.14128.32097.34139.61266.59.86l6.16 6.12v6.59c-.00034.1699.04264.3372.12487.4859.08224.1487.20102.274.34513.3641.15914.0986.34277.1506.53.15.1565-.0009.3107-.0386.45-.11l4-2c.1649-.0831.3036-.2102.4007-.3673s.1487-.338.1493-.5227v-4.59l6.12-6.12c.2486-.24734.4487-.53903.59-.86v-.06c.1788-.37557.2776-.78422.29-1.2v-1.17c0-.79565-.3161-1.55871-.8787-2.12132s-1.3257-.87868-2.1213-.87868zm-5.71 11.29c-.0927.0934-.166.2043-.2158.3261-.0497.1218-.075.2523-.0742.3839v4.38l-2 1v-5.38c.0008-.1316-.0245-.2621-.0742-.3839-.0498-.1218-.1231-.2327-.2158-.3261l-5.3-5.29h13.18zm6.71-7.29h-16v-1c0-.26522.10536-.51957.29289-.70711.18754-.18753.44189-.29289.70711-.29289h14c.2652 0 .5196.10536.7071.29289.1875.18754.2929.44189.2929.70711z" fill="#9e9e9e"/></svg>