<svg fill="none" height="24" viewBox="0 0 24 24" width="24" xmlns="http://www.w3.org/2000/svg"><path clip-rule="evenodd" d="m19.94 8.67c.0295.08763.0496.17813.06.27v.06 3c.5523 0 1 .4477 1 1v4c0 .5523-.4477 1-1 1v1c0 .7956-.3161 1.5587-.8787 2.1213s-1.3257.8787-2.1213.8787h-10c-.79565 0-1.55871-.3161-2.12132-.8787s-.87868-1.3257-.87868-2.1213v-1c-.55228 0-1-.4477-1-1v-4c0-.5523.44772-1 1-1v-7c0-.79565.31607-1.55871.87868-2.12132s1.32567-.87868 2.12132-.87868h6.05c.1162.01434.2284.05174.33.11h.09c.1028.04808.1973.11222.28.19l6 6c.0778.08267.1419.17718.19.28zm-13.94 3.33v-7c0-.26522.10536-.51957.29289-.70711.18754-.18753.44189-.29289.70711-.29289h5v3c0 .79565.3161 1.55871.8787 2.12132s1.3257.87868 2.1213.87868h3v2zm0 6v1c0 .2652.10536.5196.29289.7071.18754.1875.44189.2929.70711.2929h10c.2652 0 .5196-.1054.7071-.2929s.2929-.4419.2929-.7071v-1zm10.59-10-2.59-2.59v1.59c0 .26522.1054.51957.2929.70711.1875.18753.4419.29289.7071.29289zm.8561 7.7969c-.0114.2474-.0781.4663-.2002.6567-.1221.1888-.2938.3353-.5151.4395-.2198.1041-.4712.1562-.7544.1562-.4672 0-.835-.1522-1.1035-.4565-.2686-.3044-.4029-.7341-.4029-1.2891v-.1758c0-.3483.0602-.6526.1807-.9131.1221-.262.297-.4638.5249-.6054.2279-.1433.4915-.2149.791-.2149.4313 0 .778.114 1.04.3418.2621.2263.411.5388.4468.9375h-.8545c-.0065-.2164-.061-.3719-.1635-.4663-.1026-.0944-.2588-.1416-.4688-.1416-.2132 0-.3695.0798-.4687.2393-.0993.1595-.1514.4142-.1563.7641v.2515c0 .3792.0472.6502.1416.813.096.1627.2604.2441.4932.2441.1969 0 .3475-.0464.4516-.1391.1042-.0928.1595-.2401.166-.4419zm-4.1107.4199c.1285-.2669.1928-.5737.1928-.9204v-.1636c-.0016-.3418-.0683-.6445-.2002-.9082-.1302-.2653-.3133-.4696-.5493-.6128s-.5045-.2148-.8057-.2148c-.3043 0-.5761.0724-.8154.2173-.2376.1448-.4207.3507-.5493.6176-.127.2653-.1904.5721-.1904.9204v.2002c.0065.3353.0748.6324.205.8912.1319.2587.315.4581.5494.5981.2343.1383.5029.2075.8056.2075.3028 0 .5721-.0716.8081-.2148.2377-.1449.4208-.3508.5494-.6177zm-6.64985-2.771v3.5547h1.16943c.30762-.0016.58594-.0749.83496-.2197.25065-.1465.44434-.3483.58106-.6055.13834-.2588.20752-.551.20752-.8765v-.1635c-.00163-.3223-.07325-.6128-.21485-.8716-.13997-.2604-.33528-.4615-.58594-.6031-.25065-.1432-.53304-.2148-.84716-.2148zm5.97105 1.7017c0-.3532-.0594-.621-.1782-.8033-.1172-.1839-.2856-.2758-.5054-.2758-.4296 0-.6567.3222-.6811.9668l-.0024.2612c0 .3483.0577.616.1733.8032s.2873.2808.5151.2808c.2165 0 .3833-.092.5005-.2759s.1766-.4484.1782-.7935zm-5.11412-1.0401v2.2339h.29785c.24577 0 .43457-.0871.56641-.2612.13183-.1758.19775-.4362.19775-.7813v-.1538c0-.3434-.06592-.6022-.19775-.7763-.13184-.1742-.3239-.2613-.57617-.2613z" fill="#9e9e9e" fill-rule="evenodd"/></svg>