<svg fill="none" height="24" viewBox="0 0 24 24" width="24" xmlns="http://www.w3.org/2000/svg"><path clip-rule="evenodd" d="m21.6693 9.2075c.1527.11893.2676.27959.3307.4625.0486.18287.0444.3758-.0123.5563-.0566.1806-.1633.3414-.3077.4637l-4.13 4 1 5.68c.0357.1875.017.3813-.0539.5585-.0708.1771-.1909.3304-.3461.4415-.1716.1242-.3782.1908-.59.19-.1611.0005-.3196-.0408-.46-.12l-5.1-2.67-5.09999 2.67c-.16774.0948-.35932.1392-.55167.1277-.19236-.0114-.37731-.0782-.5326-.1923-.1553-.1141-.27432-.2706-.34275-.4508-.06843-.1801-.08336-.3762-.04298-.5646l1-5.68-4.13-4c-.12854-.1283-.21973-.2891-.26377-.4653-.04405-.1762-.03929-.36103.01377-.5347.05796-.17773.16457-.33565.30775-.45584.14317-.1202.31717-.19785.50225-.22416l5.69-.84 2.54999-5.16c.0819-.16907.2097-.31166.3689-.41143.1592-.09976.3433-.15268.5311-.15268.1879 0 .3719.05292.5311.15268.1592.09977.287.24236.3689.41143l2.55 5.17 5.69.83c.1928.0165.3767.08858.5293.2075zm-6.0724 4.8669c.0505-.1533.1374-.292.2531-.4044l3-2.99-4.21-.61c-.162-.0225-.316-.08446-.4485-.18035s-.2395-.22281-.3115-.36965l-1.88-3.82v.00002 10.94128c.0166-.0008.0333-.0012.05-.0012.163 0 .3239.0376.47.1099l3.76 2-.72-4.2c-.0262-.1592-.0136-.3224.0369-.4756z" fill="#9e9e9e" fill-rule="evenodd"/></svg>