<svg fill="none" height="24" viewBox="0 0 24 24" width="24" xmlns="http://www.w3.org/2000/svg"><path d="m20.16 4.61c-1.0617-1.06199-2.4693-1.70767-3.9668-1.81962-1.4975-.11194-2.9854.31728-4.1932 1.20962-1.2723-.94636-2.85601-1.37549-4.43208-1.20096-1.57607.17452-3.02748.93974-4.06195 2.14155-1.03446 1.2018-1.57515 2.75093-1.51317 4.33542s.72202 3.08669 1.8472 4.20399l7.45 7.45c.093.0937.2036.1681.3254.2189.1219.0508.2526.0769.3846.0769s.2627-.0261.3846-.0769c.1218-.0508.2324-.1252.3254-.2189l7.45-7.45c.5827-.5823 1.0449-1.2737 1.3602-2.0346.3154-.761.4777-1.57667.4777-2.4004s-.1623-1.63939-.4777-2.40037c-.3153-.76097-.7775-1.45235-1.3602-2.03463zm-1.41 7.46-6.75 6.74-6.75-6.74c-.59482-.5973-1.00002-1.357-1.16477-2.18366-.16474-.82671-.0817-1.68366.23872-2.46335s.86395-1.4474 1.5624-1.91937c.69844-.47197 1.52071-.72718 2.36365-.73362 1.12611.00276 2.2051.45234 3 1.25.093.09373.2036.16812.3254.21889.1219.05077.2526.07691.3846.07691s.2627-.02614.3846-.07691c.1218-.05077.2324-.12516.3254-.21889.8183-.70912 1.8755-1.08085 2.9575-1.03997 1.0821.04087 2.1082.49132 2.8707 1.26016s1.2044 1.79865 1.2363 2.881c.0319 1.08231-.3486 2.13641-1.0645 2.94881z" fill="#9e9e9e"/></svg>