<svg fill="none" height="24" viewBox="0 0 24 24" width="24" xmlns="http://www.w3.org/2000/svg"><g fill="#1265b6"><path d="m7.51099 19.812c-.72602-1.3021-1.10998-2.898-1.10998-4.626 0-2.904 2.51398-5.26801 5.59799-5.26801 3.09 0 5.598 2.36401 5.598 5.26801 0 .33.27.6.6.6s.6-.27.6-.6c0-3.57-3.048-6.46804-6.7979-6.46804-3.75 0-6.79813 2.90404-6.79813 6.46804 0 1.932.43802 3.7379 1.26602 5.2139.81 1.4461 1.37402 2.1121 2.412 3.162.11998.12.27.18.42598.18.15002 0 .306-.054.414-.18.24002-.228.24002-.612.00602-.846-.92402-.9299-1.44-1.5239-2.214-2.9039z"/><path d="m5.32699 2.89198c2.05801-1.12202 4.30199-1.692 6.68401-1.692 2.388 0 4.386.51002 6.684 1.69802.09.04202.18.06598.276.06598.216 0 .426-.11998.534-.324.15-.29402.036-.65998-.258-.81-2.448-1.265962-4.68-1.82998-7.236-1.82998-2.58002 0-5.022.618018-7.26001 1.836-.29402.162-.396.522-.24002.81602.162.29396.522.396.81602.23996z"/><path d="m11.957 5.79599c-3.87 0-7.40998 2.16602-9.01197 5.51401-.54602 1.134-.82198 2.442-.82198 3.882 0 1.62.288 3.168.87598 4.746.11998.312.46198.468.774.3539.31201-.1199.468-.4619.35398-.774-.71404-1.9139-.79802-3.3899-.79802-4.3259 0-1.26.234-2.394.702-3.366 1.404-2.94003 4.51799-4.83599 7.93201-4.83599 4.794 0 8.6939 3.67799 8.6939 8.20199 0 1.29-1.122 2.334-2.4959 2.334-1.374 0-2.496-1.0501-2.496-2.334 0-1.95-1.656-3.534-3.696-3.534-2.04004 0-3.69604 1.584-3.69604 3.534 0 2.37.92402 4.596 2.59804 6.264 1.296 1.29 2.544 1.998 4.458 2.52.0479.018.1019.024.1559.024.264 0 .504-.174.576-.438.09-.318-.1019-.648-.42-.738-1.692-.462-2.796-1.086-3.93-2.214-1.446-1.44-2.24398-3.366-2.24398-5.412 0-1.29 1.12198-2.334 2.49598-2.334s2.496 1.05 2.496 2.334c0 1.95 1.662 3.534 3.696 3.534s3.696-1.584 3.696-3.534c.0001-5.184-4.4399-9.40201-9.8939-9.40201z"/><path d="m22.691 8.28c-1.1941-1.66798-2.7061-2.97602-4.5-3.89998-3.78-1.944-8.60404-1.93798-12.37802.01198-1.8.92998-3.31801 2.25-4.50601 3.93002-.19198.27-.126.64198.144.83401.108.072.22798.108.34802.108.18601 0 .37198-.08398.49201-.24598 1.07398-1.52398 2.448-2.718 4.07402-3.55798 3.438-1.77598 7.83598-1.78199 11.27998-.01198 1.62.828 2.988 2.016 4.068 3.528.192.27.57.33002.84.13798.27-.19209.33-.56407.138-.83407z"/><path d="m19.157 20.208c-.48.0839-.966.114-1.254.114-1.2 0-2.196-.282-3.042-.858-1.458-.99-2.328-2.586-2.328-4.272 0-.33-.27-.6-.6-.6s-.6.27-.6.6c0 2.088 1.068 4.056 2.85 5.268 1.038.702 2.292 1.062 3.72 1.062.168 0 .762-.0061 1.464-.1321.324-.06.546-.3719.486-.6959s-.372-.546-.696-.486z"/></g></svg>