<svg fill="none" height="24" viewBox="0 0 24 24" width="24" xmlns="http://www.w3.org/2000/svg"><path d="m20 18h-1v-1c0-.2652-.1054-.5196-.2929-.7071s-.4419-.2929-.7071-.2929-.5196.1054-.7071.2929-.2929.4419-.2929.7071v1h-1c-.2652 0-.5196.1054-.7071.2929s-.2929.4419-.2929.7071.1054.5196.2929.7071.4419.2929.7071.2929h1v1c0 .2652.1054.5196.2929.7071s.4419.2929.7071.2929.5196-.1054.7071-.2929.2929-.4419.2929-.7071v-1h1c.2652 0 .5196-.1054.7071-.2929s.2929-.4419.2929-.7071-.1054-.5196-.2929-.7071-.4419-.2929-.7071-.2929zm-7 2h-7c-.26522 0-.51957-.1054-.70711-.2929-.18753-.1875-.29289-.4419-.29289-.7071v-14c0-.26522.10536-.51957.29289-.70711.18754-.18753.44189-.29289.70711-.29289h5v3c0 .79565.3161 1.55871.8787 2.12132s1.3257.87868 2.1213.87868h3v3c0 .2652.1054.5196.2929.7071s.4419.2929.7071.2929.5196-.1054.7071-.2929.2929-.4419.2929-.7071v-4-.06c-.0104-.09187-.0305-.18237-.06-.27v-.09c-.0481-.10282-.1122-.19733-.19-.28l-6-6c-.0827-.07778-.1772-.14192-.28-.19-.0331-.00579-.0669-.00579-.1 0-.0972-.052-.2017-.08908-.31-.11h-6.06c-.79565 0-1.55871.31607-2.12132.87868s-.87868 1.32567-.87868 2.12132v14c0 .7956.31607 1.5587.87868 2.1213s1.32567.8787 2.12132.8787h7c.2652 0 .5196-.1054.7071-.2929s.2929-.4419.2929-.7071-.1054-.5196-.2929-.7071-.4419-.2929-.7071-.2929zm0-14.59 2.59 2.59h-1.59c-.2652 0-.5196-.10536-.7071-.29289-.1875-.18754-.2929-.44189-.2929-.70711zm-5 2.59c-.26522 0-.51957.10536-.70711.29289-.18753.18754-.29289.44189-.29289.70711s.10536.51957.29289.70711c.18754.18753.44189.29289.70711.29289h1c.26522 0 .51957-.10536.70711-.29289.18753-.18754.29289-.44189.29289-.70711s-.10536-.51957-.29289-.70711c-.18754-.18753-.44189-.29289-.70711-.29289zm5 8h-5c-.26522 0-.51957.1054-.70711.2929-.18753.1875-.29289.4419-.29289.7071s.10536.5196.29289.7071c.18754.1875.44189.2929.70711.2929h5c.2652 0 .5196-.1054.7071-.2929s.2929-.4419.2929-.7071-.1054-.5196-.2929-.7071-.4419-.2929-.7071-.2929zm1-4h-6c-.26522 0-.51957.1054-.70711.2929-.18753.1875-.29289.4419-.29289.7071s.10536.5196.29289.7071c.18754.1875.44189.2929.70711.2929h6c.2652 0 .5196-.1054.7071-.2929s.2929-.4419.2929-.7071-.1054-.5196-.2929-.7071-.4419-.2929-.7071-.2929z" fill="#9e9e9e"/></svg>