<svg fill="none" height="24" viewBox="0 0 24 24" width="24" xmlns="http://www.w3.org/2000/svg"><g fill="#9e9e9e"><path d="m7.50299 13.002c-.13261 0-.25978.0526-.35355.1464s-.14645.2209-.14645.3536v3c0 .1326.05268.2597.14645.3535s.22094.1465.35355.1465.25979-.0527.35355-.1465c.09377-.0938.14645-.2209.14645-.3535v-.5h.497c.39783 0 .77936-.1581 1.06066-.4394.28131-.2813.43934-.6628.43934-1.0606 0-.3979-.15803-.7794-.43934-1.0607-.2813-.2813-.66283-.4393-1.06066-.4393zm.997 2h-.497v-1h.497c.13261 0 .25979.0526.35355.1464.09377.0938.14645.2209.14645.3536 0 .1326-.05268.2597-.14645.3535-.09376.0938-.22094.1465-.35355.1465z"/><path d="m14.998 13.501c.0003-.1325.0531-.2594.1468-.353.0937-.0935.2208-.146.3532-.146h1.505c.1326 0 .2598.0526.3535.1464.0938.0938.1465.2209.1465.3536 0 .1326-.0527.2597-.1465.3535-.0937.0938-.2209.1465-.3535.1465h-1.006l-.001 1.002h1.007c.1326 0 .2598.0526.3535.1464.0938.0938.1465.2209.1465.3536 0 .1326-.0527.2597-.1465.3535-.0937.0938-.2209.1465-.3535.1465h-1.007l.002.497c.0001.0656-.0127.1307-.0377.1914s-.0617.1159-.108.1624c-.0936.094-.2207.1469-.3533.1472-.1326.0002-.2599-.0522-.3539-.1458-.0939-.0936-.1468-.2206-.1471-.3532l-.003-.998v-.002z"/><path d="m11.5 13.002h.498c.5304 0 1.0391.2107 1.4142.5857.3751.3751.5858.8838.5858 1.4143 0 .5304-.2107 1.0391-.5858 1.4142-.3751.375-.8838.5858-1.4142.5858h-.498c-.1326 0-.2598-.0527-.3536-.1465-.0937-.0938-.1464-.2209-.1464-.3535v-3c0-.1327.0527-.2598.1464-.3536.0938-.0938.221-.1464.3536-.1464zm.5 3c.2652 0 .5196-.1054.7071-.2929.1875-.1876.2929-.4419.2929-.7071 0-.2653-.1054-.5196-.2929-.7072-.1875-.1875-.4419-.2928-.7071-.2928z"/><path d="m12 8v-6h-6c-.53043 0-1.03914.21071-1.41421.58579-.37508.37507-.58579.88378-.58579 1.41421v6.668c-.591.281-1 .884-1 1.582v5.5c0 .698.409 1.3 1 1.582v.668c0 .5304.21071 1.0391.58579 1.4142.37507.3751.88378.5858 1.41421.5858h12c.5304 0 1.0391-.2107 1.4142-.5858s.5858-.8838.5858-1.4142v-.668c.591-.281 1-.884 1-1.582v-5.5c0-.698-.409-1.3-1-1.582v-.668h-6c-.5304 0-1.0391-.21071-1.4142-.58579-.3751-.37507-.5858-.88378-.5858-1.41421zm-7.25 4h14.5c.0663 0 .1299.0263.1768.0732s.0732.1105.0732.1768v5.5c0 .0663-.0263.1299-.0732.1768s-.1105.0732-.1768.0732h-14.5c-.0663 0-.12989-.0263-.17678-.0732-.04688-.0469-.07322-.1105-.07322-.1768v-5.5c0-.0663.02634-.1299.07322-.1768.04689-.0469.11048-.0732.17678-.0732z"/><path d="m13.5 8v-5.5l6 6h-5.5c-.1326 0-.2598-.05268-.3536-.14645-.0937-.09376-.1464-.22094-.1464-.35355z"/></g></svg>