<svg fill="none" height="24" viewBox="0 0 24 24" width="24" xmlns="http://www.w3.org/2000/svg"><path d="m11.5 20h-6c-.26522 0-.51957-.1054-.70711-.2929-.18753-.1875-.29289-.4419-.29289-.7071v-14c0-.26522.10536-.51957.29289-.70711.18754-.18753.44189-.29289.70711-.29289h5v3c0 .79565.3161 1.55871.8787 2.12132s1.3257.87868 2.1213.87868h3v5c0 .2652.1054.5196.2929.7071s.4419.2929.7071.2929.5196-.1054.7071-.2929.2929-.4419.2929-.7071v-6-.06c-.0104-.09187-.0305-.18237-.06-.27v-.09c-.0481-.10282-.1122-.19733-.19-.28l-6-6c-.0827-.07778-.1772-.14192-.28-.19-.0331-.00579-.0669-.00579-.1 0-.0972-.052-.2017-.08908-.31-.11h-6.06c-.79565 0-1.55871.31607-2.12132.87868s-.87868 1.32567-.87868 2.12132v14c0 .7956.31607 1.5587.87868 2.1213s1.32567.8787 2.12132.8787h6c.2652 0 .5196-.1054.7071-.2929s.2929-.4419.2929-.7071-.1054-.5196-.2929-.7071-.4419-.2929-.7071-.2929zm1-14.59 2.59 2.59h-1.59c-.2652 0-.5196-.10536-.7071-.29289-.1875-.18754-.2929-.44189-.2929-.70711zm-5 8.59h6c.2652 0 .5196-.1054.7071-.2929s.2929-.4419.2929-.7071-.1054-.5196-.2929-.7071-.4419-.2929-.7071-.2929h-6c-.26522 0-.51957.1054-.70711.2929-.18753.1875-.29289.4419-.29289.7071s.10536.5196.29289.7071c.18754.1875.44189.2929.70711.2929zm4 2h-4c-.26522 0-.51957.1054-.70711.2929-.18753.1875-.29289.4419-.29289.7071s.10536.5196.29289.7071c.18754.1875.44189.2929.70711.2929h4c.2652 0 .5196-.1054.7071-.2929s.2929-.4419.2929-.7071-.1054-.5196-.2929-.7071-.4419-.2929-.7071-.2929zm-4-6h1c.26522 0 .51957-.10536.70711-.29289.18753-.18754.29289-.44189.29289-.70711s-.10536-.51957-.29289-.70711c-.18754-.18753-.44189-.29289-.70711-.29289h-1c-.26522 0-.51957.10536-.70711.29289-.18753.18754-.29289.44189-.29289.70711s.10536.51957.29289.70711c.18754.18753.44189.29289.70711.29289zm13.71 6.29c-.093-.0937-.2036-.1681-.3254-.2189-.1219-.0508-.2526-.0769-.3846-.0769s-.2627.0261-.3846.0769c-.1218.0508-.2324.1252-.3254.2189l-3.29 3.3-1.29-1.3c-.0932-.0932-.2039-.1672-.3258-.2177-.1218-.0504-.2523-.0764-.3842-.0764s-.2624.026-.3842.0764c-.1219.0505-.2326.1245-.3258.2177s-.1672.2039-.2177.3258c-.0504.1218-.0764.2523-.0764.3842s.026.2624.0764.3842c.0505.1219.1245.2326.2177.3258l2 2c.093.0937.2036.1681.3254.2189.1219.0508.2526.0769.3846.0769s.2627-.0261.3846-.0769c.1218-.0508.2324-.1252.3254-.2189l4-4c.0937-.093.1681-.2036.2189-.3254.0508-.1219.0769-.2526.0769-.3846s-.0261-.2627-.0769-.3846c-.0508-.1218-.1252-.2324-.2189-.3254z" fill="#9e9e9e"/></svg>