<svg fill="none" height="24" viewBox="0 0 24 24" width="24" xmlns="http://www.w3.org/2000/svg"><path d="m22 9.67c-.0631-.18291-.178-.34357-.3307-.4625-.1526-.11892-.3365-.191-.5293-.2075l-5.69-.83-2.55-5.17c-.0819-.16907-.2097-.31166-.3689-.41143-.1592-.09976-.3432-.15268-.5311-.15268-.1878 0-.3719.05292-.5311.15268-.1592.09977-.287.24236-.3689.41143l-2.54999 5.16-5.69.84c-.18508.02631-.35908.10396-.50225.22416-.14318.12019-.24979.27811-.30775.45584-.05306.17367-.05782.3585-.01377.5347.04404.1762.13523.337.26377.4653l4.13 4-1 5.68c-.04038.1884-.02545.3845.04298.5646.06843.1802.18745.3367.34275.4508.15529.1141.34024.1809.5326.1923.19235.0115.38393-.0329.55167-.1277l5.09999-2.67 5.1 2.67c.1404.0792.2989.1205.46.12.2118.0008.4184-.0658.59-.19.1552-.1111.2753-.2644.3461-.4415.0709-.1772.0896-.371.0539-.5585l-1-5.68 4.13-4c.1444-.1223.2511-.2831.3077-.4637.0567-.1805.0609-.37343.0123-.5563zm-6.15 4c-.1157.1124-.2026.2511-.2531.4044-.0505.1532-.0631.3164-.0369.4756l.72 4.2-3.76-2c-.1461-.0723-.307-.1099-.47-.1099s-.3239.0376-.47.1099l-3.75999 2 .72-4.2c.02624-.1592.01357-.3224-.03693-.4756-.0505-.1533-.13733-.292-.25307-.4044l-3-3 4.21-.61c.162-.0225.316-.08446.4485-.18035.13249-.09589.23949-.22281.31149-.36965l1.78-3.81 1.88 3.82c.072.14684.179.27376.3115.36965s.2865.15785.4485.18035l4.21.61z" fill="#9e9e9e"/></svg>