<svg fill="none" height="24" viewBox="0 0 24 24" width="24" xmlns="http://www.w3.org/2000/svg"><path clip-rule="evenodd" d="m19.94 8.67c.0295.08763.0496.17813.06.27v.06 3c.5523 0 1 .4477 1 1v4c0 .5523-.4477 1-1 1v1c0 .7956-.3161 1.5587-.8787 2.1213s-1.3257.8787-2.1213.8787h-10c-.79565 0-1.55871-.3161-2.12132-.8787s-.87868-1.3257-.87868-2.1213v-1c-.55228 0-1-.4477-1-1v-4c0-.5523.44772-1 1-1v-7c0-.79565.31607-1.55871.87868-2.12132s1.32567-.87868 2.12132-.87868h6.05c.1162.01434.2284.05174.33.11h.09c.1028.04808.1973.11222.28.19l6 6c.0778.08267.1419.17718.19.28zm-13.94 3.33v-7c0-.26522.10536-.51957.29289-.70711.18754-.18753.44189-.29289.70711-.29289h5v3c0 .79565.3161 1.55871.8787 2.12132s1.3257.87868 2.1213.87868h3v2zm0 6v1c0 .2652.10536.5196.29289.7071.18754.1875.44189.2929.70711.2929h10c.2652 0 .5196-.1054.7071-.2929s.2929-.4419.2929-.7071v-1zm10.59-10-2.59-2.59v1.59c0 .26522.1054.51957.2929.70711.1875.18753.4419.29289.7071.29289zm-8.67643 9v-1.2061h.54688c.43294 0 .77311-.1033 1.02051-.31.24902-.2083.37353-.4859.37353-.8325 0-.2344-.05778-.4436-.17334-.6275-.11393-.1855-.27588-.3279-.48584-.4272-.20833-.1009-.4484-.1514-.72021-.1514h-1.41846v3.5547zm2.99993-3.5547v3.5547h1.1694c.3076-.0016.5859-.0749.835-.2197.2506-.1465.4443-.3483.581-.6055.1384-.2588.2075-.5509.2075-.8765v-.1635c-.0016-.3223-.0732-.6128-.2148-.8716-.14-.2604-.3353-.4614-.5859-.603-.2507-.1433-.5331-.2149-.8472-.2149zm6.0712 2.1387h-1.3819v1.416h-.8569v-3.5547h2.3779v.6616h-1.521v.8179h1.3819zm-9.07113-.4517h.56153c.16601 0 .29215-.0415.37842-.1245.08789-.083.13183-.2002.13183-.3516 0-.166-.04476-.2986-.13428-.3979-.08951-.0993-.21158-.1497-.36621-.1514h-.57129zm3.85683-1.0254v2.2339h.2979c.2457 0 .4345-.0871.5664-.2612.1318-.1758.1977-.4362.1977-.7813v-.1538c0-.3434-.0659-.6022-.1977-.7763-.1319-.1742-.3239-.2613-.5762-.2613z" fill="#9e9e9e" fill-rule="evenodd"/></svg>