<svg fill="none" height="24" viewBox="0 0 24 24" width="24" xmlns="http://www.w3.org/2000/svg"><path d="m6 22c-.79565 0-1.55871-.3161-2.12132-.8787s-.87868-1.3257-.87868-2.1213v-14c0-.79565.31607-1.55871.87868-2.12132s1.32567-.87868 2.12132-.87868h8.172c.7952.00044 1.5578.3166 2.12.879l3.83 3.828c.5623.56264.8781 1.32556.878 2.121v10.172c0 .7956-.3161 1.5587-.8787 2.1213s-1.3257.8787-2.1213.8787zm-1-3c0 .2652.10536.5196.29289.7071.18754.1875.44189.2929.70711.2929h12c.2652 0 .5196-.1054.7071-.2929s.2929-.4419.2929-.7071v-9h-3c-.7956 0-1.5587-.31607-2.1213-.87868s-.8787-1.32567-.8787-2.12132v-3h-7c-.26522 0-.51957.10536-.70711.29289-.18753.18754-.29289.44189-.29289.70711zm11-11h2.586l-3.586-3.586v2.586c0 .26522.1054.51957.2929.70711.1875.18753.4419.29289.7071.29289zm0 5c0-.2652-.1054-.5196-.2929-.7071s-.4419-.2929-.7071-.2929-.5196.1054-.7071.2929-.2929.4419-.2929.7071v4c0 .2652.1054.5196.2929.7071s.4419.2929.7071.2929.5196-.1054.7071-.2929.2929-.4419.2929-.7071zm-3 2c0-.2652-.1054-.5196-.2929-.7071s-.4419-.2929-.7071-.2929-.5196.1054-.7071.2929-.2929.4419-.2929.7071v2c0 .2652.1054.5196.2929.7071s.4419.2929.7071.2929.5196-.1054.7071-.2929.2929-.4419.2929-.7071zm-4 1c-.26522 0-.51957.1054-.70711.2929-.18753.1875-.29289.4419-.29289.7071s.10536.5196.29289.7071c.18754.1875.44189.2929.70711.2929h.01c.26522 0 .51957-.1054.70711-.2929.18753-.1875.29289-.4419.29289-.7071s-.10536-.5196-.29289-.7071c-.18754-.1875-.44189-.2929-.70711-.2929z" fill="#9e9e9e"/></svg>