<svg fill="none" height="24" viewBox="0 0 24 24" width="24" xmlns="http://www.w3.org/2000/svg"><path clip-rule="evenodd" d="m19.94 8.67c.0295.08763.0496.17813.06.27v.06 3c.5523 0 1 .4477 1 1v4c0 .5523-.4477 1-1 1v1c0 .7956-.3161 1.5587-.8787 2.1213s-1.3257.8787-2.1213.8787h-10c-.79565 0-1.55871-.3161-2.12132-.8787s-.87868-1.3257-.87868-2.1213v-1c-.55228 0-1-.4477-1-1v-4c0-.5523.44772-1 1-1v-7c0-.79565.31607-1.55871.87868-2.12132s1.32567-.87868 2.12132-.87868h6.05c.1162.01434.2284.05174.33.11h.09c.1028.04808.1973.11222.28.19l6 6c.0778.08267.1419.17718.19.28zm-13.94 3.33v-7c0-.26522.10536-.51957.29289-.70711.18754-.18753.44189-.29289.70711-.29289h5v3c0 .79565.3161 1.55871.8787 2.12132s1.3257.87868 2.1213.87868h3v2zm0 6v1c0 .2652.10536.5196.29289.7071.18754.1875.44189.2929.70711.2929h10c.2652 0 .5196-.1054.7071-.2929s.2929-.4419.2929-.7071v-1zm10.59-10-2.59-2.59v1.59c0 .26522.1054.51957.2929.70711.1875.18753.4419.29289.7071.29289zm-8.15885 5.4453-.58105 1.1817-.58106-1.1817h-.97656l.99121 1.7627-1.01807 1.792h.98633l.59815-1.2036.59814 1.2036h.98877l-1.02051-1.792.99366-1.7627zm3.80555 2.4732-.7934-2.4732h-1.1255v3.5547h.8569v-.8301l-.083-1.7016.8618 2.5317h.5664l.8594-2.5293-.083 1.6992v.8301h.8594v-3.5547h-1.128zm3.9228.4223h1.4917v.6592h-2.3487v-3.5547h.857z" fill="#9e9e9e" fill-rule="evenodd"/></svg>