<svg fill="none" height="24" viewBox="0 0 24 24" width="24" xmlns="http://www.w3.org/2000/svg"><path d="m16.5002 3.76057h3.5998c.2387 0 .4676.09645.6364.26814s.2636.40455.2636.64736v14.64803c0 .2428-.0948.4756-.2636.6473s-.3977.2682-.6364.2682h-3.5998zm-12.72624-.11261 11.31244-1.64332c.0638-.00932.1289-.00456.1908.01394s.1191.05032.1678.09329c.0488.04298.0879.09611.1146.1558.0268.05968.0407.12453.0407.19014v19.08449c0 .0655-.0139.1303-.0406.1899s-.0657.1127-.1144.1557c-.0486.0429-.1057.0748-.1675.0933-.0618.0186-.1267.0235-.1905.0143l-11.31424-1.6433c-.21453-.0311-.41084-.1399-.55285-.3064-.14202-.1665-.22021-.3795-.22021-.6v-14.89149c0-.22044.07819-.43348.22021-.59998.14201-.1665.33922-.27529.55375-.30637zm1.9268 4.69011v7.32403h1.79992v-1.831h5.39972v-5.49303zm1.79992 1.83103h3.59982v1.831h-3.59982z" fill="#9e9e9e"/></svg>