<svg fill="none" height="24" viewBox="0 0 24 24" width="24" xmlns="http://www.w3.org/2000/svg"><path d="m9 10h1c.2652 0 .5196-.10536.7071-.29289.1875-.18754.2929-.44189.2929-.70711s-.1054-.51957-.2929-.70711c-.1875-.18753-.4419-.29289-.7071-.29289h-1c-.26522 0-.51957.10536-.70711.29289-.18753.18754-.29289.44189-.29289.70711s.10536.51957.29289.70711c.18754.18753.44189.29289.70711.29289zm6 2h-6c-.26522 0-.51957.1054-.70711.2929-.18753.1875-.29289.4419-.29289.7071s.10536.5196.29289.7071c.18754.1875.44189.2929.70711.2929h6c.2652 0 .5196-.1054.7071-.2929s.2929-.4419.2929-.7071-.1054-.5196-.2929-.7071-.4419-.2929-.7071-.2929zm0 4h-6c-.26522 0-.51957.1054-.70711.2929-.18753.1875-.29289.4419-.29289.7071s.10536.5196.29289.7071c.18754.1875.44189.2929.70711.2929h6c.2652 0 .5196-.1054.7071-.2929s.2929-.4419.2929-.7071-.1054-.5196-.2929-.7071-.4419-.2929-.7071-.2929zm4.71 4.29c-.0475-.043-.0976-.0831-.15-.12-.0557-.0378-.1163-.0681-.18-.09l-.18-.08c-.195-.0381-.3969-.0172-.58.06-.1241.0449-.2368.1166-.3301.2099s-.165.206-.2099.3301c-.0591.1247-.0866.2621-.08.4-.0017.1488.0297.296.0921.4311s.1541.2545.2685.3496.2486.1635.3928.2002.2947.0407.4407.0118c.1459-.0289.2836-.0899.4029-.1788.1194-.0888.2174-.2032.2869-.3347.0696-.1315.1089-.2769.1152-.4255.0062-.1487-.0208-.2968-.0791-.4337-.0506-.1212-.1217-.2328-.21-.33zm.29-11.35c-.0104-.09187-.0305-.18237-.06-.27v-.09c-.0481-.10282-.1122-.19733-.19-.28l-6-6c-.0827-.07778-.1772-.14192-.28-.19-.0298-.00424-.0601-.00424-.09 0-.1016-.05826-.2138-.09566-.33-.11h-6.05c-.79565 0-1.55871.31607-2.12132.87868s-.87868 1.32567-.87868 2.12132v14c0 .7956.31607 1.5587.87868 2.1213s1.32567.8787 2.12132.8787h8c.2652 0 .5196-.1054.7071-.2929s.2929-.4419.2929-.7071-.1054-.5196-.2929-.7071-.4419-.2929-.7071-.2929h-8c-.26522 0-.51957-.1054-.70711-.2929-.18753-.1875-.29289-.4419-.29289-.7071v-14c0-.26522.10536-.51957.29289-.70711.18754-.18753.44189-.29289.70711-.29289h5v3c0 .79565.3161 1.55871.8787 2.12132s1.3257.87868 2.1213.87868h3v2c0 .2652.1054.5196.2929.7071s.4419.2929.7071.2929.5196-.1054.7071-.2929.2929-.4419.2929-.7071v-3zm-5-.94c-.2652 0-.5196-.10536-.7071-.29289-.1875-.18754-.2929-.44189-.2929-.70711v-1.59l2.59 2.59zm4 7c-.2652 0-.5196.1054-.7071.2929s-.2929.4419-.2929.7071v2c0 .2652.1054.5196.2929.7071s.4419.2929.7071.2929.5196-.1054.7071-.2929.2929-.4419.2929-.7071v-2c0-.2652-.1054-.5196-.2929-.7071s-.4419-.2929-.7071-.2929z" fill="#9e9e9e"/></svg>