<svg fill="none" height="24" viewBox="0 0 24 24" width="24" xmlns="http://www.w3.org/2000/svg"><path clip-rule="evenodd" d="m19.94 8.67c.0295.08763.0496.17813.06.27v3.06c.5523 0 1 .4477 1 1v4c0 .5523-.4477 1-1 1v1c0 .7956-.3161 1.5587-.8787 2.1213s-1.3257.8787-2.1213.8787h-10c-.79565 0-1.55871-.3161-2.12132-.8787s-.87868-1.3257-.87868-2.1213v-1c-.55228 0-1-.4477-1-1v-4c0-.5523.44772-1 1-1v-7c0-.79565.31607-1.55871.87868-2.12132s1.32567-.87868 2.12132-.87868h6.05c.1162.01434.2284.05174.33.11h.09c.1028.04808.1973.11222.28.19l6 6c.0778.08266.1419.17718.19.28zm-13.94 3.33v-7c0-.26522.10536-.51957.29289-.70711.18754-.18753.44189-.29289.70711-.29289h5v3c0 .79565.3161 1.55871.8787 2.12132s1.3257.87868 2.1213.87868h3v2zm0 6v1c0 .2652.10536.5196.29289.7071.18754.1875.44189.2929.70711.2929h10c.2652 0 .5196-.1054.7071-.2929s.2929-.4419.2929-.7071v-1zm10.59-10-2.59-2.59v1.59c0 .26522.1054.51957.2929.70711.1875.18753.4419.29289.7071.29289zm-9.02546 9h.8545v-3.5547h-.8545zm4.16686 0h.8521v-3.5547h-.8545v2.2119l-1.2573-2.2119h-.85696v3.5547h.85696v-2.2119zm3.3735-.9668.708-2.5879h.957l-1.1963 3.5547h-.9375l-1.1865-3.5547h.9497z" fill="#9e9e9e" fill-rule="evenodd"/></svg>