<svg fill="none" height="24" viewBox="0 0 24 24" width="24" xmlns="http://www.w3.org/2000/svg"><path clip-rule="evenodd" d="m3 3c0-.55228.44772-1 1-1h13.865c.38.00014.7525.10856 1.0732.31254.3206.20399.5765.49511.7377.83927.1611.34416.2209.72711.1723 1.10402-.0486.37692-.2036.73217-.4468 1.02417l-3.0997 3.72 3.0995 3.7198c.2433.2921.3984.6475.447 1.0244s-.0112.7598-.1723 1.104c-.1612.3441-.4171.6353-.7377.8393-.3207.2039-.6928.3124-1.0728.3125h-12.8654v5c0 .5523-.44772 1-1 1s-1-.4477-1-1zm2 11h12.8646l-3.6329-4.35985c-.3089-.37083-.3089-.90947 0-1.2803l3.6329-4.35985h-12.8646z" fill="#9e9e9e" fill-rule="evenodd"/></svg>