<svg fill="none" height="24" viewBox="0 0 24 24" width="24" xmlns="http://www.w3.org/2000/svg"><path d="m18 7.00001h-.35c.2282-.46724.3479-.98002.35-1.5.003-.69668-.2025-1.37831-.5902-1.95717s-.9397-1.02845-1.5851-1.29089c-.6453-.26245-1.3544-.32574-2.0361-.18173-.6816.14401-1.3045.48873-1.7886.98979-.4841-.50106-1.107-.84578-1.7886-.98979-.68165-.14401-1.39079-.08072-2.03615.18173-.64535.26244-1.19739.71203-1.58506 1.29089s-.59322 1.26049-.59019 1.95717c.00213.51998.12178 1.03276.35 1.5h-.35c-.79565 0-1.55871.31607-2.12132.87868s-.87868 1.32567-.87868 2.12131v2c0 .2652.10536.5196.29289.7071.18754.1875.44189.2929.70711.2929h1v6c0 .7957.31607 1.5587.87868 2.1213s1.32567.8787 2.12132.8787h8c.7956 0 1.5587-.3161 2.1213-.8787s.8787-1.3256.8787-2.1213v-6h1c.2652 0 .5196-.1054.7071-.2929s.2929-.4419.2929-.7071v-2c0-.79564-.3161-1.5587-.8787-2.12131s-1.3257-.87868-2.1213-.87868zm-7 12.99999h-3c-.26522 0-.51957-.1053-.70711-.2929-.18753-.1875-.29289-.4419-.29289-.7071v-6h4zm0-9h-6v-1c0-.26521.10536-.51956.29289-.7071.18754-.18754.44189-.29289.70711-.29289h5zm0-3.99999h-1.5c-.29667 0-.58668-.08798-.83335-.2528-.24668-.16482-.43894-.39909-.55247-.67318s-.14324-.57569-.08536-.86666.20074-.55824.41052-.76802.47705-.35264.76802-.41052c.29098-.05788.59258-.02817.86664.08536.2741.11353.5084.30579.6732.55246.1648.24668.2528.53668.2528.83336zm2-1.5c0-.29668.088-.58668.2528-.83336.1648-.24667.3991-.43893.6732-.55246s.5757-.14324.8666-.08536c.291.05788.5583.20074.7681.41052.2097.20978.3526.47705.4105.76802s.0282.59257-.0854.86666c-.1135.27409-.3058.50836-.5524.67318-.2467.16482-.5367.2528-.8334.2528h-1.5zm4 13.49999c0 .2652-.1054.5196-.2929.7071-.1875.1876-.4419.2929-.7071.2929h-3v-7h4zm2-8h-6v-1.99999h5c.2652 0 .5196.10535.7071.29289s.2929.44189.2929.7071z" fill="#9e9e9e"/></svg>