<svg fill="none" height="24" viewBox="0 0 24 24" width="24" xmlns="http://www.w3.org/2000/svg"><path d="m20 8-6-5.26c-.55-.49195-1.2621-.76393-2-.76393s-1.45.27198-2 .76393l-6 5.26c-.31763.28407-.5711.63256-.74352 1.02224-.17243.38969-.25986.81164-.25648 1.23776v8.74c0 .7956.31607 1.5587.87868 2.1213s1.32567.8787 2.12132.8787h12c.7957 0 1.5587-.3161 2.1213-.8787s.8787-1.3257.8787-2.1213v-8.75c.002-.42444-.0861-.84446-.2585-1.23232s-.4251-.73472-.7415-1.01768zm-6 12h-4v-5c0-.2652.1054-.5196.2929-.7071s.4419-.2929.7071-.2929h2c.2652 0 .5196.1054.7071.2929s.2929.4419.2929.7071z" fill="#9e9e9e"/></svg>