<svg fill="none" height="24" viewBox="0 0 24 24" width="24" xmlns="http://www.w3.org/2000/svg"><path d="m12 3c-1.3132 0-2.61358.25866-3.82683.7612-1.21326.50255-2.31565 1.23915-3.24424 2.16773-1.87536 1.87537-2.92893 4.41887-2.92893 7.07107v7c0 .2652.10536.5196.29289.7071.18754.1875.44189.2929.70711.2929h3c.79565 0 1.55871-.3161 2.12132-.8787s.87868-1.3257.87868-2.1213v-2c0-.7956-.31607-1.5587-.87868-2.1213s-1.32567-.8787-2.12132-.8787h-2c0-2.1217.84285-4.15656 2.34315-5.65685 1.50029-1.5003 3.53512-2.34315 5.65685-2.34315 2.1217 0 4.1566.84285 5.6569 2.34315 1.5002 1.50029 2.3431 3.53515 2.3431 5.65685h-2c-.7956 0-1.5587.3161-2.1213.8787s-.8787 1.3257-.8787 2.1213v2c0 .7956.3161 1.5587.8787 2.1213s1.3257.8787 2.1213.8787h3c.2652 0 .5196-.1054.7071-.2929s.2929-.4419.2929-.7071v-7c0-2.6522-1.0536-5.1957-2.9289-7.07107-1.8754-1.87536-4.4189-2.92893-7.0711-2.92893zm-6 12c.26522 0 .51957.1054.70711.2929.18753.1875.29289.4419.29289.7071v2c0 .2652-.10536.5196-.29289.7071-.18754.1875-.44189.2929-.70711.2929h-2v-4zm14 4h-2c-.2652 0-.5196-.1054-.7071-.2929s-.2929-.4419-.2929-.7071v-2c0-.2652.1054-.5196.2929-.7071s.4419-.2929.7071-.2929h2z" fill="#9e9e9e"/></svg>