<svg fill="none" height="24" viewBox="0 0 24 24" width="24" xmlns="http://www.w3.org/2000/svg"><path d="m11.44 2c-2.56362.00731-5.02651.99891-6.88 2.77v-1.77c0-.26522-.10536-.51957-.2929-.70711-.18753-.18753-.44189-.29289-.7071-.29289-.26522 0-.51957.10536-.70711.29289-.18754.18754-.29289.44189-.29289.70711v4.5c0 .26522.10535.51957.29289.70711.18754.18753.44189.29289.70711.29289h4.5c.26521 0 .51957-.10536.7071-.29289.18754-.18754.2929-.44189.2929-.70711s-.10536-.51957-.2929-.70711c-.18753-.18753-.44189-.29289-.7071-.29289h-2.4c.91171-.96299 2.0485-1.68424 3.30813-2.09886 1.25957-.41463 2.60257-.50962 3.90797-.27644 1.3055.23318 2.5325.78723 3.5707 1.61229s1.855 1.89527 2.3769 3.11434c.522 1.21907.7327 2.54877.6132 3.86947s-.5654 2.591-1.2977 3.6966c-.7322 1.1057-1.7278 2.0119-2.8972 2.6373-1.1694.6253-2.4759.9502-3.802.9453-.2652 0-.5196.1054-.7071.2929s-.2929.4419-.2929.7071.1054.5196.2929.7071.4419.2929.7071.2929c2.6522 0 5.1957-1.0536 7.0711-2.9289 1.8753-1.8754 2.9289-4.4189 2.9289-7.0711 0-2.65216-1.0536-5.1957-2.9289-7.07107-1.8754-1.87536-4.4189-2.92893-7.0711-2.92893zm0 6c-.2652 0-.5196.10536-.7071.29289-.1875.18754-.2929.44189-.2929.70711v3c0 .2652.1054.5196.2929.7071s.4419.2929.7071.2929h2c.2652 0 .5196-.1054.7071-.2929s.2929-.4419.2929-.7071-.1054-.5196-.2929-.7071-.4419-.2929-.7071-.2929h-1v-2c0-.26522-.1054-.51957-.2929-.70711-.1875-.18753-.4419-.29289-.7071-.29289z" fill="#9e9e9e"/></svg>