<svg fill="none" height="24" viewBox="0 0 24 24" width="24" xmlns="http://www.w3.org/2000/svg"><g fill="#9e9e9e"><path d="m7 19.3516h-4c-.55225 0-1-.4473-1-1v-6c0-.5528.44775-1 1-1h4c.55225 0 1 .4472 1 1v6c0 .5527-.44775 1-1 1zm-3-2h2v-4h-2z"/><path d="m13.9732 16.9219c-.2798 0-.5606-.0449-.8335-.1367l-1.4561-.4854c-.5239-.1738-.8071-.7402-.6323-1.2647.1743-.5234.7397-.8076 1.2651-.6318l1.4561.4854c.1592.0527.3286.041.479-.0342.1499-.0752.2617-.2041.3144-.3633.105-.3145-.0537-.6572-.3613-.7803l-3.1592-1.2636-3.59812 1.7988c-.49561.2451-1.09473.0459-1.3418-.4473-.24707-.4941-.04688-1.0947.44726-1.3418l3.99996-2c.2564-.1279.5547-.1396.8189-.0342l3.5752 1.4307c1.2895.5156 1.956 1.9522 1.5166 3.2705-.2222.666-.69 1.2051-1.3179 1.5186-.3701.1855-.77.2793-1.1723.2793z"/><path d="m12.5923 20.999c-.5332 0-1.0674-.085-1.5816-.2568l-4.32711-1.4424c-.52393-.1738-.80713-.7402-.63232-1.2647.1748-.5234.74023-.8095 1.26514-.6318l4.32719 1.4424c.7963.2656 1.6767.1826 2.4121-.2246l6.4336-3.5733c.1054-.0586.1455-.1894.0913-.2978-.0498-.0996-.1661-.1494-.272-.1133-.0498.0166-.1011.0293-.1528.0381l-3.9917.6631c-.5518.0957-1.0606-.2774-1.1504-.8223-.0908-.5449.2778-1.0596.8222-1.1504l3.9258-.6523c1.0176-.2969 2.1299.1845 2.6079 1.1435.5342 1.0684.1348 2.3594-.9096 2.9395l-6.4331 3.5732c-.75.417-1.5904.6299-2.4346.6299z"/><path d="m9 5c.55228 0 1-.44772 1-1s-.44772-1-1-1-1 .44772-1 1 .44772 1 1 1z"/><path d="m13 5c.5523 0 1-.44772 1-1s-.4477-1-1-1-1 .44772-1 1 .4477 1 1 1z"/><path d="m9 9c.55228 0 1-.44772 1-1s-.44772-1-1-1-1 .44772-1 1 .44772 1 1 1z"/><path d="m13 9c.5523 0 1-.44772 1-1s-.4477-1-1-1-1 .44772-1 1 .4477 1 1 1z"/><path d="m17 5c.5523 0 1-.44772 1-1s-.4477-1-1-1-1 .44772-1 1 .4477 1 1 1z"/><path d="m17 9c.5523 0 1-.44772 1-1s-.4477-1-1-1-1 .44772-1 1 .4477 1 1 1z"/></g></svg>