<svg fill="none" height="24" viewBox="0 0 24 24" width="24" xmlns="http://www.w3.org/2000/svg"><path d="m11.29 15.29c-.043.0475-.0831.0976-.12.15-.0378.0557-.0681.1163-.09.18-.0288.0567-.049.1174-.06.18-.0049.0666-.0049.1334 0 .2-.0034.1312.024.2613.08.38.0449.1241.1166.2368.2099.3301s.206.165.3301.2099c.1197.0529.2491.0802.38.0802s.2603-.0273.38-.0802c.1241-.0449.2368-.1166.3301-.2099s.165-.206.2099-.3301c.0444-.1216.0648-.2506.06-.38.0008-.1316-.0245-.2621-.0742-.3839-.0498-.1218-.1231-.2327-.2158-.3261-.093-.0937-.2036-.1681-.3254-.2189-.1219-.0508-.2526-.0769-.3846-.0769s-.2627.0261-.3846.0769c-.1218.0508-.2324.1252-.3254.2189zm.71-13.29c-1.9778 0-3.91121.58649-5.5557 1.6853-1.64449 1.09882-2.92621 2.6606-3.68309 4.48787-.75688 1.82723-.95491 3.83793-.56906 5.77773s1.33826 3.7216 2.73679 5.1202c1.39852 1.3985 3.18035 2.3509 5.12016 2.7368 1.9398.3858 3.9505.1878 5.7777-.5691 1.8273-.7569 3.3891-2.0386 4.4879-3.6831s1.6853-3.5779 1.6853-5.5557c0-1.3132-.2587-2.61358-.7612-3.82683-.5025-1.21326-1.2391-2.31565-2.1677-3.24424-.9286-.92858-2.031-1.66518-3.2443-2.16773-1.2132-.50254-2.5136-.7612-3.8268-.7612zm0 18c-1.5822 0-3.12896-.4692-4.44456-1.3482-1.31559-.8791-2.34097-2.1285-2.94647-3.5903s-.76393-3.0704-.45525-4.6222c.30868-1.55187 1.07061-2.97733 2.18943-4.09615s2.54428-1.88075 4.09615-2.18943c1.5518-.30868 3.1604-.15026 4.6222.45524 1.4618.60551 2.7112 1.63088 3.5903 2.94648.879 1.31559 1.3482 2.86226 1.3482 4.44456 0 2.1217-.8428 4.1566-2.3431 5.6569-1.5003 1.5002-3.5352 2.3431-5.6569 2.3431zm0-13c-.5269-.00034-1.0447.13812-1.5011.40144s-.83543.64222-1.0989 1.09856c-.07235.11382-.12093.2411-.14282.37418s-.01663.26921.01545.40021c.03209.13099.09034.25415.17126.36204.08092.1079.18282.19832.29959.26581.11676.0675.24597.11066.37982.12696.1339.0162.2697.0053.3992-.03232.1296-.03758.2502-.10097.3546-.18636.1043-.08539.1904-.19102.2529-.31052.0881-.1526.215-.27922.3678-.36702.1527-.0878.326-.13368.5022-.13298.2652 0 .5196.10536.7071.29289.1875.18754.2929.44189.2929.70711 0 .2652-.1054.5196-.2929.7071s-.4419.2929-.7071.2929-.5196.1054-.7071.2929-.2929.4419-.2929.7071v1c0 .2652.1054.5196.2929.7071s.4419.2929.7071.2929.5196-.1054.7071-.2929.2929-.4419.2929-.7071v-.18c.6614-.24 1.2174-.7048 1.5708-1.3131.3534-.6084.4817-1.3216.3626-2.01501-.1191-.6934-.4782-1.32287-1.0144-1.77837-.5362-.45551-1.2155-.70806-1.919-.71352z" fill="#9e9e9e"/></svg>