<svg width="36" height="39" viewBox="0 0 36 39" fill="none" xmlns="http://www.w3.org/2000/svg">
<path d="M18.0499 0.277832C8.90139 0.277832 0.277832 7.54435 0.277832 18.0499C0.277832 27.7806 8.18162 35.8219 18.0499 35.8219C27.9162 35.8219 35.8219 27.7855 35.8219 18.0499C35.8219 8.31912 27.9181 0.277832 18.0499 0.277832ZM13.0434 2.95673C11.1105 5.25447 9.94068 8.53388 9.33531 11.5023H3.55986C5.38084 7.48851 8.82207 4.36063 13.0434 2.95673ZM2.14857 18.0499C2.14857 16.4229 2.39467 14.8523 2.85085 13.373L9.01485 13.3721C8.80477 14.8777 8.69617 16.4485 8.69617 18.0499C8.69617 19.6512 8.80477 21.2212 9.01485 22.7267H2.85085C2.39467 21.2474 2.14857 19.6769 2.14857 18.0499ZM3.55996 24.5975H9.3354C9.94059 27.5652 11.1103 30.845 13.0435 33.143C8.82207 31.7391 5.38084 28.6112 3.55996 24.5975ZM17.1145 33.8213C14.5404 33.1036 12.3279 29.4767 11.2563 24.5975H17.1145V33.8213ZM17.1145 22.7267H10.9112C10.6879 21.2413 10.5669 19.6692 10.5669 18.0499C10.5669 16.4306 10.688 14.8585 10.9112 13.373H17.1145V22.7267ZM17.1145 11.5023H11.2563C12.3279 6.62301 14.5404 2.99611 17.1145 2.2785V11.5023ZM18.9853 2.2785C21.5594 2.99611 23.7718 6.62311 24.8435 11.5023H18.9853V2.2785ZM18.9853 13.373H25.1885C25.4119 14.8585 25.5328 16.4306 25.5328 18.0499C25.5328 19.6692 25.4118 21.2413 25.1885 22.7267H18.9853V13.373ZM18.9853 33.8213V24.5965L24.8435 24.5975C23.7718 29.4767 21.5594 33.1036 18.9853 33.8213ZM23.0564 33.143C24.9901 30.8444 26.1595 27.564 26.7645 24.5965H32.5399C30.7189 28.6112 27.2777 31.7391 23.0564 33.143ZM33.9512 18.0499C33.9512 19.6769 33.7051 21.2474 33.2489 22.7267H27.0849C27.295 21.2212 27.4036 19.6512 27.4036 18.0499C27.4036 16.4485 27.295 14.8786 27.0849 13.373H33.2489C33.7051 14.8523 33.9512 16.4229 33.9512 18.0499ZM26.7644 11.5023C26.1592 8.53454 24.9895 5.25475 23.0563 2.95673C27.2776 4.36063 30.7189 7.48851 32.5397 11.5023H26.7644Z" fill="#1F1F1F"/>
<circle cx="26.0319" cy="32.683" r="5.32122" fill="#FB4B4B"/>
<circle cx="26.0317" cy="32.6828" r="3.99092" fill="#FB4B4B"/>
</svg>
