<svg fill="none" height="24" viewBox="0 0 24 24" width="24" xmlns="http://www.w3.org/2000/svg"><path d="m19 11.48c-.2652 0-.5196.1054-.7071.2929s-.2929.4419-.2929.7071v2.39l-1.5-1.48c-.527-.506-1.2294-.7886-1.96-.7886s-1.433.2826-1.96.7886l-.7.7-2.49-2.49c-.52088-.5178-1.22552-.8085-1.96-.8085-.73449 0-1.43912.2907-1.96.8085l-1.47 1.49v-5.60998c0-.26522.10536-.51957.29289-.70711.18754-.18753.44189-.29289.70711-.29289h6c.2652 0 .5196-.10536.7071-.29289.1875-.18754.2929-.4419.2929-.70711 0-.26522-.1054-.51957-.2929-.70711-.1875-.18753-.4419-.29289-.7071-.29289h-6c-.79565 0-1.55871.31607-2.12132.87868s-.87868 1.32567-.87868 2.12132v11.99998c0 .7957.31607 1.5587.87868 2.1213s1.32567.8787 2.12132.8787h12c.7956 0 1.5587-.3161 2.1213-.8787s.8787-1.3256.8787-2.1213v-7c0-.2652-.1054-.5196-.2929-.7071s-.4419-.2929-.7071-.2929zm-14 9c-.26522 0-.51957-.1053-.70711-.2929-.18753-.1875-.29289-.4419-.29289-.7071v-3.56l2.88-2.92c.07271-.075.15975-.1346.25595-.1753.09619-.0407.19959-.0617.30405-.0617s.20786.021.30405.0617c.0962.0407.18324.1003.25595.1753l3.17 3.17 4.26 4.26zm13-1c-.0035.1926-.0625.3802-.17.54l-4.54-4.52.7-.69c.1462-.1453.3439-.2269.55-.2269s.4038.0816.55.2269l2.91 2.89zm3.72-15.24998-2.42-2.42c-.1874-.18625-.4408-.29079-.705-.29079s-.5176.10454-.705.29079l-4.58 4.58c-.0963.09178-.1733.20184-.2265.32376-.0533.12191-.0817.25322-.0835.38624v2.42c0 .26522.1054.51958.2929.70708.1875.1876.4419.2929.7071.2929h2.42c.2623-.0011.5137-.1052.7-.29l4.58-4.57998c.095-.09164.171-.20119.2235-.32233.0525-.12115.0805-.25149.0823-.3835.0019-.13202-.0224-.2631-.0715-.38567-.049-.12258-.1219-.23422-.2143-.3285zm-5.72 4.29h-1v-1l3.6-3.59 1 1z" fill="#9e9e9e"/></svg>