<svg fill="none" height="24" viewBox="0 0 24 24" width="24" xmlns="http://www.w3.org/2000/svg"><path d="m20 7c-.4248.0014-.8381.13799-1.18.39l-1.75-.8 1.93-.88c.3019.18326.6469.28332 1 .29.3956 0 .7822-.1173 1.1111-.33706s.5853-.53212.7367-.89757c.1513-.36545.1909-.76759.1138-1.15555-.0772-.38796-.2677-.74433-.5474-1.02403-.2797-.27971-.6361-.47019-1.024-.54736-.388-.07717-.7901-.03756-1.1556.11381-.3654.15138-.6778.40772-.8975.73662-.2198.3289-.3371.71558-.3371 1.11114l-1.89.87c-.2582-.18341-.5563-.30287-.8698-.34853-.3134-.04566-.6332-.01623-.9331.08589-.2998.10211-.5711.27397-.7915.50144s-.3837.50404-.4763.80694-.112.62347-.0565.93531c.0555.31185.1843.60605.3758.85839.1914.25233.4401.45559.7254.59304.2854.13744.5993.20514.916.19752.3222.00015.639-.08249.92-.24l2.1 1c.05.38133.2089.7402.4576 1.0335.2488.2933.5768.5087.9448.6204.3681.1116.7605.1148 1.1303.0091.3697-.1057.7012-.3158.9547-.605.2534-.2893.4181-.64555.4742-1.02602s.0014-.76907-.1577-1.11922c-.159-.35016-.4157-.64702-.7392-.85502s-.7001-.31832-1.0847-.31774zm-1 6c-.2652 0-.5196.1054-.7071.2929s-.2929.4419-.2929.7071v.39l-1.48-1.48c-.2574-.2591-.5636-.4648-.9008-.6051-.3373-.1403-.6989-.2125-1.0642-.2125s-.7269.0722-1.0642.2125c-.3372.1403-.6434.346-.9008.6051l-.7.7-2.48-2.49c-.52258-.5185-1.22887-.8094-1.965-.8094s-1.44242.2909-1.965.8094l-1.48 1.48v-5.6c0-.26522.10536-.51957.29289-.70711.18754-.18753.44189-.29289.70711-.29289h5c.2652 0 .5196-.10536.7071-.29289.1875-.18754.2929-.44189.2929-.70711s-.1054-.51957-.2929-.70711c-.1875-.18753-.4419-.29289-.7071-.29289h-5c-.79565 0-1.55871.31607-2.12132.87868s-.87868 1.32567-.87868 2.12132v12c0 .7956.31607 1.5587.87868 2.1213s1.32567.8787 2.12132.8787h12c.7956 0 1.5587-.3161 2.1213-.8787s.8787-1.3257.8787-2.1213v-5c0-.2652-.1054-.5196-.2929-.7071s-.4419-.2929-.7071-.2929zm-14 7c-.26522 0-.51957-.1054-.70711-.2929-.18753-.1875-.29289-.4419-.29289-.7071v-3.57l2.9-2.9c.14691-.14.34206-.2181.545-.2181s.39809.0781.545.2181l3.17 3.17 4.29 4.3zm13-1c-.0014.1914-.0646.3773-.18.53l-4.51-4.53.7-.7c.1462-.1453.3439-.2269.55-.2269s.4038.0816.55.2269l2.89 2.92z" fill="#9e9e9e"/></svg>