<svg fill="none" height="24" viewBox="0 0 24 24" width="24" xmlns="http://www.w3.org/2000/svg"><path d="m19 2h-14c-.79565 0-1.55871.31607-2.12132.87868s-.87868 1.32567-.87868 2.12132v14c0 .7956.31607 1.5587.87868 2.1213s1.32567.8787 2.12132.8787h14c.1645-.0023.3284-.019.49-.05l.3-.07h.07.05l.37-.14.13-.07c.1-.06.21-.11.31-.18.1335-.0982.2605-.2051.38-.32l.07-.09c.0982-.0995.1885-.2065.27-.32l.09-.13c.0698-.1113.1301-.2284.18-.35.0274-.048.0509-.0982.07-.15.05-.12.08-.25.12-.38v-.15c.0567-.1954.0903-.3968.1-.6v-14c0-.79565-.3161-1.55871-.8787-2.12132s-1.3257-.87868-2.1213-.87868zm-14 18c-.26522 0-.51957-.1054-.70711-.2929-.18753-.1875-.29289-.4419-.29289-.7071v-4.31l3.29-3.3c.09296-.0937.20356-.1681.32542-.2189s.25257-.0769.38458-.0769.26272.0261.38458.0769.23246.1252.32542.2189l8.6 8.61zm15-1c-.0009.1233-.0247.2453-.07.36-.0229.0487-.0496.0956-.08.14-.0268.0423-.0569.0825-.09.12l-5.35-5.35.88-.88c.093-.0937.2036-.1681.3254-.2189.1219-.0508.2526-.0769.3846-.0769s.2627.0261.3846.0769c.1218.0508.2324.1252.3254.2189l3.29 3.3zm0-5.14-1.88-1.86c-.5723-.543-1.3311-.8457-2.12-.8457s-1.5477.3027-2.12.8457l-.88.88-2.88-2.88c-.57228-.54301-1.3311-.84572-2.12-.84572s-1.54772.30271-2.12.84572l-1.88 1.86v-6.86c0-.26522.10536-.51957.29289-.70711.18754-.18753.44189-.29289.70711-.29289h14c.2652 0 .5196.10536.7071.29289.1875.18754.2929.44189.2929.70711zm-6.5-7.86c-.2967 0-.5867.08797-.8334.2528-.2466.16482-.4389.39909-.5524.67317-.1136.27409-.1433.57569-.0854.86667.0579.29097.2008.55824.4105.76802.2098.20978.4771.35264.7681.41052.2909.05788.5925.02817.8666-.08536s.5084-.30579.6732-.55247c.1648-.24667.2528-.53668.2528-.83335 0-.39782-.158-.77936-.4393-1.06066s-.6629-.43934-1.0607-.43934z" fill="#9e9e9e"/></svg>