<svg fill="none" height="24" viewBox="0 0 24 24" width="24" xmlns="http://www.w3.org/2000/svg"><path d="m22.71 6.29c-.093-.09373-.2036-.16812-.3254-.21889-.1219-.05077-.2526-.07691-.3846-.07691s-.2627.02614-.3846.07691c-.1218.05077-.2324.12516-.3254.21889l-1.29 1.3v-5.59c0-.26522-.1054-.51957-.2929-.70711-.1875-.18753-.4419-.29289-.7071-.29289s-.5196.10536-.7071.29289c-.1875.18754-.2929.44189-.2929.70711v5.59l-1.29-1.3c-.1883-.1883-.4437-.29409-.71-.29409s-.5217.10579-.71.29409-.2941.4437-.2941.71.1058.5217.2941.71l3 3c.0951.091.2072.1624.33.21.1197.0529.2491.0802.38.0802s.2603-.0273.38-.0802c.1228-.0476.2349-.119.33-.21l3-3c.0937-.09296.1681-.20356.2189-.32542s.0769-.25257.0769-.38458-.0261-.26272-.0769-.38458-.1252-.23246-.2189-.32542zm-3.71 6.71c-.2652 0-.5196.1054-.7071.2929s-.2929.4419-.2929.7071v.38l-1.48-1.48c-.5226-.5185-1.2289-.8094-1.965-.8094s-1.4424.2909-1.965.8094l-.7.7-2.48-2.48c-.52988-.5044-1.23343-.7857-1.965-.7857s-1.43512.2813-1.965.7857l-1.48 1.48v-5.6c0-.26522.10536-.51957.29289-.70711.18754-.18753.44189-.29289.70711-.29289h8c.2652 0 .5196-.10536.7071-.29289.1875-.18754.2929-.44189.2929-.70711s-.1054-.51957-.2929-.70711c-.1875-.18753-.4419-.29289-.7071-.29289h-8c-.79565 0-1.55871.31607-2.12132.87868s-.87868 1.32567-.87868 2.12132v12c0 .7956.31607 1.5587.87868 2.1213s1.32567.8787 2.12132.8787h12c.7956 0 1.5587-.3161 2.1213-.8787s.8787-1.3257.8787-2.1213v-5c0-.2652-.1054-.5196-.2929-.7071s-.4419-.2929-.7071-.2929zm-14 7c-.26522 0-.51957-.1054-.70711-.2929-.18753-.1875-.29289-.4419-.29289-.7071v-3.57l2.9-2.9c.14691-.14.34206-.2181.545-.2181s.39809.0781.545.2181l3.17 3.17 4.3 4.3zm13-1c-.0014.1914-.0646.3773-.18.53l-4.51-4.53.7-.7c.0717-.0732.1573-.1313.2517-.171s.1959-.0601.2983-.0601.2039.0204.2983.0601.18.0978.2517.171l2.89 2.91z" fill="#9e9e9e"/></svg>