<svg fill="none" height="24" viewBox="0 0 24 24" width="24" xmlns="http://www.w3.org/2000/svg"><path d="m21.41 8.64s0 0 0-.05c-.7046-1.92377-1.9831-3.58471-3.6625-4.75813s-3.6787-1.8027-5.7275-1.8027c-2.04874 0-4.04805.62928-5.72748 1.8027-1.67942 1.17342-2.95791 2.83436-3.66251 4.75813v.05c-.78687 2.1709-.78687 4.5491 0 6.72v.05c.7046 1.9238 1.98309 3.5847 3.66251 4.7581 1.67943 1.1735 3.67874 1.8027 5.72748 1.8027 2.0488 0 4.0481-.6292 5.7275-1.8027 1.6794-1.1734 2.9579-2.8343 3.6625-4.7581 0 0 0 0 0-.05.7869-2.1709.7869-4.5491 0-6.72zm-17.14999 5.36c-.34677-1.3108-.34677-2.6892 0-4h1.86c-.15997 1.3285-.15997 2.6715 0 4zm.82 2h1.4c.23472.8918.57021 1.7541 1 2.57-.9807-.6681-1.8005-1.5459-2.4-2.57zm1.4-8h-1.4c.59087-1.02091 1.40019-1.89853 2.37-2.57-.41944.81725-.74486 1.67942-.97 2.57zm4.51999 11.7c-1.22822-.9013-2.09084-2.2148-2.42999-3.7h2.42999zm0-5.7h-2.85999c-.18661-1.3268-.18661-2.6732 0-4h2.85999zm0-6h-2.42999c.33915-1.48523 1.20177-2.79868 2.42999-3.7zm7.92 0h-1.4c-.2347-.89184-.5702-1.75406-1-2.57.9807.66807 1.8005 1.54594 2.4 2.57zm-5.92-3.7c1.2282.90132 2.0909 2.21477 2.43 3.7h-2.43zm0 15.4v-3.7h2.43c-.3391 1.4852-1.2018 2.7987-2.43 3.7zm2.86-5.7h-2.86v-4h2.86c.1866 1.3268.1866 2.6732 0 4zm.69 4.57c.4298-.8159.7653-1.6782 1-2.57h1.4c-.5995 1.0241-1.4193 1.9019-2.4 2.57zm3.19-4.57h-1.86c.0813-.6635.1214-1.3315.12-2 .0011-.6685-.039-1.3364-.12-2h1.86c.3468 1.3108.3468 2.6892 0 4z" fill="#9e9e9e"/></svg>