<svg fill="none" height="24" viewBox="0 0 24 24" width="24" xmlns="http://www.w3.org/2000/svg"><path d="m19 10c-.2652 0-.5196.1054-.7071.2929s-.2929.4419-.2929.7071v3.39l-1.48-1.48c-.2574-.2591-.5636-.4647-.9008-.6051-.3373-.1403-.6989-.2125-1.0642-.2125s-.7269.0722-1.0642.2125c-.3372.1404-.6434.346-.9008.6051l-.7.7-2.48-2.49c-.52258-.5184-1.22887-.8094-1.965-.8094s-1.44242.291-1.965.8094l-1.48 1.48v-5.59999c0-.26522.10536-.51957.29289-.70711.18754-.18753.44189-.29289.70711-.29289h8c.2652 0 .5196-.10536.7071-.29289.1875-.18754.2929-.44189.2929-.70711s-.1054-.51957-.2929-.70711c-.1875-.18753-.4419-.29289-.7071-.29289h-8c-.79565 0-1.55871.31607-2.12132.87868s-.87868 1.32567-.87868 2.12132v11.99999c0 .7957.31607 1.5587.87868 2.1213s1.32567.8787 2.12132.8787h12c.7956 0 1.5587-.3161 2.1213-.8787s.8787-1.3256.8787-2.1213v-8c0-.2652-.1054-.5196-.2929-.7071s-.4419-.2929-.7071-.2929zm-14 10c-.26522 0-.51957-.1053-.70711-.2929-.18753-.1875-.29289-.4419-.29289-.7071v-3.57l2.9-2.9c.14691-.14.34206-.2181.545-.2181s.39809.0781.545.2181l3.17 3.17 4.29 4.3zm13-1c-.0014.1914-.0646.3773-.18.53l-4.51-4.53.7-.7c.1462-.1453.3439-.2269.55-.2269s.4038.0816.55.2269l2.89 2.92zm2.41-13.99999 1.3-1.29c.1862-.18736.2908-.44081.2908-.705s-.1046-.51764-.2908-.705c-.093-.09373-.2036-.16812-.3254-.21889-.1219-.05077-.2526-.07691-.3846-.07691s-.2627.02614-.3846.07691c-.1218.05077-.2324.12516-.3254.21889l-1.29 1.29-1.29-1.29c-.093-.09373-.2036-.16812-.3254-.21889-.1219-.05077-.2526-.07691-.3846-.07691s-.2627.02614-.3846.07691c-.1218.05077-.2324.12516-.3254.21889-.1862.18736-.2908.44081-.2908.705s.1046.51764.2908.705l1.3 1.29-1.3 1.3c-.1862.18736-.2908.44081-.2908.705s.1046.51764.2908.705c.093.09373.2036.16812.3254.21889.1219.05077.2526.07691.3846.07691s.2627-.02614.3846-.07691c.1218-.05077.2324-.12516.3254-.21889l1.29-1.29 1.29 1.29c.093.09373.2036.16812.3254.21889.1219.05077.2526.07691.3846.07691s.2627-.02614.3846-.07691c.1218-.05077.2324-.12516.3254-.21889.1862-.18736.2908-.44081.2908-.705s-.1046-.51764-.2908-.705z" fill="#9e9e9e"/></svg>