<svg fill="none" height="24" viewBox="0 0 24 24" width="24" xmlns="http://www.w3.org/2000/svg"><path d="m21.5 1.49999c-.2652 0-.5196.10535-.7071.29289s-.2929.44189-.2929.70711c-.7558-.56798-1.6571-.91005-2.5994-.98653s-1.887.11577-2.7245.55444-1.5334 1.10579-2.0071 1.92398c-.4737.81818-.7057 1.75389-.6691 2.6986.0365.9447.3402 1.85968.8757 2.63879.5355.77913 1.281 1.39043 2.1498 1.76303.8689.3727 1.8256.4913 2.7592.3422s1.8058-.5598 2.5154-1.1845c.2002-.1751.3227-.42247.3406-.68784.0178-.26536-.0706-.52693-.2456-.72717s-.4225-.32274-.6878-.34056c-.2654-.01782-.527.07051-.7272.24556-.4442.39206-.9945.64384-1.5816.72357-.587.07973-1.1846-.01615-1.7172-.27554-.5327-.2594-.9766-.67071-1.2758-1.18206s-.4403-1.09984-.4055-1.69127c.0348-.59144.2439-1.15933.601-1.63207s.8462-.82917 1.4056-1.02433 1.164-.22032 1.7377-.07231 1.0907.46257 1.4858.90401h-1.23c-.2652 0-.5196.10535-.7071.29289s-.2929.44189-.2929.70711c0 .26521.1054.51957.2929.7071.1875.18754.4419.2929.7071.2929h3c.2652 0 .5196-.10536.7071-.2929.1875-.18753.2929-.44189.2929-.7071v-3c-.0026-.26348-.1092-.51528-.2964-.70065-.1873-.18538-.4401-.28937-.7036-.28935zm-3 12.00001c-.2652 0-.5196.1053-.7071.2929-.1875.1875-.2929.4419-.2929.7071v.39l-1.5-1.48c-.2574-.2591-.5636-.4648-.9008-.6051-.3373-.1403-.6989-.2126-1.0642-.2126s-.7269.0723-1.0642.2126c-.3372.1403-.6434.346-.9008.6051l-.7.7-2.46-2.49c-.52258-.5185-1.22887-.8094-1.965-.8094s-1.44242.2909-1.965.8094l-1.48 1.48v-5.60001c0-.26522.10536-.51957.29289-.70711.18754-.18754.44189-.29289.70711-.29289h5c.26522 0 .5196-.10536.7071-.2929.1875-.18753.2929-.44189.2929-.7071 0-.26522-.1054-.51957-.2929-.70711s-.44188-.29289-.7071-.29289h-5c-.79565 0-1.55871.31607-2.12132.87868s-.87868 1.32567-.87868 2.12132v12.00001c0 .7956.31607 1.5587.87868 2.1213s1.32567.8787 2.12132.8787h12c.7956 0 1.5587-.3161 2.1213-.8787s.8787-1.3257.8787-2.1213v-5c0-.2652-.1054-.5196-.2929-.7071-.1875-.1876-.4419-.2929-.7071-.2929zm-14 7c-.26522 0-.51957-.1054-.70711-.2929-.18753-.1875-.29289-.4419-.29289-.7071v-3.57l2.9-2.93c.14691-.14.34206-.2181.545-.2181s.39809.0781.545.2181l3.17 3.17 4.34 4.33zm13-1c-.0083.1902-.0708.3741-.18.53l-4.51-4.51.7-.7c.1462-.1453.3439-.2269.55-.2269s.4038.0816.55.2269l2.89 2.9z" fill="#9e9e9e"/></svg>