<svg fill="none" height="24" viewBox="0 0 24 24" width="24" xmlns="http://www.w3.org/2000/svg"><path d="m9.50001 10.5h2.49999c.2652 0 .5196-.1053.7071-.2929.1876-.1875.2929-.44188.2929-.70709 0-.26522-.1053-.51957-.2929-.70711-.1875-.18754-.4419-.29289-.7071-.29289h-1v-.5c0-.26522-.1053-.51957-.2929-.70711-.1875-.18754-.4419-.29289-.7071-.29289-.26521 0-.51956.10535-.7071.29289-.18753.18754-.29289.44189-.29289.70711v.55c-.60758.12337-1.14764.4681-1.51535.96726-.3677.49913-.53681 1.11713-.47451 1.73403.06231.6168.35159 1.1885.81169 1.604.4601.4156 1.05819.6453 1.67817.6447h.99999c.1326 0 .2598.0527.3536.1465.0937.0937.1464.2209.1464.3535s-.0527.2598-.1464.3536c-.0938.0937-.221.1464-.3536.1464h-2.49999c-.26522 0-.51957.1054-.70711.2929-.18753.1875-.29289.4419-.29289.7071s.10536.5196.29289.7071c.18754.1876.44189.2929.70711.2929h1v.5c0 .2652.10536.5196.29289.7071.18754.1876.44189.2929.7071.2929.2652 0 .5196-.1053.7071-.2929.1876-.1875.2929-.4419.2929-.7071v-.55c.6076-.1234 1.1476-.4681 1.5154-.9673.3677-.4991.5368-1.1171.4745-1.7339-.0623-.6169-.3516-1.1886-.8117-1.6041-.4601-.4156-1.0582-.6453-1.6782-.6447h-.99999c-.13261 0-.25979-.0527-.35356-.1464-.09376-.0938-.14644-.221-.14644-.3536s.05268-.2598.14644-.3535c.09377-.0938.22095-.1465.35356-.1465zm11.49999 1.5h-3v-8.99999c.0007-.17621-.0452-.34948-.133-.50226-.0878-.15277-.2144-.27964-.367-.36774-.152-.08777-.3245-.13398-.5-.13398s-.348.04621-.5.13398l-3 1.72-3-1.72c-.152-.08777-.3245-.13398-.5-.13398-.17553 0-.34797.04621-.49999.13398l-3 1.72-3-1.72c-.15202-.08777-.32447-.13398-.5-.13398-.17554 0-.34798.04621-.5.13398-.15261.0881-.27922.21497-.36702.36774-.08781.15278-.13368.32605-.13298.50226v15.99999c0 .7957.31607 1.5587.87868 2.1213s1.32567.8787 2.12132.8787h13.99999c.7957 0 1.5587-.3161 2.1213-.8787s.8787-1.3256.8787-2.1213v-6c0-.2652-.1053-.5196-.2929-.7071-.1875-.1875-.4419-.2929-.7071-.2929zm-15.99999 8c-.26522 0-.51957-.1053-.70711-.2929-.18754-.1875-.29289-.4419-.29289-.7071v-14.26999l2 1.14c.15434.08061.32588.12271.5.12271s.34566-.0421.5-.12271l2.99999-1.72 3 1.72c.1543.08061.3259.12271.5.12271s.3457-.0421.5-.12271l2-1.14v14.26999c.0027.3412.0636.6793.18 1zm14.99999-1c0 .2652-.1053.5196-.2929.7071-.1875.1876-.4419.2929-.7071.2929s-.5196-.1053-.7071-.2929c-.1875-.1875-.2929-.4419-.2929-.7071v-5h2z" fill="#9e9e9e"/></svg>