<svg fill="none" height="24" viewBox="0 0 24 24" width="24" xmlns="http://www.w3.org/2000/svg"><path d="m20 5.18v-1.18c0-.79565-.3161-1.55871-.8787-2.12132s-1.3257-.87868-2.1213-.87868-1.5587.31607-2.1213.87868-.8787 1.32567-.8787 2.12132v1.18c-.5835.20631-1.089.58807-1.4471 1.09293-.358.50487-.5512 1.10813-.5529 1.72707v2c0 .7956.3161 1.5587.8787 2.1213s1.3257.8787 2.1213.8787h4c.7956 0 1.5587-.3161 2.1213-.8787s.8787-1.3257.8787-2.1213v-2c-.0017-.61894-.1949-1.2222-.5529-1.72707-.3581-.50486-.8636-.88662-1.4471-1.09293zm-4-1.18c0-.26522.1054-.51957.2929-.70711.1875-.18753.4419-.29289.7071-.29289s.5196.10536.7071.29289c.1875.18754.2929.44189.2929.70711v1h-2zm4 6c0 .2652-.1054.5196-.2929.7071s-.4419.2929-.7071.2929h-4c-.2652 0-.5196-.1054-.7071-.2929s-.2929-.4419-.2929-.7071v-2c0-.26522.1054-.51957.2929-.70711.1875-.18753.4419-.29289.7071-.29289h4c.2652 0 .5196.10536.7071.29289.1875.18754.2929.44189.2929.70711zm-1 5c-.2652 0-.5196.1054-.7071.2929s-.2929.4419-.2929.7071v3c-.0014.1914-.0646.3773-.18.53l-8.41-8.41c-.53103-.5021-1.23415-.7819-1.965-.7819s-1.43397.2798-1.965.7819l-1.48 1.48v-5.6c0-.26522.10536-.51957.29289-.70711.18754-.18753.44189-.29289.70711-.29289h5c.2652 0 .5196-.10536.7071-.29289.1875-.18754.2929-.44189.2929-.70711s-.1054-.51957-.2929-.70711c-.1875-.18753-.4419-.29289-.7071-.29289h-5c-.79565 0-1.55871.31607-2.12132.87868s-.87868 1.32567-.87868 2.12132v12c0 .7956.31607 1.5587.87868 2.1213s1.32567.8787 2.12132.8787h12c.7956 0 1.5587-.3161 2.1213-.8787s.8787-1.3257.8787-2.1213v-3c0-.2652-.1054-.5196-.2929-.7071s-.4419-.2929-.7071-.2929zm-14 5c-.26522 0-.51957-.1054-.70711-.2929-.18753-.1875-.29289-.4419-.29289-.7071v-3.57l2.9-2.9c.14691-.14.34206-.2181.545-.2181s.39809.0781.545.2181l7.47 7.47z" fill="#9e9e9e"/></svg>