<svg width="28" height="28" viewBox="0 0 28 28" fill="none" xmlns="http://www.w3.org/2000/svg">
<path d="M23.3333 11.3334C22.9797 11.3334 22.6405 11.4739 22.3905 11.724C22.1404 11.974 22 12.3131 22 12.6668V17.1868L20.0266 15.2134C19.6834 14.8679 19.2752 14.5938 18.8255 14.4067C18.3759 14.2196 17.8937 14.1232 17.4066 14.1232C16.9196 14.1232 16.4374 14.2196 15.9877 14.4067C15.5381 14.5938 15.1299 14.8679 14.7866 15.2134L13.8533 16.1468L10.5466 12.8268C9.84986 12.1355 8.90813 11.7476 7.92663 11.7476C6.94512 11.7476 6.0034 12.1355 5.30663 12.8268L3.33329 14.8001V7.33343C3.33329 6.97981 3.47377 6.64067 3.72382 6.39062C3.97387 6.14057 4.313 6.00009 4.66663 6.00009H15.3333C15.6869 6.00009 16.0261 5.85962 16.2761 5.60957C16.5262 5.35952 16.6666 5.02038 16.6666 4.66676C16.6666 4.31314 16.5262 3.974 16.2761 3.72395C16.0261 3.4739 15.6869 3.33343 15.3333 3.33343H4.66663C3.60576 3.33343 2.58834 3.75486 1.8382 4.505C1.08805 5.25515 0.666626 6.27256 0.666626 7.33343V23.3334C0.666626 24.3943 1.08805 25.4117 1.8382 26.1619C2.58834 26.912 3.60576 27.3334 4.66663 27.3334H20.6666C21.7275 27.3334 22.7449 26.912 23.4951 26.1619C24.2452 25.4117 24.6666 24.3943 24.6666 23.3334V12.6668C24.6666 12.3131 24.5262 11.974 24.2761 11.724C24.0261 11.4739 23.6869 11.3334 23.3333 11.3334ZM4.66663 24.6668C4.313 24.6668 3.97387 24.5263 3.72382 24.2762C3.47377 24.0262 3.33329 23.687 3.33329 23.3334V18.5734L7.19996 14.7068C7.39584 14.5201 7.65605 14.416 7.92663 14.416C8.19721 14.416 8.45741 14.5201 8.65329 14.7068L12.88 18.9334L18.6 24.6668H4.66663ZM22 23.3334C21.998 23.5887 21.9139 23.8365 21.76 24.0401L15.7466 18.0001L16.68 17.0668C16.8748 16.873 17.1385 16.7642 17.4133 16.7642C17.6881 16.7642 17.9518 16.873 18.1466 17.0668L22 20.9601V23.3334ZM25.2133 4.66676L26.9466 2.94676C27.195 2.69694 27.3344 2.35901 27.3344 2.00676C27.3344 1.65451 27.195 1.31658 26.9466 1.06676C26.8227 0.94179 26.6752 0.842597 26.5127 0.774906C26.3503 0.707214 26.176 0.672363 26 0.672363C25.8239 0.672363 25.6497 0.707214 25.4872 0.774906C25.3247 0.842597 25.1772 0.94179 25.0533 1.06676L23.3333 2.78676L21.6133 1.06676C21.4893 0.94179 21.3419 0.842597 21.1794 0.774906C21.0169 0.707214 20.8426 0.672363 20.6666 0.672363C20.4906 0.672363 20.3163 0.707214 20.1539 0.774906C19.9914 0.842597 19.8439 0.94179 19.72 1.06676C19.4716 1.31658 19.3322 1.65451 19.3322 2.00676C19.3322 2.35901 19.4716 2.69694 19.72 2.94676L21.4533 4.66676L19.72 6.40009C19.4716 6.64991 19.3322 6.98785 19.3322 7.34009C19.3322 7.69234 19.4716 8.03028 19.72 8.28009C19.8439 8.40507 19.9914 8.50426 20.1539 8.57195C20.3163 8.63964 20.4906 8.67449 20.6666 8.67449C20.8426 8.67449 21.0169 8.63964 21.1794 8.57195C21.3419 8.50426 21.4893 8.40507 21.6133 8.28009L23.3333 6.56009L25.0533 8.28009C25.1772 8.40507 25.3247 8.50426 25.4872 8.57195C25.6497 8.63964 25.8239 8.67449 26 8.67449C26.176 8.67449 26.3503 8.63964 26.5127 8.57195C26.6752 8.50426 26.8227 8.40507 26.9466 8.28009C27.195 8.03028 27.3344 7.69234 27.3344 7.34009C27.3344 6.98785 27.195 6.64991 26.9466 6.40009L25.2133 4.66676Z" fill="#B7B7B7"/>
</svg>
