<svg fill="none" height="24" viewBox="0 0 24 24" width="24" xmlns="http://www.w3.org/2000/svg"><path d="m18 15v-10c0-.79565-.3161-1.55871-.8787-2.12132s-1.3257-.87868-2.1213-.87868h-10c-.79565 0-1.55871.31607-2.12132.87868s-.87868 1.32567-.87868 2.12132v10c0 .7956.31607 1.5587.87868 2.1213s1.32567.8787 2.12132.8787h10c.7956 0 1.5587-.3161 2.1213-.8787s.8787-1.3257.8787-2.1213zm-14-10c0-.26522.10536-.51957.29289-.70711.18754-.18753.44189-.29289.70711-.29289h10c.2652 0 .5196.10536.7071.29289.1875.18754.2929.44189.2929.70711v4.36l-1.08-1.09c-.48-.48012-1.1311-.7499-1.81-.75-.6785.00228-1.3288.27173-1.81.75l-.91.91-.81-.81c-.54806-.53926-1.28612-.84149-2.055-.84149s-1.50694.30223-2.055.84149l-1.47 1.48zm.12 10.45c-.07711-.1376-.11838-.2923-.12-.45v-2.33l2.88-2.88c.08456-.08496.18507-.15238.29576-.19838.11069-.04601.22937-.06969.34924-.06969s.23856.02368.34924.06969c.11069.046.2112.11342.29576.19838l.83.81zm8.6-5.76c.0493-.05423.1096-.09741.1768-.12671s.1399-.04405.2132-.04329c.0733-.00076.146.01399.2132.04329s.1275.07248.1768.12671l2.5 2.49v2.82c0 .2652-.1054.5196-.2929.7071s-.4419.2929-.7071.2929h-8.6zm8.28-3.69c-.2652 0-.5196.10536-.7071.29289-.1875.18754-.2929.44189-.2929.70711v10c0 .7956-.3161 1.5587-.8787 2.1213s-1.3257.8787-2.1213.8787h-10c-.26522 0-.51957.1054-.70711.2929-.18753.1875-.29289.4419-.29289.7071s.10536.5196.29289.7071c.18754.1875.44189.2929.70711.2929h10c1.3261 0 2.5979-.5268 3.5355-1.4645.9377-.9376 1.4645-2.2094 1.4645-3.5355v-10c0-.26522-.1054-.51957-.2929-.70711-.1875-.18753-.4419-.29289-.7071-.29289z" fill="#9e9e9e"/></svg>