<svg width="14" height="14" viewBox="0 0 14 14" fill="none" xmlns="http://www.w3.org/2000/svg">
<path d="M9.36576 5.00069C9.44876 5.03229 9.53694 5.04812 9.62576 5.04735H12.2924C12.4692 5.04735 12.6388 4.97711 12.7638 4.85209C12.8889 4.72707 12.9591 4.5575 12.9591 4.38069C12.9591 4.20387 12.8889 4.03431 12.7638 3.90928C12.6388 3.78426 12.4692 3.71402 12.2924 3.71402H11.2324L13.4258 1.52069C13.4955 1.46092 13.5522 1.38738 13.5922 1.30467C13.6323 1.22196 13.6547 1.13187 13.6583 1.04005C13.6618 0.948241 13.6464 0.856687 13.6128 0.771137C13.5793 0.685587 13.5285 0.607888 13.4635 0.542918C13.3986 0.477949 13.3209 0.42711 13.2353 0.393594C13.1498 0.360077 13.0582 0.344607 12.9664 0.348153C12.8746 0.351699 12.7845 0.374186 12.7018 0.414202C12.6191 0.454217 12.5455 0.510897 12.4858 0.580685L10.2924 2.76735V1.70735C10.2924 1.53054 10.2222 1.36097 10.0972 1.23595C9.97214 1.11092 9.80257 1.04069 9.62576 1.04069C9.44895 1.04069 9.27938 1.11092 9.15435 1.23595C9.02933 1.36097 8.95909 1.53054 8.95909 1.70735V4.37402C8.95832 4.46284 8.97415 4.55101 9.00576 4.63402C9.03852 4.71591 9.08721 4.79049 9.14901 4.85343C9.21081 4.91637 9.28448 4.96642 9.36576 5.00069ZM11.9591 7.66735C11.8124 7.66735 11.6591 7.62069 11.5124 7.58735C11.2154 7.5219 10.9235 7.43501 10.6391 7.32735C10.3298 7.21484 9.98986 7.22068 9.68463 7.34376C9.3794 7.46683 9.13048 7.69844 8.98576 7.99402L8.83909 8.29402C8.18976 7.9328 7.59308 7.48417 7.06576 6.96069C6.54227 6.43336 6.09364 5.83668 5.73242 5.18735L6.01242 5.00069C6.308 4.85596 6.53961 4.60704 6.66269 4.30181C6.78576 3.99659 6.7916 3.65663 6.67909 3.34735C6.57324 3.0623 6.48638 2.77055 6.41909 2.47402C6.38576 2.32735 6.35909 2.17402 6.33909 2.02069C6.25813 1.5511 6.01217 1.12585 5.6455 0.821512C5.27884 0.517176 4.81555 0.353758 4.33909 0.360685H2.33909C2.05178 0.357988 1.76726 0.417228 1.5049 0.534372C1.24254 0.651517 1.0085 0.823816 0.818711 1.03954C0.628924 1.25526 0.487847 1.50935 0.405083 1.78449C0.322318 2.05964 0.29981 2.34939 0.339091 2.63402C0.694249 5.42694 1.96978 8.02194 3.96419 10.0091C5.95861 11.9963 8.55823 13.2624 11.3524 13.6074H11.6058C12.0974 13.6081 12.572 13.4277 12.9391 13.1007C13.15 12.912 13.3185 12.6808 13.4334 12.4222C13.5483 12.1637 13.6071 11.8836 13.6058 11.6007V9.60069C13.5976 9.13761 13.429 8.69172 13.1286 8.33913C12.8283 7.98654 12.415 7.7491 11.9591 7.66735ZM12.2924 11.6674C12.2923 11.762 12.272 11.8556 12.2329 11.9418C12.1939 12.028 12.1369 12.1049 12.0658 12.1674C11.9913 12.2317 11.9042 12.2797 11.81 12.3084C11.7159 12.3371 11.6168 12.3458 11.5191 12.334C9.02236 12.0139 6.70325 10.8717 4.92757 9.08755C3.15189 7.30342 2.0207 4.97891 1.71242 2.48069C1.70181 2.38303 1.71111 2.28424 1.73976 2.19028C1.7684 2.09632 1.8158 2.00914 1.87909 1.93402C1.94156 1.86291 2.01846 1.80591 2.10468 1.76683C2.19089 1.72775 2.28443 1.70747 2.37909 1.70735H4.37909C4.53412 1.7039 4.68551 1.75461 4.80719 1.85073C4.92887 1.94686 5.01323 2.0824 5.04576 2.23402C5.07242 2.41624 5.10576 2.59624 5.14576 2.77402C5.22277 3.12545 5.32526 3.47081 5.45242 3.80735L4.51909 4.24069C4.43929 4.2773 4.36751 4.32932 4.30786 4.39375C4.24822 4.45818 4.20189 4.53376 4.17154 4.61615C4.14118 4.69854 4.1274 4.78611 4.13099 4.87383C4.13457 4.96156 4.15545 5.04772 4.19242 5.12735C5.15189 7.18252 6.80392 8.83455 8.85909 9.79402C9.0214 9.8607 9.20345 9.8607 9.36576 9.79402C9.4489 9.76428 9.5253 9.71832 9.59054 9.65881C9.65577 9.5993 9.70853 9.52742 9.74576 9.44735L10.1591 8.51402C10.5037 8.63727 10.8555 8.73968 11.2124 8.82069C11.3902 8.86069 11.5702 8.89402 11.7524 8.92069C11.904 8.95321 12.0396 9.03758 12.1357 9.15926C12.2318 9.28094 12.2825 9.43232 12.2791 9.58735L12.2924 11.6674Z" fill="#4CAF50"/>
</svg>
