<svg fill="none" height="24" viewBox="0 0 24 24" width="24" xmlns="http://www.w3.org/2000/svg"><path d="m9.00001 12h-2c-.26522 0-.51957.1054-.70711.2929-.18753.1875-.29289.4419-.29289.7071s.10536.5196.29289.7071c.18754.1876.44189.2929.70711.2929h2c.26521 0 .51957-.1053.7071-.2929.18754-.1875.29289-.4419.29289-.7071s-.10535-.5196-.29289-.7071c-.18753-.1875-.44189-.2929-.7071-.2929zm-1-2h3.99999c.2652 0 .5196-.10535.7071-.29289.1876-.18753.2929-.44189.2929-.7071 0-.26522-.1053-.51957-.2929-.70711-.1875-.18754-.4419-.29289-.7071-.29289h-3.99999c-.26522 0-.51957.10535-.70711.29289-.18753.18754-.29289.44189-.29289.70711 0 .26521.10536.51957.29289.7071.18754.18754.44189.29289.70711.29289zm1 6h-2c-.26522 0-.51957.1054-.70711.2929-.18753.1875-.29289.4419-.29289.7071s.10536.5196.29289.7071c.18754.1876.44189.2929.70711.2929h2c.26521 0 .51957-.1053.7071-.2929.18754-.1875.29289-.4419.29289-.7071s-.10535-.5196-.29289-.7071c-.18753-.1875-.44189-.2929-.7071-.2929zm11.99999-4h-3v-8.99999c.0007-.17621-.0452-.34948-.133-.50226-.0878-.15277-.2144-.27964-.367-.36774-.152-.08777-.3245-.13398-.5-.13398s-.348.04621-.5.13398l-3 1.72-3-1.72c-.152-.08777-.3245-.13398-.5-.13398-.17553 0-.34797.04621-.49999.13398l-3 1.72-3-1.72c-.15202-.08777-.32447-.13398-.5-.13398-.17554 0-.34798.04621-.5.13398-.15261.0881-.27922.21497-.36702.36774-.08781.15278-.13368.32605-.13298.50226v15.99999c0 .7957.31607 1.5587.87868 2.1213s1.32567.8787 2.12132.8787h13.99999c.7957 0 1.5587-.3161 2.1213-.8787s.8787-1.3256.8787-2.1213v-6c0-.2652-.1053-.5196-.2929-.7071-.1875-.1875-.4419-.2929-.7071-.2929zm-15.99999 8c-.26522 0-.51957-.1053-.70711-.2929-.18754-.1875-.29289-.4419-.29289-.7071v-14.26999l2 1.14c.15434.08061.32588.12271.5.12271s.34566-.0421.5-.12271l2.99999-1.72 3 1.72c.1543.08061.3259.12271.5.12271s.3457-.0421.5-.12271l2-1.14v14.26999c.0027.3412.0636.6793.18 1zm14.99999-1c0 .2652-.1053.5196-.2929.7071-.1875.1876-.4419.2929-.7071.2929s-.5196-.1053-.7071-.2929c-.1875-.1875-.2929-.4419-.2929-.7071v-5h2zm-6.44-2.83c-.0557-.0378-.1163-.0681-.18-.09-.0595-.0304-.1238-.0507-.19-.06-.1606-.0322-.3267-.0244-.4837.0227-.1569.0471-.2999.132-.4163.2473-.1827.1916-.2863.4452-.29.71-.0016.13.0222.2591.07.38.0544.1215.1287.2331.22.33.0972.0883.2088.1594.33.21.1197.0529.2491.0802.38.0802s.2603-.0273.38-.0802c.1212-.0506.2328-.1217.33-.21.0927-.0934.166-.2042.2158-.3261.0497-.1218.075-.2523.0742-.3839-.0037-.2648-.1073-.5184-.29-.71-.0475-.043-.0976-.0831-.15-.12zm.14-3.88c-.1168-.1137-.2596-.1972-.4159-.2431-.1564-.0459-.3217-.0529-.4814-.0204-.1597.0326-.309.1037-.435.2071-.1259.1034-.2247.2361-.2877.3864-.0622.1515-.0863.316-.0701.479.0162.1629.0722.3194.163.4557.0909.1363.2138.2482.358.3258.1442.0777.3053.1187.4691.1195.2652 0 .5196-.1053.7071-.2929.1876-.1875.2929-.4419.2929-.7071-.0016-.1307-.0288-.2598-.08-.38-.0482-.1248-.1233-.2375-.22-.33z" fill="#9e9e9e"/></svg>