<svg fill="none" height="24" viewBox="0 0 24 24" width="24" xmlns="http://www.w3.org/2000/svg"><path d="m21 14c-.2652 0-.5196.1054-.7071.2929s-.2929.4419-.2929.7071v4c0 .2652-.1054.5196-.2929.7071s-.4419.2929-.7071.2929h-14c-.26522 0-.51957-.1054-.70711-.2929-.18753-.1875-.29289-.4419-.29289-.7071v-4c0-.2652-.10536-.5196-.29289-.7071-.18754-.1875-.44189-.2929-.70711-.2929s-.51957.1054-.70711.2929c-.18753.1875-.29289.4419-.29289.7071v4c0 .7956.31607 1.5587.87868 2.1213s1.32567.8787 2.12132.8787h14c.7956 0 1.5587-.3161 2.1213-.8787s.8787-1.3257.8787-2.1213v-4c0-.2652-.1054-.5196-.2929-.7071s-.4419-.2929-.7071-.2929zm-9.71 1.71c.0951.091.2072.1624.33.21.1197.0529.2491.0802.38.0802s.2603-.0273.38-.0802c.1228-.0476.2349-.119.33-.21l4-4c.1883-.1883.2941-.4437.2941-.71s-.1058-.5217-.2941-.71-.4437-.29409-.71-.29409-.5217.10579-.71.29409l-2.29 2.3v-9.59c0-.26522-.1054-.51957-.2929-.70711-.1875-.18753-.4419-.29289-.7071-.29289s-.5196.10536-.7071.29289c-.1875.18754-.2929.44189-.2929.70711v9.59l-2.29-2.3c-.09324-.0932-.20393-.1672-.32575-.2177-.12182-.0504-.25239-.07639-.38425-.07639s-.26243.02599-.38425.07639c-.12182.0505-.23251.1245-.32575.2177s-.1672.2039-.21766.3258c-.05046.1218-.07643.2523-.07643.3842s.02597.2624.07643.3842c.05046.1219.12442.2326.21766.3258z" fill="#9e9e9e"/></svg>