<svg fill="none" height="24" viewBox="0 0 24 24" width="24" xmlns="http://www.w3.org/2000/svg"><path d="m19 10c-.2652 0-.5196.1054-.7071.2929s-.2929.4419-.2929.7071v3.38l-1.48-1.48c-.5226-.5185-1.2289-.8094-1.965-.8094s-1.4424.2909-1.965.8094l-.7.71-2.48-2.49c-.52258-.5185-1.22887-.8094-1.965-.8094s-1.44242.2909-1.965.8094l-1.48 1.49v-5.61c0-.26522.10536-.51957.29289-.70711.18754-.18753.44189-.29289.70711-.29289h8c.2652 0 .5196-.10536.7071-.29289.1875-.18754.2929-.44189.2929-.70711s-.1054-.51957-.2929-.70711c-.1875-.18753-.4419-.29289-.7071-.29289h-8c-.79565 0-1.55871.31607-2.12132.87868s-.87868 1.32567-.87868 2.12132v12.22c.00264.7365.29637 1.4421.81715 1.9628.52079.5208 1.22636.8146 1.96285.8172h12.44c.271-.0022.5403-.0426.8-.12.5774-.162 1.0858-.5089 1.4471-.9876.3612-.4787.5555-1.0627.5529-1.6624v-8.23c0-.133-.0265-.2647-.078-.3874-.0515-.1226-.1269-.2337-.2219-.3269-.095-.0931-.2076-.1663-.3313-.2154-.1236-.0491-.2558-.07296-.3888-.0703zm-14 10c-.26522 0-.51957-.1054-.70711-.2929-.18753-.1875-.29289-.4419-.29289-.7071v-3.57l2.89-2.89c.14615-.1453.34389-.2269.55-.2269s.40385.0816.55.2269l7.47 7.46zm13-1c-.0064.1936-.069.3812-.18.54l-4.52-4.54.71-.7c.0717-.0732.1573-.1313.2517-.171s.1959-.0601.2983-.0601.2039.0204.2983.0601.18.0978.2517.171l2.89 2.91zm3-15h-1v-1c0-.26522-.1054-.51957-.2929-.70711-.1875-.18753-.4419-.29289-.7071-.29289s-.5196.10536-.7071.29289c-.1875.18754-.2929.44189-.2929.70711v1h-1c-.2652 0-.5196.10536-.7071.29289-.1875.18754-.2929.44189-.2929.70711s.1054.51957.2929.70711c.1875.18753.4419.29289.7071.29289h1v1c0 .26522.1054.51957.2929.70711.1875.18753.4419.29289.7071.29289s.5196-.10536.7071-.29289c.1875-.18754.2929-.44189.2929-.70711v-1h1c.2652 0 .5196-.10536.7071-.29289.1875-.18754.2929-.44189.2929-.70711s-.1054-.51957-.2929-.70711c-.1875-.18753-.4419-.29289-.7071-.29289z" fill="#9e9e9e"/></svg>