<svg fill="none" height="24" viewBox="0 0 24 24" width="24" xmlns="http://www.w3.org/2000/svg"><path d="m19 13c-.2652 0-.5196.1054-.7071.2929-.1875.1876-.2929.4419-.2929.7071v.39l-1.48-1.48c-.5226-.5184-1.2289-.8094-1.965-.8094s-1.4424.291-1.965.8094l-.7.7-2.48-2.49c-.53217-.4999-1.23486-.7782-1.965-.7782s-1.43283.2783-1.965.7782l-1.48 1.49v-5.60997c0-.26522.10536-.51958.29289-.70711.18754-.18754.44189-.29289.70711-.29289h4c.26522 0 .51957-.10536.70711-.2929.18753-.18753.29289-.44189.29289-.7071 0-.26522-.10536-.51958-.29289-.70711-.18754-.18754-.44189-.29289-.70711-.29289h-4c-.79565 0-1.55871.31607-2.12132.87867-.56261.56261-.87868 1.32568-.87868 2.12133v11.99997c0 .7957.31607 1.5587.87868 2.1213.56261.5627 1.32567.8787 2.12132.8787h12c.7956 0 1.5587-.316 2.1213-.8787.5626-.5626.8787-1.3256.8787-2.1213v-5c0-.2652-.1054-.5195-.2929-.7071-.1875-.1875-.4419-.2929-.7071-.2929zm-14 7c-.26522 0-.51957-.1053-.70711-.2929-.18753-.1875-.29289-.4419-.29289-.7071v-3.57l2.9-2.89c.14691-.14.34206-.2181.545-.2181s.39809.0781.545.2181l3.17 3.17 4.29 4.29zm13-1c-.0064.1937-.069.3813-.18.54l-4.51-4.54.7-.69c.0717-.0731.1573-.1313.2517-.171.0944-.0396.1959-.0601.2983-.0601s.2039.0205.2983.0601c.0944.0397.18.0979.2517.171l2.89 2.91zm3.71-8.71-1.71-1.71998c.4239-.68959.645-1.48461.6381-2.29404-.007-.80942-.2417-1.60053-.6774-2.28274s-1.0547-1.22794-1.7861-1.57472c-.7314-.34677-1.5457-.48056-2.3496-.38605s-1.565.4135-2.196.92044c-.6311.50694-1.1066 1.18135-1.3722 1.94599-.2656.76465-.3104 1.58864-.1295 2.37761.181.78897.5804 1.51103 1.1527 2.08351.7945.79948 1.8729 1.25238 3 1.25998.8061.0101 1.5991-.2046 2.29-.62l1.72 1.73c.093.0938.2036.1681.3254.2189.1219.0508.2526.0769.3846.0769s.2627-.0261.3846-.0769c.1218-.0508.2324-.1251.3254-.2189.0968-.0933.1738-.2051.2263-.3288.0526-.1237.0797-.2568.0797-.3912s-.0271-.2674-.0797-.3911c-.0525-.1238-.1295-.2356-.2263-.3289zm-3.71-2.28997c-.3238.326-.7372.5485-1.1877.63928-.4504.09077-.9177.04573-1.3425-.1294-.4248-.17514-.7881-.47249-1.0437-.85435s-.3921-.83102-.3921-1.29053c0-.45952.1365-.90868.3921-1.29054s.6189-.67921 1.0437-.85435c.4248-.17513.8921-.22017 1.3425-.1294.4505.09078.8639.31328 1.1877.63929.4317.43463.674 1.02238.674 1.635 0 .61261-.2423 1.20036-.674 1.635z" fill="#9e9e9e"/></svg>