<svg fill="none" height="24" viewBox="0 0 24 24" width="24" xmlns="http://www.w3.org/2000/svg" xmlns:xlink="http://www.w3.org/1999/xlink"><mask id="a" fill="#fff"><rect fill="#fff" height="7" rx="1" width="6" x="5" y="8"/></mask><path d="m22 4h-20c-.26522 0-.51957.10536-.70711.29289-.18753.18754-.29289.44189-.29289.70711v14c0 .2652.10536.5196.29289.7071.18754.1875.44189.2929.70711.2929h20c.2652 0 .5196-.1054.7071-.2929s.2929-.4419.2929-.7071v-14c0-.26522-.1054-.51957-.2929-.70711-.1875-.18753-.4419-.29289-.7071-.29289zm-1 14h-18v-12h18zm-7-2h4c.2652 0 .5196-.1054.7071-.2929s.2929-.4419.2929-.7071-.1054-.5196-.2929-.7071-.4419-.2929-.7071-.2929h-4c-.2652 0-.5196.1054-.7071.2929s-.2929.4419-.2929.7071.1054.5196.2929.7071.4419.2929.7071.2929z" fill="#9e9e9e"/><g stroke="#9e9e9e"><path d="m2 11h4" stroke-width="2"/><path d="m10 11h12" stroke-width="2"/><rect height="7" mask="url(#a)" rx="1" stroke-width="4" width="6" x="5" y="8"/></g></svg>