<svg fill="none" height="24" viewBox="0 0 24 24" width="24" xmlns="http://www.w3.org/2000/svg"><path d="m12 13c-.2652 0-.5196.1054-.7071.2929s-.2929.4419-.2929.7071v3c0 .2652.1054.5196.2929.7071s.4419.2929.7071.2929.5196-.1054.7071-.2929.2929-.4419.2929-.7071v-3c0-.2652-.1054-.5196-.2929-.7071s-.4419-.2929-.7071-.2929zm5-4v-2c0-1.32608-.5268-2.59785-1.4645-3.53553-.9376-.93769-2.2094-1.46447-3.5355-1.46447s-2.59785.52678-3.53553 1.46447c-.93769.93768-1.46447 2.20945-1.46447 3.53553v2c-.79565 0-1.55871.31607-2.12132.87868-.56261.56262-.87868 1.32572-.87868 2.12132v7c0 .7956.31607 1.5587.87868 2.1213s1.32567.8787 2.12132.8787h10c.7956 0 1.5587-.3161 2.1213-.8787s.8787-1.3257.8787-2.1213v-7c0-.7956-.3161-1.5587-.8787-2.12132-.5626-.56261-1.3257-.87868-2.1213-.87868zm-8-2c0-.79565.31607-1.55871.87868-2.12132.56262-.56261 1.32572-.87868 2.12132-.87868s1.5587.31607 2.1213.87868.8787 1.32567.8787 2.12132v2h-6zm9 12c0 .2652-.1054.5196-.2929.7071s-.4419.2929-.7071.2929h-10c-.26522 0-.51957-.1054-.70711-.2929-.18753-.1875-.29289-.4419-.29289-.7071v-7c0-.2652.10536-.5196.29289-.7071.18754-.1875.44189-.2929.70711-.2929h10c.2652 0 .5196.1054.7071.2929s.2929.4419.2929.7071z" fill="#9e9e9e"/></svg>