<svg fill="none" height="24" viewBox="0 0 24 24" width="24" xmlns="http://www.w3.org/2000/svg"><path d="m12 2c.2449.00003.4813.08996.6644.25272.183.16275.2999.38703.3286.63028l.007.117v1.314c1.6959.22123 3.2711.99693 4.4803 2.20636s1.9847 2.78472 2.2057 4.48064l1.314-.001c.2549.0003.5.0979.6854.2728.1853.175.2968.4142.3118.6686.0149.2544-.0679.505-.2315.7004-.1636.1955-.3956.3211-.6487.3512l-.117.007h-1.314c-.2212 1.6957-.9967 3.2708-2.206 4.48-1.2092 1.2093-2.7843 1.9848-4.48 2.206v1.314c-.0003.2549-.0979.5-.2729.6854-.1749.1853-.4141.2968-.6685.3118-.2544.0149-.505-.0679-.7004-.2315-.1955-.1636-.3211-.3956-.3512-.6487l-.007-.117v-1.314c-1.69557-.2214-3.2704-.997-4.47943-2.2062-1.20904-1.2093-1.98445-2.7842-2.20558-4.4798h-1.315c-.25488-.0003-.50003-.0979-.68537-.2728-.18533-.175-.29686-.4142-.3118-.6686s.06785-.505.23144-.7004c.16359-.1955.39563-.3211.64873-.3512l.117-.007h1.314c.22138-1.69556.99703-3.2704 2.20625-4.47943 1.20921-1.20903 2.78415-1.98444 4.47976-2.20557v-1.315c0-.26522.1053-.51957.2929-.70711.1875-.18753.4419-.29289.7071-.29289zm0 4.25c-1.525 0-2.98754.6058-4.06587 1.68414-1.07834 1.07833-1.68414 2.54086-1.68414 4.06586s.6058 2.9875 1.68414 4.0659c1.07833 1.0783 2.54087 1.6841 4.06587 1.6841s2.9875-.6058 4.0659-1.6841c1.0783-1.0784 1.6841-2.5409 1.6841-4.0659s-.6058-2.98753-1.6841-4.06586c-1.0784-1.07834-2.5409-1.68414-4.0659-1.68414zm0 1.75c1.0609 0 2.0783.42143 2.8284 1.17157.7502.75015 1.1716 1.76753 1.1716 2.82843s-.4214 2.0783-1.1716 2.8284c-.7501.7502-1.7675 1.1716-2.8284 1.1716s-2.07829-.4214-2.82844-1.1716c-.75014-.7501-1.17157-1.7675-1.17157-2.8284s.42143-2.07828 1.17157-2.82843c.75015-.75014 1.76754-1.17157 2.82844-1.17157z" fill="#9e9e9e"/></svg>