<svg fill="none" height="24" viewBox="0 0 24 24" width="24" xmlns="http://www.w3.org/2000/svg"><path d="m2.5 8.86 9 5.2c.152.0878.3245.134.5.134s.348-.0462.5-.134l9-5.2c.1511-.08725.2768-.21254.3645-.36341s.1344-.32207.1355-.49659c.0007-.17621-.0452-.34947-.133-.50225s-.2144-.27964-.367-.36775l-9-5.19c-.152-.08776-.3245-.13397-.5-.13397s-.348.04621-.5.13397l-9 5.19c-.1526.08811-.27922.21497-.36702.36775-.08781.15278-.13368.32604-.13298.50225.00105.17452.04776.34572.13547.49659.08772.15087.21339.27616.36453.36341zm9.5-4.86 7 4-7 4-7-4zm8.5 7.17-8.5 4.83-8.5-4.87c-.11413-.0661-.24022-.109-.371-.1262s-.26366-.0083-.391.0261-.24662.0936-.35097.1743-.1917.1812-.25703.2958c-.13037.2296-.16464.5015-.09532.7563s.23659.4718.46532.6037l9 5.2c.152.0878.3245.134.5.134s.348-.0462.5-.134l9-5.2c.2287-.1319.396-.3489.4653-.6037s.0351-.5267-.0953-.7563c-.0653-.1146-.1527-.2151-.257-.2958-.1044-.0807-.2237-.1399-.351-.1743s-.2602-.0433-.391-.0261-.2569.0601-.371.1262zm0 4-8.5 4.83-8.5-4.87c-.11413-.0661-.24022-.109-.371-.1262s-.26366-.0083-.391.0261-.24662.0936-.35097.1743-.1917.1812-.25703.2958c-.13037.2296-.16464.5015-.09532.7563s.23659.4718.46532.6037l9 5.2c.152.0878.3245.134.5.134s.348-.0462.5-.134l9-5.2c.2287-.1319.396-.3489.4653-.6037s.0351-.5267-.0953-.7563c-.0653-.1146-.1527-.2151-.257-.2958-.1044-.0807-.2237-.1399-.351-.1743s-.2602-.0433-.391-.0261-.2569.0601-.371.1262z" fill="#9e9e9e"/></svg>