<svg fill="none" height="24" viewBox="0 0 24 24" width="24" xmlns="http://www.w3.org/2000/svg"><path d="m21.3 10.08c-.281-.33734-.6326-.6089-1.03-.79552-.3974-.18661-.831-.28372-1.27-.28447h-4.56l.56-1.43c.2329-.62611.3105-1.29939.2261-1.96208-.0845-.66268-.3284-1.29499-.7109-1.84269-.3825-.54769-.8922-.99443-1.4853-1.30188-.593-.30746-1.2519-.46645-1.9199-.46335-.1924.00041-.3805.05628-.5419.16093-.1614.10464-.2892.25362-.3681.42907l-2.85 6.41h-2.35c-.79565 0-1.55871.31607-2.12132.87868s-.87868 1.32571-.87868 2.12131v7c0 .7957.31607 1.5587.87868 2.1213s1.32567.8787 2.12132.8787h12.73c.7018-.0002 1.3813-.2465 1.9203-.696.539-.4494.9034-1.0736 1.0297-1.764l1.27-7c.0786-.4326.061-.8772-.0513-1.3023s-.3167-.8203-.5987-1.1577zm-14.3 9.92h-2c-.26522 0-.51957-.1053-.70711-.2929-.18753-.1875-.29289-.4419-.29289-.7071v-7c0-.2652.10536-.5196.29289-.7071.18754-.1875.44189-.2929.70711-.2929h2zm13-7.82-1.27 7c-.0426.233-.1665.4433-.3496.5934-.1831.1502-.4136.2305-.6504.2266h-8.73v-9.79l2.72-6.11999c.28.08163.54.22041.7637.40759.2236.18717.406.41868.5357.67991.1297.26122.2038.54649.2177.8378.0138.29131-.0328.58234-.1371.8547l-.53 1.43c-.1129.30226-.1511.62735-.1111.94754.0399.32018.1567.62595.3404.89125.1837.2652.4289.4821.7146.6321.2857.1499.6034.2285.9261.2291h4.56c.1469-.0002.2921.0319.4252.0941.133.0623.2508.153.3448.2659.0963.1113.1669.2426.2067.3843.0397.1418.0477.2905.0233.4357z" fill="#9e9e9e"/></svg>