<svg fill="none" height="24" viewBox="0 0 24 24" width="24" xmlns="http://www.w3.org/2000/svg"><path d="m12 10.8c.3956 0 .7822-.1173 1.1111-.337.3289-.2198.5853-.53215.7367-.89761.1513-.36545.1909-.76758.1138-1.15554-.0772-.38797-.2677-.74433-.5474-1.02404-.2797-.2797-.6361-.47018-1.024-.54735-.388-.07717-.7901-.03757-1.1556.11381-.3654.15137-.6778.40772-.8975.73662-.2198.3289-.3371.71557-.3371 1.11114 0 .53043.2107 1.03914.5858 1.41417.3751.3751.8838.5858 1.4142.5858zm-.71 6.91c.093.0938.2036.1681.3254.2189.1219.0508.2526.0769.3846.0769s.2627-.0261.3846-.0769c.1218-.0508.2324-.1251.3254-.2189l4.09-4.1c.95-.9494 1.597-2.1593 1.8593-3.4765.2623-1.31724.128-2.68267-.3858-3.92358-.5138-1.24092-1.3841-2.30158-2.5008-3.04783-1.1167-.74626-2.4296-1.14457-3.7727-1.14457s-2.656.39831-3.77269 1.14457c-1.11669.74625-1.98698 1.80691-2.50079 3.04783-.51382 1.24091-.64807 2.60634-.38579 3.92358.26228 1.3172.90932 2.5271 1.85927 3.4765zm-4.06-9.36997c.06833-.71299.29502-1.40171.66352-2.01589.36851-.61418.86953-1.13831 1.46648-1.53411.7842-.51491 1.7019-.78924 2.64-.78924s1.8558.27433 2.64.78924c.593.39445 1.0911.9154 1.4587 1.52538.3676.60999.5955 1.29385.6672 2.0024.0717.70856-.0145 1.42421-.2524 2.09549-.2379.6713-.6216 1.2815-1.1235 1.7867l-3.39 3.39-3.39-3.39c-.50248-.5003-.88707-1.1064-1.12579-1.7742-.23873-.6677-.32557-1.38025-.25421-2.08577zm11.77 11.65997h-14c-.26522 0-.51957.1054-.70711.2929-.18753.1876-.29289.4419-.29289.7071s.10536.5196.29289.7071c.18754.1876.44189.2929.70711.2929h14c.2652 0 .5196-.1053.7071-.2929.1875-.1875.2929-.4419.2929-.7071s-.1054-.5195-.2929-.7071c-.1875-.1875-.4419-.2929-.7071-.2929z" fill="#9e9e9e"/></svg>