<svg fill="none" height="24" viewBox="0 0 24 24" width="24" xmlns="http://www.w3.org/2000/svg"><path d="m20.46 9.63002c-.1297-1.35817-.5843-2.66518-1.3256-3.81058s-1.7474-2.09553-2.9333-2.7701-2.5168-1.05377-3.8801-1.10554c-1.3634-.05176-2.71918.22541-3.95283.80811s-2.30891 1.4538-3.13492 2.53969c-.826 1.08588-1.37847 2.35465-1.61073 3.69908-.23226 1.34442-.13748 2.72502.27633 4.02512.41381 1.3 1.13449 2.4814 2.10114 3.4442l5.30001 5.31c.0929.0937.2035.1681.3254.2189s.2526.0769.3846.0769.2627-.0261.3846-.0769c.1218-.0508.2324-.1252.3254-.2189l5.28-5.31c.8912-.8845 1.5743-1.9564 1.9998-3.1377.4255-1.1814.5827-2.4426.4602-3.69228zm-3.86 5.41998-4.6 4.6-4.60001-4.6c-.67792-.6779-1.1972-1.4977-1.52054-2.4002-.32333-.9026-.44268-1.8656-.34946-2.81978.09381-.9689.40176-1.90484.90157-2.74016.4998-.83532 1.17898-1.54914 1.98843-2.08984 1.06094-.70477 2.30631-1.08071 3.58001-1.08071s2.519.37594 3.58 1.08071c.807.53861 1.4847 1.24928 1.9843 2.08093.4997.83166.809 1.76367.9057 2.72907.0962.95738-.0216 1.92428-.345 2.83058-.3235.9062-.8444 1.7292-1.525 2.4094zm-2.81-8.79998c-.093-.09373-.2036-.16813-.3254-.2189-.1219-.05076-.2526-.0769-.3846-.0769s-.2627.02614-.3846.0769c-.1219.05077-.2325.12517-.3254.2189l-3.58001 3.58c-.18475.18628-.2889.43768-.29.69998v2.47c0 .2652.10535.5196.29289.7071.18753.1876.44189.2929.70711.2929h2.42001c.1316.0008.2621-.0244.3839-.0742s.2326-.1231.3261-.2158l3.58-3.58c.1862-.18735.2908-.4408.2908-.70498 0-.26419-.1046-.51764-.2908-.705zm-2.28 5.74998h-1v-1l2.58-2.57998 1 1z" fill="#9e9e9e"/></svg>