<svg fill="none" height="24" viewBox="0 0 24 24" width="24" xmlns="http://www.w3.org/2000/svg"><g fill="#9e9e9e"><path d="m11.2958 12.95 4.24 4.24c.093.0937.2036.1681.3254.2189.1219.0508.2526.0769.3846.0769s.2627-.0261.3846-.0769c.1218-.0508.2324-.1252.3254-.2189.1862-.1873.2908-.4408.2908-.705s-.1046-.5176-.2908-.705l-3.54-3.54 3.54-3.53998c.1862-.18736.2908-.44082.2908-.705 0-.26419-.1046-.51764-.2908-.705-.0934-.09268-.2043-.16601-.3261-.21577-.1218-.04977-.2523-.07499-.3839-.07423-.1316-.00076-.2621.02446-.3839.07423-.1219.04976-.2327.12309-.3261.21577l-4.24 4.23998c-.0937.093-.1681.2036-.2189.3254-.0508.1219-.0769.2526-.0769.3846s.0261.2627.0769.3846.1252.2325.2189.3254z"/><rect height="10" rx="1" width="2" x="7" y="7.2458"/></g></svg>