<svg fill="none" height="24" viewBox="0 0 24 24" width="24" xmlns="http://www.w3.org/2000/svg"><path d="m20.46 9.63c-.1404-1.46108-.6568-2.86091-1.4988-4.06318-.8421-1.20226-1.9811-2.16599-3.3062-2.79732-1.3251-.63134-2.7911-.90878-4.2553-.80529-1.46415.10348-2.87656.58435-4.0997 1.39579-1.0508.70265-1.93294 1.6293-2.58305 2.71339-.65011 1.0841-1.05205 2.29872-1.17695 3.55661-.12251 1.2497.03468 2.5109.46017 3.6923.4255 1.1813 1.10863 2.2532 1.99983 3.1377l5.3 5.31c.093.0937.2036.1681.3254.2189.1219.0508.2526.0769.3846.0769s.2627-.0261.3846-.0769c.1218-.0508.2324-.1252.3254-.2189l5.28-5.31c.8912-.8845 1.5743-1.9564 1.9998-3.1377.4255-1.1814.5827-2.4426.4602-3.6923zm-3.86 5.42-4.6 4.6-4.6-4.6c-.67791-.6779-1.19719-1.4977-1.52053-2.4002-.32333-.9026-.44268-1.8656-.34947-2.8198.09382-.96889.40177-1.90484.90157-2.74015.49981-.83532 1.17899-1.54914 1.98843-2.08985 1.06095-.70476 2.3063-1.0807 3.58-1.0807s2.5191.37594 3.58 1.0807c.807.53862 1.4847 1.24928 1.9844 2.08094.4996.83166.8089 1.76367.9056 2.72906.0963.9574-.0216 1.9243-.345 2.8306-.3234.9062-.8443 1.7292-1.525 2.4094zm-4.6-9.05c-.89 0-1.76.26392-2.50006.75839-.74002.49447-1.3168 1.19727-1.65739 2.01954-.3406.82227-.42971 1.72707-.25608 2.59997s.60222 1.6747 1.23155 2.3041c.62934.6293 1.43118 1.0579 2.30408 1.2315.8729.1737 1.7777.0846 2.6-.256.8222-.3406 1.525-.9174 2.0195-1.6574.4945-.7401.7584-1.6101.7584-2.5001-.0026-1.19266-.4776-2.33572-1.3209-3.17906-.8434-.84334-1.9864-1.31829-3.1791-1.32094zm0 7c-.4945 0-.9778-.1466-1.3889-.4213s-.73158-.6652-.9208-1.122c-.18921-.4568-.23872-.9595-.14226-1.4444.09646-.48497.33457-.93043.68416-1.28006.3497-.34963.7951-.58774 1.2801-.6842.4849-.09646.9876-.04695 1.4444.14226.4568.18922.8473.50966 1.122.92078s.4213.89452.4213 1.38892c0 .663-.2634 1.2989-.7322 1.7678-.4689.4688-1.1048.7322-1.7678.7322z" fill="#9e9e9e"/></svg>