<svg fill="none" height="24" viewBox="0 0 24 24" width="24" xmlns="http://www.w3.org/2000/svg"><g fill="#9e9e9e"><path d="m12.9508 12.95-4.24001 4.24c-.09296.0937-.20356.1681-.32542.2189s-.25257.0769-.38458.0769-.26272-.0261-.38457-.0769c-.12186-.0508-.23246-.1252-.32543-.2189-.18625-.1873-.29079-.4408-.29079-.705s.10454-.5176.29079-.705l3.54001-3.54-3.54001-3.53998c-.18625-.18736-.29079-.44082-.29079-.705 0-.26419.10454-.51764.29079-.705.09344-.09268.20426-.16601.3261-.21577.12183-.04977.25229-.07499.3839-.07423.13161-.00076.26207.02446.38391.07423.12184.04976.23265.12309.32609.21577l4.24001 4.23998c.0937.093.1681.2036.2189.3254.0508.1219.0769.2526.0769.3846s-.0261.2627-.0769.3846-.1252.2325-.2189.3254z"/><rect height="10" rx="1" transform="matrix(-1 0 0 1 17.2466 7.2458)" width="2"/></g></svg>