<svg fill="none" height="24" viewBox="0 0 24 24" width="24" xmlns="http://www.w3.org/2000/svg"><path d="m12 10c-.2652 0-.5196.1054-.7071.2929-.1875.1876-.2929.4419-.2929.7071v2c0 .2652.1054.5196.2929.7071.1875.1876.4419.2929.7071.2929s.5196-.1053.7071-.2929c.1875-.1875.2929-.4419.2929-.7071v-2c0-.2652-.1054-.5195-.2929-.7071-.1875-.1875-.4419-.2929-.7071-.2929zm8.46-.31998c-.1326-1.46539-.6433-2.87127-1.4822-4.08009-.8388-1.20882-1.9771-2.17919-3.3035-2.81616-1.3263-.63698-2.7953-.91874-4.2632-.81773-1.46794.10101-2.88449.58133-4.1111 1.39398-1.0508.70265-1.93294 1.6293-2.58305 2.71339s-1.05205 2.29872-1.17695 3.55661c-.12251 1.24968.03468 2.51088.46017 3.69228.4255 1.1814 1.10863 2.2532 1.99983 3.1377l5.3 5.31c.093.0938.2036.1681.3254.2189.1219.0508.2526.0769.3846.0769s.2627-.0261.3846-.0769c.1218-.0508.2324-.1251.3254-.2189l5.28-5.31c.8912-.8845 1.5743-1.9563 1.9998-3.1377s.5827-2.4426.4602-3.69228zm-3.86 5.36998-4.6 4.6-4.6-4.6c-.67791-.6779-1.19719-1.4976-1.52053-2.4002-.32333-.9026-.44268-1.8656-.34947-2.81978.09382-.9689.40177-1.90484.90157-2.74016.49981-.83531 1.17899-1.54913 1.98843-2.08984 1.06095-.70476 2.3063-1.0807 3.58-1.0807s2.5191.37594 3.58 1.0807c.807.53862 1.4847 1.24928 1.9844 2.08094.4996.83166.8089 1.76366.9056 2.72906.0963.95738-.0216 1.92428-.345 2.83058-.3234.9062-.8443 1.7293-1.525 2.4094zm-3.68-7.47998c-.02-.06143-.0504-.11895-.09-.17l-.12-.15c-.1194-.11336-.2649-.19549-.4237-.2391-.1587-.04361-.3258-.04735-.4863-.0109h-.18l-.18.09-.15.13-.12.15c-.0396.05105-.07.10857-.09.17-.0304.05955-.0507.12377-.06.19-.0166.08899-.0233.17954-.02.27-.0035.13441.0239.26782.08.39.0509.11802.122.2263.21.32.0952.09344.2071.16808.33.22.2448.093.5152.093.76 0 .1215-.05436.2331-.12872.33-.22.088-.0937.1591-.20198.21-.32.0525-.12332.0797-.25595.08-.39.0049-.06324.0049-.12676 0-.19-.0093-.08478-.0366-.16659-.08-.24z" fill="#9e9e9e"/></svg>