<svg fill="none" height="24" viewBox="0 0 24 24" width="24" xmlns="http://www.w3.org/2000/svg"><path d="m9.175 12.7042 4.24 4.24c.093.0938.2036.1681.3254.2189.1219.0508.2526.0769.3846.0769s.2627-.0261.3846-.0769c.1218-.0508.2324-.1251.3254-.2189.1863-.1873.2908-.4408.2908-.705s-.1045-.5176-.2908-.705l-3.54-3.54 3.54-3.53998c.1863-.18736.2908-.44081.2908-.705 0-.26418-.1045-.51764-.2908-.705-.0934-.09268-.2043-.166-.3261-.21577-.1218-.04976-.2523-.07499-.3839-.07423-.1316-.00076-.2621.02447-.3839.07423-.1218.04977-.2327.12309-.3261.21577l-4.24 4.23998c-.09373.093-.16812.2036-.21889.3254-.05077.1219-.07691.2526-.07691.3846s.02614.2627.07691.3846.12516.2325.21889.3254z" fill="#9e9e9e"/></svg>