<svg fill="none" height="24" viewBox="0 0 24 24" width="24" xmlns="http://www.w3.org/2000/svg"><path d="m18 10.82c-.2652 0-.5196.1054-.7071.2929s-.2929.4419-.2929.7071v7.18c0 .2652-.1054.5196-.2929.7071s-.4419.2929-.7071.2929h-11c-.26522 0-.51957-.1054-.70711-.2929-.18753-.1875-.29289-.4419-.29289-.7071v-11c0-.26522.10536-.51957.29289-.70711.18754-.18753.44189-.29289.70711-.29289h7.18c.2652 0 .5196-.10536.7071-.29289.1875-.18754.2929-.44189.2929-.70711s-.1054-.51957-.2929-.70711c-.1875-.18753-.4419-.29289-.7071-.29289h-7.18c-.79565 0-1.55871.31607-2.12132.87868s-.87868 1.32567-.87868 2.12132v11c0 .7956.31607 1.5587.87868 2.1213s1.32567.8787 2.12132.8787h11c.7956 0 1.5587-.3161 2.1213-.8787s.8787-1.3257.8787-2.1213v-7.18c0-.2652-.1054-.5196-.2929-.7071s-.4419-.2929-.7071-.2929zm3.92-8.2c-.1015-.24435-.2957-.43853-.54-.54-.1202-.05124-.2493-.07842-.38-.08h-6c-.2652 0-.5196.10536-.7071.29289-.1875.18754-.2929.44189-.2929.70711s.1054.51957.2929.70711c.1875.18753.4419.29289.7071.29289h3.59l-10.3 10.29c-.09373.093-.16812.2036-.21889.3254-.05077.1219-.07691.2526-.07691.3846s.02614.2627.07691.3846c.05077.1218.12516.2324.21889.3254.09296.0937.20356.1681.32542.2189s.25257.0769.38458.0769.26272-.0261.38458-.0769.23246-.1252.32542-.2189l10.29-10.3v3.59c0 .26522.1054.51957.2929.70711.1875.18753.4419.29289.7071.29289s.5196-.10536.7071-.29289c.1875-.18754.2929-.44189.2929-.70711v-6c-.0016-.13068-.0288-.25978-.08-.38z" fill="#9e9e9e"/></svg>