<svg fill="none" height="24" viewBox="0 0 24 24" width="24" xmlns="http://www.w3.org/2000/svg"><path d="m11 11.9v5.1c0 .2652.1054.5196.2929.7071.1875.1876.4419.2929.7071.2929s.5196-.1053.7071-.2929c.1875-.1875.2929-.4419.2929-.7071v-5.1c1.214-.2478 2.2928-.9376 3.0272-1.93557.7344-.998 1.072-2.23313.9475-3.46594-.1246-1.2328-.7024-2.37545-1.6215-3.20641-.9192-.83096-2.1141-1.29104-3.3532-1.29104s-2.43402.46008-3.35315 1.29104c-.91914.83096-1.49699 1.97361-1.62153 3.20641-.12454 1.23281.21311 2.46794.94748 3.46594.73438.99797 1.81316 1.68777 3.0272 1.93557zm1-7.89998c.5933 0 1.1734.17594 1.6667.50559.4934.32964.8779.79818 1.1049 1.34636.2271.54818.2865 1.15138.1708 1.73332-.1158.58194-.4015 1.11649-.8211 1.53605-.4195.41956-.9541.70528-1.536.82103-.582.11573-1.1852.05635-1.7334-.17071-.5481-.22707-1.01666-.61158-1.34631-1.10493-.32964-.49335-.50559-1.07337-.50559-1.66671 0-.79565.31607-1.55871.87868-2.12132.56262-.56261 1.32572-.87868 2.12132-.87868zm4.21 10.41998c-.1313-.0276-.2668-.029-.3987-.0042-.1318.0248-.2576.0753-.3699.1486-.1124.0734-.2092.1681-.2849.2789s-.1289.2354-.1565.3667-.029.2668-.0042.3987c.0247.1319.0752.2576.1486.3699.0734.1124.1681.2092.2789.2849.1108.0758.2354.1289.3667.1565 2.27.45 3.21 1.26 3.21 1.58 0 .58-2.45 2-7 2s-7-1.42-7-2c0-.32.94-1.13 3.21-1.62.13132-.0276.25593-.0807.3667-.1565.11077-.0757.20554-.1725.2789-.2849.07336-.1123.12387-.238.14864-.3699.02478-.1319.02334-.2674-.00424-.3987s-.08075-.2559-.15648-.3667c-.07574-.1108-.17255-.2055-.28491-.2789-.11235-.0733-.23806-.1238-.36994-.1486s-.26735-.0234-.39867.0042c-3.04.7-4.79 2.01-4.79 3.62 0 2.63 4.53 4 9 4s9-1.37 9-4c0-1.61-1.75-2.92-4.79-3.58z" fill="#9e9e9e"/></svg>