<svg fill="none" height="24" viewBox="0 0 24 24" width="24" xmlns="http://www.w3.org/2000/svg"><path d="m12.11 15.39-3.88001 3.88c-.46976.4534-1.09714.7067-1.75.7067s-1.28024-.2533-1.75-.7067c-.2304-.2295-.41321-.5022-.53795-.8025s-.18895-.6223-.18895-.9475.06421-.6472.18895-.9475.30755-.573.53795-.8025l3.88-3.88c.1883-.1883.29409-.4437.29409-.71s-.10579-.5217-.29409-.71-.4437-.2941-.71-.2941-.5217.1058-.71.2941l-3.88 3.89c-.78164.8508-1.20438 1.9707-1.17993 3.1258.02446 1.155.49421 2.256 1.31116 3.073.81695.8169 1.91793 1.2867 3.07302 1.3111 1.15508.0245 2.27496-.3983 3.12575-1.1799l3.89001-3.88c.1883-.1883.2941-.4437.2941-.71s-.1058-.5217-.2941-.71-.4437-.2941-.71-.2941-.5217.1058-.71.2941zm8.58-12.08c-.8412-.83599-1.979-1.30521-3.165-1.30521s-2.3238.46922-3.165 1.30521l-3.89 3.88c-.0932.09324-.1672.20393-.2177.32575-.0504.12183-.0764.25239-.0764.38425s.026.26243.0764.38425c.0505.12182.1245.23251.2177.32575s.2039.1672.3257.21766c.1219.05046.2524.07643.3843.07643.1318 0 .2624-.02597.3842-.07643.1219-.05046.2326-.12442.3258-.21766l3.88-3.88c.4698-.45337 1.0971-.70674 1.75-.70674.6528 0 1.2802.25337 1.75.70674.2304.22949.4132.50221.5379.80252.1248.30031.189.6223.189.94748 0 .32519-.0642.64717-.189.94748-.1247.30031-.3075.57304-.5379.80252l-3.88 3.88c-.0937.093-.1681.2036-.2189.3254-.0508.1219-.0769.2526-.0769.3846s.0261.2627.0769.3846c.0508.1218.1252.2324.2189.3254.093.0937.2036.1681.3254.2189.1219.0508.2526.0769.3846.0769s.2627-.0261.3846-.0769c.1218-.0508.2324-.1252.3254-.2189l3.88-3.89c.836-.84122 1.3052-1.97902 1.3052-3.165 0-1.18597-.4692-2.32378-1.3052-3.165zm-11.86001 11.86c.09344.0927.20426.166.32609.2158.12184.0497.2523.075.38391.0742.13161.0008.26207-.0245.38391-.0742.1218-.0498.2326-.1231.3261-.2158l4.92-4.92c.1883-.1883.2941-.4437.2941-.71s-.1058-.52169-.2941-.71c-.1883-.1883-.4437-.29409-.71-.29409s-.5217.10579-.71.29409l-4.92001 4.92c-.09373.093-.16812.2036-.21889.3254-.05077.1219-.07691.2526-.07691.3846s.02614.2627.07691.3846c.05077.1218.12516.2324.21889.3254z" fill="#9e9e9e"/></svg>