<svg fill="none" height="24" viewBox="0 0 24 24" width="24" xmlns="http://www.w3.org/2000/svg"><path d="m3.5 6c-.19778 0-.39112.05865-.55557.16853s-.29262.26606-.36831.44879c-.07569.18272-.09549.38379-.0569.57777.03858.19398.13382.37216.27367.51202.13986.13985.31804.23509.51202.27368.19398.03858.39505.01878.57777-.05691.18273-.07569.33891-.20386.44879-.36831s.16853-.35779.16853-.55557c0-.26522-.10536-.51957-.29289-.70711-.18754-.18753-.44189-.29289-.70711-.29289zm4 2h14c.2652 0 .5196-.10536.7071-.29289.1875-.18754.2929-.44189.2929-.70711s-.1054-.51957-.2929-.70711c-.1875-.18753-.4419-.29289-.7071-.29289h-14c-.26522 0-.51957.10536-.70711.29289-.18753.18754-.29289.44189-.29289.70711s.10536.51957.29289.70711c.18754.18753.44189.29289.70711.29289zm0 3c-.19778 0-.39112.0586-.55557.1685s-.29262.2661-.36831.4488-.09549.3838-.0569.5778c.03858.194.13382.3722.27367.512.13986.1399.31804.2351.51202.2737s.39505.0188.57777-.0569c.18273-.0757.33891-.2039.44879-.3683.10988-.1645.16853-.3578.16853-.5556 0-.2652-.10536-.5196-.29289-.7071-.18754-.1875-.44189-.2929-.70711-.2929zm4 5c-.1978 0-.3911.0586-.5556.1685-.1644.1099-.2926.2661-.3683.4488s-.0955.3838-.0569.5778.1338.3722.2737.512c.1398.1399.318.2351.512.2737s.3951.0188.5778-.0569.3389-.2039.4488-.3683c.1099-.1645.1685-.3578.1685-.5556 0-.2652-.1054-.5196-.2929-.7071s-.4419-.2929-.7071-.2929zm10-5h-10c-.2652 0-.5196.1054-.7071.2929s-.2929.4419-.2929.7071.1054.5196.2929.7071.4419.2929.7071.2929h10c.2652 0 .5196-.1054.7071-.2929s.2929-.4419.2929-.7071-.1054-.5196-.2929-.7071-.4419-.2929-.7071-.2929zm0 5h-6c-.2652 0-.5196.1054-.7071.2929s-.2929.4419-.2929.7071.1054.5196.2929.7071.4419.2929.7071.2929h6c.2652 0 .5196-.1054.7071-.2929s.2929-.4419.2929-.7071-.1054-.5196-.2929-.7071-.4419-.2929-.7071-.2929z" fill="#9e9e9e"/></svg>