<svg fill="none" height="24" viewBox="0 0 24 24" width="24" xmlns="http://www.w3.org/2000/svg"><path d="m12.44 13.11-.17-.11c-.1831-.0753-.3844-.0946-.5784-.0555-.194.0392-.3721.1351-.5116.2755-.0965.0888-.1717.1981-.22.32-.0525.1233-.0797.256-.08.39.0016.1307.0288.2598.08.38.1075.2403.2997.4326.54.54.1202.0513.2493.0784.38.08.1338-.0025.266-.0296.39-.08.12-.0517.2287-.1264.32-.22.1863-.1873.2908-.4408.2908-.705s-.1045-.5176-.2908-.705zm-.56-7.10998c-.4771-.00537-.9475.11351-1.3647.34494-.4173.23144-.7672.56747-1.0153.97506-.07235.11382-.12093.2411-.14282.37418s-.01663.26921.01545.40021c.03209.13099.09034.25415.17126.36205.08091.10789.18282.19831.29958.26581.11677.06749.24603.11067.37983.12693.1339.01626.2697.00528.3992-.0323.1296-.03758.2502-.10097.3546-.18636.1043-.08539.1904-.19101.2529-.31052.0738-.10257.1717-.18542.285-.24122.1134-.05581.2387-.08286.365-.07878.1989 0 .3897.07902.5303.21967.1407.14065.2197.33142.2197.53033s-.079.38968-.2197.53033c-.1406.14065-.3314.21967-.5303.21967-.2652 0-.5196.10536-.7071.29289-.1875.18754-.2929.44189-.2929.70709s.1054.5196.2929.7071c.1875.1876.4419.2929.7071.2929.7293 0 1.4288-.2897 1.9445-.8054.5158-.5158.8055-1.21523.8055-1.94458 0-.72934-.2897-1.42882-.8055-1.94454-.5157-.51573-1.2152-.80546-1.9445-.80546zm8.58 3.68c-.1326-1.46539-.6433-2.87127-1.4822-4.08009-.8388-1.20882-1.9771-2.17919-3.3035-2.81616-1.3263-.63698-2.7953-.91874-4.2632-.81773-1.46794.10101-2.88449.58133-4.1111 1.39398-1.0508.70265-1.93294 1.6293-2.58305 2.71339s-1.05205 2.29872-1.17695 3.55661c-.12251 1.24968.03468 2.51088.46017 3.69228.4255 1.1814 1.10863 2.2532 1.99983 3.1377l5.3 5.31c.093.0938.2036.1681.3254.2189.1219.0508.2526.0769.3846.0769s.2627-.0261.3846-.0769c.1218-.0508.2324-.1251.3254-.2189l5.28-5.31c.8912-.8845 1.5743-1.9563 1.9998-3.1377s.5827-2.4426.4602-3.69228zm-3.86 5.36998-4.6 4.6-4.6-4.6c-.67791-.6779-1.19719-1.4976-1.52053-2.4002-.32333-.9026-.44268-1.8656-.34947-2.81978.09382-.9689.40177-1.90484.90157-2.74016.49981-.83531 1.17899-1.54913 1.98843-2.08984 1.06095-.70476 2.3063-1.0807 3.58-1.0807s2.5191.37594 3.58 1.0807c.807.53862 1.4847 1.24928 1.9844 2.08094.4996.83166.8089 1.76366.9056 2.72906.0963.95738-.0216 1.92428-.345 2.83058-.3234.9062-.8443 1.7293-1.525 2.4094z" fill="#9e9e9e"/></svg>