<svg fill="none" height="24" viewBox="0 0 24 24" width="24" xmlns="http://www.w3.org/2000/svg"><g fill="#9e9e9e"><path clip-rule="evenodd" d="m21.9989 4.95203c-.0115-.23971-.1087-.47608-.2918-.65914l-2-2c-.3905-.39052-1.0237-.39052-1.4142 0-.3905.39053-.3905 1.02369 0 1.41422l.2929.29289h-.5858c-1.6569 0-3 1.34315-3 3v3h-4v-2c0-1.65685-1.34315-3-3-3h-4c-.55228 0-1 .44772-1 1s.44772 1 1 1h4c.55228 0 1 .44772 1 1v2h-3c-1.65685 0-3 1.3431-3 3v4c0 1.6569 1.34315 3 3 3h12c1.6569 0 3-1.3431 3-3v-4c0-1.6569-1.3431-3-3-3h-1v-3c0-.55228.4477-1 1-1h.5858l-.2929.29289c-.3905.39053-.3905 1.02369 0 1.41422.3905.39052 1.0237.39052 1.4142 0l2-2c.0959-.09588.1682-.20638.217-.32433.0478-.11522.0747-.24132.0759-.37355m-7 6.99077v1c0 .5523.4477 1 1 1s1-.4477 1-1v-1h1c.5523 0 1 .4477 1 1v4c0 .5523-.4477 1-1 1h-12c-.55228 0-1-.4477-1-1v-4c0-.5523.44772-1 1-1h3v1.5858l-.29289-.2929c-.39053-.3905-1.02369-.3905-1.41422 0-.39052.3905-.39052 1.0237 0 1.4142l1.99941 1.9994.00715.0071c.17976.1765.42592.2856.69755.2864h.003.003c.1345-.0004.2627-.0273.3798-.0759.1152-.0477.2234-.1178.3177-.2105l.0073-.0072 1.9993-1.9993c.3905-.3905.3905-1.0237 0-1.4142s-1.0237-.3905-1.4142 0l-.2929.2929v-1.5858z" fill-rule="evenodd"/><path d="m22 5c0-.016-.0004-.03199-.0011-.04797z"/></g></svg>