<svg fill="none" height="24" viewBox="0 0 24 24" width="24" xmlns="http://www.w3.org/2000/svg"><g fill="#9e9e9e"><path d="m14 7h-10c-.55225 0-1-.44775-1-1s.44775-1 1-1h10c.5522 0 1 .44775 1 1s-.4478 1-1 1z"/><path d="m20 7h-2c-.5522 0-1-.44775-1-1s.4478-1 1-1h2c.5522 0 1 .44775 1 1s-.4478 1-1 1z"/><path d="m20 13h-2c-.5522 0-1-.4478-1-1s.4478-1 1-1h2c.5522 0 1 .4478 1 1s-.4478 1-1 1z"/><path d="m20 19h-2c-.5522 0-1-.4478-1-1s.4478-1 1-1h2c.5522 0 1 .4478 1 1s-.4478 1-1 1z"/><path d="m14 13h-10c-.55225 0-1-.4478-1-1s.44775-1 1-1h10c.5522 0 1 .4478 1 1s-.4478 1-1 1z"/><path d="m14 19h-10c-.55225 0-1-.4478-1-1s.44775-1 1-1h10c.5522 0 1 .4478 1 1s-.4478 1-1 1z"/></g></svg>