<svg fill="none" height="24" viewBox="0 0 24 24" width="24" xmlns="http://www.w3.org/2000/svg"><path d="m12 10c-.3956 0-.7822.1173-1.1111.3371-.3289.2197-.5853.5321-.7367.8975-.1513.3655-.19094.7676-.1138 1.1556.0772.3879.2677.7443.5474 1.024s.6361.4702 1.024.5474c.388.0771.7901.0375 1.1556-.1138.3654-.1514.6778-.4078.8975-.7367.2198-.3289.3371-.7155.3371-1.1111 0-.5304-.2107-1.0391-.5858-1.4142s-.8838-.5858-1.4142-.5858zm-7 0c-.39556 0-.78224.1173-1.11114.3371-.3289.2197-.58524.5321-.73662.8975-.15137.3655-.19098.7676-.11381 1.1556.07717.3879.26765.7443.54736 1.024.2797.2797.63607.4702 1.02403.5474.38796.0771.7901.0375 1.15555-.1138.36545-.1514.67781-.4078.89757-.7367s.33706-.7155.33706-1.1111c0-.5304-.21071-1.0391-.58579-1.4142-.37507-.3751-.88378-.5858-1.41421-.5858zm14 0c-.3956 0-.7822.1173-1.1111.3371-.3289.2197-.5853.5321-.7367.8975-.1513.3655-.1909.7676-.1138 1.1556.0772.3879.2677.7443.5474 1.024s.6361.4702 1.024.5474c.388.0771.7901.0375 1.1556-.1138.3654-.1514.6778-.4078.8975-.7367.2198-.3289.3371-.7155.3371-1.1111 0-.5304-.2107-1.0391-.5858-1.4142s-.8838-.5858-1.4142-.5858z" fill="#9e9e9e"/></svg>