<svg fill="none" height="24" viewBox="0 0 24 24" width="24" xmlns="http://www.w3.org/2000/svg"><path d="m19 4h-14c-.79565 0-1.55871.31607-2.12132.87868s-.87868 1.32567-.87868 2.12132v10c0 .7956.31607 1.5587.87868 2.1213s1.32567.8787 2.12132.8787h14c.7956 0 1.5587-.3161 2.1213-.8787s.8787-1.3257.8787-2.1213v-10c0-.79565-.3161-1.55871-.8787-2.12132s-1.3257-.87868-2.1213-.87868zm-.41 2-5.88 5.88c-.093.0937-.2036.1681-.3254.2189-.1219.0508-.2526.0769-.3846.0769s-.2627-.0261-.3846-.0769c-.1218-.0508-.2324-.1252-.3254-.2189l-5.88-5.88zm1.41 11c0 .2652-.1054.5196-.2929.7071s-.4419.2929-.7071.2929h-14c-.26522 0-.51957-.1054-.70711-.2929-.18753-.1875-.29289-.4419-.29289-.7071v-9.59l5.88 5.88c.5625.5618 1.325.8774 2.12.8774s1.5575-.3156 2.12-.8774l5.88-5.88z" fill="#9e9e9e"/></svg>