<svg fill="none" height="24" viewBox="0 0 24 24" width="24" xmlns="http://www.w3.org/2000/svg"><path d="m12 7c.3956 0 .7822-.1173 1.1111-.33706s.5853-.53212.7367-.89757c.1513-.36545.1909-.76759.1138-1.15555-.0772-.38796-.2677-.74433-.5474-1.02403-.2797-.27971-.6361-.47019-1.024-.54736-.388-.07717-.7901-.03756-1.1556.11381-.3654.15138-.6778.40772-.8975.73662-.2198.3289-.3371.71558-.3371 1.11114 0 .53043.2107 1.03914.5858 1.41421.3751.37508.8838.58579 1.4142.58579zm0 10c-.3956 0-.7822.1173-1.1111.3371-.3289.2197-.5853.5321-.7367.8975-.1513.3655-.19094.7676-.1138 1.1556.0772.3879.2677.7443.5474 1.024s.6361.4702 1.024.5474c.388.0771.7901.0375 1.1556-.1138.3654-.1514.6778-.4078.8975-.7367.2198-.3289.3371-.7155.3371-1.1111 0-.5304-.2107-1.0391-.5858-1.4142s-.8838-.5858-1.4142-.5858zm0-7c-.3956 0-.7822.1173-1.1111.3371-.3289.2197-.5853.5321-.7367.8975-.1513.3655-.19094.7676-.1138 1.1556.0772.3879.2677.7443.5474 1.024s.6361.4702 1.024.5474c.388.0771.7901.0375 1.1556-.1138.3654-.1514.6778-.4078.8975-.7367.2198-.3289.3371-.7155.3371-1.1111 0-.5304-.2107-1.0391-.5858-1.4142s-.8838-.5858-1.4142-.5858z" fill="#9e9e9e"/></svg>