<svg fill="none" height="24" viewBox="0 0 24 24" width="24" xmlns="http://www.w3.org/2000/svg"><g fill="#9e9e9e"><path d="m3.27997 2.22003c-.06866-.07369-.15146-.13279-.24346-.17378s-.19131-.06303-.29202-.06481c-.1007-.00178-.20073.01675-.29412.05447s-.17822.09386-.24944.16508-.12736.15606-.16508.24944c-.03772.09339-.05625.19342-.05447.29412.00178.10071.02382.20002.06481.29202s.10009.1748.17378.24346l5.78 5.78v2.93997c-.00008.7271.19798 1.4404.5729 2.0632.37492.6229.91252 1.1319 1.55503 1.4721.6425.3403 1.3655.499 2.0915.4592.7259-.0399 1.4272-.2769 2.0286-.6855l1.146 1.146c-.907.6801-2.0104 1.0468-3.144 1.045h-.5l-.216-.004c-1.3539-.0557-2.63387-.6328-3.57209-1.6105-.93822-.9778-1.46205-2.2804-1.46194-3.6355v-.5l-.007-.102c-.0259-.1882-.12229-.3596-.2697-.4795-.14741-.12-.33484-.1794-.52442-.1665-.18958.013-.36718.0974-.49691.2362-.12973.1389-.20191.3218-.20197.5118v.5l.004.236c.05801 1.6621.72755 3.2442 1.88021 4.443s2.70731 1.9299 4.36582 2.053v2.268l.007.102c.0259.1883.1223.3597.2697.4796s.3348.1794.5244.1665c.1896-.013.3672-.0974.4969-.2363.1297-.1388.2019-.3217.202-.5118l.001-2.268c1.3564-.099 2.6507-.6074 3.712-1.458l4.256 4.256c.1414.1367.3308.2124.5274.2108.1967-.0016.3848-.0804.5239-.2194.1392-.139.2181-.3271.2199-.5237.0018-.1967-.0737-.3862-.2102-.5277z"/><path d="m17.196 14.014 1.146 1.146c.4344-.9085.6593-1.9029.658-2.91v-.5l-.007-.102c-.0259-.1882-.1223-.3596-.2697-.4795-.1474-.12-.3349-.1794-.5244-.1665-.1896.013-.3672.0974-.497.2362-.1297.1389-.2019.3218-.2019.5118v.5l-.004.216c-.0213.5282-.1224 1.0501-.3 1.548z"/><path d="m8.13797 4.95603 7.79203 7.79197c.046-.242.07-.492.07-.748v-5.99997c.0006-.97007-.3514-1.9073-.9904-2.63719s-1.5215-1.2027-2.4831-1.33039c-.9616-.1277-1.9369.09842-2.74422.63625-.80733.53783-1.3917 1.35072-1.64431 2.28733z"/></g></svg>