<svg fill="none" height="30" viewBox="0 0 24 30" width="24" xmlns="http://www.w3.org/2000/svg"><path d="m11.6601 29.0383c-.0001 0-.0001 0-.0001-.0001l-.0001-.0001-.0013-.002-.0065-.0103c-.0061-.0097-.0159-.025-.0296-.046-.0274-.0421-.0705-.1072-.1317-.1967-.1222-.1792-.3164-.4559-.6009-.8411-.5692-.7704-1.49934-1.9741-2.93766-3.6978-.3207-.3843-.68332-.8026-1.07101-1.2498-1.03681-1.196-2.25296-2.5989-3.32633-4.1122-1.47628-2.0814-2.73565-4.4402-2.925133-6.8798-.49039-6.31384 5.120153-11.4024 11.370233-11.4024 6.2501 0 11.8606 5.08856 11.3702 11.4024-.1899 2.4449-1.5094 4.806-3.0402 6.8855-1.0339 1.4044-2.1979 2.7216-3.205 3.8611-.4788.5418-.9222 1.0435-1.2992 1.4952-1.4352 1.72-2.3059 2.9185-2.8157 3.6822-.2548.3818-.4191.6545-.5184.829-.0496.0873-.083.1499-.1033.1893-.0101.0197-.017.0335-.021.0417l-.0038.0078zm0 0c.0776.1252.2177.1976.3648.1885m-.3648-.1885.3648.1885m0 0c.147-.0092.2771-.0984.3386-.2323z" style="fill:#f80f1d;stroke:#fff;stroke-width:.8;stroke-miterlimit:10;stroke-linecap:round;stroke-linejoin:round"/><path d="m11.9997 16.2251c2.231 0 4.0395-1.8085 4.0395-4.0394 0-2.23098-1.8085-4.03952-4.0395-4.03952-2.2309 0-4.03943 1.80854-4.03943 4.03952 0 2.2309 1.80853 4.0394 4.03943 4.0394z" fill="#fff"/></svg>