<svg fill="none" height="24" viewBox="0 0 24 24" width="24" xmlns="http://www.w3.org/2000/svg"><path clip-rule="evenodd" d="m20.8195 13.7934-1.1398.3054c.0294-.3399.0007-.6823-.085-1.0125l-.7764-2.8978c-.206-.76854-.7088-1.4238-1.3978-1.82162-.6891-.39783-1.5079-.50563-2.2765-.2997l-2.8978.77645c-.7685.20593-1.4237.70873-1.8216 1.39777-.3978.6891-.5056 1.5079-.2997 2.2765l.7765 2.8977c.0909.3289.2372.6398.4327.9194l-1.1398.3054c-.2562.0686-.52916.0327-.75884-.0999s-.39728-.351-.46593-.6072l-2.58819-9.65927c-.20593-.76854-.70872-1.4238-1.39777-1.82162-.68906-.39783-1.50792-.50563-2.27646-.2997l-.96593.25882c-.25618.06864-.47459.23624-.6072.46592-.13261.22969-.168546.50264-.0999.75882.06864.25618.23624.4746.46592.60721.22969.1326.50264.16854.75882.0999l.96593-.25882c.25618-.06865.52913-.03271.75882.0999.22968.13261.39728.35103.46592.6072l2.58819 9.65924c.17358.6336.55031 1.1926 1.07234 1.5914.52203.3987 1.16052.6151 1.81742.6159-.06128.4829-.00416.9734.16646 1.4292.1706.4559.4496.8634.8128 1.1874s.7999.5547 1.2722.6723c.4723.1175.9661.1184 1.4389.0026.4727-.1159.9101-.3451 1.2746-.6677.3644-.3227.6448-.7292.817-1.1844.1723-.4553.2312-.9456.1716-1.4287-.0595-.483-.2357-.9444-.5133-1.3442l5.9694-1.5995c.2562-.0686.4746-.2362.6072-.4659s.1686-.5026.0999-.7588c-.0686-.2562-.2362-.4746-.4659-.6072s-.5027-.1686-.7588-.0999zm-8.2384 6.1741c.1873.0635.3893.0701.5803.019.2562-.0687.4746-.2363.6072-.466s.1686-.5026.0999-.7588c-.0512-.191-.1579-.3626-.3066-.493s-.3327-.2138-.5288-.2396-.3954.0071-.5728.0946c-.1774.0874-.3248.2255-.4237.3968s-.1448.3681-.1319.5654c.013.1974.0841.3865.2045.5434s.2847.2746.4719.3382zm.7181-4.4623c.2296.1326.5026.1686.7588.0999l2.8978-.7764c.2561-.0687.4746-.2363.6072-.466s.1685-.5026.0999-.7588l-.7765-2.8978c-.0686-.2561-.2362-.4746-.4659-.6072-.2297-.13258-.5027-.16851-.7588-.09987l-2.8978.77647c-.2562.0686-.4746.2362-.6072.4659s-.1686.5027-.0999.7588l.7764 2.8978c.0687.2562.2363.4746.466.6072z" fill="#9e9e9e" fill-rule="evenodd"/></svg>