<svg fill="none" height="24" viewBox="0 0 24 24" width="24" xmlns="http://www.w3.org/2000/svg"><path d="m21.22 12c.4978-.5476.7756-1.2599.78-2 0-.79565-.3161-1.55871-.8787-2.12132s-1.3257-.87868-2.1213-.87868h-5.18c.1597-.45182.2089-.93534.1434-1.41007-.0655-.47474-.2438-.92687-.5199-1.31855s-.6421-.7115-1.0672-.9327-.8971-.33733-1.3763-.33868h-6c-.79565 0-1.55871.31607-2.12132.87868s-.87868 1.32567-.87868 2.12132c.00441.74005.28221 1.45236.78 2-.49195.55002-.76393 1.26207-.76393 2 0 .7379.27198 1.45.76393 2-.49195.55-.76393 1.2621-.76393 2s.27198 1.45.76393 2c-.49779.5476-.77559 1.2599-.78 2 0 .7956.31607 1.5587.87868 2.1213s1.32567.8787 2.12132.8787h14c.5778-.0031 1.1423-.1729 1.6259-.4892.4835-.3162.8655-.7653 1.1-1.2934.2344-.528.3114-1.1125.2217-1.6833-.0898-.5708-.3424-1.1035-.7276-1.5341.492-.55.7639-1.2621.7639-2s-.2719-1.45-.7639-2zm-10.22 7h-6c-.26522 0-.51957-.1054-.70711-.2929-.18753-.1875-.29289-.4419-.29289-.7071s.10536-.5196.29289-.7071c.18754-.1875.44189-.2929.70711-.2929h6c.2652 0 .5196.1054.7071.2929s.2929.4419.2929.7071-.1054.5196-.2929.7071-.4419.2929-.7071.2929zm0-4h-6c-.26522 0-.51957-.1054-.70711-.2929-.18753-.1875-.29289-.4419-.29289-.7071s.10536-.5196.29289-.7071c.18754-.1875.44189-.2929.70711-.2929h6c.2652 0 .5196.1054.7071.2929s.2929.4419.2929.7071-.1054.5196-.2929.7071-.4419.2929-.7071.2929zm0-4h-6c-.26522 0-.51957-.1054-.70711-.2929-.18753-.1875-.29289-.4419-.29289-.7071 0-.26522.10536-.51957.29289-.70711.18754-.18753.44189-.29289.70711-.29289h6c.2652 0 .5196.10536.7071.29289.1875.18754.2929.44189.2929.70711 0 .2652-.1054.5196-.2929.7071s-.4419.2929-.7071.2929zm0-4h-6c-.26522 0-.51957-.10536-.70711-.29289-.18753-.18754-.29289-.44189-.29289-.70711s.10536-.51957.29289-.70711c.18754-.18753.44189-.29289.70711-.29289h6c.2652 0 .5196.10536.7071.29289.1875.18754.2929.44189.2929.70711s-.1054.51957-.2929.70711c-.1875.18753-.4419.29289-.7071.29289zm8.69 11.71c-.0886.0935-.1958.1676-.3145.2175-.1188.0499-.2467.0746-.3755.0725h-5.18c.2398-.6451.2398-1.3549 0-2h5.18c.2652 0 .5196.1054.7071.2929s.2929.4419.2929.7071c-.0019.133-.0302.2643-.0835.3862-.0532.122-.1302.232-.2265.3238zm0-4c-.0886.0935-.1958.1676-.3145.2175-.1188.0499-.2467.0746-.3755.0725h-5.18c.2398-.6451.2398-1.3549 0-2h5.18c.2652 0 .5196.1054.7071.2929s.2929.4419.2929.7071c-.0019.133-.0302.2643-.0835.3862-.0532.122-.1302.232-.2265.3238zm0-4c-.0886.0935-.1958.1676-.3145.2175-.1188.0499-.2467.0746-.3755.0725h-5.18c.2398-.6451.2398-1.3549 0-2h5.18c.2652 0 .5196.10536.7071.29289.1875.18754.2929.44189.2929.70711-.0019.133-.0302.2643-.0835.3862-.0532.122-.1302.232-.2265.3238z" fill="#9e9e9e"/></svg>