<svg fill="none" height="24" viewBox="0 0 24 24" width="24" xmlns="http://www.w3.org/2000/svg"><path d="m8.7 10c.18736.1863.44081.2908.705.2908s.51764-.1045.705-.2908c.1863-.18736.2908-.44081.2908-.705 0-.26418-.1045-.51763-.2908-.705l-6.27-6.3c-.1883-.1883-.4437-.29409-.71-.29409s-.5217.10579-.71.29409c-.1883.18831-.29409.4437-.29409.71s.10579.5217.29409.71zm12.3 4c-.2652 0-.5196.1054-.7071.2929s-.2929.4419-.2929.7071v3.59l-4.56-4.59c-.191-.191-.4499-.2982-.72-.2982s-.529.1072-.72.2982-.2982.45-.2982.72c0 .2701.1072.529.2982.72l4.59 4.56h-3.59c-.2652 0-.5196.1054-.7071.2929s-.2929.4419-.2929.7071.1054.5196.2929.7071.4419.2929.7071.2929h6c.1307-.0016.2598-.0288.38-.08.2443-.1015.4385-.2957.54-.54.0512-.1202.0784-.2493.08-.38v-6c0-.2652-.1054-.5196-.2929-.7071s-.4419-.2929-.7071-.2929zm.92-11.38c-.1015-.24435-.2957-.43852-.54-.54-.1202-.05124-.2493-.07842-.38-.08h-6c-.2652 0-.5196.10536-.7071.2929-.1875.18753-.2929.44189-.2929.7071 0 .26522.1054.51957.2929.70711s.4419.29289.7071.29289h3.59l-16.3 16.29c-.09373.093-.16812.2036-.21889.3254-.05077.1219-.07691.2526-.07691.3846s.02614.2627.07691.3846c.05077.1218.12516.2324.21889.3254.09296.0937.20356.1681.32542.2189s.25257.0769.38458.0769.26272-.0261.38458-.0769.23246-.1252.32542-.2189l16.29-16.3v3.59c0 .26522.1054.51957.2929.70711s.4419.29289.7071.29289.5196-.10535.7071-.29289.2929-.44189.2929-.70711v-6c-.0016-.13067-.0288-.25978-.08-.38z" fill="#9e9e9e"/></svg>