<svg fill="none" height="24" viewBox="0 0 24 24" width="24" xmlns="http://www.w3.org/2000/svg"><g fill="#9e9e9e"><path d="m10 10h-6c-.55225 0-1-.44727-1-1v-4c0-.55273.44775-1 1-1h6c.5522 0 1 .44727 1 1v4c0 .55273-.4478 1-1 1zm-5-2h4v-2h-4z"/><path d="m20 21h-6c-.5523 0-1-.4473-1-1v-4c0-.5527.4477-1 1-1h6c.5522 0 1 .4473 1 1v4c0 .5527-.4478 1-1 1zm-5-2h4v-2h-4z"/><path d="m14 19h-3.2173c-1.29832 0-2.41111-.793-2.83543-2.0195-.42382-1.2266-.03857-2.5371.98194-3.3389l4.90629-3.85547c.519-.4082.3813-.95508.3271-1.11328-.0547-.15722-.2842-.67285-.9453-.67285h-3.2173c-.55224 0-.99999-.44727-.99999-1s.44775-1 .99999-1h3.2173c1.2983 0 2.4111.79297 2.8354 2.01953.4239 1.22656.0386 2.53707-.9819 3.33887l-4.9062 3.8555c-.51907.4082-.38138.9551-.32718 1.1133.05468.1572.28418.6728.94528.6728h3.2173c.5523 0 1 .4473 1 1s-.4477 1-1 1z"/></g></svg>