<svg xmlns="http://www.w3.org/2000/svg" xmlns:xlink="http://www.w3.org/1999/xlink" width="64pt" height="64pt" viewBox="0 0 64 64" version="1.1">
<g id="surface1">
<path style="fill-rule:nonzero;fill:rgb(100%,100%,100%);fill-opacity:1;stroke-width:2;stroke-linecap:butt;stroke-linejoin:miter;stroke:#FFA011;stroke-opacity:1;stroke-miterlimit:4;" d="M 19.999512 12 C 19.999512 16.417969 16.417969 19.999512 12 19.999512 C 7.582031 19.999512 4.000488 16.417969 4.000488 12 C 4.000488 7.582031 7.582031 4.000488 12 4.000488 C 16.417969 4.000488 19.999512 7.582031 19.999512 12 Z M 19.999512 12 " transform="matrix(2.666667,0,0,2.666667,0,0)"/>
<path style=" stroke:none;fill-rule:nonzero;fill:#FFA011;fill-opacity:1;" d="M 46.542969 32 C 46.542969 40.03125 40.03125 46.542969 32 46.542969 C 23.96875 46.542969 17.457031 40.03125 17.457031 32 C 17.457031 23.96875 23.96875 17.457031 32 17.457031 C 40.03125 17.457031 46.542969 23.96875 46.542969 32 Z M 46.542969 32 "/>
<path style=" stroke:none;fill-rule:nonzero;fill:rgb(100%,100%,100%);fill-opacity:1;" d="M 38.195312 31.152344 C 38.195312 34.25 35.097656 37.347656 32 40.445312 C 28.902344 37.347656 25.804688 34.25 25.804688 31.152344 C 25.804688 28.054688 28.578125 24.957031 32 24.957031 C 35.421875 24.957031 38.195312 28.054688 38.195312 31.152344 Z M 38.195312 31.152344 "/>
</g>
</svg>