<svg fill="none" height="24" viewBox="0 0 24 24" width="24" xmlns="http://www.w3.org/2000/svg"><path clip-rule="evenodd" d="m4 7c0-1.65685 1.34315-3 3-3h3c1.6569 0 3 1.34315 3 3v1c0 .46236-.1046.90029-.2914 1.29142.3911-.18682.829-.29142 1.2914-.29142h3c1.6569 0 3 1.3431 3 3v1c0 .7684-.2889 1.4692-.7639 2 .475.5308.7639 1.2316.7639 2v1c0 1.6569-1.3431 3-3 3h-3c-.7684 0-1.4692-.2889-2-.7639-.5308.475-1.2316.7639-2 .7639h-3c-1.65685 0-3-1.3431-3-3v-1c0-.7684.28885-1.4692.7639-2-.47505-.5308-.7639-1.2316-.7639-2v-1c0-.7684.28885-1.4692.76389-2-.47504-.53076-.76389-1.23165-.76389-2zm3 2c-.55228 0-1-.44772-1-1v-1c0-.55228.44772-1 1-1h3c.5523 0 1 .44772 1 1v1c0 .55228-.4477 1-1 1zm4 3c0-.5523-.4477-1-1-1h-3c-.55228 0-1 .4477-1 1v1c0 .5523.44772 1 1 1h3c.5523 0 1-.4477 1-1zm0 5c0-.5523-.4477-1-1-1h-3c-.55228 0-1 .4477-1 1v1c0 .5523.44772 1 1 1h3c.5523 0 1-.4477 1-1zm2 1c0 .5523.4477 1 1 1h3c.5523 0 1-.4477 1-1v-1c0-.5523-.4477-1-1-1h-3c-.5523 0-1 .4477-1 1zm1-4c-.5523 0-1-.4477-1-1v-1c0-.5523.4477-1 1-1h3c.5523 0 1 .4477 1 1v1c0 .5523-.4477 1-1 1z" fill="#9e9e9e" fill-rule="evenodd"/></svg>