<svg fill="none" height="24" viewBox="0 0 24 24" width="24" xmlns="http://www.w3.org/2000/svg"><g fill="#9e9e9e"><path d="m20 19h-16c-.55225 0-1-.4473-1-1v-12c0-.55273.44775-1 1-1h16c.5522 0 1 .44727 1 1v12c0 .5527-.4478 1-1 1zm-15-2h14v-10h-14z"/><path d="m20 11h-16c-.55225 0-1-.4473-1-1 0-.55273.44775-1 1-1h16c.5522 0 1 .44727 1 1 0 .5527-.4478 1-1 1z"/><path d="m20 15h-16c-.55225 0-1-.4473-1-1s.44775-1 1-1h16c.5522 0 1 .4473 1 1s-.4478 1-1 1z"/><path d="m12 19c-.5523 0-1-.4473-1-1v-8c0-.55273.4477-1 1-1s1 .44727 1 1v8c0 .5527-.4477 1-1 1z"/></g></svg>