<svg fill="none" height="24" viewBox="0 0 24 24" width="24" xmlns="http://www.w3.org/2000/svg"><path d="m10.5 3.72998c.1775-.21381.3975-.38829.6462-.51232.2486-.12404.5204-.1949.7979-.20807.2776-.01317.5548.03163.8141.13156s.4949.25279.6918.44883c.361.37981.5585.8861.55 1.41v3.41c0 .26521.1054.51957.2929.7071.1875.18754.4419.2929.7071.2929s.5196-.10536.7071-.2929c.1876-.18753.2929-.44189.2929-.7071v-3.41c-.0229-.80266-.2868-1.57985-.7574-2.23047-.4706-.65061-1.1262-1.14451-1.8813-1.41746-.7552-.27294-1.575-.31227-2.3529-.11289-.7778.19938-1.47764.62826-2.00839 1.23082-.1164.09207-.21085.20891-.27648.34202-.06564.13311-.10083.27916-.10301.42756s.02869.29542.09039.43041c.0617.13498.15266.25454.26631.35.11364.09546.24711.16442.39071.2019.14361.03747.29376.0425.43955.01474.1458-.02776.28362-.08763.40332-.17526.1198-.08763.2186-.20083.2892-.33137zm8.22 9.54002h.2c.2354.0043.4647-.0746.6476-.2228s.3077-.3561.3524-.5872c.0717-.4832.0985-.9719.08-1.46 0-.2652-.1053-.5196-.2929-.7071-.1875-.1876-.4419-.29292-.7071-.29292s-.5196.10532-.7071.29292c-.1875.1875-.2929.4419-.2929.7071.0001.3694-.0367.7379-.11 1.1-.0243.1315-.022.2666.0068.3972s.0835.2541.1609.3632.1759.2016.2897.2719c.1137.0704.2404.1172.3726.1377zm3 6.06-17.99999-18.00002c-.09296-.09373-.20357-.16812-.32542-.21889-.12186-.05077-.25257-.07691-.38458-.07691s-.26272.02614-.38458.07691-.23246.12516-.32542.21889c-.18625.18736-.29079.44081-.29079.705 0 .26418.10454.51764.29079.705l5.7 5.74v2.52002c.00072.7018.18607 1.391.53743 1.9985.35137.6075.85639 1.1119 1.46436 1.4625.6079.3506 1.2974.5351 1.9992.5349s1.3912-.185 1.999-.5359l1.46 1.46c-.8996.635-1.9565 1.0101-3.0551 1.0844s-2.1965-.1551-3.17339-.6632c-.97689-.508-1.79513-1.2751-2.36511-2.2172s-.86972-2.0229-.86639-3.124c0-.2652-.10536-.5196-.29289-.7071-.18754-.1876-.44189-.29292-.70711-.29292s-.51957.10532-.70711.29292c-.18753.1875-.29289.4419-.29289.7071.00176 1.9473.71372 3.8271 2.0024 5.2869 1.28867 1.4599 3.06558 2.3997 4.99759 2.6431v2.07h-1.99999c-.26522 0-.51957.1053-.70711.2929-.18753.1875-.29289.4419-.29289.7071s.10536.5195.29289.7071c.18754.1875.44189.2929.70711.2929h5.99999c.2652 0 .5196-.1054.7071-.2929.1876-.1876.2929-.4419.2929-.7071s-.1053-.5196-.2929-.7071c-.1875-.1876-.4419-.2929-.7071-.2929h-2v-2.07c1.4029-.1746 2.7328-.7239 3.85-1.59l3.4 3.4c.187.1883.4411.2946.7065.2955.2653.001.5202-.1035.7085-.2905s.2946-.4411.2956-.7065c.0009-.2654-.1036-.5202-.2906-.7085zm-9.72-6.33c-.5304 0-1.0391-.2107-1.4142-.5858s-.5858-.8838-.5858-1.4142v-.52l2.45 2.46c-.1467.0395-.298.0597-.45.06z" fill="#9e9e9e"/></svg>