<svg fill="none" height="24" viewBox="0 0 24 24" width="24" xmlns="http://www.w3.org/2000/svg"><g fill="#9e9e9e"><path d="m20.5655 22.0238h-16.67037c-1.89393 0-3.434498-1.5406-3.434498-3.4345v-7.3179c0-.5102.41286-.9231.923078-.9231.51022 0 .92308.4129.92308.9231v7.3179c0 .8762.71214 1.5883 1.58834 1.5883h16.67037c.8762 0 1.5883-.7121 1.5883-1.5883v-11.63582c0-.8762-.7121-1.58834-1.5883-1.58834h-10.2692c-.51025 0-.92311-.41286-.92311-.92308s.41286-.92308.92311-.92308h10.2692c1.8939 0 3.4345 1.54057 3.4345 3.4345v11.63582c0 1.8939-1.5406 3.4345-3.4345 3.4345z"/><path d="m2.27059 7.81228c-.36079-.36078-.36079-.94465 0-1.30543l4.23626-4.23626c.36078-.36078.94465-.36079 1.30543 0 .36078.36078.36078.94465 0 1.30543l-4.23627 4.23627c-.36078.36076-.94465.36076-1.30542-.00001z"/><path d="m6.50685 7.81228-4.23563-4.23563c-.36078-.36078-.36078-.94465 0-1.30543s.94465-.36078 1.30543 0l4.23563 4.23563c.36078.36078.36078.94465 0 1.30543s-.94465.36078-1.30543 0z"/><circle cx="9" cy="11" r="1"/><circle cx="15" cy="11" r="1"/><rect height="2" rx="1" width="4" x="10" y="15"/></g></svg>