<svg fill="none" height="24" viewBox="0 0 24 24" width="24" xmlns="http://www.w3.org/2000/svg"><path d="m21 6c-.2652 0-.5196.10536-.7071.29289-.1875.18754-.2929.44189-.2929.70711v10c0 .7956-.3161 1.5587-.8787 2.1213s-1.3257.8787-2.1213.8787h-10c-.26522 0-.51957.1054-.70711.2929-.18753.1875-.29289.4419-.29289.7071s.10536.5196.29289.7071c.18754.1875.44189.2929.70711.2929h10c1.3261 0 2.5979-.5268 3.5355-1.4645.9377-.9376 1.4645-2.2094 1.4645-3.5355v-10c0-.26522-.1054-.51957-.2929-.70711-.1875-.18753-.4419-.29289-.7071-.29289zm-3 9v-10c0-.79565-.3161-1.55871-.8787-2.12132s-1.3257-.87868-2.1213-.87868h-10c-.79565 0-1.55871.31607-2.12132.87868s-.87868 1.32567-.87868 2.12132v10c0 .7956.31607 1.5587.87868 2.1213s1.32567.8787 2.12132.8787h10c.7956 0 1.5587-.3161 2.1213-.8787s.8787-1.3257.8787-2.1213zm-8-11h2v4.86l-.36-.3c-.1797-.14967-.4061-.23163-.64-.23163s-.4603.08196-.64.23163l-.36.3zm-6 11v-10c0-.26522.10536-.51957.29289-.70711.18754-.18753.44189-.29289.70711-.29289h3v7c-.00001.1912.05477.3783.15785.5393.10309.161.25016.2891.42379.369.17363.08.36655.1086.5559.0823.18934-.0263.36719-.1063.51246-.2306l1.35-1.13 1.35 1.13c.1811.1549.4117.24.65.24.1447-.001.2876-.0317.42-.09.1736-.0803.3205-.2088.4233-.3701.1028-.1612.1572-.3486.1567-.5399v-7h1c.2652 0 .5196.10536.7071.29289.1875.18754.2929.44189.2929.70711v10c0 .2652-.1054.5196-.2929.7071s-.4419.2929-.7071.2929h-10c-.26522 0-.51957-.1054-.70711-.2929-.18753-.1875-.29289-.4419-.29289-.7071z" fill="#9e9e9e"/></svg>