<svg fill="none" height="24" viewBox="0 0 24 24" width="24" xmlns="http://www.w3.org/2000/svg"><path d="m21.68 17.65-7-14.00001c-.2498-.4966-.6327-.91402-1.1059-1.2057-.4732-.29167-1.0182-.44612-1.5741-.44612s-1.1008.15445-1.5741.44612c-.4732.29168-.85608.7091-1.10589 1.2057l-7 14.00001c-.27499.5525-.37289 1.1764-.28035 1.7866.09254.6101.37102 1.1769.79746 1.6231.42645.4461.98011.7498 1.5855.8698s1.23304.0503 1.79739-.1995l5.36999-2.4c.1298-.0545.2692-.0825.41-.0825s.2802.028.41.0825l5.37 2.4c.5644.2498 1.192.3195 1.7974.1995s1.159-.4237 1.5855-.8698c.4264-.4462.7049-1.013.7975-1.6231.0925-.6102-.0054-1.2341-.2804-1.7866zm-2 2c-.1427.1486-.3279.2495-.5302.2889-.2022.0394-.4117.0153-.5998-.0689l-5.37-2.39c-.384-.171-.7997-.2593-1.22-.2593s-.836.0883-1.22.2593l-5.32999 2.42c-.18704.0813-.39445.1034-.59443.0635-.19998-.04-.38297-.1401-.52443-.287-.14145-.1469-.23461-.3336-.26699-.5349s-.00242-.4078.08585-.5916l6.99999-14.00001c.0839-.16381.2114-.30127.3685-.39726.157-.09599.3375-.14678.5215-.14678.1841 0 .3645.05079.5216.14678.157.09599.2845.23345.3684.39726l7 14.00001c.0905.1832.1227.3896.0923.5917-.0304.202-.1219.3898-.2623.5383z" fill="#9e9e9e"/></svg>