<svg width="14" height="14" viewBox="0 0 14 14" fill="none" xmlns="http://www.w3.org/2000/svg">
<path d="M2.27394 7.73247C2.33399 7.82854 2.41753 7.90773 2.51668 7.96255C2.61583 8.01738 2.72731 8.04603 2.84061 8.0458C2.96392 8.04933 3.0858 8.01858 3.19267 7.95697C3.29955 7.89535 3.38723 7.80529 3.44596 7.69681C3.5047 7.58832 3.53218 7.46567 3.52535 7.3425C3.51852 7.21932 3.47764 7.10046 3.40728 6.99913C2.53499 5.61371 1.97322 4.05576 1.76061 2.43247C1.74626 2.33624 1.75315 2.23803 1.78079 2.14474C1.80843 2.05145 1.85615 1.96535 1.92061 1.89247C1.98308 1.82135 2.05998 1.76436 2.1462 1.72528C2.23241 1.6862 2.32595 1.66592 2.42061 1.6658H4.42061C4.57657 1.66266 4.7287 1.7143 4.85051 1.81175C4.97233 1.9092 5.05611 2.04628 5.08728 2.19913C5.08728 2.35247 5.14061 2.49247 5.17394 2.6458V2.73247C5.25152 3.08232 5.35628 3.42558 5.48728 3.75913L4.56061 4.19913C4.48054 4.23636 4.40866 4.28912 4.34915 4.35435C4.28964 4.41959 4.24368 4.49599 4.21394 4.57913C4.18002 4.66045 4.16255 4.74769 4.16255 4.8358C4.16255 4.92391 4.18002 5.01115 4.21394 5.09247C4.28061 5.23247 4.34728 5.37247 4.42728 5.51913C4.47083 5.59552 4.52907 5.66255 4.59863 5.71634C4.6682 5.77012 4.74771 5.80962 4.83261 5.83255C4.9175 5.85548 5.00609 5.86138 5.09328 5.84993C5.18046 5.83847 5.26452 5.80988 5.34061 5.7658C5.44955 5.70334 5.53864 5.61138 5.59761 5.50052C5.65658 5.38965 5.68304 5.26438 5.67394 5.13913L6.05394 4.99913C6.35555 4.86021 6.59446 4.61373 6.72393 4.30794C6.8534 4.00216 6.8641 3.65906 6.75394 3.3458C6.64628 3.06363 6.55939 2.77397 6.49394 2.47913V2.41247C6.49394 2.27913 6.44061 2.1458 6.42061 2.0258C6.34733 1.55354 6.10736 1.12313 5.74416 0.812507C5.38095 0.501887 4.91852 0.331595 4.44061 0.332467H2.44061C2.15429 0.328301 1.87042 0.385665 1.60819 0.500679C1.34596 0.615694 1.11148 0.785677 0.92061 0.999134C0.730914 1.21469 0.589857 1.46857 0.50703 1.74351C0.424204 2.01845 0.401551 2.30799 0.44061 2.59247C0.672044 4.41841 1.29759 6.17222 2.27394 7.73247ZM12.0139 7.59247L11.6139 7.51913H11.5606C11.259 7.45462 10.9626 7.36771 10.6739 7.25913C10.3655 7.1485 10.0271 7.15532 9.72341 7.27828C9.41968 7.40125 9.17187 7.63175 9.02728 7.9258L8.88728 8.23247C8.43254 7.96942 8.00393 7.66359 7.60728 7.31913L13.4739 1.45913C13.5361 1.39697 13.5854 1.32318 13.6191 1.24197C13.6527 1.16075 13.67 1.07371 13.67 0.985801C13.67 0.897894 13.6527 0.810849 13.6191 0.729634C13.5854 0.64842 13.5361 0.574626 13.4739 0.512467C13.4118 0.450308 13.338 0.401001 13.2568 0.367361C13.1756 0.333721 13.0885 0.316406 13.0006 0.316406C12.9127 0.316406 12.8257 0.333721 12.7444 0.367361C12.6632 0.401001 12.5894 0.450308 12.5273 0.512467L0.527277 12.5125C0.464791 12.5744 0.415195 12.6482 0.381349 12.7294C0.347504 12.8107 0.330078 12.8978 0.330078 12.9858C0.330078 13.0738 0.347504 13.1609 0.381349 13.2422C0.415195 13.3234 0.464791 13.3972 0.527277 13.4591C0.589252 13.5216 0.662986 13.5712 0.744226 13.6051C0.825465 13.6389 0.912602 13.6563 1.00061 13.6563C1.08862 13.6563 1.17576 13.6389 1.25699 13.6051C1.33823 13.5712 1.41197 13.5216 1.47394 13.4591L4.53394 10.3925C6.44901 12.1133 8.84096 13.2128 11.3939 13.5458C11.4827 13.5524 11.5718 13.5524 11.6606 13.5458C12.1513 13.5484 12.6259 13.3704 12.9939 13.0458C13.2049 12.8572 13.3733 12.6259 13.4883 12.3673C13.6032 12.1088 13.6619 11.8288 13.6606 11.5458V9.5458C13.6571 9.07927 13.4905 8.62865 13.1898 8.27194C12.8891 7.91523 12.4732 7.67488 12.0139 7.59247ZM12.3339 11.5925C12.3338 11.6871 12.3135 11.7807 12.2745 11.8669C12.2354 11.9531 12.1784 12.03 12.1073 12.0925C12.0344 12.1569 11.9483 12.2046 11.855 12.2323C11.7617 12.2599 11.6635 12.2668 11.5673 12.2525C9.30254 11.9561 7.17938 10.9851 5.47394 9.4658L6.65394 8.2858C7.33365 8.8783 8.09192 9.3741 8.90728 9.75913C8.9886 9.79305 9.07583 9.81052 9.16394 9.81052C9.25205 9.81052 9.33929 9.79305 9.42061 9.75913C9.50375 9.72939 9.58016 9.68344 9.64539 9.62392C9.71062 9.56441 9.76338 9.49254 9.80061 9.41247L10.2139 8.47247C10.5618 8.60152 10.9182 8.70622 11.2806 8.7858H11.3539L11.8139 8.87247C11.9643 8.90633 12.0983 8.99127 12.1931 9.11282C12.288 9.23437 12.3377 9.38503 12.3339 9.53913V11.5925Z" fill="#F2323F"/>
</svg>
