<svg fill="none" height="24" viewBox="0 0 24 24" width="24" xmlns="http://www.w3.org/2000/svg"><g clip-rule="evenodd" fill="#9e9e9e" fill-rule="evenodd"><path d="m12 22c.14 0 .27-.01.4-.04.65-.14 1.18-.58 1.44-1.18.1-.24.15-.5.15-.78h-4c.01 1.1.9 2 2.01 2z"/><path d="m9.9201 3.27485c.3493-.64691 1.0175-1.27485 2.0799-1.27485s1.7306.62794 2.0799 1.27485c.1411.2612.2387.53599.3041.79979 1.7896.31261 2.9363 1.56331 3.611 2.91675.7643 1.53341 1.005 3.32341 1.005 4.50861v3.6972l1.8321 2.7481c.2045.3069.2236.7014.0496 1.0266-.174.3251-.5129.5281-.8817.5281h-16c-.36879 0-.70765-.203-.88167-.5281-.17402-.3252-.15495-.7197.04962-1.0266l1.83205-2.7481v-3.6972c0-2.79829.8123-4.69257 1.96667-5.89311.82873-.86188 1.79215-1.32102 2.64309-1.50664.06536-.27158.16472-.55573.31034-.8254zm-2.9201 12.22515c0 .1974-.05844.3904-.16795.5547l-.96353 1.4453h12.26298l-.9635-1.4453c-.1096-.1643-.168-.3573-.168-.5547v-4c0-.9815-.2093-2.44146-.795-3.61639-.5702-1.14401-1.4098-1.88361-2.705-1.88361-.5523 0-1-.44772-1-1 0-.22121-.0558-.5451-.1799-.77485-.0569-.1053-.1101-.15769-.1462-.18249-.0261-.01797-.0714-.04266-.1739-.04266s-.1478.02469-.1739.04266c-.0361.0248-.0893.07719-.1462.18249-.1241.22975-.1799.55364-.1799.77485 0 .55228-.4477 1-1 1-.4943 0-1.3537.22563-2.09167.99311-.72063.74946-1.40833 2.10518-1.40833 4.50689z"/></g></svg>