<svg fill="none" height="24" viewBox="0 0 24 24" width="24" xmlns="http://www.w3.org/2000/svg"><path d="m19 6.5h-3v-1c0-.79565-.3161-1.55871-.8787-2.12132s-1.3257-.87868-2.1213-.87868h-2c-.7956 0-1.55871.31607-2.12132.87868s-.87868 1.32567-.87868 2.12132v1h-3c-.79565 0-1.55871.31607-2.12132.87868s-.87868 1.32567-.87868 2.12132v9c0 .7956.31607 1.5587.87868 2.1213s1.32567.8787 2.12132.8787h14c.7956 0 1.5587-.3161 2.1213-.8787s.8787-1.3257.8787-2.1213v-9c0-.79565-.3161-1.55871-.8787-2.12132s-1.3257-.87868-2.1213-.87868zm-9-1c0-.26522.1054-.51957.2929-.70711.1875-.18753.4419-.29289.7071-.29289h2c.2652 0 .5196.10536.7071.29289.1875.18754.2929.44189.2929.70711v1h-4zm10 13c0 .2652-.1054.5196-.2929.7071s-.4419.2929-.7071.2929h-14c-.26522 0-.51957-.1054-.70711-.2929-.18753-.1875-.29289-.4419-.29289-.7071v-5.5c2.54626 1.0101 5.26069 1.5293 8 1.53 2.7392-.0017 5.4535-.5208 8-1.53zm0-7.69c-2.5216 1.1078-5.2458 1.6798-8 1.6798-2.75421 0-5.4784-.572-8-1.6798v-1.31c0-.26522.10536-.51957.29289-.70711.18754-.18753.44189-.29289.70711-.29289h14c.2652 0 .5196.10536.7071.29289.1875.18754.2929.44189.2929.70711z" fill="#9e9e9e"/></svg>