<svg fill="none" height="24" viewBox="0 0 24 24" width="24" xmlns="http://www.w3.org/2000/svg"><path d="m12.29 5.21 1.5 1.5c.093.09373.2036.16812.3254.21889.1219.05077.2526.07691.3846.07691s.2627-.02614.3846-.07691c.1218-.05077.2324-.12516.3254-.21889.1518-.1593.2467-.36419.2703-.58295.0235-.21875-.0258-.43915-.1403-.62705h3.66c.2652 0 .5196-.10536.7071-.29289.1875-.18754.2929-.44189.2929-.70711s-.1054-.51957-.2929-.70711c-.1875-.18753-.4419-.29289-.7071-.29289h-3.66c.1145-.1879.1638-.4083.1403-.62705-.0236-.21876-.1185-.42365-.2703-.58295-.093-.09373-.2036-.16812-.3254-.21889-.1219-.05077-.2526-.07691-.3846-.07691s-.2627.02614-.3846.07691c-.1218.05077-.2324.12516-.3254.21889l-1.5 1.5c-.091.0951-.1624.20725-.21.33-.1.24346-.1.51654 0 .76.0476.12275.119.2349.21.33zm10.63 3.91c-.0476-.12275-.119-.2349-.21-.33l-1.5-1.5c-.093-.09373-.2036-.16812-.3254-.21889-.1219-.05077-.2526-.07691-.3846-.07691s-.2627.02614-.3846.07691c-.1218.05077-.2324.12516-.3254.21889-.1518.1593-.2467.36419-.2703.58295-.0235.21875.0258.43915.1403.62705h-3.66c-.2652 0-.5196.10536-.7071.29289-.1875.18754-.2929.44189-.2929.70711s.1054.5196.2929.7071.4419.2929.7071.2929h3.66c-.1145.1879-.1638.4083-.1403.6271.0236.2187.1185.4236.2703.5829.093.0937.2036.1681.3254.2189.1219.0508.2526.0769.3846.0769s.2627-.0261.3846-.0769c.1218-.0508.2324-.1252.3254-.2189l1.5-1.5c.091-.0951.1624-.2072.21-.33.1-.24346.1-.51654 0-.76zm-11.92.88c-.7911 0-1.56448.2346-2.22228.6741s-1.17049 1.0643-1.47324 1.7952-.38196 1.5351-.22762 2.3111c.15434.7759.5353 1.4886 1.09471 2.048s1.27215.9404 2.04803 1.0947c.776.1544 1.5802.0752 2.3111-.2276.7309-.3027 1.3557-.8154 1.7952-1.4732s.6741-1.4312.6741-2.2223c0-1.0609-.4214-2.0783-1.1716-2.8284-.7501-.7502-1.7675-1.1716-2.8284-1.1716zm0 6c-.3956 0-.7822-.1173-1.11114-.3371-.3289-.2197-.58524-.5321-.73662-.8975-.15137-.3655-.19098-.7676-.11381-1.1556.07717-.3879.26765-.7443.54736-1.024.2797-.2797.63611-.4702 1.02401-.5474.388-.0771.7901-.0375 1.1556.1138.3654.1514.6778.4078.8975.7367.2198.3289.3371.7155.3371 1.1111 0 .5304-.2107 1.0391-.5858 1.4142s-.8838.5858-1.4142.5858zm9-3c-.2652 0-.5196.1054-.7071.2929s-.2929.4419-.2929.7071v5c0 .2652-.1054.5196-.2929.7071s-.4419.2929-.7071.2929h-14c-.26522 0-.51957-.1054-.70711-.2929-.18753-.1875-.29289-.4419-.29289-.7071v-8c0-.2652.10536-.5196.29289-.7071.18754-.1875.44189-.2929.70711-.2929h2c.21932.0107.43607-.05102.6168-.17572.18073-.12471.31539-.30543.3832-.51428l.54-1.62c.06251-.19261.18202-.36171.34273-.48492.16071-.1232.35503-.19472.55727-.20508h1.56c.2652 0 .5196-.10536.7071-.29289.1875-.18754.2929-.44189.2929-.70711s-.1054-.51957-.2929-.70711c-.1875-.18753-.4419-.29289-.7071-.29289h-1.56c-.63139-.00023-1.24676.19877-1.75848.56864-.51171.36987-.89368.89176-1.09152 1.49136l-.31.94h-1.28c-.79565 0-1.55871.31607-2.12132.87868s-.87868 1.32572-.87868 2.12132v8c0 .7956.31607 1.5587.87868 2.1213s1.32567.8787 2.12132.8787h14c.7956 0 1.5587-.3161 2.1213-.8787s.8787-1.3257.8787-2.1213v-5c0-.2652-.1054-.5196-.2929-.7071s-.4419-.2929-.7071-.2929z" fill="#9e9e9e"/></svg>