<svg fill="none" height="24" viewBox="0 0 24 24" width="24" xmlns="http://www.w3.org/2000/svg"><path d="m12 2c-1.9395.00369-3.83613.57131-5.45878 1.63374-1.62266 1.06243-2.90134 2.5738-3.68029 4.35003-.77896 1.77623-1.02457 3.74063-.70692 5.65403.31765 1.9133 1.18486 3.693 2.49598 5.1222.93642 1.015 2.07294 1.8251 3.33794 2.3792 1.26499.5541 2.63107.8401 4.01207.8401s2.7471-.286 4.012-.8401c1.265-.5541 2.4016-1.3642 3.338-2.3792 1.3111-1.4292 2.1783-3.2089 2.496-5.1222.3176-1.9134.072-3.8778-.707-5.65403-.7789-1.77623-2.0576-3.2876-3.6802-4.35003-1.6227-1.06243-3.5193-1.63005-5.4588-1.63374zm0 18c-2.07155-.0031-4.0611-.8097-5.55001-2.25.45204-1.1005 1.22103-2.0417 2.20925-2.7041s2.15106-1.0161 3.34076-1.0161 2.3525.3537 3.3407 1.0161c.9883.6624 1.7572 1.6036 2.2093 2.7041-1.4889 1.4403-3.4785 2.2469-5.55 2.25zm-2.00001-10c0-.39556.11731-.78224.33701-1.11114.2198-.3289.5322-.58524.8976-.73662.3655-.15137.7676-.19098 1.1556-.11381.3879.07717.7443.26765 1.024.54736.2797.2797.4702.63607.5474 1.02403.0771.38796.0375.79008-.1139 1.15558-.1513.3654-.4077.6778-.7366.8975-.3289.2198-.7156.3371-1.1111.3371-.5304 0-1.0392-.2107-1.4142-.5858-.3751-.3751-.58581-.8838-.58581-1.4142zm8.91001 6c-.8935-1.5282-2.2686-2.717-3.91-3.38.5092-.5773.8409-1.2893.9555-2.0506.1145-.76118.007-1.53929-.3098-2.2409-.3167-.70162-.8291-1.29694-1.4758-1.71453-.6467-.4176-1.4001-.63972-2.1699-.63972s-1.5232.22212-2.16992.63972c-.64668.41759-1.15912 1.01291-1.47584 1.71453-.31672.70161-.42427 1.47972-.30972 2.2409.11454.7613.4463 1.4733.95547 2.0506-1.6414.663-3.01653 1.8518-3.91 3.38-.71206-1.2129-1.08828-2.5935-1.09-4 0-2.12173.84285-4.15656 2.34314-5.65685 1.50029-1.5003 3.53513-2.34315 5.65687-2.34315 2.1217 0 4.1566.84285 5.6568 2.34315 1.5003 1.50029 2.3432 3.53512 2.3432 5.65685-.0017 1.4065-.378 2.7871-1.09 4z" fill="#9e9e9e"/></svg>