<svg fill="none" height="24" viewBox="0 0 24 24" width="24" xmlns="http://www.w3.org/2000/svg"><path d="m19 2h-14c-.79565 0-1.55871.31607-2.12132.87868s-.87868 1.32567-.87868 2.12132v14c0 .7956.31607 1.5587.87868 2.1213s1.32567.8787 2.12132.8787h14c.7956 0 1.5587-.3161 2.1213-.8787s.8787-1.3257.8787-2.1213v-14c0-.79565-.3161-1.55871-.8787-2.12132s-1.3257-.87868-2.1213-.87868zm-9 2h4v3.13l-1.45-1c-.1633-.10753-.3545-.16484-.55-.16484s-.3867.05731-.55.16484l-1.45 1zm10 15c0 .2652-.1054.5196-.2929.7071s-.4419.2929-.7071.2929h-14c-.26522 0-.51957-.1054-.70711-.2929-.18753-.1875-.29289-.4419-.29289-.7071v-14c0-.26522.10536-.51957.29289-.70711.18754-.18753.44189-.29289.70711-.29289h3v5c.00048.1809.05003.35829.14336.51326.09334.15497.22696.28172.38664.36674.15637.08029.33115.11795.50671.10917s.34571-.06368.49329-.15917l2.47-1.63 2.45 1.63c.1504.09905.3248.15565.5047.16381.1799.00819.3586-.03239.5174-.1174.1587-.08501.2916-.21132.3845-.36558s.1425-.33075.1434-.51083v-5h3c.2652 0 .5196.10536.7071.29289.1875.18754.2929.44189.2929.70711z" fill="#9e9e9e"/></svg>