<svg fill="none" height="24" viewBox="0 0 24 24" width="24" xmlns="http://www.w3.org/2000/svg"><path d="m22 7.23999c.0007-.13161-.0245-.26207-.0742-.38391-.0498-.12184-.1231-.23265-.2158-.32609l-4.24-4.24c-.0935-.09269-.2043-.16601-.3261-.21578-.1218-.04976-.2523-.07498-.3839-.07422-.1316-.00076-.2621.02446-.3839.07422-.1219.04977-.2327.12309-.3261.21578l-2.83 2.83-10.93001 10.93001c-.09269.0934-.16601.2042-.21578.3261-.04976.1218-.07498.2523-.07422.3839v4.24c0 .2652.10535.5196.29289.7071s.44189.2929.70711.2929h4.24c.13992.0076.27989-.0143.41082-.0642.13092-.05.24989-.1269.34918-.2258l10.87001-10.93 2.84-2.78001c.0913-.09692.1656-.20847.22-.33.0096-.07971.0096-.16029 0-.24.0047-.04655.0047-.09345 0-.14zm-15.17001 12.76001h-2.83v-2.83l9.93001-9.93001 2.83 2.83001zm11.34001-11.34001-2.83-2.83 1.42-1.41 2.82 2.82z" fill="#9e9e9e"/></svg>