<svg fill="none" height="24" viewBox="0 0 24 24" width="24" xmlns="http://www.w3.org/2000/svg"><path d="m7 10c-.19778 0-.39112.0586-.55557.1685s-.29262.2661-.36831.4488-.09549.3838-.05691.5778c.03859.194.13383.3722.27368.512.13986.1399.31804.2351.51202.2737s.39505.0188.57777-.0569c.18273-.0757.33891-.2039.44879-.3683.10988-.1645.16853-.3578.16853-.5556 0-.2652-.10536-.5196-.29289-.7071-.18754-.1875-.44189-.2929-.70711-.2929zm12-4h-1v-3c0-.26522-.1054-.51957-.2929-.70711-.1875-.18753-.4419-.29289-.7071-.29289h-10c-.26522 0-.51957.10536-.70711.29289-.18753.18754-.29289.44189-.29289.70711v3h-1c-.79565 0-1.55871.31607-2.12132.87868s-.87868 1.32567-.87868 2.12132v6c0 .7956.31607 1.5587.87868 2.1213s1.32567.8787 2.12132.8787h1v3c0 .2652.10536.5196.29289.7071.18754.1875.44189.2929.70711.2929h10c.2652 0 .5196-.1054.7071-.2929s.2929-.4419.2929-.7071v-3h1c.7956 0 1.5587-.3161 2.1213-.8787s.8787-1.3257.8787-2.1213v-6c0-.79565-.3161-1.55871-.8787-2.12132s-1.3257-.87868-2.1213-.87868zm-11-2h8v2h-8zm8 16h-8v-4h8zm4-5c0 .2652-.1054.5196-.2929.7071s-.4419.2929-.7071.2929h-1v-1c0-.2652-.1054-.5196-.2929-.7071s-.4419-.2929-.7071-.2929h-10c-.26522 0-.51957.1054-.70711.2929-.18753.1875-.29289.4419-.29289.7071v1h-1c-.26522 0-.51957-.1054-.70711-.2929-.18753-.1875-.29289-.4419-.29289-.7071v-6c0-.26522.10536-.51957.29289-.70711.18754-.18753.44189-.29289.70711-.29289h14c.2652 0 .5196.10536.7071.29289.1875.18754.2929.44189.2929.70711z" fill="#9e9e9e"/></svg>