<svg fill="none" height="24" viewBox="0 0 24 24" width="24" xmlns="http://www.w3.org/2000/svg"><path d="m7.78333 4.1284c.26646-.1186.56938-.12853.84318-.02764.2738.10088.49645.30446.61974.56667.1233.26221.13733.56194.03904.83431-.09829.27236-.30097.49545-.56418.62096-1.60617.73849-2.90954 1.99773-3.69443 3.56936-.7849 1.57164-1.00428 3.36144-.62185 5.07334.38242 1.7118 1.34374 3.2431 2.72489 4.3405s3.09938 1.695 4.87028 1.6941c1.7687-.0004 3.4843-.5978 4.8639-1.6936 1.3795-1.0957 2.3405-2.6243 2.7243-4.3335.3839-1.7093.1677-3.497-.6129-5.0682s-2.079-2.83198-3.6809-3.5743c-.1322-.06125-.2509-.14768-.3493-.25435-.0985-.10667-.1748-.23149-.2245-.36734-.1004-.27437-.0867-.57699.0383-.84131.1249-.26431.3508-.46867.628-.5681.2771-.09943.5828-.0858.8498.0379 1.7226.79704 3.1798 2.06396 4.2006 3.65209 1.0208 1.58814 1.5629 3.43161 1.5627 5.31401 0 5.467-4.4778 9.8967-10 9.8967-5.52222 0-10-4.4308-10-9.8956-.00038-1.8863.5438-3.73333 1.56844-5.32361 1.02463-1.59027 2.48702-2.8575 4.21489-3.65239zm4.21667-3.1284c.2721.00004.5348.09895.7382.27799.2034.17903.3333.42573.3651.69331l.0078.1287v7.7c0 .2805-.1083.5503-.3026.7544s-.46.327-.7428.3436c-.2828.0165-.5613-.0745-.7786-.2544-.2173-.18-.357-.4353-.3904-.7138l-.0078-.1298v-7.7c0-.29174.1171-.57153.3254-.77782.2084-.20629.491-.32218.7857-.32218z" fill="#9e9e9e"/></svg>