<svg fill="none" height="24" viewBox="0 0 24 24" width="24" xmlns="http://www.w3.org/2000/svg"><path d="m20 13.17v-.17c.001-1.07-.2127-2.1293-.6283-3.11522-.4157-.98594-1.0249-1.87847-1.7917-2.62478-.8951-.87102-1.9854-1.51558-3.18-1.88h-.05c-.8375-.26387-1.7119-.39216-2.59-.38-2.09159.1148-4.0602 1.02476-5.50282 2.5436-1.44261 1.51883-2.2501 3.5317-2.25716 5.6264-.66833.2351-1.23189.6991-1.59087 1.3099-.35897.6109-.49019 1.329-.37042 2.0273.11978.6983.48281 1.3316 1.02482 1.7879.542.4562 1.22799.706 1.93647.7049h13.99998c.7085.0011 1.3945-.2487 1.9365-.7049.542-.4563.905-1.0896 1.0248-1.7879s-.0114-1.4164-.3704-2.0273c-.359-.6108-.9225-1.0748-1.5909-1.3099zm-1 3.83h-13.99998c-.26522 0-.51957-.1054-.70711-.2929-.18753-.1875-.29289-.4419-.29289-.7071s.10536-.5196.29289-.7071c.18754-.1875.44189-.2929.70711-.2929h2c.26522 0 .51957-.1054.70711-.2929.18753-.1875.29289-.4419.29289-.7071s-.10536-.5196-.29289-.7071c-.18754-.1875-.44189-.2929-.70711-.2929h-1c.04561-1.0372.34246-2.0478.86504-2.9449.52258-.89707 1.25523-1.65381 2.13496-2.2051v3.15c0 .2652.10536.5196.29289.7071.18754.1875.44189.2929.70709.2929s.5196-.1054.7071-.2929c.1876-.1875.2929-.4419.2929-.7071v-3.91c.2715-.04535.5452-.0754.82-.09h.18c.3357.00307.6704.03654 1 .1v3.9c0 .2652.1054.5196.2929.7071s.4419.2929.7071.2929.5196-.1054.7071-.2929c.1876-.1875.2929-.4419.2929-.7071v-3.18c.4242.24562.82.53739 1.18.87.5766.55989 1.0348 1.22992 1.3474 1.9703.3127.7404.4734 1.536.4726 2.3397h-1c-.2652 0-.5196.1054-.7071.2929s-.2929.4419-.2929.7071.1054.5196.2929.7071.4419.2929.7071.2929h2c.2652 0 .5196.1054.7071.2929.1876.1875.2929.4419.2929.7071s-.1053.5196-.2929.7071c-.1875.1875-.4419.2929-.7071.2929z" fill="#9e9e9e"/></svg>