<svg fill="none" height="24" viewBox="0 0 24 24" width="24" xmlns="http://www.w3.org/2000/svg"><path d="m21.15 2.86001c-.3821-.38944-.8665-.66278-1.3974-.78843-.5309-.12564-1.0865-.09845-1.6026.07843l-14.15001 4.73c-.57069.1868-1.06931.54615-1.42705 1.02844-.35773.48228-.55694 1.06373-.57011 1.66406-.01317.60029.16035 1.18999.49659 1.68749s.81862.8784 1.38057 1.09l5.24 2c.11932.0456.22796.1154.31914.2048.09119.0895.16297.1968.21086.3152l2.00001 5.25c.2036.554.573 1.0318 1.058 1.3682.4849.3364 1.0618.5151 1.652.5118h.07c.601-.0109 1.1835-.2097 1.6659-.5683.4824-.3587.8405-.8593 1.0241-1.4317l4.73-14.16999c.172-.51106.1976-1.06006.0739-1.58491-.1237-.52486-.3918-1.00464-.7739-1.38509zm-1.15 2.34-4.78 14.17999c-.0555.1795-.167.3365-.3181.448-.1512.1116-.3341.1719-.5219.172-.1868.0031-.37-.0508-.5254-.1544s-.2756-.252-.3446-.4256l-2-5.25c-.145-.3815-.3686-.7282-.6563-1.0176s-.6331-.5151-1.01371-.6624l-5.25-2c-.17711-.0649-.32935-.1838-.43522-.3399-.10587-.15611-.16001-.34154-.15478-.53009.00015-.18786.06041-.37073.17197-.52188.11156-.15114.26856-.26262.44803-.31812l14.18001-4.73c.1628-.06635.3413-.08413.514-.05118.1727.03296.3322.11523.4591.23687s.2159.27744.2562.44857c.0402.17113.0301.35026-.0293.51574z" fill="#9e9e9e"/></svg>