<svg fill="none" height="24" viewBox="0 0 24 24" width="24" xmlns="http://www.w3.org/2000/svg"><path d="m18.54 9-9.66003-5.54c-.52272-.30184-1.116-.45997-1.71961-.45831-.6036.00166-1.19601.16304-1.71706.46774-.52105.30471-.95218.74189-1.24958 1.26714-.29741.52525-.45051 1.11986-.44375 1.72343v11.12c0 .907.36032 1.7769 1.0017 2.4183.64137.6414 1.51126 1.0017 2.4183 1.0017.60044-.001 1.19009-.1596 1.71-.46l9.66003-5.54c.519-.3004.95-.732 1.2496-1.2516.2995-.5195.4572-1.1087.4572-1.7084s-.1577-1.1889-.4572-1.7084c-.2996-.51957-.7306-.95119-1.2496-1.2516zm-1 4.19-9.66003 5.62c-.21651.1227-.46113.1872-.71.1872s-.49349-.0645-.71-.1872c-.2159-.1247-.39518-.304-.51982-.5199-.12463-.2159-.19022-.4608-.19018-.7101v-11.16c-.00004-.24931.06555-.49423.19018-.71014.12464-.21592.30392-.39521.51982-.51986.21741-.12085.4613-.18611.71-.19.24853.0051.49214.07029.71.19l9.66003 5.58c.216.1246.3953.3039.52.5198s.1904.4609.1904.7102-.0657.4943-.1904.7102-.304.3952-.52.5198z" fill="#9e9e9e"/></svg>