<svg fill="none" height="24" viewBox="0 0 24 24" width="24" xmlns="http://www.w3.org/2000/svg"><path d="m10.29 11.71c.093.0937.2036.1681.3254.2189.1219.0508.2526.0769.3846.0769s.2627-.0261.3846-.0769c.1218-.0508.2324-.1252.3254-.2189l4-4c.0932-.09324.1672-.20393.2177-.32575.0504-.12182.0764-.25239.0764-.38425s-.026-.26243-.0764-.38425c-.0505-.12182-.1245-.23251-.2177-.32575s-.2039-.1672-.3258-.21766c-.1218-.05046-.2523-.07643-.3842-.07643s-.2624.02597-.3842.07643c-.1219.05046-.2326.12442-.3258.21766l-3.29 3.3-1.29-1.3c-.1883-.1883-.4437-.29409-.71-.29409s-.5217.10579-.71.29409-.29409.4437-.29409.71.10579.5217.29409.71zm10.71 2.29h-1v-10h1c.2652 0 .5196-.10536.7071-.29289.1875-.18754.2929-.44189.2929-.70711s-.1054-.51957-.2929-.70711c-.1875-.18753-.4419-.29289-.7071-.29289h-18c-.26522 0-.51957.10536-.70711.29289-.18753.18754-.29289.44189-.29289.70711s.10536.51957.29289.70711c.18754.18753.44189.29289.70711.29289h1v10h-1c-.26522 0-.51957.1054-.70711.2929-.18753.1875-.29289.4419-.29289.7071s.10536.5196.29289.7071c.18754.1875.44189.2929.70711.2929h8v1.15l-4.55 3c-.18667.1155-.33012.2893-.40823.4945-.07811.2051-.08654.4303-.02398.6407.06256.2105.19263.3945.37014.5237.17751.1291.3926.1963.61207.1911.1966.0022.38896-.0572.55-.17l3.45-2.28v1.45c0 .2652.1054.5196.2929.7071s.4419.2929.7071.2929.5196-.1054.7071-.2929.2929-.4419.2929-.7071v-1.45l3.45 2.28c.161.1128.3534.1722.55.17.2136-.0016.4212-.0717.5921-.1998.171-.1282.2964-.3077.3579-.5123.0615-.2047.0558-.4236-.0162-.6248-.0719-.2011-.2065-.3739-.3838-.4931l-4.55-3v-1.17h8c.2652 0 .5196-.1054.7071-.2929s.2929-.4419.2929-.7071-.1054-.5196-.2929-.7071-.4419-.2929-.7071-.2929zm-3 0h-12v-10h12z" fill="#9e9e9e"/></svg>