<svg fill="none" height="24" viewBox="0 0 24 24" width="24" xmlns="http://www.w3.org/2000/svg"><path d="m19 6.50002h-1.28l-.32-1c-.2074-.58677-.5923-1.09449-1.1011-1.45284-.5088-.35834-1.1165-.54956-1.7389-.54716h-5.12c-.62845.00118-1.24067.19969-1.75023.56751-.50957.36782-.89076.88638-1.08977 1.48249l-.32 1h-1.28c-.79565 0-1.55871.31607-2.12132.87868s-.87868 1.32567-.87868 2.12132v7.99998c0 .7957.31607 1.5587.87868 2.1213.56261.5627 1.32567.8787 2.12132.8787h14c.7956 0 1.5587-.316 2.1213-.8787.5626-.5626.8787-1.3256.8787-2.1213v-7.99998c.0066-.39815-.0661-.79364-.2138-1.16341-.1478-.36977-.3678-.70641-.647-.9903-.2792-.2839-.6122-.50936-.9795-.66324s-.7615-.2331-1.1597-.23305zm1 10.99998c0 .2652-.1054.5196-.2929.7071-.1875.1876-.4419.2929-.7071.2929h-14c-.26522 0-.51957-.1053-.70711-.2929-.18753-.1875-.29289-.4419-.29289-.7071v-7.99998c0-.26521.10536-.51957.29289-.7071.18754-.18754.44189-.2929.70711-.2929h2c.21807.01138.43386-.04892.61443-.17171s.31599-.30131.38557-.50829l.54-1.64c.06709-.19862.1949-.37113.36537-.49316.17047-.12202.37499-.18738.58463-.18684h5.12c.2096-.00054.4142.06482.5846.18684.1705.12203.2983.29454.3654.49316l.54 1.64c.0642.19075.1844.35769.345.47901.1605.12132.354.19137.555.20099h2c.2652 0 .5196.10536.7071.2929.1875.18753.2929.44189.2929.7071zm-8-8.99998c-.7911 0-1.5645.2346-2.22228.67412-.6578.43953-1.17049 1.06426-1.47324 1.79516s-.38196 1.5352-.22762 2.3111.5353 1.4886 1.09471 2.048c.55941.5595 1.27213.9404 2.04803 1.0948.776.1543 1.5802.0751 2.3111-.2277.7309-.3027 1.3557-.8154 1.7952-1.4732s.6741-1.4312.6741-2.2223c0-1.0608-.4214-2.0783-1.1716-2.8284-.7501-.75015-1.7675-1.17158-2.8284-1.17158zm0 5.99998c-.3956 0-.7822-.1173-1.1111-.337-.3289-.2198-.5853-.5322-.7367-.8976-.1513-.3655-.19094-.7676-.1138-1.1556.0772-.3879.2677-.7443.5474-1.024s.6361-.4702 1.024-.5473c.388-.0772.7901-.0376 1.1556.1138.3654.1513.6778.4077.8975.7366.2198.3289.3371.7156.3371 1.1111 0 .5305-.2107 1.0392-.5858 1.4142-.3751.3751-.8838.5858-1.4142.5858z" fill="#9e9e9e"/></svg>