<svg fill="none" height="24" viewBox="0 0 24 24" width="24" xmlns="http://www.w3.org/2000/svg"><path d="m20 10.5c-.2652 0-.5196.1054-.7071.2929s-.2929.4419-.2929.7071v7c0 .2652-.1054.5196-.2929.7071s-.4419.2929-.7071.2929h-14c-.26522 0-.51957-.1054-.70711-.2929-.18753-.1875-.29289-.4419-.29289-.7071v-8c0-.2652.10536-.51957.29289-.70711.18754-.18753.44189-.29289.70711-.29289h2c.21807.01138.43386-.04893.61443-.17171.18057-.12279.31599-.30131.38557-.50829l.54-1.64c.06709-.19862.1949-.37113.36537-.49316.17047-.12202.37499-.18738.58463-.18684h5.51c.2652 0 .5196-.10536.7071-.29289.1875-.18754.2929-.44189.2929-.70711s-.1054-.51957-.2929-.70711c-.1875-.18753-.4419-.29289-.7071-.29289h-5.56c-.62845.00118-1.24067.19968-1.75023.56751-.50957.36782-.89076.88638-1.08977 1.48249l-.32 1h-1.28c-.79565 0-1.55871.31607-2.12132.87868s-.87868 1.32567-.87868 2.12132v8c0 .7956.31607 1.5587.87868 2.1213s1.32567.8787 2.12132.8787h14c.7956 0 1.5587-.3161 2.1213-.8787s.8787-1.3257.8787-2.1213v-7c.0068-.1355-.0141-.2709-.0613-.3981-.0472-.1271-.1198-.2433-.2133-.3416-.0936-.0982-.2061-.1763-.3308-.2297-.1247-.0533-.259-.0808-.3946-.0806zm-9-1c-.7911 0-1.56448.2346-2.22228.6741s-1.17049 1.0643-1.47324 1.7952-.38196 1.5351-.22762 2.3111c.15434.7759.5353 1.4886 1.09471 2.048s1.27215.9404 2.04803 1.0947c.776.1544 1.5802.0752 2.3111-.2276.7309-.3027 1.3557-.8154 1.7952-1.4732s.6741-1.4312.6741-2.2223c0-1.0609-.4214-2.0783-1.1716-2.8284-.7501-.75017-1.7675-1.1716-2.8284-1.1716zm0 6c-.3956 0-.7822-.1173-1.11114-.3371-.3289-.2197-.58524-.5321-.73662-.8975-.15137-.3655-.19098-.7676-.11381-1.1556.07717-.3879.26765-.7443.54736-1.024.2797-.2797.63611-.4702 1.02401-.5474.388-.0771.7901-.0375 1.1556.1138.3654.1514.6778.4078.8975.7367.2198.3289.3371.7155.3371 1.1111 0 .5304-.2107 1.0391-.5858 1.4142s-.8838.5858-1.4142.5858zm11-11h-1v-1c0-.26522-.1054-.51957-.2929-.70711-.1875-.18753-.4419-.29289-.7071-.29289s-.5196.10536-.7071.29289c-.1875.18754-.2929.44189-.2929.70711v1h-1c-.2652 0-.5196.10536-.7071.29289-.1875.18754-.2929.44189-.2929.70711s.1054.51957.2929.70711c.1875.18753.4419.29289.7071.29289h1v1c0 .26522.1054.51957.2929.70711.1875.18753.4419.29289.7071.29289s.5196-.10536.7071-.29289c.1875-.18754.2929-.44189.2929-.70711v-1h1c.2652 0 .5196-.10536.7071-.29289.1875-.18754.2929-.44189.2929-.70711s-.1054-.51957-.2929-.70711c-.1875-.18753-.4419-.29289-.7071-.29289z" fill="#9e9e9e"/></svg>