<svg fill="none" height="24" viewBox="0 0 24 24" width="24" xmlns="http://www.w3.org/2000/svg"><path d="m19.63 3.65c-.1162-.09398-.2519-.16073-.3973-.19534s-.2966-.0362-.4427-.00466c-1.0686.22394-2.1717.2268-3.2414.00838-1.0697-.21841-2.0833-.65347-2.9786-1.27838-.1674-.11613-.3663-.17836-.57-.17836s-.4026.06223-.57.17836c-.8952.62491-1.90892 1.05997-2.97863 1.27838-1.06971.21842-2.1728.21556-3.24136-.00838-.14607-.03154-.29734-.02995-.4427.00466-.14537.03461-.28113.10136-.3973.19534-.11602.09412-.20948.21304-.27351.34802-.06403.13497-.097.28258-.09649.43198v7.45c-.00089 1.4337.34077 2.847.99653 4.122s1.60665 2.3748 2.77347 3.208l3.64999 2.6c.1694.1206.3721.1854.58.1854s.4106-.0648.58-.1854l3.65-2.6c1.1668-.8332 2.1177-1.933 2.7735-3.208.6557-1.275.9974-2.6883.9965-4.122v-7.45c.0005-.1494-.0325-.29701-.0965-.43198-.064-.13498-.1575-.2539-.2735-.34802zm-1.63 8.23c.0008 1.1148-.2647 2.2136-.7743 3.205-.5097.9915-1.2487 1.8468-2.1557 2.495l-3.07 2.19-3.06999-2.19c-.90697-.6482-1.64602-1.5035-2.15566-2.495-.50963-.9914-.77511-2.0902-.77434-3.205v-6.3c2.09642.17943 4.19599-.30698 5.99999-1.39 1.804 1.08302 3.9036 1.56943 6 1.39z" fill="#9e9e9e"/></svg>