<svg fill="none" height="24" viewBox="0 0 24 24" width="24" xmlns="http://www.w3.org/2000/svg"><g fill="#9e9e9e"><path d="m7 6c0 .55228-.44772 1-1 1s-1-.44772-1-1 .44772-1 1-1 1 .44772 1 1z"/><path clip-rule="evenodd" d="m4 1c-1.65685 0-3 1.34315-3 3v4c0 1.65685 1.34315 3 3 3h4c1.65685 0 3-1.34315 3-3v-4c0-1.65685-1.34315-3-3-3zm-1 3c0-.55228.44772-1 1-1h4c.55228 0 1 .44772 1 1v4c0 .55228-.44772 1-1 1h-4c-.55228 0-1-.44772-1-1z" fill-rule="evenodd"/><path d="m18 7c.5523 0 1-.44772 1-1s-.4477-1-1-1-1 .44772-1 1 .4477 1 1 1z"/><path clip-rule="evenodd" d="m16 1c-1.6569 0-3 1.34315-3 3v4c0 1.65685 1.3431 3 3 3h4c1.6569 0 3-1.34315 3-3v-4c0-1.65685-1.3431-3-3-3zm-1 3c0-.55228.4477-1 1-1h4c.5523 0 1 .44772 1 1v4c0 .55228-.4477 1-1 1h-4c-.5523 0-1-.44772-1-1z" fill-rule="evenodd"/><path d="m7 18c0 .5523-.44772 1-1 1s-1-.4477-1-1 .44772-1 1-1 1 .4477 1 1z"/><path clip-rule="evenodd" d="m1 16c0-1.6569 1.34315-3 3-3h4c1.65685 0 3 1.3431 3 3v4c0 1.6569-1.34315 3-3 3h-4c-1.65685 0-3-1.3431-3-3zm3-1c-.55228 0-1 .4477-1 1v4c0 .5523.44772 1 1 1h4c.55228 0 1-.4477 1-1v-4c0-.5523-.44772-1-1-1z" fill-rule="evenodd"/><path d="m23 17.5c0-.5523-.4477-1-1-1s-1 .4477-1 1v2.5c0 .5523-.4477 1-1 1h-2c-.5523 0-1 .4477-1 1s.4477 1 1 1h2c1.6569 0 3-1.3431 3-3z"/><path d="m18 19c.5523 0 1-.4477 1-1s-.4477-1-1-1-1 .4477-1 1 .4477 1 1 1z"/><path d="m15 14c0-.5523.4477-1 1-1h2c.5523 0 1 .4477 1 1s-.4477 1-1 1h-2c-.5523 0-1-.4477-1-1z"/><path d="m13 20c0 .5523.4477 1 1 1s1-.4477 1-1v-3c0-.5523-.4477-1-1-1s-1 .4477-1 1z"/></g></svg>