<svg fill="none" height="24" viewBox="0 0 24 24" width="24" xmlns="http://www.w3.org/2000/svg" xmlns:xlink="http://www.w3.org/1999/xlink"><clipPath id="a"><path d="m0 0h24v24h-24z"/></clipPath><g clip-path="url(#a)" fill="#9e9e9e"><path d="m23.267 0h-5.6474c-.3873 0-.7013.313972-.7013.701249 0 .387271.314.701251.7013.701251h4.9462v5.36773c0 .38727.314.70125.7012.70125.3873 0 .7013-.31398.7013-.70125v-6.068981c-.0001-.387277-.314-.701249-.7013-.701249z"/><path d="m.737357 7.04993c.387273 0 .701253-.31397.701253-.70125v-4.94618h5.36772c.38728 0 .70125-.31398.70125-.701251 0-.387277-.31397-.701249-.70125-.701249h-6.068973c-.387276 0-.7012481.313972-.7012481.701249v5.647431c0 .38728.3139251.70125.7012481.70125z"/><path d="m6.38041 22.5976h-4.94614v-5.3677c0-.3873-.31398-.7012-.701253-.7012-.387276 0-.7012482.3139-.7012482.7012v6.069c0 .3873.3139722.7012.7012482.7012h5.647433c.38728 0 .70125-.3139.70125-.7012s-.31397-.7013-.70129-.7013z"/><path d="m23.2629 16.9502c-.3873 0-.7013.314-.7013.7013v4.9462h-5.3678c-.3872 0-.7012.3139-.7012.7012s.314.7013.7012.7013h6.069c.3873 0 .7013-.314.7013-.7013v-5.6474c0-.3873-.314-.7013-.7012-.7013z"/><path d="m9.20306 13.9297h-5.66736c-.38727 0-.70125.3139-.70125.7012v5.7974c0 .3872.31398.7012.70125.7012h5.6674c.38728 0 .70125-.314.70125-.7012v-5.7974c-.00005-.3873-.31397-.7012-.70129-.7012zm-.70125 5.7973h-4.26486v-4.3948h4.2649z"/><path d="m9.20312 11.2627h-1.50375c-.38728 0-.70125.314-.70125.7013 0 .3872.31397.7012.70125.7012h1.50375c.38728 0 .70125-.314.70125-.7012 0-.3873-.31393-.7013-.70125-.7013z"/><path d="m3.5357 12.6652h1.48889c.38728 0 .70125-.314.70125-.7012 0-.3873-.31397-.7013-.70125-.7013h-1.48889c-.38727 0-.70125.314-.70125.7013 0 .3872.31398.7012.70125.7012z"/><path d="m12.0027 9.98959c.3873 0 .7012-.31397.7012-.70125v-5.79736c0-.38728-.3139-.70125-.7012-.70125s-.7013.31397-.7013.70125v5.79736c0 .38728.314.70125.7013.70125z"/><path d="m21.1812 20.4283v-3.3504c0-.3873-.314-.7013-.7013-.7013h-3.4443v-1.2183c0-.3873-.314-.7013-.7013-.7013h-3.6304v-1.7918h5.2936v.9783c0 .3872.314.7012.7013.7012s.7012-.314.7012-.7012v-.9783h1.0799c.3873 0 .7013-.314.7013-.7012 0-.3873-.314-.7013-.7013-.7013h-8.4772c-.3873 0-.7013.314-.7013.7013v8.4322c0 .3872.314.7012.7013.7012s.7012-.314.7012-.7012v-1.7677h1.1353c.3872 0 .7012-.3139.7012-.7012s-.314-.7013-.7012-.7013h-1.1353v-1.3665h2.9292v1.2184c0 .3873.3139.7012.7012.7012h3.4444v1.9479h-5.2786c-.3873 0-.7013.314-.7013.7013s.314.7012.7013.7012h5.9798c.3873 0 .7013-.3139.7013-.7012z"/><path d="m9.20306 2.78973h-5.66736c-.38727 0-.70125.31397-.70125.70125v5.79736c0 .38728.31398.70125.70125.70125h5.6674c.38728 0 .70125-.31397.70125-.70125v-5.79736c-.00005-.38728-.31397-.70125-.70129-.70125zm-.70125 5.79736h-4.26486v-4.39486h4.2649z"/><path d="m14.8127 9.98959h5.6674c.3872 0 .7012-.31397.7012-.70125v-5.79736c0-.38728-.314-.70125-.7012-.70125h-5.6674c-.3873 0-.7012.31397-.7012.70125v5.79736c0 .38728.3139.70125.7012.70125zm.7013-5.79736h4.2648v4.39486h-4.2648z"/><path d="m5.82936 18.4626h1.08011c.20556 0 .37222-.1666.37222-.3722v-1.122c0-.2055-.16666-.3722-.37222-.3722h-1.08011c-.20556 0-.37222.1667-.37222.3722v1.122c0 .2056.16666.3722.37222.3722z"/><path d="m5.82936 7.32273h1.08011c.20556 0 .37222-.16666.37222-.37222v-1.12196c0-.20556-.16666-.37222-.37222-.37222h-1.08011c-.20556 0-.37222.16666-.37222.37222v1.12196c0 .2056.16666.37222.37222.37222z"/><path d="m18.1863 5.48642h-1.0801c-.2056 0-.3722.16666-.3722.37222v1.12195c0 .20556.1666.37222.3722.37222h1.0801c.2056 0 .3722-.16666.3722-.37222v-1.12195c0-.20556-.1666-.37222-.3722-.37222z"/></g></svg>