<svg fill="none" height="24" viewBox="0 0 24 24" width="24" xmlns="http://www.w3.org/2000/svg"><path d="m21.71 15.58-4.52-4.51c.0946-.4606.1415-.9298.14-1.39999-.0003-1.28935-.3257-2.55781-.946-3.68812-.6204-1.13031-1.5156-2.08601-2.6031-2.77874-1.0874-.69274-2.332-1.10016-3.6185-1.1846-1.28662-.08445-2.57372.1568-3.74239.70146-.14806.06763-.27737.17039-.37671.29935-.09933.12896-.16568.28022-.19329.44065-.02749.15838-.0164.32106.03234.47425s.1337.29237.24766.40575l4.34999 4.34-1.79999 1.79999-4.34-4.34999c-.11433-.1122-.25394-.19529-.40708-.24228-.15314-.04698-.31533-.05649-.47292-.02772-.15941.02659-.31001.09143-.43889.18896s-.2322.22484-.30111.37104c-.54647 1.1725-.78751 2.46418-.7007 3.75489.08681 1.2907.49865 2.5384 1.19722 3.6272.69856 1.0887 1.66115 1.9831 2.79823 2.6 1.13707.6168 2.41168.936 3.70525.9279.47019.0015.93939-.0454 1.39999-.14l4.51 4.52c.093.0937.2036.1681.3254.2189.1219.0508.2526.0769.3846.0769s.2627-.0261.3846-.0769.2325-.1252.3254-.2189c.0937-.093.1681-.2036.2189-.3254.0508-.1219.0769-.2526.0769-.3846s-.0261-.2627-.0769-.3846c-.0508-.1218-.1252-.2324-.2189-.3254l-4.9-4.9c-.1224-.1216-.2743-.2095-.4408-.2551-.1664-.0455-.3419-.0472-.5092-.0049-.4828.1293-.9802.1965-1.47999.2-.74795.0066-1.48981-.1349-2.18286-.4162-.69304-.2814-1.32356-.6971-1.85525-1.2232-.53168-.5261-.95401-1.1522-1.24267-1.8422-.28865-.6901-.43793-1.4304-.43922-2.17839-.00129-.33499.02547-.66949.08-1l3.92 3.92999c.09297.0937.20357.1681.32543.2189s.25256.0769.38457.0769c.13202 0 .26272-.0261.38458-.0769s.23246-.1252.32542-.2189l3.17999-3.20999c.1803-.18647.281-.43567.281-.69501 0-.25933-.1007-.50853-.281-.69499l-3.88999-3.92c.33059-.05399.66504-.08075 1-.08 1.50209.00264 2.94169.60119 4.00279 1.66423 1.0612 1.06305 1.6572 2.50372 1.6572 4.00577-.0035.49979-.0707.99719-.2 1.47999-.0423.1673-.0406.3428.0049.5092.0456.1665.1335.3184.2551.4408l4.9 4.9c.1883.1883.4437.2941.71.2941s.5217-.1058.71-.2941.2941-.4437.2941-.71-.1058-.5217-.2941-.71z" fill="#9e9e9e"/></svg>