<svg fill="none" height="24" viewBox="0 0 24 24" width="24" xmlns="http://www.w3.org/2000/svg"><path d="m19.92 11.6154c-.0476-.1226-.119-.2346-.21-.3296l-4-3.99609c-.0932-.09314-.2039-.16703-.3258-.21744-.1218-.05041-.2523-.07636-.3842-.07636-.2663 0-.5217.10568-.71.2938s-.2941.44326-.2941.7093.1058.52118.2941.7093l2.3 2.28769h-11.59c-.26522 0-.51957.1053-.70711.2927-.18753.1873-.29289.4414-.29289.7064 0 .2649.10536.519.29289.7064.18754.1873.44189.2926.70711.2926h11.59l-2.3 2.2877c-.0937.0929-.1681.2034-.2189.3251s-.0769.2523-.0769.3842.0261.2625.0769.3842.1252.2322.2189.3251c.093.0936.2036.168.3254.2187.1219.0507.2526.0768.3846.0768s.2627-.0261.3846-.0768c.1218-.0507.2324-.1251.3254-.2187l4-3.996c.091-.0951.1624-.2071.21-.3297.1-.2432.1-.516 0-.7593z" fill="#9e9e9e"/></svg>