<svg fill="none" height="24" viewBox="0 0 24 24" width="24" xmlns="http://www.w3.org/2000/svg"><circle cx="12" cy="12" fill="#bdffd7" r="10"/><path d="m10.6251 12.881 4.5613-4.57182c.1992-.19803.4686-.30918.7495-.30918s.5504.11115.7496.30918c.0997.09884.1788.21643.2327.346.054.12956.0818.26853.0818.40889s-.0278.27933-.0818.40889c-.0539.12956-.133.24716-.2327.346l-5.3161 5.31614c-.1981.1964-.4654.3071-.7443.3083-.1399.0008-.2786-.026-.4082-.0789-.1295-.0529-.24733-.1309-.34668-.2294l-2.49858-2.5092c-.1113-.0953-.20169-.2126-.26551-.3445-.06382-.132-.09968-.2756-.10534-.4221-.00565-.1464.01902-.2924.07247-.4288.05346-.1365.13454-.2604.23815-.364.10362-.1036.22753-.1847.36397-.2382.13644-.0534.28246-.0781.42888-.0724.14643.0056.29011.0415.42201.1053.13191.0638.24921.1542.34452.2655z" fill="#4caf50"/></svg>