<svg fill="none" height="24" viewBox="0 0 24 24" width="24" xmlns="http://www.w3.org/2000/svg"><path d="m21 11c-.2652 0-.5196.1054-.7071.2929s-.2929.4419-.2929.7071c.0119 1.873-.6297 3.6916-1.8143 5.1425-1.1847 1.4508-2.8382 2.4432-4.6757 2.8061-1.8376.3629-3.74422.0737-5.39149-.8178-1.64728-.8916-2.9321-2.3296-3.63318-4.0665-.70108-1.737-.77454-3.664-.20771-5.44922.56683-1.78525 1.73845-3.31695 3.31308-4.3313 1.57463-1.01436 3.4537-1.44787 5.3136-1.22587 1.8598.222 3.5841 1.08561 4.8757 2.44209h-2.4c-.2652 0-.5196.10536-.7071.29289-.1875.18754-.2929.44189-.2929.70711s.1054.51957.2929.70711c.1875.18753.4419.29289.7071.29289h4.53c.2652 0 .5196-.10536.7071-.29289.1875-.18754.2929-.44189.2929-.70711v-4.5c0-.26522-.1054-.51957-.2929-.70711-.1875-.18753-.4419-.29289-.7071-.29289s-.5196.10536-.7071.29289c-.1875.18754-.2929.44189-.2929.70711v1.77c-1.6653-1.59194-3.8292-2.56005-6.126-2.74067-2.2967-.18062-4.58537.43731-6.47908 1.74936s-3.27631 3.23772-3.91409 5.4515c-.63778 2.21381-.49162 4.57991.41378 6.69831.9054 2.1185 2.5145 3.8593 4.55529 4.9283s4.3881 1.4006 6.6451.9387c2.2571-.4619 4.2854-1.689 5.7421-3.4738 1.4568-1.7848 2.2526-4.0179 2.2529-6.3217 0-.2652-.1054-.5196-.2929-.7071s-.4419-.2929-.7071-.2929z" fill="#9e9e9e"/></svg>