<svg fill="none" height="24" viewBox="0 0 24 24" width="24" xmlns="http://www.w3.org/2000/svg"><path clip-rule="evenodd" d="m12 20c4.4183 0 8-3.5817 8-8 0-4.41828-3.5817-8-8-8-4.41828 0-8 3.58172-8 8 0 4.4183 3.58172 8 8 8z" fill="#e8eaed" fill-rule="evenodd"/><path d="m6.72209 4.10104c1.56226-1.04387 3.39901-1.60104 5.27791-1.60104 1.2476 0 2.4829.24572 3.6355.72314s2.1999 1.17719 3.082 2.05935c.8822.88215 1.5819 1.92942 2.0594 3.08202.4774 1.15259.7231 2.38789.7231 3.63549 0 1.8789-.5572 3.7157-1.601 5.2779-1.0439 1.5623-2.5276 2.7799-4.2635 3.499-1.7359.719-3.646.9071-5.4889.5406-1.84277-.3666-3.53551-1.2714-4.86411-2.6s-2.23339-3.0213-2.59995-4.8641c-.36656-1.8429-.17842-3.753.54061-5.48889.71903-1.7359 1.93667-3.2196 3.49894-4.26347zm.55557 14.96646c1.39782.934 3.04124 1.4325 4.72234 1.4325 2.2543 0 4.4164-.8955 6.0104-2.4896 1.5941-1.5941 2.4896-3.7561 2.4896-6.0104 0-1.6811-.4985-3.32453-1.4325-4.72235-.934-1.39781-2.2615-2.48728-3.8147-3.13063-1.5532-.64334-3.2622-.81167-4.9111-.48369-1.6488.32797-3.16336 1.13752-4.3521 2.32626-1.18875 1.18875-1.9983 2.7033-2.32627 4.35211-.32797 1.6489-.15965 3.3579.4837 4.9111.64334 1.5532 1.73281 2.8807 3.13063 3.8147z" fill="#e8eaed" stroke="#d5d7db"/><path clip-rule="evenodd" d="m12 15c1.6569 0 3-1.3431 3-3s-1.3431-3-3-3-3 1.3431-3 3 1.3431 3 3 3z" fill="#babdc2" fill-rule="evenodd"/></svg>