<svg fill="none" height="24" viewBox="0 0 24 24" width="24" xmlns="http://www.w3.org/2000/svg"><path d="m12 2c-1.9778 0-3.91121.58649-5.5557 1.6853-1.64449 1.09882-2.92621 2.6606-3.68309 4.48787-.75688 1.82723-.95491 3.83793-.56906 5.77773s1.33826 3.7216 2.73679 5.1202c1.39852 1.3985 3.18035 2.3509 5.12016 2.7368 1.9398.3858 3.9505.1878 5.7777-.5691 1.8273-.7569 3.3891-2.0386 4.4879-3.6831s1.6853-3.5779 1.6853-5.5557c0-1.3132-.2587-2.61358-.7612-3.82683-.5025-1.21326-1.2391-2.31565-2.1677-3.24424-.9286-.92858-2.031-1.66518-3.2443-2.16773-1.2132-.50254-2.5136-.7612-3.8268-.7612zm0 18c-1.5822 0-3.12896-.4692-4.44456-1.3482-1.31559-.8791-2.34097-2.1285-2.94647-3.5903s-.76393-3.0704-.45525-4.6222c.30868-1.55187 1.07061-2.97733 2.18943-4.09615s2.54428-1.88075 4.09615-2.18943c1.5518-.30868 3.1604-.15026 4.6222.45524 1.4618.60551 2.7112 1.63088 3.5903 2.94648.879 1.31559 1.3482 2.86226 1.3482 4.44456 0 2.1217-.8428 4.1566-2.3431 5.6569-1.5003 1.5002-3.5352 2.3431-5.6569 2.3431zm4-9h-8c-.26521 0-.51957.1054-.7071.2929-.18754.1875-.2929.4419-.2929.7071s.10536.5196.2929.7071c.18753.1875.44189.2929.7071.2929h8c.2652 0 .5196-.1054.7071-.2929s.2929-.4419.2929-.7071-.1054-.5196-.2929-.7071-.4419-.2929-.7071-.2929z" fill="#9e9e9e"/></svg>