<svg fill="none" height="24" viewBox="0 0 24 24" width="24" xmlns="http://www.w3.org/2000/svg"><path d="m14 13c0-.2652-.1054-.5196-.2929-.7071s-.4419-.2929-.7071-.2929h-5c-.26522 0-.51957.1054-.70711.2929-.18753.1875-.29289.4419-.29289.7071s.10536.5196.29289.7071c.18754.1875.44189.2929.70711.2929h5c.2652 0 .5196-.1054.7071-.2929s.2929-.4419.2929-.7071zm-3 7h-5c-.26522 0-.51957-.1054-.70711-.2929-.18753-.1875-.29289-.4419-.29289-.7071v-14c0-.26522.10536-.51957.29289-.70711.18754-.18753.44189-.29289.70711-.29289h5v3c0 .79565.3161 1.55871.8787 2.12132s1.3257.87868 2.1213.87868h3v1c0 .2652.1054.5196.2929.7071s.4419.2929.7071.2929.5196-.1054.7071-.2929.2929-.4419.2929-.7071v-2s0 0 0-.06c-.0093-.09204-.0295-.18266-.06-.27v-.09c-.0455-.10428-.1099-.19922-.19-.28l-6-6c-.0827-.07778-.1772-.14192-.28-.19h-.09c-.0983-.0575-.2071-.09489-.32-.11h-6.06c-.79565 0-1.55871.31607-2.12132.87868s-.87868 1.32567-.87868 2.12132v14c0 .7956.31607 1.5587.87868 2.1213s1.32567.8787 2.12132.8787h5c.2652 0 .5196-.1054.7071-.2929s.2929-.4419.2929-.7071-.1054-.5196-.2929-.7071-.4419-.2929-.7071-.2929zm2-14.59 2.59 2.59h-1.59c-.2652 0-.5196-.10536-.7071-.29289-.1875-.18754-.2929-.44189-.2929-.70711zm7 8.59c-.1935.0013-.3824.0586-.5439.1651-.1616.1065-.2887.2576-.3661.4349-.6294-.3858-1.3518-.5932-2.09-.6-.6474-.0009-1.2854.1553-1.8592.4553-.5737.3-1.0661.7348-1.4348 1.267-.3686.5323-.6026 1.146-.6817 1.7886-.0792.6426-.0012 1.2948.2273 1.9006s.6006 1.1471 1.0843 1.5774c.4838.4303 1.0648.7367 1.6931.8929.6284.1562 1.2852.1576 1.9142.004.6289-.1536 1.2112-.4576 1.6968-.8858.2002-.175.3227-.4225.3406-.6878.0178-.2654-.0706-.527-.2456-.7272s-.4225-.3227-.6878-.3406c-.2654-.0178-.527.0706-.7272.2456-.3631.3252-.8326.5065-1.32.51-.3038-.0049-.6025-.079-.8734-.2165-.2709-.1376-.5069-.3351-.6901-.5776-.1832-.2424-.3087-.5234-.3671-.8216-.0583-.2982-.0479-.6058.0304-.8994.0782-.2936.2224-.5655.4215-.795.1991-.2296.4478-.4107.7274-.5298.2796-.119.5826-.1728.886-.1572.3035.0156.5994.1001.8653.2471h-.22c-.2652 0-.5196.1054-.7071.2929s-.2929.4419-.2929.7071.1054.5196.2929.7071.4419.2929.7071.2929h2.22c.2652 0 .5196-.1054.7071-.2929s.2929-.4419.2929-.7071v-2.25c0-.2652-.1054-.5196-.2929-.7071s-.4419-.2929-.7071-.2929zm-12-4h1c.26522 0 .51957-.10536.70711-.29289.18753-.18754.29289-.44189.29289-.70711s-.10536-.51957-.29289-.70711c-.18754-.18753-.44189-.29289-.70711-.29289h-1c-.26522 0-.51957.10536-.70711.29289-.18753.18754-.29289.44189-.29289.70711s.10536.51957.29289.70711c.18754.18753.44189.29289.70711.29289zm0 6c-.26522 0-.51957.1054-.70711.2929-.18753.1875-.29289.4419-.29289.7071s.10536.5196.29289.7071c.18754.1875.44189.2929.70711.2929h2c.2652 0 .5196-.1054.7071-.2929s.2929-.4419.2929-.7071-.1054-.5196-.2929-.7071-.4419-.2929-.7071-.2929z" fill="#9e9e9e"/></svg>