<svg fill="none" height="24" viewBox="0 0 24 24" width="24" xmlns="http://www.w3.org/2000/svg"><g fill="#9e9e9e"><path d="m13 11h3c.2652 0 .5196.1054.7071.2929s.2929.4419.2929.7071-.1054.5196-.2929.7071-.4419.2929-.7071.2929h-3v3c0 .2652-.1054.5196-.2929.7071s-.4419.2929-.7071.2929-.5196-.1054-.7071-.2929-.2929-.4419-.2929-.7071v-3h-3c-.26522 0-.51957-.1054-.70711-.2929-.18753-.1875-.29289-.4419-.29289-.7071s.10536-.5196.29289-.7071c.18754-.1875.44189-.2929.70711-.2929h3v-3c0-.26522.1054-.51957.2929-.70711.1875-.18753.4419-.29289.7071-.29289s.5196.10536.7071.29289c.1875.18754.2929.44189.2929.70711z"/><path clip-rule="evenodd" d="m15.7776 2.80201c1.2053.51773 2.2953 1.2703 3.2066 2.21381.9435.91127 1.6961 2.00132 2.2138 3.20655s.7902 2.50153.8016 3.81323c.0114 1.3116-.2385 2.6124-.7352 3.8265-.4967 1.214-1.2302 2.317-2.1578 3.2445-.9275.9276-2.0305 1.6611-3.2445 2.1578-1.2141.4967-2.5149.7466-3.8265.7352-1.3117-.0114-2.608-.2839-3.81323-.8016s-2.29528-1.2703-3.20655-2.2138c-.94351-.9113-1.69608-2.0013-2.21381-3.2066-.51773-1.2052-.79024-2.5015-.80164-3.8132-.0114-1.3116.23855-2.61244.73526-3.82648.4967-1.21405 1.23022-2.31701 2.15775-3.24454s2.03049-1.66105 3.24454-2.15775c1.21404-.49671 2.51488-.74666 3.82648-.73526 1.3117.0114 2.608.28391 3.8132.80164zm-2.9984 17.06859c1.8194-.1803 3.52-.9858 4.8121-2.2793.7359-.7329 1.3191-1.6044 1.7158-2.5641.3968-.9598.5993-1.9887.5958-3.0272-.0015-1.8283-.6368-3.59954-1.7977-5.01195s-2.7756-2.37862-4.5691-2.73399c-1.7934-.35538-3.65456-.07794-5.26637.78504s-2.87455 2.25812-3.57307 3.94771c-.69853 1.68959-.78962 3.56909-.25777 5.31839.53185 1.7492 1.65374 3.2599 3.17453 4.2747 1.5208 1.0148 3.34638 1.471 5.16578 1.2907z" fill-rule="evenodd"/></g></svg>