<svg fill="none" height="24" viewBox="0 0 24 24" width="24" xmlns="http://www.w3.org/2000/svg"><path d="m14.83 11.29-4.24-4.24c-.093-.09373-.2036-.16812-.3254-.21889-.1219-.05077-.2526-.07691-.3846-.07691-.13201 0-.26271.02614-.38457.07691s-.23246.12516-.32543.21889c-.18625.18736-.29079.44082-.29079.705 0 .26419.10454.51764.29079.705l3.54 3.54-3.54 3.54c-.18625.1874-.29079.4408-.29079.705s.10454.5176.29079.705c.09344.0927.20426.166.3261.2158.12184.0497.2523.075.3839.0742.1316.0008.2621-.0245.3839-.0742.1218-.0498.2327-.1231.3261-.2158l4.24-4.24c.0937-.093.1681-.2036.2189-.3254.0508-.1219.0769-.2526.0769-.3846s-.0261-.2627-.0769-.3846c-.0508-.1218-.1252-.2324-.2189-.3254z" fill="#9e9e9e"/></svg>