<svg fill="none" height="24" viewBox="0 0 24 24" width="24" xmlns="http://www.w3.org/2000/svg"><path d="m19 6h-3v-1c0-.53043-.2107-1.03914-.5858-1.41421-.3751-.37508-.8838-.58579-1.4142-.58579h-4c-.53043 0-1.03914.21071-1.41421.58579-.37508.37507-.58579.88378-.58579 1.41421v1h-3c-.79565 0-1.55871.31607-2.12132.87868s-.87868 1.32567-.87868 2.12132v9c0 .7956.31607 1.5587.87868 2.1213s1.32567.8787 2.12132.8787h14c.7956 0 1.5587-.3161 2.1213-.8787s.8787-1.3257.8787-2.1213v-9c0-.79565-.3161-1.55871-.8787-2.12132s-1.3257-.87868-2.1213-.87868zm-9-1h4v1h-4zm10 13c0 .2652-.1054.5196-.2929.7071s-.4419.2929-.7071.2929h-14c-.26522 0-.51957-.1054-.70711-.2929-.18753-.1875-.29289-.4419-.29289-.7071v-5h4v1c0 .2652.10536.5196.29289.7071.18754.1875.44189.2929.70711.2929s.51957-.1054.70711-.2929c.18753-.1875.29289-.4419.29289-.7071v-1h4v1c0 .2652.1054.5196.2929.7071s.4419.2929.7071.2929.5196-.1054.7071-.2929.2929-.4419.2929-.7071v-1h4zm0-7h-16v-2c0-.26522.10536-.51957.29289-.70711.18754-.18753.44189-.29289.70711-.29289h14c.2652 0 .5196.10536.7071.29289.1875.18754.2929.44189.2929.70711z" fill="#9e9e9e"/></svg>