<svg fill="none" height="24" viewBox="0 0 24 24" width="24" xmlns="http://www.w3.org/2000/svg"><g fill="#9e9e9e"><path d="m13 10c0-.55228-.4477-1-1-1s-1 .44772-1 1v.0505c-.4767.0973-.9186.3325-1.26777.6817-.46884.4689-.73223 1.1048-.73223 1.7678s.26339 1.2989.73223 1.7678c.46887.4688 1.10477.7322 1.76777.7322h1c.1326 0 .2598.0527.3536.1464.0937.0938.1464.221.1464.3536s-.0527.2598-.1464.3536c-.0938.0937-.221.1464-.3536.1464h-2.5c-.55228 0-1 .4477-1 1s.44772 1 1 1h1c0 .5523.4477 1 1 1s1-.4477 1-1v-.0505c.4767-.0973.9186-.3325 1.2678-.6817.4688-.4689.7322-1.1048.7322-1.7678s-.2634-1.2989-.7322-1.7678c-.4689-.4688-1.1048-.7322-1.7678-.7322h-1c-.1326 0-.2598-.0527-.3536-.1464-.0937-.0938-.1464-.221-.1464-.3536s.0527-.2598.1464-.3536c.0938-.0937.221-.1464.3536-.1464h2.5c.5523 0 1-.4477 1-1s-.4477-1-1-1z"/><path clip-rule="evenodd" d="m8.17071 4c.41183-1.16519 1.52307-2 2.82929-2h2c1.3062 0 2.4175.83481 2.8293 2h1.1707c.7956 0 1.5587.31607 2.1213.87868s.8787 1.32567.8787 2.12132v12c0 .7957-.3161 1.5587-.8787 2.1213s-1.3256.8787-2.1213.8787h-10c-.79565 0-1.55871-.3161-2.12132-.8787s-.87868-1.3256-.87868-2.1213v-12c0-.79565.31607-1.55871.87868-2.12132s1.32567-.87868 2.12132-.87868zm1.82929 1c0-.55228.4477-1 1-1h2c.5523 0 1 .44772 1 1s-.4477 1-1 1h-2c-.5523 0-1-.44772-1-1zm5.8293 1h1.1707c.2652 0 .5196.10536.7071.29289.1875.18754.2929.44189.2929.70711v12c0 .2652-.1054.5196-.2929.7071s-.4419.2929-.7071.2929h-10c-.26522 0-.51957-.1054-.70711-.2929-.18753-.1875-.29289-.4419-.29289-.7071v-12c0-.26522.10536-.51957.29289-.70711.18754-.18753.44189-.29289.70711-.29289h1.17071c.41183 1.16519 1.52307 2 2.82929 2h2c1.3062 0 2.4175-.83481 2.8293-2z" fill-rule="evenodd"/></g></svg>