<svg fill="none" height="24" viewBox="0 0 24 24" width="24" xmlns="http://www.w3.org/2000/svg"><path d="m9.29 13.29-5.29 5.3v-1.59c0-.2652-.10536-.5196-.29289-.7071-.18754-.1875-.44189-.2929-.70711-.2929s-.51957.1054-.70711.2929c-.18753.1875-.29289.4419-.29289.7071v4c.00158.1307.02876.2598.08.38.10147.2443.29565.4385.54.54.12022.0512.24932.0784.38.08h4c.26522 0 .51957-.1054.70711-.2929.18753-.1875.29289-.4419.29289-.7071s-.10536-.5196-.29289-.7071c-.18754-.1875-.44189-.2929-.70711-.2929h-1.59l5.3-5.29c.1883-.1883.2941-.4437.2941-.71s-.1058-.5217-.2941-.71-.4437-.2941-.71-.2941-.5217.1058-.71.2941zm-3.88-9.29h1.59c.26522 0 .51957-.10536.70711-.29289.18753-.18754.29289-.44189.29289-.70711s-.10536-.51957-.29289-.70711c-.18754-.18753-.44189-.29289-.70711-.29289h-4c-.13068.00158-.25978.02876-.38.08-.24435.10147-.43853.29565-.54.54-.05124.12022-.07842.24932-.08.38v4c0 .26522.10536.51957.29289.70711.18754.18753.44189.29289.70711.29289s.51957-.10536.70711-.29289c.18753-.18754.29289-.44189.29289-.70711v-1.59l5.29 5.3c.09296.0937.20356.1681.32542.2189s.25257.0769.38458.0769c.132 0 .2627-.0261.3846-.0769.1218-.0508.2324-.1252.3254-.2189.0937-.093.1681-.2036.2189-.3254.0508-.1219.0769-.2526.0769-.3846 0-.13201-.0261-.26272-.0769-.38458s-.1252-.23246-.2189-.32542zm15.59 12c-.2652 0-.5196.1054-.7071.2929s-.2929.4419-.2929.7071v1.59l-5.29-5.3c-.1883-.1883-.4437-.2941-.71-.2941s-.5217.1058-.71.2941-.2941.4437-.2941.71.1058.5217.2941.71l5.3 5.29h-1.59c-.2652 0-.5196.1054-.7071.2929s-.2929.4419-.2929.7071.1054.5196.2929.7071.4419.2929.7071.2929h4c.1307-.0016.2598-.0288.38-.08.2443-.1015.4385-.2957.54-.54.0512-.1202.0784-.2493.08-.38v-4c0-.2652-.1054-.5196-.2929-.7071s-.4419-.2929-.7071-.2929zm.92-13.38c-.1015-.24435-.2957-.43853-.54-.54-.1202-.05124-.2493-.07842-.38-.08h-4c-.2652 0-.5196.10536-.7071.29289-.1875.18754-.2929.44189-.2929.70711s.1054.51957.2929.70711c.1875.18753.4419.29289.7071.29289h1.59l-5.3 5.29c-.0937.09296-.1681.20356-.2189.32542s-.0769.25257-.0769.38458c0 .132.0261.2627.0769.3846.0508.1218.1252.2324.2189.3254.093.0937.2036.1681.3254.2189.1219.0508.2526.0769.3846.0769s.2627-.0261.3846-.0769c.1218-.0508.2324-.1252.3254-.2189l5.29-5.3v1.59c0 .26522.1054.51957.2929.70711.1875.18753.4419.29289.7071.29289s.5196-.10536.7071-.29289c.1875-.18754.2929-.44189.2929-.70711v-4c-.0016-.13068-.0288-.25978-.08-.38z" fill="#9e9e9e"/></svg>