<svg fill="none" height="24" viewBox="0 0 24 24" width="24" xmlns="http://www.w3.org/2000/svg"><path d="m21.71 2.29c-.093-.09373-.2036-.16812-.3254-.21889-.1219-.05077-.2526-.07691-.3846-.07691s-.2627.02614-.3846.07691c-.1218.05077-.2324.12516-.3254.21889l-5.79 5.8v-1.59c0-.26522-.1054-.51957-.2929-.70711-.1875-.18753-.4419-.29289-.7071-.29289s-.5196.10536-.7071.29289c-.1875.18754-.2929.44189-.2929.70711v4c.0016.1307.0288.2598.08.38.1015.2443.2957.4385.54.54.1202.0512.2493.0784.38.08h4c.2652 0 .5196-.1054.7071-.2929s.2929-.4419.2929-.7071-.1054-.51957-.2929-.70711c-.1875-.18753-.4419-.29289-.7071-.29289h-1.59l5.8-5.79c.0937-.09296.1681-.20356.2189-.32542s.0769-.25257.0769-.38458-.0261-.26272-.0769-.38458-.1252-.23246-.2189-.32542zm-10.83 10.29c-.1202-.0512-.2493-.0784-.38-.08h-4c-.26522 0-.51957.1054-.70711.2929-.18753.1875-.29289.4419-.29289.7071s.10536.5196.29289.7071c.18754.1875.44189.2929.70711.2929h1.59l-5.8 5.79c-.09373.093-.16812.2036-.21889.3254-.05077.1219-.07691.2526-.07691.3846s.02614.2627.07691.3846c.05077.1218.12516.2324.21889.3254.09296.0937.20356.1681.32542.2189s.25257.0769.38458.0769.26272-.0261.38458-.0769.23246-.1252.32542-.2189l5.79-5.8v1.59c0 .2652.10536.5196.29289.7071.18754.1875.44191.2929.70711.2929s.5196-.1054.7071-.2929.2929-.4419.2929-.7071v-4c-.0016-.1307-.0288-.2598-.08-.38-.1015-.2443-.2957-.4385-.54-.54z" fill="#9e9e9e"/></svg>