<svg fill="none" height="24" viewBox="0 0 24 24" width="24" xmlns="http://www.w3.org/2000/svg"><path clip-rule="evenodd" d="m4 5c-.55228 0-1 .44772-1 1s.44772 1 1 1h9c.5523 0 1-.44772 1-1s-.4477-1-1-1zm4 4c-.55228 0-1 .44772-1 1 0 .5523.44772 1 1 1h12c.5523 0 1-.4477 1-1 0-.55228-.4477-1-1-1zm6.5 8c-.5523 0-1 .4477-1 1s.4477 1 1 1h5.5c.5523 0 1-.4477 1-1s-.4477-1-1-1zm-3.5-3c0-.5523.4477-1 1-1h8c.5523 0 1 .4477 1 1s-.4477 1-1 1h-8c-.5523 0-1-.4477-1-1z" fill="#9e9e9e" fill-rule="evenodd"/></svg>