<svg fill="none" height="24" viewBox="0 0 24 24" width="24" xmlns="http://www.w3.org/2000/svg"><path d="m3 4c-.26522 0-.51957.10536-.70711.29289-.18753.18754-.29289.44189-.29289.70711v14c0 .2652.10536.5196.29289.7071.18754.1875.44189.2929.70711.2929s.51957-.1054.70711-.2929c.18753-.1875.29289-.4419.29289-.7071v-14c0-.26522-.10536-.51957-.29289-.70711-.18754-.18753-.44189-.29289-.70711-.29289zm18.92 7.62c-.0476-.1228-.119-.2349-.21-.33l-4-4c-.0932-.09324-.2039-.1672-.3258-.21766-.1218-.05046-.2523-.07643-.3842-.07643-.2663 0-.5217.10579-.71.29409s-.2941.4437-.2941.71.1058.5217.2941.71l2.3 2.29h-11.59c-.26522 0-.51957.1054-.70711.2929-.18753.1875-.29289.4419-.29289.7071s.10536.5196.29289.7071c.18754.1875.44189.2929.70711.2929h11.59l-2.3 2.29c-.0937.093-.1681.2036-.2189.3254-.0508.1219-.0769.2526-.0769.3846s.0261.2627.0769.3846c.0508.1218.1252.2324.2189.3254.093.0937.2036.1681.3254.2189.1219.0508.2526.0769.3846.0769s.2627-.0261.3846-.0769c.1218-.0508.2324-.1252.3254-.2189l4-4c.091-.0951.1624-.2072.21-.33.1-.2435.1-.5165 0-.76z" fill="#9e9e9e"/></svg>