<svg fill="none" height="24" viewBox="0 0 24 24" width="24" xmlns="http://www.w3.org/2000/svg"><path d="m9.71 10.21 2.29-2.3 2.29 2.3c.093.0937.2036.1681.3254.2189.1219.0508.2526.0769.3846.0769s.2627-.0261.3846-.0769c.1218-.0508.2324-.1252.3254-.2189.0937-.093.1681-.2036.2189-.32542.0508-.12186.0769-.25257.0769-.38458s-.0261-.26272-.0769-.38458-.1252-.23246-.2189-.32542l-3-3c-.093-.09373-.2036-.16812-.3254-.21889-.1219-.05077-.2526-.07691-.3846-.07691s-.2627.02614-.3846.07691c-.1218.05077-.2324.12516-.3254.21889l-3 3c-.1883.1883-.29409.4437-.29409.71s.10579.5217.29409.71c.18831.1883.4437.2941.71.2941s.5217-.1058.71-.2941zm4.58 4.58-2.29 2.3-2.29-2.3c-.09324-.0932-.20393-.1672-.32575-.2177-.12182-.0504-.25239-.0764-.38425-.0764s-.26243.026-.38425.0764c-.12182.0505-.23251.1245-.32575.2177s-.1672.2039-.21766.3258c-.05046.1218-.07643.2523-.07643.3842s.02597.2624.07643.3842c.05046.1219.12442.2326.21766.3258l3 3c.093.0937.2036.1681.3254.2189.1219.0508.2526.0769.3846.0769s.2627-.0261.3846-.0769c.1218-.0508.2324-.1252.3254-.2189l3-3c.1883-.1883.2941-.4437.2941-.71s-.1058-.5217-.2941-.71-.4437-.2941-.71-.2941-.5217.1058-.71.2941z" fill="#9e9e9e"/></svg>