<svg fill="none" height="24" viewBox="0 0 24 24" width="24" xmlns="http://www.w3.org/2000/svg"><path d="m21.6693 9.20753c.1527.11892.2676.27958.3307.46249.0486.18288.0444.37578-.0123.55638-.0566.1805-.1633.3413-.3077.4636l-4.13 4 1 5.68c.0357.1875.017.3813-.0539.5585-.0708.1772-.1909.3304-.3461.4415-.1716.1242-.3782.1908-.59.19-.1611.0006-.3196-.0408-.46-.12l-5.1-2.68-5.11999 2.67c-.16423.0871-.34948.1267-.53495.1143-.18548-.0124-.36383-.0762-.51505-.1843-.15515-.1111-.27525-.2643-.34613-.4415s-.08957-.371-.05387-.5585l1-5.68-4.13-4c-.12854-.1283-.21973-.2891-.26377-.4653-.04405-.1762-.03929-.361.01377-.53468.05796-.17772.16457-.33564.30775-.45584.14317-.12019.31717-.19785.50225-.22416l5.69-.84 2.54999-5.16c.0819-.16907.2097-.31165.3689-.41142s.3433-.15269.5311-.15269c.1879 0 .3719.05292.5311.15269s.287.24235.3689.41142l2.55 5.17 5.69.83c.1928.0165.3767.08858.5293.20751z" fill="#fc9b42"/></svg>