<svg fill="none" height="24" viewBox="0 0 24 24" width="24" xmlns="http://www.w3.org/2000/svg"><path d="m18 4v16h-12v-10.37157c0-.53044.21071-1.03914.58579-1.41422l3.62841-3.62842c.3751-.37508.8838-.58579 1.4142-.58579zm0-2h-7.1716c-.5304 0-1.03911.21071-1.41419.58579l-4.82842 4.82842c-.37508.37508-.58579.88378-.58579 1.41422v11.17157c0 1.1.9 2 2 2h12c1.1 0 2-.9 2-2v-16c0-1.1-.9-2-2-2zm-8.5 16c0 .5523-.44772 1-1 1s-1-.4477-1-1 .44772-1 1-1 1 .4477 1 1zm7 0c0 .5523-.4477 1-1 1s-1-.4477-1-1 .4477-1 1-1 1 .4477 1 1zm-7-4c0 .5523-.44772 1-1 1s-1-.4477-1-1v-2c0-.5523.44772-1 1-1s1 .4477 1 1zm3.5 4c0 .5523-.4477 1-1 1s-1-.4477-1-1v-2c0-.5523.4477-1 1-1s1 .4477 1 1zm0-6c0 .5523-.4477 1-1 1s-1-.4477-1-1 .4477-1 1-1 1 .4477 1 1zm3.5 2c0 .5523-.4477 1-1 1s-1-.4477-1-1v-2c0-.5523.4477-1 1-1s1 .4477 1 1z" fill="#9e9e9e"/></svg>