<svg fill="none" height="24" viewBox="0 0 24 24" width="24" xmlns="http://www.w3.org/2000/svg"><path d="m18 14c-.5908.0039-1.1734.1386-1.706.3945-.5325.2559-1.0018.6266-1.374 1.0855l-5.09997-2.35c.23977-.7343.23977-1.5258 0-2.26l5.09997-2.35001c.6016.72597 1.4404 1.21608 2.3682 1.38384.9278.16777 1.885.00239 2.7028-.46693.8177-.46933 1.4434-1.21243 1.7666-2.09816.3232-.88574.3231-1.85717-.0003-2.74284-.3233-.88568-.9491-1.62866-1.767-2.09784-.8178-.46917-1.7751-.63437-2.7028-.46644-.9278.16793-1.7665.65819-2.3679 1.38427-.6015.72607-.9272 1.64128-.9196 2.5841.003.23823.0265.47577.07.71l-5.27997 2.43c-.56292-.55042-1.27576-.92248-2.0492-1.06957s-1.57308-.06266-2.29875.2427c-.72567.30537-1.34509.81809-1.78065 1.47393-.43556.65585-.6679 1.42565-.6679 2.21295s.23234 1.5571.6679 2.2129c.43556.6559 1.05498 1.1686 1.78065 1.474.72567.3053 1.52531.3898 2.29875.2427s1.48628-.5192 2.0492-1.0696l5.27997 2.43c-.0435.2342-.067.4718-.07.71 0 .7911.2346 1.5645.6742 2.2223.4395.6578 1.0642 1.1705 1.7951 1.4732.7309.3028 1.5352.382 2.3111.2276.7759-.1543 1.4886-.5353 2.0481-1.0947.5594-.5594.9403-1.2721 1.0947-2.048.1543-.776.0751-1.5802-.2277-2.3111-.3027-.7309-.8154-1.3557-1.4732-1.7952s-1.4311-.6741-2.2223-.6741zm0-10.00001c.3956 0 .7823.1173 1.1112.33706.3289.21977.5852.53212.7366.89758.1514.36545.191.76758.1138 1.15554s-.2677.74433-.5474 1.02404c-.2797.2797-.636.47018-1.024.54735s-.7901.03757-1.1555-.11381c-.3655-.15137-.6778-.40772-.8976-.73662s-.3371-.71557-.3371-1.11114c0-.53043.2107-1.03914.5858-1.41421s.8838-.58579 1.4142-.58579zm-11.99997 10.00001c-.39556 0-.78224-.1173-1.11114-.3371-.3289-.2197-.58525-.5321-.73662-.8975-.15138-.3655-.19098-.7676-.11381-1.1556s.26765-.7443.54735-1.024c.27971-.2797.63608-.4702 1.02404-.5474.38796-.07715.79009-.0375 1.15555.1138.36545.1514.6778.4078.89757.7367.21976.3289.33706.7155.33706 1.1111 0 .5304-.21072 1.0391-.58579 1.4142s-.88378.5858-1.41421.5858zm11.99997 6c-.3955 0-.7822-.1173-1.1111-.3371-.3289-.2197-.5853-.5321-.7366-.8975-.1514-.3655-.191-.7676-.1138-1.1556.0771-.388.2676-.7443.5473-1.024s.6361-.4702 1.024-.5474c.388-.0771.7901-.0375 1.1556.1138.3654.1514.6778.4078.8976.7367.2197.3288.337.7155.337 1.1111 0 .5304-.2107 1.0391-.5858 1.4142-.375.3751-.8837.5858-1.4142.5858z" fill="#9e9e9e"/></svg>