<svg fill="none" height="24" viewBox="0 0 24 24" width="24" xmlns="http://www.w3.org/2000/svg"><path d="m21.32 9.55-1.89-.63.89-1.78c.0902-.18631.1204-.39603.0864-.60022-.0341-.2042-.1306-.39279-.2764-.53978l-2.13-2.13c-.1478-.14791-.3382-.24579-.5445-.27987-.2062-.03408-.418-.00265-.6055.08987l-1.78.89-.63-1.89c-.0665-.197-.1928-.36837-.3613-.49025s-.3708-.1882-.5787-.18975h-3c-.2096-.00054-.4142.06482-.58463.18685-.17047.12202-.29828.29453-.36537.49315l-.63 1.89-1.78-.89c-.18631-.09022-.39603-.12039-.60022-.08636-.2042.03403-.39279.13059-.53978.27636l-2.13 2.13c-.14791.14777-.24579.33818-.27987.54446s-.00265.41805.08987.60554l.89 1.78-1.89.63c-.197.06654-.36837.19283-.49025.36131-.12188.16849-.1882.37079-.18975.57869v3c-.00054.2096.06482.4142.18685.5846.12202.1705.29453.2983.49315.3654l1.89.63-.89 1.78c-.09022.1863-.12039.396-.08636.6002s.13059.3928.27636.5398l2.13 2.13c.14777.1479.33818.2458.54446.2799s.41805.0026.60554-.0899l1.78-.89.63 1.89c.06709.1986.1949.3711.36537.4932.17043.122.37503.1873.58463.1868h3c.2096.0005.4142-.0648.5846-.1868.1705-.1221.2983-.2946.3654-.4932l.63-1.89 1.78.89c.1851.0879.3928.1169.5949.0829s.3889-.1292.5351-.2729l2.13-2.13c.1479-.1478.2458-.3382.2799-.5445.0341-.2062.0026-.418-.0899-.6055l-.89-1.78 1.89-.63c.197-.0665.3684-.1928.4903-.3613.1218-.1685.1882-.3708.1897-.5787v-3c.0005-.2096-.0648-.4142-.1868-.58463-.1221-.17047-.2946-.29828-.4932-.36537zm-1.32 3.23-1.2.4c-.2759.0895-.5291.238-.7419.4351-.2129.1971-.3803.4382-.4906.7065-.1104.2683-.1611.5574-.1485.8472.0125.2898.0879.5734.221.8312l.57 1.14-1.1 1.1-1.11-.6c-.2564-.1278-.5373-.1989-.8237-.2087-.2863-.0098-.5714.0421-.836.1521-.2645.11-.5024.2755-.6974.4854s-.3426.4593-.4329.7312l-.4 1.2h-1.59l-.4-1.2c-.0895-.2759-.238-.5291-.4351-.7419-.1971-.2129-.43819-.3803-.70648-.4906-.26828-.1104-.55737-.1611-.84719-.1485-.28983.0125-.57346.0879-.83123.221l-1.14.57-1.1-1.1.6-1.11c.1331-.2578.20852-.5414.22105-.8312s-.03815-.5789-.14851-.8472-.27776-.5094-.49059-.7065-.466-.3456-.74195-.4351l-1.2-.4v-1.56l1.2-.4c.27595-.0895.52912-.238.74195-.4351s.38023-.43819.49059-.70648c.11036-.26828.16104-.55737.14851-.84719-.01253-.28983-.08795-.57346-.22105-.83123l-.57-1.11 1.1-1.1 1.11.57c.25777.1331.5414.20852.83123.22105.28982.01253.57891-.03815.84719-.14851.26829-.11036.50938-.27776.70648-.49059s.3456-.466.4351-.74195l.4-1.2h1.56l.4 1.2c.0895.27595.238.52912.4351.74195s.4382.38023.7065.49059.5574.16104.8472.14851.5734-.08795.8312-.22105l1.14-.57 1.1 1.1-.6 1.11c-.1278.25645-.1989.53735-.2087.82369s.0421.57144.1521.836c.11.26455.2755.50241.4854.69741s.4593.3426.7312.4329l1.2.4zm-8-4.78c-.7911 0-1.5645.2346-2.22228.67413-.65779.43952-1.17048 1.06423-1.47324 1.79517-.30275.7309-.38196 1.5351-.22762 2.3111.15434.7759.53531 1.4886 1.09472 2.048s1.27212.9404 2.04802 1.0947c.776.1544 1.5802.0752 2.3111-.2276.7309-.3027 1.3557-.8154 1.7952-1.4732s.6741-1.4312.6741-2.2223c0-1.0609-.4214-2.07828-1.1716-2.82842-.7501-.75015-1.7675-1.17158-2.8284-1.17158zm0 6c-.3956 0-.7822-.1173-1.1111-.3371-.3289-.2197-.5853-.5321-.7367-.8975-.1513-.3655-.19094-.7676-.1138-1.1556.0772-.3879.2677-.7443.5474-1.024s.6361-.4702 1.024-.5474c.388-.07714.7901-.0375 1.1556.1138.3654.1514.6778.4078.8975.7367.2198.3289.3371.7155.3371 1.1111 0 .5304-.2107 1.0391-.5858 1.4142s-.8838.5858-1.4142.5858z" fill="#9e9e9e"/></svg>