<svg fill="none" height="24" viewBox="0 0 24 24" width="24" xmlns="http://www.w3.org/2000/svg"><path d="m21.12 9.88002-7-7c-.5723-.543-1.3311-.84572-2.12-.84572s-1.5477.30272-2.12002.84572l-7 7c-.5618.56248-.87736 1.32498-.87736 2.11998s.31556 1.5575.87736 2.12l7 7c.56252.5618 1.32502.8774 2.12002.8774s1.5575-.3156 2.12-.8774l7-7c.5618-.5625.8773-1.325.8773-2.12s-.3155-1.5575-.8773-2.11998zm-1.41 2.82998-7 7c-.093.0938-.2036.1681-.3254.2189-.1219.0508-.2526.0769-.3846.0769s-.2627-.0261-.3846-.0769-.2325-.1251-.3254-.2189l-7.00002-7c-.09372-.0929-.16812-.2035-.21889-.3254s-.0769-.2526-.0769-.3846.02613-.2627.0769-.3846c.05077-.1218.12517-.2324.21889-.3254l7.00002-6.99998c.0929-.09373.2035-.16812.3254-.21889s.2526-.0769.3846-.0769.2627.02613.3846.0769c.1218.05077.2324.12516.3254.21889l7 6.99998c.0937.093.1681.2036.2189.3254.0507.1219.0769.2526.0769.3846s-.0262.2627-.0769.3846c-.0508.1219-.1252.2325-.2189.3254zm-5.5-3.41998c-.1883-.1883-.4437-.29409-.71-.29409s-.5217.10579-.71.29409c-.1883.18831-.2941.4437-.2941.70998 0 .2663.1058.5217.2941.71l.3.29h-3.59002c-.26521 0-.51957.1054-.7071.2929-.18754.1876-.2929.4419-.2929.7071v2c0 .2652.10536.5196.2929.7071.18753.1876.44189.2929.7071.2929.26522 0 .51962-.1053.70712-.2929.1875-.1875.2929-.4419.2929-.7071v-1h2.59l-.3.29c-.0937.093-.1681.2036-.2189.3254-.0508.1219-.0769.2526-.0769.3846s.0261.2627.0769.3846.1252.2325.2189.3254c.0929.0938.2035.1681.3254.2189s.2526.0769.3846.0769.2627-.0261.3846-.0769c.1218-.0508.2324-.1251.3254-.2189l2-2c.0937-.0929.1681-.2035.2189-.3254.0507-.1219.0769-.2526.0769-.3846s-.0262-.2627-.0769-.3846c-.0508-.1218-.1252-.2324-.2189-.3254z" fill="#9e9e9e"/></svg>