<svg fill="none" height="24" viewBox="0 0 24 24" width="24" xmlns="http://www.w3.org/2000/svg"><path d="m22 9.67002c-.0631-.18291-.178-.34357-.3307-.46249-.1526-.11893-.3365-.19101-.5293-.20751l-5.69-.83-2.55-5.17c-.0819-.16907-.2097-.31165-.3689-.41142s-.3432-.15269-.5311-.15269c-.1878 0-.3719.05292-.5311.15269s-.287.24235-.3689.41142l-2.54999 5.16-5.69.84c-.18508.02631-.35908.10397-.50225.22416-.14318.1202-.24979.27812-.30775.45584-.05306.17368-.05782.35848-.01377.53468.04404.1762.13523.337.26377.4653l4.13 4-1 5.68c-.0357.1875-.01701.3813.05387.5585s.19098.3304.34613.4415c.15122.1081.32957.1719.51505.1843.18547.0124.37072-.0272.53495-.1143l5.11999-2.67 5.1 2.68c.1404.0792.2989.1206.46.12.2118.0008.4184-.0658.59-.19.1552-.1111.2753-.2643.3461-.4415.0709-.1772.0896-.371.0539-.5585l-1-5.68 4.13-4c.1444-.1223.2511-.2831.3077-.4636.0567-.1806.0609-.3735.0123-.55638zm-6.15 3.99998c-.1173.1135-.205.2539-.2556.409-.0505.1551-.0623.3203-.0344.481l.72 4.19-3.76-2c-.1447-.077-.3061-.1173-.47-.1173s-.3253.0403-.47.1173l-3.75999 2 .72-4.19c.02793-.1607.01611-.3259-.03444-.481s-.13829-.2955-.25556-.409l-3-3 4.21-.61c.162-.0225.316-.08444.4485-.18033.13249-.09588.23949-.22281.31149-.36965l1.78-3.81 1.88 3.82c.072.14684.179.27377.3115.36966.1325.09588.2865.15782.4485.18032l4.21.61z" fill="#9e9e9e"/></svg>