<svg fill="none" height="24" viewBox="0 0 24 24" width="24" xmlns="http://www.w3.org/2000/svg"><path d="m22 7.82c.0048-.06324.0048-.12676 0-.19l-2-5c-.0781-.19765-.2172-.36527-.397-.47855s-.391-.16633-.603-.15145h-14c-.20028-.0002-.396.05975-.56182.17208-.16581.11232-.29408.27185-.36818.45792l-2 5c-.00482.06324-.00482.12676 0 .19-.03323.05566-.05689.11651-.07.18.01113.69124.20123 1.36779.55174 1.96368.35052.59592.8495 1.09072 1.44826 1.43632v9.6c0 .2652.10536.5196.29289.7071.18754.1875.44189.2929.70711.2929h14c.2652 0 .5196-.1054.7071-.2929s.2929-.4419.2929-.7071v-9.56c.6046-.349 1.1072-.8502 1.4581-1.45366.3509-.60349.5377-1.28829.5419-1.98634.0094-.05964.0094-.12037 0-.18zm-9 12.18h-2v-4h2zm5 0h-3v-5c0-.2652-.1054-.5196-.2929-.7071s-.4419-.2929-.7071-.2929h-4c-.26522 0-.51957.1054-.70711.2929-.18753.1875-.29289.4419-.29289.7071v5h-3v-8c.56947-.0032 1.13169-.128 1.64905-.366.51737-.238.97795-.5837 1.35095-1.014.37537.4256.83701.7665 1.3542 1 .5173.2335 1.0783.3542 1.6458.3542s1.1285-.1207 1.6458-.3542c.5172-.2335.9788-.5744 1.3542-1 .373.4303.8336.776 1.3509 1.014.5174.238 1.0796.3628 1.6491.366zm0-10c-.5304 0-1.0391-.21072-1.4142-.58579s-.5858-.88378-.5858-1.41421c0-.26522-.1054-.51957-.2929-.70711s-.4419-.29289-.7071-.29289-.5196.10535-.7071.29289-.2929.44189-.2929.70711c0 .53043-.2107 1.03914-.5858 1.41421s-.8838.58579-1.4142.58579-1.0391-.21072-1.4142-.58579-.5858-.88378-.5858-1.41421c0-.26522-.10536-.51957-.29289-.70711-.18754-.18754-.44189-.29289-.70711-.29289s-.51957.10535-.70711.29289c-.18753.18754-.29289.44189-.29289.70711.00985.26264-.03213.52465-.12354.77107s-.23046.47242-.40921.66511c-.17876.19268-.39371.34827-.63259.45787-.23888.10965-.49702.17105-.75966.18095-.53043.0199-1.04704-.17175-1.43618-.53276-.19268-.17875-.34827-.3937-.45788-.63259-.10961-.23888-.17109-.49701-.18094-.75965l1.68-4.15h12.64l1.68 4.15c-.0379.50401-.2652.97499-.6363 1.3182-.371.34322-.8583.5332-1.3637.5318z" fill="#9e9e9e"/></svg>