<svg fill="none" height="24" viewBox="0 0 24 24" width="24" xmlns="http://www.w3.org/2000/svg"><path d="m8.29 13.29c-.09373.093-.16812.2036-.21889.3254-.05077.1219-.07691.2526-.07691.3846s.02614.2627.07691.3846c.05077.1218.12516.2324.21889.3254l3 3c.093.0937.2036.1681.3254.2189.1219.0508.2526.0769.3846.0769s.2627-.0261.3846-.0769c.1218-.0508.2324-.1252.3254-.2189l3-3c.1883-.1883.2941-.4437.2941-.71s-.1058-.5217-.2941-.71-.4437-.2941-.71-.2941-.5217.1058-.71.2941l-1.29 1.3v-11.59c0-.26522-.1054-.51957-.2929-.70711-.1875-.18753-.4419-.29289-.7071-.29289s-.5196.10536-.7071.29289c-.1875.18754-.2929.44189-.2929.70711v11.59l-1.29-1.3c-.09296-.0937-.20356-.1681-.32542-.2189s-.25257-.0769-.38458-.0769-.26272.0261-.38458.0769-.23246.1252-.32542.2189zm9.71-4.29h-2c-.2652 0-.5196.10536-.7071.29289-.1875.18754-.2929.44189-.2929.70711 0 .2652.1054.5196.2929.7071s.4419.2929.7071.2929h2c.2652 0 .5196.1054.7071.2929s.2929.4419.2929.7071v7c0 .2652-.1054.5196-.2929.7071s-.4419.2929-.7071.2929h-12c-.26522 0-.51957-.1054-.70711-.2929-.18753-.1875-.29289-.4419-.29289-.7071v-7c0-.2652.10536-.5196.29289-.7071.18754-.1875.44189-.2929.70711-.2929h2c.26522 0 .51957-.1054.70711-.2929.18753-.1875.29289-.4419.29289-.7071 0-.26522-.10536-.51957-.29289-.70711-.18754-.18753-.44189-.29289-.70711-.29289h-2c-.79565 0-1.55871.31607-2.12132.87868-.56261.56262-.87868 1.32572-.87868 2.12132v7c0 .7956.31607 1.5587.87868 2.1213s1.32567.8787 2.12132.8787h12c.7956 0 1.5587-.3161 2.1213-.8787s.8787-1.3257.8787-2.1213v-7c0-.7956-.3161-1.5587-.8787-2.12132-.5626-.56261-1.3257-.87868-2.1213-.87868z" fill="#9e9e9e"/></svg>