<svg fill="none" height="24" viewBox="0 0 24 24" width="24" xmlns="http://www.w3.org/2000/svg"><path d="m18.3 8.59.91-.9c.1883-.1883.2941-.4437.2941-.71s-.1058-.5217-.2941-.71-.4437-.29409-.71-.29409-.5217.10579-.71.29409l-.9.91c-1.4015-1.08415-3.1232-1.67236-4.895-1.67236s-3.49356.58821-4.895 1.67236l-.91-.92c-.18963-.1883-.4463-.29356-.71354-.29263-.26724.00094-.52316.108-.71146.29763-.18831.18963-.29357.4463-.29263.71354s.108.52316.29763.71146l.92.91c-1.09699 1.39755-1.69221 3.1233-1.69 4.9-.00327 1.2754.29846 2.5331.88002 3.6683.58156 1.1351 1.42609 2.1147 2.46317 2.8571 1.03707.7425 2.23662 1.2262 3.49861 1.4108 1.262.1846 2.5498.0649 3.7561-.3493s2.2961-1.1108 3.1785-2.0317c.8824-.921 1.5318-2.0395 1.8941-3.2624.3622-1.2229.4269-2.5147.1885-3.7677-.2384-1.2529-.7729-2.4307-1.559-3.4351zm-6.3 10.91c-1.1867 0-2.34673-.3519-3.33343-1.0112-.98669-.6593-1.75573-1.5963-2.20985-2.6927-.45413-1.0964-.57295-2.3028-.34144-3.4666.23152-1.1639.80296-2.233 1.64208-3.07214.83911-.83912 1.90821-1.41056 3.07214-1.64207 1.1638-.23151 2.3702-.11269 3.4666.34143 1.0964.45413 2.0334 1.22316 2.6927 2.20988.6593.9867 1.0112 2.1467 1.0112 3.3334 0 1.5913-.6321 3.1174-1.7574 4.2426-1.1252 1.1253-2.6513 1.7574-4.2426 1.7574zm-2-15h4c.2652 0 .5196-.10536.7071-.29289.1875-.18754.2929-.44189.2929-.70711s-.1054-.51957-.2929-.70711c-.1875-.18753-.4419-.29289-.7071-.29289h-4c-.26522 0-.51957.10536-.70711.29289-.18754.18754-.29289.44189-.29289.70711s.10535.51957.29289.70711c.18754.18753.44189.29289.70711.29289zm3 6c0-.2652-.1054-.51957-.2929-.70711-.1875-.18753-.4419-.29289-.7071-.29289s-.5196.10536-.7071.29289c-.1875.18754-.2929.44191-.2929.70711v1.89c-.2264.2025-.386.469-.4577.7642-.0716.2953-.052.6053.0564.8891s.3004.5279.5507.7002c.2502.1723.5468.2645.8506.2645s.6004-.0922.8506-.2645.4423-.4164.5507-.7002.128-.5938.0564-.8891c-.0717-.2952-.2313-.5617-.4577-.7642z" fill="#9e9e9e"/></svg>