<svg fill="none" height="24" viewBox="0 0 24 24" width="24" xmlns="http://www.w3.org/2000/svg"><path clip-rule="evenodd" d="m19 22c1.6569 0 3-1.3431 3-3v-10.22584c0-.77805-.3023-1.52566-.843-2.08507l-3.6484-3.77416c-.5652-.58474-1.3437-.91493-2.157-.91493h-10.3516c-1.65686 0-3 1.34315-3 3v14c0 1.6569 1.34315 3 3 3zm-14-18c-.55229 0-1 .44771-1 1v14c0 .5523.44772 1 1 1h1v-6.0009c0-1.1057.89656-1.9991 2-1.9991h8c1.1046 0 2 .8954 2 2v6h1c.5523 0 1-.4477 1-1v-10.22584c0-.25935-.1008-.50856-.281-.69502l-3.6484-3.77416c-.1884-.19492-.4479-.30498-.719-.30498h-.3516v3c0 1.10457-.8954 2-2 2h-5c-1.10457 0-2-.89543-2-2v-3zm11 16v-6h-8v6zm-8-16h5v3h-5z" fill="#9e9e9e" fill-rule="evenodd"/></svg>