<svg fill="none" height="24" viewBox="0 0 24 24" width="24" xmlns="http://www.w3.org/2000/svg"><path d="m21.71 20.29-3.71-3.68c1.4401-1.7956 2.1375-4.0747 1.9488-6.3687s-1.2491-4.42852-2.9633-5.96466c-1.7141-1.53614-3.9517-2.35713-6.2526-2.29417-2.30083.06296-4.49015 1.00509-6.11773 2.63267s-2.56971 3.81689-2.63267 6.11776c-.06296 2.3009.75803 4.5385 2.29417 6.2526 1.53614 1.7142 3.67066 2.7746 5.96463 2.9633 2.294.1887 4.5731-.5087 6.3687-1.9488l3.68 3.68c.093.0937.2036.1681.3254.2189.1219.0508.2526.0769.3846.0769s.2627-.0261.3846-.0769.2325-.1252.3254-.2189c.1803-.1865.281-.4357.281-.695s-.1007-.5085-.281-.695zm-10.71-2.29c-1.38444 0-2.73782-.4105-3.88897-1.1797-1.15114-.7692-2.04835-1.8624-2.57816-3.1415s-.66844-2.6866-.39834-4.04444c.2701-1.35786.93678-2.60514 1.91575-3.58411s2.22625-1.64565 3.58411-1.91575c1.35791-.2701 2.76531-.13147 4.04441.39834s2.3723 1.42702 3.1415 2.57816c.7692 1.15115 1.1797 2.50453 1.1797 3.889 0 1.8565-.7375 3.637-2.0502 4.9497-1.3128 1.3128-3.0933 2.0503-4.9498 2.0503z" fill="#9e9e9e"/></svg>