<svg fill="none" height="24" viewBox="0 0 24 24" width="24" xmlns="http://www.w3.org/2000/svg"><path d="m6.804 15c-.13261-.2297-.35103-.3973-.6072-.4659s-.52912-.0327-.7588.0999l-1.732 1c-.22781.1336-.39354.3518-.46104.6071-.06749.2553-.03127.5269.10077.7556.13203.2287.34916.3959.60401.465.25484.0692.5267.0348.75626-.0957l1.732-1c.22967-.1326.39726-.351.4659-.6072s.0327-.5291-.0999-.7588zm-3.098-6.634 1.732 1c.11377.0667.23961.11023.37027.1281.13067.01786.26358.00971.39108-.024s.24707-.0923.35183-.17241.19264-.18015.25858-.29436.10864-.24034.12564-.37112.00796-.26363-.02659-.3909c-.03455-.12728-.09394-.24646-.17474-.35068-.0808-.10423-.18142-.19145-.29607-.25663l-1.732-1c-.22956-.13052-.50142-.16494-.75626-.09575-.25485.06919-.47198.23637-.60401.46506-.13204.22868-.16826.50031-.10077.75561.0675.25529.23323.47353.46104.60708zm2.294 3.634c0-.2652-.10536-.5196-.29289-.7071-.18754-.1875-.44189-.2929-.70711-.2929h-2c-.26522 0-.51957.1054-.70711.2929-.18753.1875-.29289.4419-.29289.7071s.10536.5196.29289.7071c.18754.1875.44189.2929.70711.2929h2c.26522 0 .51957-.1054.70711-.2929.18753-.1875.29289-.4419.29289-.7071zm11.196-3c.1326.22967.351.39726.6072.4659s.5291.0327.7588-.0999l1.732-1c.1146-.06518.2153-.1524.2961-.25663.0808-.10422.1402-.2234.1747-.35068.0346-.12727.0436-.26012.0266-.3909s-.0597-.25691-.1256-.37112c-.066-.11421-.1539-.21425-.2586-.29436-.1048-.0801-.2244-.1387-.3519-.17241s-.2604-.04186-.391-.024c-.1307.01787-.2565.0614-.3703.1281l-1.732 1c-.2297.13261-.3973.35103-.4659.6072s-.0327.52912.0999.7588zm-2.196-2.196c.2297.1326.5026.16854.7588.0999s.4746-.23623.6072-.4659l1-1.732c.0667-.11377.1102-.23961.1281-.37028.0179-.13066.0097-.26357-.024-.39107s-.0923-.24707-.1724-.35183-.1802-.19264-.2944-.25858c-.1142-.06595-.2403-.10864-.3711-.12564s-.2636-.00796-.3909.02659-.2464.09394-.3507.17474c-.1042.0808-.1914.18142-.2566.29607l-1 1.732c-.1326.22968-.1685.50263-.0999.7588s.2362.47459.4659.6072zm5.294 8.83-1.732-1c-.1138-.0667-.2396-.1102-.3703-.1281-.1306-.0179-.2635-.0097-.391.024s-.2471.0923-.3519.1724c-.1047.0801-.1926.1802-.2586.2944-.0659.1142-.1086.2403-.1256.3711s-.008.2636.0266.3909c.0345.1273.0939.2464.1747.3507.0808.1042.1815.1914.2961.2566l1.732 1c.2296.1305.5014.1649.7563.0957.2548-.0691.4719-.2363.604-.465.132-.2287.1682-.5003.1007-.7556s-.2332-.4735-.461-.6071zm-3.928 1.928c-.0652-.1146-.1524-.2153-.2566-.2961-.1043-.0808-.2234-.1402-.3507-.1747-.1273-.0346-.2601-.0436-.3909-.0266s-.2569.0597-.3711.1256c-.1142.066-.2143.1539-.2944.2586-.0801.1048-.1387.2244-.1724.3519s-.0419.2604-.024.391c.0179.1307.0614.2565.1281.3703l1 1.732c.0652.1146.1524.2153.2566.2961.1043.0808.2234.1402.3507.1747.1273.0346.2601.0436.3909.0266s.2569-.0597.3711-.1256c.1142-.066.2143-.1539.2944-.2586.0801-.1048.1387-.2244.1724-.3519s.0419-.2604.024-.391c-.0179-.1307-.0614-.2565-.1281-.3703zm4.634-6.562h-2c-.2652 0-.5196.1054-.7071.2929s-.2929.4419-.2929.7071.1054.5196.2929.7071.4419.2929.7071.2929h2c.2652 0 .5196-.1054.7071-.2929s.2929-.4419.2929-.7071-.1054-.5196-.2929-.7071-.4419-.2929-.7071-.2929zm-9 7c-.2652 0-.5196.1054-.7071.2929s-.2929.4419-.2929.7071v2c0 .2652.1054.5196.2929.7071s.4419.2929.7071.2929.5196-.1054.7071-.2929.2929-.4419.2929-.7071v-2c0-.2652-.1054-.5196-.2929-.7071s-.4419-.2929-.7071-.2929zm-3-.804c-.22968-.1326-.50263-.1685-.7588-.0999s-.47459.2362-.6072.4659l-1 1.732c-.13052.2296-.16494.5014-.09575.7563.06919.2548.23637.4719.46506.604.22868.132.50031.1682.75561.1007.25529-.0675.47353-.2332.60708-.461l1-1.732c.1326-.2297.16854-.5026.0999-.7588s-.23623-.4746-.4659-.6072zm3-15.196c-.2652 0-.5196.10536-.7071.29289-.1875.18754-.2929.44189-.2929.70711v2c0 .26522.1054.51957.2929.70711.1875.18753.4419.29289.7071.29289s.5196-.10536.7071-.29289c.1875-.18754.2929-.44189.2929-.70711v-2c0-.26522-.1054-.51957-.2929-.70711-.1875-.18753-.4419-.29289-.7071-.29289z" fill="#000"/></svg>