<svg fill="none" height="24" viewBox="0 0 24 24" width="24" xmlns="http://www.w3.org/2000/svg"><path d="m19.088 4.95453c-.0073-.00781-.0095-.01819-.0171-.02582-.0077-.00763-.0182-.00995-.0261-.01733-1.8705-1.86445-4.4037-2.91138-7.0447-2.91138-2.64102 0-5.17431 1.04693-7.04477 2.91138-.00787.00738-.01837.00964-.02606.01733s-.00983.018-.01715.02582c-1.39375 1.40042-2.34141 3.18233-2.72339 5.12087-.38198 1.9385-.18116 3.9467.57712 5.7711.75828 1.8245 2.04003 3.3835 3.68348 4.4802 1.64346 1.0967 3.57497 1.682 5.55077 1.682 1.9757 0 3.9072-.5853 5.5507-1.682s2.9252-2.6557 3.6835-4.4802c.7583-1.8244.9591-3.8326.5771-5.7711-.382-1.93854-1.3296-3.72045-2.7234-5.12087zm-7.088 15.04547c-1.1977-.0004-2.38002-.2702-3.45932-.7896-1.0793-.5193-2.02794-1.2747-2.77566-2.2104h4.01527c.27811.3144.61981.5661 1.00241.7385.3827.1724.7976.2615 1.2173.2615s.8346-.0891 1.2173-.2615.7244-.4241 1.0024-.7385h4.0154c-.7478.9357-1.6964 1.6911-2.7757 2.2105-1.0793.5193-2.2616.7891-3.4594.7895zm-1-5c0-.1978.0587-.3911.1685-.5556.1099-.1644.2661-.2926.4488-.3683.1828-.0757.3838-.0955.5778-.0569s.3722.1338.512.2737c.1399.1398.2351.318.2737.512s.0188.3951-.0569.5778-.2039.3389-.3683.4488c-.1645.1098-.3578.1685-.5556.1685-.2651-.0003-.5193-.1057-.7068-.2932s-.2929-.4417-.2932-.7068zm8.4102.0021-.0103-.0021h-4.3999c-.0019-.6184-.1952-1.221-.5533-1.7252-.3581-.5041-.8634-.8851-1.4467-1.0905v-3.1843c0-.26522-.1053-.51957-.2929-.70711-.1875-.18753-.4419-.29289-.7071-.29289s-.5196.10536-.7071.29289c-.1875.18754-.2929.44189-.2929.70711v3.1843c-.5832.2054-1.08862.5864-1.44672 1.0905-.35809.5042-.55136 1.1068-.55326 1.7252h-4.3999l-.01032.0021c-.26011-.6418-.43503-1.3149-.52032-2.0021h.93054c.26521 0 .51957-.1054.7071-.2929.18754-.1875.2929-.4419.2929-.7071s-.10536-.5196-.2929-.7071c-.18753-.1875-.44189-.2929-.7071-.2929h-.93054c.17868-1.42143.73809-2.76818 1.61908-3.89789l.65472.65473c.09284.09285.20307.1665.32439.21675.12131.05025.25133.07611.38264.07611s.26133-.02586.38264-.07611c.12132-.05025.23154-.12391.32439-.21676s.1665-.20307.21675-.32439c.05025-.12131.07611-.25133.07611-.38264s-.02586-.26133-.07611-.38264-.12391-.23154-.21675-.32439l-.65466-.65466c1.12963-.8807 2.47615-1.43994 3.89732-1.61865v.93054c0 .26522.1054.51957.2929.70711.1875.18753.4419.29289.7071.29289s.5196-.10536.7071-.29289c.1876-.18754.2929-.44189.2929-.70711v-.93054c1.4212.17871 2.7677.73795 3.8974 1.61865l-.6547.65466c-.1875.18752-.2929.44184-.2929.70703s.1054.51952.2929.70703c.1875.18752.4418.29287.707.29287s.5195-.10534.7071-.29286l.6547-.65473c.881 1.12971 1.4404 2.47646 1.6191 3.89789h-.9306c-.2652 0-.5196.1054-.7071.2929s-.2929.4419-.2929.7071.1054.5196.2929.7071.4419.2929.7071.2929h.9306c-.0853.6872-.2603 1.3603-.5204 2.0021z" fill="#9e9e9e"/></svg>