<svg fill="none" height="24" viewBox="0 0 24 24" width="24" xmlns="http://www.w3.org/2000/svg"><path d="m17 3.5h-10c-.92826 0-1.8185.36875-2.47487 1.02513-.65638.65637-1.02513 1.54661-1.02513 2.47487v10c0 .9283.36875 1.8185 1.02513 2.4749.65637.6564 1.54661 1.0251 2.47487 1.0251h10c.9283 0 1.8185-.3687 2.4749-1.0251s1.0251-1.5466 1.0251-2.4749v-10c0-.92826-.3687-1.8185-1.0251-2.47487-.6564-.65638-1.5466-1.02513-2.4749-1.02513zm-6.5 2h3v3h-3zm-2 13h-1.5c-.39782 0-.77936-.158-1.06066-.4393s-.43934-.6629-.43934-1.0607v-1.5h3zm5 0h-3v-3h3zm5-1.5c0 .3978-.158.7794-.4393 1.0607s-.6629.4393-1.0607.4393h-1.5v-3h3zm0-3.5h-13v-6.5c0-.39782.15804-.77936.43934-1.06066s.66284-.43934 1.06066-.43934h1.5v4c0 .26522.10536.5196.29289.7071.18754.1875.44189.2929.70711.2929h9zm0-5h-3v-3h1.5c.3978 0 .7794.15804 1.0607.43934s.4393.66284.4393 1.06066z" fill="#9e9e9e"/></svg>