<svg fill="none" height="24" viewBox="0 0 24 24" width="24" xmlns="http://www.w3.org/2000/svg"><g fill="#9e9e9e"><path d="m11 21h-5c-1.6543 0-3-1.3457-3-3v-12c0-1.6543 1.3457-3 3-3h12c1.6543 0 3 1.3457 3 3v5c0 .5522-.4478 1-1 1s-1-.4478-1-1v-5c0-.55127-.4487-1-1-1h-12c-.55127 0-1 .44873-1 1v12c0 .5518.44873 1 1 1h5c.5522 0 1 .4473 1 1s-.4478 1-1 1z"/><path d="m10 13c-.26416 0-.51904-.1045-.70703-.2929l-2-2c-.39063-.3907-.39063-1.02348 0-1.4141s1.02344-.39063 1.41406 0l1.18457 1.1846 2.3086-3.07767c.3311-.44043.957-.53174 1.3999-.19971.4419.33105.5313.95801.1997 1.3999l-3 3.99998c-.1738.2319-.4399.377-.729.3975-.0234.0014-.0474.0024-.0708.0024z"/><path d="m15 16c.5523 0 1-.4477 1-1s-.4477-1-1-1-1 .4477-1 1 .4477 1 1 1z"/><path d="m19 16c.5523 0 1-.4477 1-1s-.4477-1-1-1-1 .4477-1 1 .4477 1 1 1z"/><path d="m15 20c.5523 0 1-.4477 1-1s-.4477-1-1-1-1 .4477-1 1 .4477 1 1 1z"/><path d="m19 20c.5523 0 1-.4477 1-1s-.4477-1-1-1-1 .4477-1 1 .4477 1 1 1z"/></g></svg>