<svg fill="none" height="24" viewBox="0 0 24 24" width="24" xmlns="http://www.w3.org/2000/svg"><g clip-rule="evenodd" fill="#9e9e9e" fill-rule="evenodd"><path d="m4 14c0-.5523.44772-1 1-1h5c.5523 0 1 .4477 1 1v5c0 .5523-.4477 1-1 1h-5c-.55228 0-1-.4477-1-1zm2 1v3h3v-3z"/><path d="m13 14c0-.5523.4477-1 1-1h5c.5523 0 1 .4477 1 1v5c0 .5523-.4477 1-1 1h-5c-.5523 0-1-.4477-1-1zm2 1v3h3v-3z"/><path d="m4 5c0-.55228.44772-1 1-1h5c.5523 0 1 .44772 1 1v5c0 .5523-.4477 1-1 1h-5c-.55228 0-1-.4477-1-1zm2 1v3h3v-3z"/><path d="m15.7929 3.79286c.3905-.39052 1.0237-.39052 1.4142 0l3 2.99995c.3905.39053.3905 1.02369 0 1.41421l-3 2.99998c-.3905.3905-1.0237.3905-1.4142 0l-3-2.99998c-.3905-.39052-.3905-1.02368 0-1.41421zm.7071 2.12132-1.5857 1.58574 1.5857 1.58573 1.5857-1.58573z"/></g></svg>