<svg fill="none" height="24" viewBox="0 0 24 24" width="24" xmlns="http://www.w3.org/2000/svg"><path d="m22 14.86v-.05c-.0121-.1931-.0456-.3843-.1-.57l-1.64-9.72997c-.1172-.70805-.4843-1.35064-1.0347-1.81116-.5504-.46053-1.2477-.70847-1.9653-.69884h-10.57c-.70903.00229-1.39434.25565-1.93435.71512-.54002.45947-.89984 1.09536-1.01565 1.79488l-1.62 9.70997c-.05436.1857-.0879.3769-.1.57v.05c-.02.07-.02.16-.02.16v4c0 .7957.31607 1.5587.87868 2.1213.56261.5627 1.32567.8787 2.12132.8787h14c.7956 0 1.5587-.316 2.1213-.8787.5626-.5626.8787-1.3256.8787-2.1213v-4s0-.09 0-.14zm-16.29-10.02997c.04048-.2348.16346-.44742.34679-.59959.18334-.15217.41498-.23388.65321-.23041h10.6c.2382-.00347.4699.07824.6532.23041s.3063.36479.3468.59959l1.2 7.21997c-.168-.0332-.3388-.0499-.51-.05h-14c-.16454.0013-.32859.0181-.49.05zm14.29 14.16997c0 .2652-.1054.5196-.2929.7071-.1875.1876-.4419.2929-.7071.2929h-14c-.26522 0-.51957-.1053-.70711-.2929-.18753-.1875-.29289-.4419-.29289-.7071v-3.92l.08-.46c.07502-.1826.20242-.3389.36614-.4493.16372-.1103.35643-.1697.55386-.1707h14c.1974.001.3901.0604.5539.1707.1637.1104.2911.2667.3661.4493l.08.46zm-3-3c-.1978 0-.3911.0587-.5556.1686-.1644.1098-.2926.266-.3683.4487-.0757.1828-.0955.3838-.0569.5778s.1338.3722.2737.512c.1398.1399.318.2351.512.2737s.3951.0188.5778-.0569.3389-.2039.4488-.3683c.1099-.1645.1685-.3578.1685-.5556 0-.2652-.1054-.5195-.2929-.7071-.1875-.1875-.4419-.2929-.7071-.2929z" fill="#9e9e9e"/></svg>