<svg fill="none" height="24" viewBox="0 0 24 24" width="24" xmlns="http://www.w3.org/2000/svg"><path d="m19 4h-10c-.26522 0-.51957.10536-.70711.29289-.18753.18754-.29289.44189-.29289.70711v2h-5c-.26522 0-.51957.10536-.70711.29289-.18753.18754-.29289.44189-.29289.70711s.10536.51957.29289.70711c.18754.18753.44189.29289.70711.29289h5v4c0 .2652.10536.5196.29289.7071.18754.1875.44189.2929.70711.2929s.51957-.1054.70711-.2929c.18753-.1875.29289-.4419.29289-.7071v-1h4v7c0 .2652.1054.5196.2929.7071s.4419.2929.7071.2929h2c.7956 0 1.5587-.3161 2.1213-.8787s.8787-1.3257.8787-2.1213v-5.18c.5835-.2063 1.089-.5881 1.4471-1.0929.358-.5049.5512-1.10816.5529-1.7271v-2c0-.79565-.3161-1.55871-.8787-2.12132s-1.3257-.87868-2.1213-.87868zm-1 13c0 .2652-.1054.5196-.2929.7071s-.4419.2929-.7071.2929h-1v-6h2zm2-8c0 .26522-.1054.51957-.2929.70711-.1875.18753-.4419.29289-.7071.29289h-9v-4h6v1c0 .26522.1054.51957.2929.70711.1875.18753.4419.29289.7071.29289s.5196-.10536.7071-.29289c.1875-.18754.2929-.44189.2929-.70711v-1h1c.2652 0 .5196.10536.7071.29289.1875.18754.2929.44189.2929.70711z" fill="#9e9e9e"/></svg>