<svg fill="none" height="24" viewBox="0 0 24 24" width="24" xmlns="http://www.w3.org/2000/svg"><g fill="#9e9e9e"><path d="m9 21h-3c-1.6543 0-3-1.3457-3-3v-12c0-1.6543 1.3457-3 3-3h12c1.6543 0 3 1.3457 3 3v2c0 .55225-.4478 1-1 1s-1-.44775-1-1v-2c0-.55127-.4487-1-1-1h-12c-.55127 0-1 .44873-1 1v12c0 .5518.44873 1 1 1h3c.55225 0 1 .4473 1 1s-.44775 1-1 1z"/><path d="m10 13c-.26416 0-.51904-.1045-.70703-.2929l-2-2c-.39063-.3907-.39063-1.02348 0-1.4141s1.02344-.39063 1.41406 0l1.18457 1.1846 2.3086-3.07767c.3315-.44043.958-.53174 1.3999-.19971.4419.33105.5313.95801.1997 1.3999l-3 3.99998c-.1738.2319-.4399.377-.729.3975-.0234.0014-.0474.0024-.0708.0024z"/><path d="m17 22c-.5523 0-1-.4473-1-1v-5c0-.5523.4477-1 1-1s1 .4477 1 1v5c0 .5527-.4477 1-1 1z"/><path d="m16.999 17c-.1499 0-.3027-.0337-.4463-.1055l-4-2c-.4941-.247-.6943-.8476-.4473-1.3418.2471-.4941.8467-.6943 1.3418-.4472l4 2c.4942.247.6944.8476.4473 1.3418-.1753.3506-.5283.5527-.8955.5527z"/><path d="m17.001 17c-.3672 0-.7202-.2021-.8955-.5527-.2471-.4942-.0469-1.0947.4473-1.3418l4-2c.4946-.2471 1.0947-.0469 1.3418.4473.247.4941.0468 1.0947-.4473 1.3418l-4 2c-.1436.0717-.2964.1054-.4463.1054z"/><path d="m13.001 15c-.3672 0-.7202-.2022-.8955-.5527-.2471-.4942-.0469-1.0948.4473-1.3418l4-2c.496-.2481 1.0952-.0464 1.3418.4472.247.4942.0468 1.0948-.4473 1.3418l-4 2c-.1436.0718-.2964.1055-.4463.1055z"/><path d="m20.999 15c-.1499 0-.3027-.0337-.4463-.1055l-4-2c-.4941-.247-.6943-.8476-.4473-1.3418.2471-.4936.8472-.6953 1.3418-.4473l4 2c.4942.2471.6944.8477.4473 1.3418-.1753.3506-.5283.5528-.8955.5528z"/><path d="m21 20c-.5523 0-1-.4473-1-1v-5c0-.5523.4477-1 1-1s1 .4477 1 1v5c0 .5527-.4477 1-1 1z"/><path d="m13 20c-.5523 0-1-.4473-1-1v-5c0-.5523.4477-1 1-1s1 .4477 1 1v5c0 .5527-.4477 1-1 1z"/><path d="m16.999 22c-.1499 0-.3027-.0342-.4463-.1055l-4-2c-.4941-.247-.6943-.8476-.4473-1.3418.2471-.4941.8467-.6933 1.3418-.4472l4 2c.4942.247.6944.8476.4473 1.3418-.1753.3506-.5283.5527-.8955.5527z"/><path d="m17.001 22c-.3672 0-.7202-.2021-.8955-.5527-.2471-.4942-.0469-1.0948.4473-1.3418l4-2c.4946-.2461 1.0947-.0469 1.3418.4472.247.4942.0468 1.0948-.4473 1.3418l-4 2c-.1436.0713-.2964.1055-.4463.1055z"/></g></svg>