<svg fill="none" height="24" viewBox="0 0 24 24" width="24" xmlns="http://www.w3.org/2000/svg"><path d="m15 12c0 .1978.0586.3911.1685.5556.1099.1644.2661.2926.4488.3683s.3838.0955.5778.0569.3722-.1338.512-.2737c.1399-.1398.2351-.318.2737-.512s.0188-.3951-.0569-.5778-.2039-.3389-.3683-.4488c-.1645-.1098-.3578-.1685-.5556-.1685-.2652 0-.5196.1054-.7071.2929s-.2929.4419-.2929.7071zm6.71-.71-5-5c-.0934-.09268-.2043-.16601-.3261-.21577s-.2523-.07499-.3839-.07423h-11c-.79565 0-1.55871.31607-2.12132.87868s-.87868 1.32567-.87868 2.12132v6c0 .7957.31607 1.5587.87868 2.1213s1.32567.8787 2.12132.8787h11c.1316.0008.2621-.0245.3839-.0742.1218-.0498.2327-.1231.3261-.2158l5-5c.0937-.093.1681-.2036.2189-.3254.0508-.1219.0769-.2526.0769-.3846s-.0261-.2627-.0769-.3846c-.0508-.1218-.1252-.2324-.2189-.3254zm-6.12 4.71h-10.59c-.26522 0-.51957-.1054-.70711-.2929-.18753-.1875-.29289-.4419-.29289-.7071v-6c0-.26522.10536-.51957.29289-.70711.18754-.18753.44189-.29289.70711-.29289h10.59l4 4z" fill="#9e9e9e"/></svg>