<svg fill="none" height="24" viewBox="0 0 24 24" width="24" xmlns="http://www.w3.org/2000/svg"><path d="m7.5 6c-.29667 0-.58668.08798-.83335.2528-.24668.16482-.43894.39909-.55247.67318s-.14323.57569-.08536.86666c.05788.29097.20074.55824.41052.76802s.47705.35264.76803.41052c.29097.05788.59257.02817.86666-.08536s.50835-.30579.67318-.55246c.16482-.24668.25279-.53669.25279-.83336 0-.39782-.15803-.77935-.43934-1.06066-.2813-.2813-.66283-.43934-1.06066-.43934zm13.62 4.71-8.41-8.42c-.0934-.09268-.2043-.16601-.3261-.21577s-.2523-.07499-.3839-.07423h-9c-.26522 0-.51957.10536-.70711.29289-.18753.18754-.29289.44189-.29289.70711v9c-.00076.1316.02447.2621.07423.3839s.12309.2327.21577.3261l8.42 8.41c.5625.5618 1.325.8774 2.12.8774s1.5575-.3156 2.12-.8774l6.17-6.12c.5618-.5625.8774-1.325.8774-2.12s-.3156-1.5575-.8774-2.12zm-1.41 2.82-6.18 6.17c-.1874.1863-.4408.2908-.705.2908s-.5176-.1045-.705-.2908l-8.12-8.11v-7.59h7.59l8.12 8.12c.0927.0934.166.2043.2158.3261.0497.1218.075.2523.0742.3839-.0011.2623-.1053.5137-.29.7z" fill="#9e9e9e"/></svg>