<svg fill="none" height="24" viewBox="0 0 24 24" width="24" xmlns="http://www.w3.org/2000/svg"><path d="m10 18c.2652 0 .5196-.1054.7071-.2929s.2929-.4419.2929-.7071v-6c0-.2652-.1054-.5196-.2929-.7071s-.4419-.2929-.7071-.2929c-.26522 0-.51957.1054-.70711.2929-.18753.1875-.29289.4419-.29289.7071v6c0 .2652.10536.5196.29289.7071.18754.1875.44189.2929.70711.2929zm10-12h-4v-1c0-.79565-.3161-1.55871-.8787-2.12132s-1.3257-.87868-2.1213-.87868h-2c-.7956 0-1.55871.31607-2.12132.87868s-.87868 1.32567-.87868 2.12132v1h-4c-.26522 0-.51957.10536-.70711.29289-.18753.18754-.29289.44189-.29289.70711s.10536.51957.29289.70711c.18754.18753.44189.29289.70711.29289h1v11c0 .7956.31607 1.5587.87868 2.1213s1.32567.8787 2.12132.8787h8c.7956 0 1.5587-.3161 2.1213-.8787s.8787-1.3257.8787-2.1213v-11h1c.2652 0 .5196-.10536.7071-.29289.1875-.18754.2929-.44189.2929-.70711s-.1054-.51957-.2929-.70711c-.1875-.18753-.4419-.29289-.7071-.29289zm-10-1c0-.26522.1054-.51957.2929-.70711.1875-.18753.4419-.29289.7071-.29289h2c.2652 0 .5196.10536.7071.29289.1875.18754.2929.44189.2929.70711v1h-4zm7 14c0 .2652-.1054.5196-.2929.7071s-.4419.2929-.7071.2929h-8c-.26522 0-.51957-.1054-.70711-.2929-.18753-.1875-.29289-.4419-.29289-.7071v-11h10zm-3-1c.2652 0 .5196-.1054.7071-.2929s.2929-.4419.2929-.7071v-6c0-.2652-.1054-.5196-.2929-.7071s-.4419-.2929-.7071-.2929-.5196.1054-.7071.2929-.2929.4419-.2929.7071v6c0 .2652.1054.5196.2929.7071s.4419.2929.7071.2929z" fill="#9e9e9e"/></svg>