<svg fill="none" height="24" viewBox="0 0 24 24" width="24" xmlns="http://www.w3.org/2000/svg"><path clip-rule="evenodd" d="m22 14.81v.05.14 4c0 .7957-.3161 1.5587-.8787 2.1213-.5626.5627-1.3257.8787-2.1213.8787h-14c-.79565 0-1.55871-.316-2.12132-.8787-.56261-.5626-.87868-1.3256-.87868-2.1213v-4s0-.09.02-.16v-.05c.0121-.1931.04564-.3843.1-.57l1.62-9.70997c.11581-.69952.47563-1.33541 1.01565-1.79488.54001-.45947 1.22532-.71283 1.93435-.71512h10.57c.7176-.00963 1.4149.23831 1.9653.69884.5504.46052.9175 1.10311 1.0347 1.81116l1.64 9.72997c.0544.1857.0879.3769.1.57zm-15.94321-10.57956c-.18333.15217-.30631.36479-.34679.59959l-1.2 7.21997c.16141-.0319.32546-.0487.49-.05h14c.1712.0001.342.0168.51.05l-1.2-7.21997c-.0405-.2348-.1635-.44742-.3468-.59959s-.415-.23388-.6532-.23041h-2.5955c.0001.16855-.0423.33944-.132.49628l-1.1091 1.94091 1.8428.61427c.275.09167.4967.29817.6077.566.1109.26782.1002.57061-.0295.82989l-1 2.00002c-.247.494-.8476.6942-1.3416.4472s-.6942-.8477-.4472-1.34164l.4843-.96872-1.9061-.63539c-.2842-.09474-.511-.31191-.6179-.59178-.107-.27986-.0828-.59292.0659-.85304l1.4308-2.504h-5.8526c-.23823-.00347-.46987.07824-.65321.23041zm13.65031 15.47666c.1875-.1875.2929-.4419.2929-.7071v-3.92l-.08-.46c-.075-.1826-.2024-.3389-.3661-.4493-.1638-.1103-.3565-.1697-.5539-.1707h-14c-.19743.001-.39014.0604-.55386.1707-.16372.1104-.29112.2667-.36614.4493l-.08.46v3.92c0 .2652.10536.5196.29289.7071.18754.1876.44189.2929.70711.2929h14c.2652 0 .5196-.1053.7071-.2929zm-3.2627-3.5385c.1645-.1099.3578-.1686.5556-.1686.2652 0 .5196.1054.7071.2929.1875.1876.2929.4419.2929.7071 0 .1978-.0586.3911-.1685.5556-.1099.1644-.2661.2926-.4488.3683s-.3838.0955-.5778.0569-.3722-.1338-.512-.2737c-.1399-.1398-.2351-.318-.2737-.512s-.0188-.395.0569-.5778c.0757-.1827.2039-.3389.3683-.4487z" fill="#9e9e9e" fill-rule="evenodd"/></svg>