<svg fill="none" height="24" viewBox="0 0 24 24" width="24" xmlns="http://www.w3.org/2000/svg"><g fill="#9e9e9e"><path d="m10 21h-4c-1.6543 0-3-1.3457-3-3v-12c0-1.6543 1.3457-3 3-3h12c1.6543 0 3 1.3457 3 3v3c0 .55225-.4478 1-1 1s-1-.44775-1-1v-3c0-.55127-.4487-1-1-1h-12c-.55127 0-1 .44873-1 1v12c0 .5518.44873 1 1 1h4c.5522 0 1 .4473 1 1s-.4478 1-1 1z"/><path d="m10 13c-.26416 0-.51904-.1045-.70703-.2929l-2-2c-.39063-.3907-.39063-1.02348 0-1.4141s1.02344-.39063 1.41406 0l1.18457 1.1846 2.3086-3.07767c.3315-.44043.9575-.53174 1.3999-.19971.4419.33105.5313.95801.1997 1.3999l-3 3.99998c-.1738.2319-.4399.377-.729.3975-.0234.0014-.0474.0024-.0708.0024z"/><path d="m18.8027 16 1.752-1.168c.4594-.3061.5835-.9272.2773-1.3867-.3066-.46-.9282-.5845-1.3867-.2773l-1.4453.9635v-1.1315c0-.5523-.4478-1-1-1-.5523 0-1 .4477-1 1v1.1315l-1.4453-.9635c-.4605-.3072-1.0811-.1827-1.3867.2773-.3062.4595-.1822 1.0806.2773 1.3867l1.752 1.168-1.752 1.168c-.4595.3066-.5835.9267-.2773 1.3867.1928.2891.5097.4453.833.4453.1904 0 .3833-.0547.5537-.168l1.4453-.9635v1.1315c0 .5527.4477 1 1 1 .5522 0 1-.4473 1-1v-1.1315l1.4453.9635c.1704.1133.3633.168.5537.168.3232 0 .6401-.1562.833-.4453.3062-.46.1821-1.0801-.2773-1.3867z"/></g></svg>