<svg width="18" height="12" viewBox="0 0 18 12" fill="none" xmlns="http://www.w3.org/2000/svg">
<path d="M13.4065 0.990969C13.5284 1.04174 13.639 1.11613 13.7319 1.20986C13.8334 1.3035 13.9144 1.41715 13.9698 1.54365C14.0252 1.67015 14.0539 1.80676 14.0539 1.94486C14.0539 2.08296 14.0252 2.21957 13.9698 2.34607C13.9144 2.47257 13.8334 2.58622 13.7319 2.67986L5.57192 10.8399C5.47896 10.9336 5.36836 11.008 5.2465 11.0588C5.12464 11.1095 4.99393 11.1357 4.86192 11.1357C4.72991 11.1357 4.59921 11.1095 4.47735 11.0588C4.35549 11.008 4.24489 10.9336 4.15192 10.8399L0.311922 6.99986C0.215401 6.90662 0.138189 6.79529 0.0846957 6.67221C0.0312022 6.54913 0.00247438 6.41672 0.000152918 6.28254C-0.00216855 6.14836 0.0219619 6.01503 0.0711659 5.89018C0.12037 5.76532 0.193684 5.65138 0.286922 5.55486C0.380161 5.45834 0.491498 5.38113 0.614576 5.32763C0.737655 5.27414 0.870064 5.24541 1.00424 5.24309C1.13843 5.24077 1.27175 5.2649 1.3966 5.3141C1.52146 5.36331 1.6354 5.43662 1.73192 5.52986L4.86192 8.66986L12.3119 1.20986C12.4049 1.11613 12.5155 1.04174 12.6373 0.990969C12.7592 0.940201 12.8899 0.914062 13.0219 0.914062C13.1539 0.914062 13.2846 0.940201 13.4065 0.990969Z" fill="white"/>
<path d="M16.729 4.12117C17.1196 3.73064 17.1196 3.09748 16.729 2.70696C16.3385 2.31643 15.7054 2.31643 15.3148 2.70696L8.72905 9.29274C8.33853 9.68327 8.33853 10.3164 8.72905 10.707C9.11957 11.0975 9.75274 11.0975 10.1433 10.707L16.729 4.12117Z" fill="white"/>
</svg>
