<svg fill="none" height="24" viewBox="0 0 24 24" width="24" xmlns="http://www.w3.org/2000/svg"><g fill="#9e9e9e"><path d="m9 21h-3c-1.6543 0-3-1.3457-3-3v-12c0-1.6543 1.3457-3 3-3h12c1.6543 0 3 1.3457 3 3v1c0 .55225-.4478 1-1 1s-1-.44775-1-1v-1c0-.55127-.4487-1-1-1h-12c-.55127 0-1 .44873-1 1v12c0 .5518.44873 1 1 1h3c.55225 0 1 .4473 1 1s-.44775 1-1 1z"/><path d="m10 13c-.26416 0-.51904-.1045-.70703-.2929l-2-2c-.39063-.3907-.39063-1.02348 0-1.4141s1.02344-.39063 1.41406 0l1.18457 1.1846 2.3086-3.07767c.3315-.44043.958-.53174 1.3999-.19971.4419.33105.5313.95801.1997 1.3999l-3 3.99998c-.1738.2319-.4399.377-.729.3975-.0234.0014-.0474.0024-.0708.0024z"/><path d="m17 15c-1.6543 0-3-1.3457-3-3s1.3457-3 3-3 3 1.3457 3 3-1.3457 3-3 3zm0-4c-.5513 0-1 .4487-1 1s.4487 1 1 1 1-.4487 1-1-.4487-1-1-1z"/><path d="m21 21c-.5522 0-1-.4473-1-1 0-1.1025-.897-2-2-2h-2c-1.103 0-2 .8975-2 2 0 .5527-.4477 1-1 1s-1-.4473-1-1c0-2.206 1.7944-4 4-4h2c2.2056 0 4 1.794 4 4 0 .5527-.4478 1-1 1z"/></g></svg>