<svg fill="none" height="24" viewBox="0 0 24 24" width="24" xmlns="http://www.w3.org/2000/svg"><path d="m21.71 20.29-16-16-2-2c-.1883-.18831-.4437-.29409-.71-.29409s-.52169.10578-.71.29409c-.1883.1883-.29409.4437-.29409.71s.10579.52169.29409.71l1.71 1.7v6.47c.00071 1.4321.34313 2.8433.99883 4.1164.65569 1.2731 1.60573 2.3714 2.77117 3.2036l3.65 2.61c.1694.1206.3721.1854.58.1854s.4106-.0648.58-.1854l3.65-2.61c.3021-.2137.5894-.4476.86-.7l3.2 3.21c.093.0937.2036.1681.3254.2189.1219.0508.2526.0769.3846.0769s.2627-.0261.3846-.0769c.1218-.0508.2324-.1252.3254-.2189.0937-.093.1681-.2036.2189-.3254.0508-.1219.0769-.2526.0769-.3846s-.0261-.2627-.0769-.3846c-.0508-.1218-.1252-.2324-.2189-.3254zm-6.64-2.71-3.07 2.19-3.07-2.19c-.90696-.6482-1.64601-1.5035-2.15565-2.495-.50963-.9914-.77511-2.0902-.77435-3.205v-4.47l9.67 9.68c-.19.17-.39.33-.6.49zm-5-12.51c.6723-.22512 1.3192-.52007 1.93-.88 1.7992 1.09475 3.9027 1.58206 6 1.39v6.3c.0006.3955-.0328.7903-.1 1.18-.0214.1301-.0169.2631.0133.3914.0302.1282.0854.2493.1626.3562.0771.1069.1746.1974.2869.2665.1122.0691.237.1152.3672.1359h.16c.2397.0031.4725-.08.6561-.2342.1835-.1542.3056-.3692.3439-.6058.0785-.4962.1186-.9977.12-1.5v-7.44c-.001-.14771-.0347-.29336-.0986-.4265-.064-.13314-.1567-.25045-.2714-.3435-.1142-.09427-.2479-.162-.3914-.19832s-.2933-.04031-.4386-.01168c-1.0697.23205-2.176.23897-3.2486.02033-1.0725-.21865-2.0879-.65807-2.9814-1.29033-.1674-.11613-.3663-.17836-.57-.17836s-.4026.06223-.57.17836c-.6166.42532-1.2898.76194-2 1-.12475.04202-.24001.10821-.33919.19477-.09918.08657-.18033.19182-.23883.30975s-.0932.24623-.10212.37757.00812.26315.05014.38791c.04203.12475.10821.24001.19478.33919.08656.09918.19181.18033.30975.23883.23817.11815.51352.13685.76547.05198z" fill="#9e9e9e"/></svg>