<svg fill="none" height="24" viewBox="0 0 24 24" width="24" xmlns="http://www.w3.org/2000/svg"><path d="m20.1501 18.5963h-2.4282c-.3643 0-.7285-.241-.8499-.6026-.6071-2.1694-2.5497-3.8567-4.9779-3.8567-2.42829 0-4.3709 1.6873-4.97796 3.8567-.12142.3616-.48565.6026-.84989.6026h-2.42825c-.48565 0-.72847-.4821-.60706-.9642 1.09271-2.8925 3.64238-5.1824 6.79911-5.7851.48565-.6026.48565-1.2052.48565-1.6873-.84989-.60259-1.45696-1.56677-1.8212-2.772-.48565-.12052-.84988-.48209-.84988-1.20523 0-.60261.24283-1.0847.72848-1.20522.36424-2.28993 1.8212-3.97725 3.6424-3.97725s3.2781 1.68732 3.6424 3.97725c.4856.12052.7284.60261.7284 1.20522 0 .60262-.3642 1.08471-.8499 1.20523-.3642 1.20523-.9713 2.16941-1.8212 2.772 0 .4821.1215 1.2053.4857 1.6873 3.1567.7232 5.585 2.8926 6.7991 5.7851-.1214.4821-.3642.9642-.8499.9642zm-4.4922.6026c0 2.0489-1.6998 3.7362-3.7638 3.7362-2.06405 0-3.76384-1.6873-3.76384-3.7362s1.69979-3.7362 3.76384-3.7362c2.064 0 3.7638 1.5668 3.7638 3.7362zm-1.8212-1.4462c-.1214-.1206-.3643-.1206-.4857 0l-2.064 2.1694-.8499-.8437c-.1214-.1205-.3642-.1205-.48565 0-.12141.1205-.12141.3616 0 .4821l1.09275 1.2052c.1214.1205.1214.1205.2428.1205 0 0 .2428 0 .2428-.1205l2.4283-2.4104c0-.2411 0-.3616-.1214-.6026z" fill="#9e9e9e"/></svg>