<svg fill="none" height="24" viewBox="0 0 24 24" width="24" xmlns="http://www.w3.org/2000/svg"><path clip-rule="evenodd" d="m1 3c0-1.10457.89543-2 2-2h18c1.1046 0 2 .89543 2 2v18c0 1.1046-.8954 2-2 2h-18c-1.10457 0-2-.8954-2-2zm19.9926 14.9746c-.0421.6283-.2575 1.123-.6462 1.484-.3862.3609-.8962.5414-1.53.5414-.6932 0-1.2391-.2513-1.6377-.754-.3962-.5054-.5942-1.1979-.5942-2.0776v-.3569c0-.5615.0916-1.0562.2748-1.484s.4444-.7553.7836-.9826c.3416-.2299.7377-.3449 1.1883-.3449.6239 0 1.1265.1805 1.5078.5414.3812.361.6016.8677.661 1.5201h-1.1141c-.0272-.377-.125-.6497-.2934-.8182-.1658-.1711-.4196-.2567-.7613-.2567-.3713 0-.6498.1444-.8355.4332-.1832.2861-.2773.7313-.2823 1.3355v.4412c0 .631.0879 1.0923.2637 1.3837.1783.2915.458.4372.8393.4372.3441 0 .6004-.0842.7687-.2527.1708-.1711.2686-.4345.2934-.7901zm-11.96908-.3971-.57933.6738v1.6685h-1.11409v-5.8396h1.11409v2.6471l.4902-.726 1.37781-1.9211h1.3703l-1.91997 2.5949 1.97567 3.2447h-1.3258zm4.43408.2246-1.7751-3.7219h1.2218l1.1178 2.631 1.1252-2.631h1.2181l-1.7751 3.7219v2.1177h-1.1327zm-8.46338 2.1979c-.58923 0-1.06952-.1952-1.44089-.5856-.36889-.3903-.55333-.9104-.55333-1.5601v-.1123c0-.4358.07799-.8249.23396-1.1671.15597-.345.37631-.6097.66103-.7942.28718-.1871.61398-.2807.9804-.2807.54962 0 .98164.1872 1.29606.5615.31689.3743.47534.9051.47534 1.5922v.4733h-2.55869c.03466.2834.13864.5107.31194.6818.17578.1711.39736.2567.66474.2567.41345 0 .73654-.1618.96926-.4853l.52734.6377c-.16093.246-.37879.4385-.6536.5776-.27481.1363-.57933.2045-.91356.2045zm-.12255-3.5615c-.21291 0-.38621.0775-.51991.2326-.13121.1551-.21539.377-.25252.6658h1.49288v-.0922c-.00495-.2567-.06932-.4546-.19311-.5936-.12379-.1417-.29957-.2126-.52734-.2126zm11.70733-10.96173c.2633-.31974.2175-.79241-.1022-1.05573-.3198-.26332-.7924-.21757-1.0557.10217l-3.6286 4.40607-2.30107-1.99586c-.31291-.27141-.78659-.23776-1.05799.07515-.27141.31292-.23776.7866.07515 1.058l2.88231 2.50003c.1528.1325.3526.1977.5542.1808.2015-.0169.3877-.1145.5162-.2706z" fill="#9e9e9e" fill-rule="evenodd"/></svg>