<svg fill="none" height="24" viewBox="0 0 24 24" width="24" xmlns="http://www.w3.org/2000/svg"><path d="m7.05004 14.835c.18736.1863.44081.2908.705.2908s.51764-.1045.705-.2908l3.58996-3.54 3.54 3.54c.1874.1863.4409.2908.705.2908.2642 0 .5177-.1045.705-.2908.0938-.093.1682-.2036.2189-.3254.0508-.1219.0769-.2526.0769-.3846s-.0261-.2627-.0769-.3846c-.0507-.1218-.1251-.2324-.2189-.3254l-4.24-4.23999c-.0929-.09373-.2035-.16812-.3254-.21889-.1218-.05077-.2525-.07691-.3846-.07691-.132 0-.2627.02614-.3845.07691-.1219.05077-.2325.12516-.3255.21889l-4.28996 4.23999c-.09373.093-.16812.2036-.21889.3254-.05077.1219-.07691.2526-.07691.3846s.02614.2627.07691.3846c.05077.1218.12516.2324.21889.3254z" fill="#9e9e9e"/></svg>