<svg fill="none" height="24" viewBox="0 0 24 24" width="24" xmlns="http://www.w3.org/2000/svg"><path d="m12 13c-.2652 0-.5196.1054-.7071.2929s-.2929.4419-.2929.7071v3c0 .2652.1054.5196.2929.7071s.4419.2929.7071.2929.5196-.1054.7071-.2929.2929-.4419.2929-.7071v-3c0-.2652-.1054-.5196-.2929-.7071s-.4419-.2929-.7071-.2929zm5-4h-8v-2c-.00146-.59381.17334-1.1747.50226-1.6691.32892-.49439.79714-.88005 1.34544-1.10814.5482-.22809 1.1519-.28833 1.7344-.17311s1.1178.40072 1.5379.82035c.3759.38407.6449.85983.78 1.38.0328.12738.0904.24705.1695.35217s.1781.19364.2914.2605.2386.11075.3689.12916c.1302.01842.2628.011.3902-.02183s.2471-.09043.3522-.16951.1936-.17809.2605-.29137c.0668-.11329.1107-.23864.1291-.36889s.011-.26285-.0218-.39023c-.2278-.8652-.6797-1.65506-1.31-2.29-.6998-.69763-1.5907-1.17226-2.56-1.36396-.9694-.19169-1.9739-.09185-2.8865.28692-.91272.37876-1.6927 1.01947-2.24149 1.84121-.5488.82175-.8418 1.78768-.84201 2.77583v2c-.79565 0-1.55871.31607-2.12132.87868-.56261.56262-.87868 1.32572-.87868 2.12132v7c0 .7956.31607 1.5587.87868 2.1213s1.32567.8787 2.12132.8787h10c.7956 0 1.5587-.3161 2.1213-.8787s.8787-1.3257.8787-2.1213v-7c0-.7956-.3161-1.5587-.8787-2.12132-.5626-.56261-1.3257-.87868-2.1213-.87868zm1 10c0 .2652-.1054.5196-.2929.7071s-.4419.2929-.7071.2929h-10c-.26522 0-.51957-.1054-.70711-.2929-.18753-.1875-.29289-.4419-.29289-.7071v-7c0-.2652.10536-.5196.29289-.7071.18754-.1875.44189-.2929.70711-.2929h10c.2652 0 .5196.1054.7071.2929s.2929.4419.2929.7071z" fill="#9e9e9e"/></svg>