<svg fill="none" height="24" viewBox="0 0 24 24" width="24" xmlns="http://www.w3.org/2000/svg"><path d="m8.71 7.70999 2.29-2.3v9.59001c0 .2652.1054.5196.2929.7071s.4419.2929.7071.2929.5196-.1054.7071-.2929.2929-.4419.2929-.7071v-9.59001l2.29 2.3c.093.09373.2036.16812.3254.21889.1219.05077.2526.07691.3846.07691s.2627-.02614.3846-.07691c.1218-.05077.2324-.12516.3254-.21889.0937-.09297.1681-.20357.2189-.32543.0508-.12185.0769-.25256.0769-.38457s-.0261-.26272-.0769-.38458-.1252-.23246-.2189-.32542l-4-4c-.0951-.09104-.2072-.16241-.33-.21-.2435-.10002-.5165-.10002-.76 0-.1228.04759-.2349.11896-.33.21l-4 4c-.09324.09324-.1672.20393-.21766.32575s-.07643.25239-.07643.38425.02597.26243.07643.38425.12442.23251.21766.32575.20393.1672.32575.21766.25239.07643.38425.07643.26243-.02597.38425-.07643.23251-.12442.32575-.21766zm12.29 4.29001c-.2652 0-.5196.1053-.7071.2929-.1875.1875-.2929.4419-.2929.7071v6c0 .2652-.1054.5196-.2929.7071s-.4419.2929-.7071.2929h-14c-.26522 0-.51957-.1054-.70711-.2929-.18753-.1875-.29289-.4419-.29289-.7071v-6c0-.2652-.10536-.5196-.29289-.7071-.18754-.1876-.44189-.2929-.70711-.2929s-.51957.1053-.70711.2929c-.18753.1875-.29289.4419-.29289.7071v6c0 .7956.31607 1.5587.87868 2.1213s1.32567.8787 2.12132.8787h14c.7956 0 1.5587-.3161 2.1213-.8787s.8787-1.3257.8787-2.1213v-6c0-.2652-.1054-.5196-.2929-.7071-.1875-.1876-.4419-.2929-.7071-.2929z" fill="#9e9e9e"/></svg>