<svg fill="none" height="24" viewBox="0 0 24 24" width="24" xmlns="http://www.w3.org/2000/svg"><path d="m14.49 10.86c.3349-.461.5358-1.00571.5805-1.5738s-.0686-1.13747-.3273-1.6452c-.2588-.50772-.6528-.93402-1.1387-1.23175-.4859-.29774-1.0447-.45531-1.6145-.45531s-1.1286.15757-1.6145.45531c-.48585.29773-.87993.72403-1.13865 1.23175-.25873.50773-.37201 1.07711-.32734 1.6452.04468.56809.24558 1.1128.58049 1.5738-.42482.2707-.80304.6084-1.12 1-.08273.107-.14357.2293-.17905.3598-.03548.1306-.04489.2668-.02772.401.01718.1342.06062.2637.12784.3811s.15691.2204.26393.3031c.10703.0827.22931.1436.35985.1791.13054.0354.26679.0449.40097.0277s.26366-.0606.38105-.1279c.1174-.0672.2204-.1569.30313-.2639.2442-.3104.5555-.5616.9105-.7348s.7445-.2638 1.1395-.2652c.395.0014.7845.092 1.1395.2652s.6663.4244.9105.7348c.0941.116.213.2095.348.2735s.2826.097.432.0965c.1875-.0009.3709-.0544.5294-.1545s.2857-.2428.367-.4117.1135-.3572.093-.5436c-.0206-.1863-.0932-.3631-.2094-.5102-.3312-.3993-.7266-.7407-1.17-1.01zm-2.49-.73c-.2138-.0001-.4229-.0632-.6012-.18128-.1783-.11809-.3179-.28602-.4014-.48287-.0836-.19686-.1074-.41393-.0685-.62421.039-.21028.1389-.40446.2873-.55837.1485-.15391.339-.26076.5477-.30722.2087-.04647.4265-.03051.6263.04589.1997.0764.3725.20986.497.38378.1244.17391.195.38058.2028.59428.0054.14647-.0188.29253-.0712.42942-.0524.1369-.1318.26183-.2336.36732-.1017.10549-.2237.18938-.3586.24666-.1349.0572-.28.0867-.4266.0866zm8.46-.5c-.1404-1.46108-.6568-2.86091-1.4988-4.06318-.8421-1.20226-1.9811-2.16599-3.3062-2.79732-1.3251-.63134-2.7911-.90878-4.2553-.80529-1.46415.10348-2.87656.58435-4.0997 1.39579-1.0508.70265-1.93294 1.6293-2.58305 2.71339-.65011 1.0841-1.05205 2.29872-1.17695 3.55661-.12251 1.2497.03468 2.5109.46017 3.6923.4255 1.1813 1.10863 2.2532 1.99983 3.1377l5.3 5.31c.093.0937.2036.1681.3254.2189.1219.0508.2526.0769.3846.0769s.2627-.0261.3846-.0769c.1218-.0508.2324-.1252.3254-.2189l5.28-5.31c.8912-.8845 1.5743-1.9564 1.9998-3.1377.4255-1.1814.5827-2.4426.4602-3.6923zm-3.86 5.42-4.6 4.6-4.6-4.6c-.67791-.6779-1.19719-1.4977-1.52053-2.4002-.32333-.9026-.44268-1.8656-.34947-2.8198.09382-.96889.40177-1.90484.90157-2.74015.49981-.83532 1.17899-1.54914 1.98843-2.08985 1.06095-.70476 2.3063-1.0807 3.58-1.0807s2.5191.37594 3.58 1.0807c.807.53862 1.4847 1.24928 1.9844 2.08094.4996.83166.8089 1.76367.9056 2.72906.0963.9574-.0216 1.9243-.345 2.8306-.3234.9062-.8443 1.7292-1.525 2.4094z" fill="#9e9e9e"/></svg>