<svg fill="none" height="24" viewBox="0 0 24 24" width="24" xmlns="http://www.w3.org/2000/svg"><path d="m19 13c-.2652 0-.5196.1054-.7071.2929s-.2929.4419-.2929.7071v.38l-1.48-1.48c-.5226-.5184-1.2289-.8094-1.965-.8094s-1.4424.291-1.965.8094l-.7.7-2.48-2.48c-.52988-.5044-1.23343-.7857-1.965-.7857s-1.43512.2813-1.965.7857l-1.48 1.48v-5.59998c0-.26522.10536-.51957.29289-.70711.18754-.18753.44189-.29289.70711-.29289h7c.2652 0 .5196-.10536.7071-.2929.1875-.18753.2929-.44189.2929-.7071 0-.26522-.1054-.51957-.2929-.70711-.1875-.18753-.4419-.29289-.7071-.29289h-7c-.79565 0-1.55871.31607-2.12132.87868s-.87868 1.32567-.87868 2.12132v11.99998c0 .7957.31607 1.5587.87868 2.1213s1.32567.8787 2.12132.8787h12c.7956 0 1.5587-.3161 2.1213-.8787s.8787-1.3256.8787-2.1213v-5c0-.2652-.1054-.5196-.2929-.7071s-.4419-.2929-.7071-.2929zm-14 7c-.26522 0-.51957-.1053-.70711-.2929-.18753-.1875-.29289-.4419-.29289-.7071v-3.57l2.9-2.9c.14691-.14.34206-.2181.545-.2181s.39809.0781.545.2181l3.17 3.17 4.3 4.3zm13-1c-.0014.1914-.0646.3773-.18.53l-4.51-4.53.7-.7c.0717-.0732.1573-.1313.2517-.171s.1959-.0601.2983-.0601.2039.0204.2983.0601.18.0978.2517.171l2.89 2.91zm4.71-14.70998-3-3c-.0951-.09104-.2072-.16241-.33-.21-.2435-.10002-.5165-.10002-.76 0-.1228.04759-.2349.11896-.33.21l-3 3c-.0932.09324-.1672.20393-.2177.32575-.0504.12182-.0764.25239-.0764.38425 0 .2663.1058.52169.2941.71.1883.1883.4437.29409.71.29409s.5217-.10579.71-.29409l1.29-1.3v5.58998c0 .2652.1054.5196.2929.7071.1875.1876.4419.2929.7071.2929s.5196-.1053.7071-.2929c.1875-.1875.2929-.4419.2929-.7071v-5.58998l1.29 1.3c.093.09373.2036.16812.3254.21889.1219.05077.2526.07691.3846.07691s.2627-.02614.3846-.07691c.1218-.05077.2324-.12516.3254-.21889.0937-.09297.1681-.20357.2189-.32543.0508-.12185.0769-.25256.0769-.38457s-.0261-.26272-.0769-.38458-.1252-.23246-.2189-.32542z" fill="#9e9e9e"/></svg>