<svg fill="none" height="24" viewBox="0 0 24 24" width="24" xmlns="http://www.w3.org/2000/svg"><path d="m12.43 4.1c-.1624-.07026-.3405-.09617-.5162-.07508-.1757.02108-.3426.0884-.4838.19508l-4.78 3.78h-3.65c-.26522 0-.51957.10536-.70711.29289-.18753.18754-.29289.4419-.29289.70711v6c0 .2652.10536.5196.29289.7071.18754.1875.44189.2929.70711.2929h3.65l4.73 3.78c.1759.1412.3944.2187.62.22.1494.0025.297-.0319.43-.1.1702-.081.314-.2085.4148-.3678.1009-.1592.1547-.3437.1552-.5322v-14c-.0005-.18848-.0543-.37298-.1552-.53222-.1008-.15924-.2446-.28673-.4148-.36778zm-1.43 12.82-3.38-2.7c-.17594-.1412-.39444-.2187-.62-.22h-3v-4h3c.22556-.00131.44406-.07884.62-.22l3.38-2.7zm8.66-10.58c-.1883-.1883-.4437-.29409-.71-.29409s-.5217.10579-.71.29409c-.1883.18831-.2941.4437-.2941.71s.1058.5217.2941.71c.5889.58794 1.049 1.29193 1.3511 2.06725.3022.77535.4398 1.60505.404 2.43635-.0357.8314-.244 1.6462-.6116 2.3927-.3675.7466-.8864 1.4085-1.5235 1.9437-.1547.1323-.2654.3087-.3172.5056s-.0423.4049.0273.5962c.0695.1913.1959.3569.362.4745.1662.1176.3643.1817.5679.1837.2337.0005.4601-.0809.64-.23.8509-.7127 1.5443-1.5947 2.0359-2.5899.4916-.9951.7707-2.0817.8196-3.1906s-.1335-2.2159-.5356-3.25045c-.402-1.03459-1.015-1.97419-1.7999-2.75905zm-2.83 2.83c-.0932-.09324-.2039-.1672-.3258-.21766-.1218-.05046-.2523-.07643-.3842-.07643s-.2624.02597-.3842.07643c-.1219.05046-.2326.12442-.3258.21766s-.1672.20393-.2177.32575c-.0504.12182-.0764.25239-.0764.38425 0 .1319.026.2624.0764.3843.0505.1218.1245.2325.2177.3257.3756.3734.5878.8804.59 1.41.0002.2913-.0632.5792-.1858.8435-.1227.2643-.3016.4986-.5242.6865-.1013.084-.185.1871-.2463.3034-.0614.1163-.0992.2437-.1112.3746-.0121.131.0018.2631.0408.3887.0391.1256.1025.2423.1867.3433.0847.1005.1883.1834.305.2438.1167.0605.2442.0973.3751.1085.131.0111.2628-.0037.3881-.0435.1252-.0399.2414-.104.3418-.1888.4471-.3749.8068-.843 1.0538-1.3717.2471-.5286.3754-1.1048.3762-1.6883-.0056-1.0599-.4256-2.07555-1.17-2.83z" fill="#9e9e9e"/></svg>