<svg fill="none" height="24" viewBox="0 0 24 24" width="24" xmlns="http://www.w3.org/2000/svg"><path d="m21 5h-1v-1c0-.26522-.1054-.51957-.2929-.70711-.1875-.18753-.4419-.29289-.7071-.29289s-.5196.10536-.7071.29289c-.1875.18754-.2929.44189-.2929.70711v1h-12v-1c0-.26522-.10536-.51957-.29289-.70711-.18754-.18753-.44189-.29289-.70711-.29289s-.51957.10536-.70711.29289c-.18753.18754-.29289.44189-.29289.70711v1h-1c-.26522 0-.51957.10536-.70711.29289-.18753.18754-.29289.44189-.29289.70711v6c0 .2652.10536.5196.29289.7071.18754.1875.44189.2929.70711.2929h1v7c0 .2652.10536.5196.29289.7071.18754.1875.44189.2929.70711.2929s.51957-.1054.70711-.2929c.18753-.1875.29289-.4419.29289-.7071v-7h12v7c0 .2652.1054.5196.2929.7071s.4419.2929.7071.2929.5196-.1054.7071-.2929.2929-.4419.2929-.7071v-7h1c.2652 0 .5196-.1054.7071-.2929s.2929-.4419.2929-.7071v-6c0-.26522-.1054-.51957-.2929-.70711-.1875-.18753-.4419-.29289-.7071-.29289zm-17 4.52v-2.52h2.52zm1.34 1.48 4-4h3.33l-4 4zm6.15 0 4-4h3.18l-4 4zm8.51 0h-2.51l2.51-2.51z" fill="#9e9e9e"/></svg>