<svg fill="none" height="24" viewBox="0 0 24 24" width="24" xmlns="http://www.w3.org/2000/svg"><path d="m21 20h-1.24l-4.39-15.8c-.1749-.63224-.5523-1.18971-1.0742-1.58705-.522-.39735-1.1598-.61265-1.8158-.61295h-1c-.6491.00897-1.2778.22826-1.79171.62494-.51389.39669-.88524.94937-1.05829 1.57506l-4.39 15.8h-1.24c-.26522 0-.51957.1054-.70711.2929-.18753.1875-.29289.4419-.29289.7071s.10536.5196.29289.7071c.18754.1875.44189.2929.70711.2929h18c.2652 0 .5196-.1054.7071-.2929s.2929-.4419.2929-.7071-.1054-.5196-.2929-.7071-.4419-.2929-.7071-.2929zm-10.44-15.27c.0605-.2163.192-.40594.3734-.53837s.4022-.19993.6266-.19163h1c.2244-.0083.4452.0592.6266.19163s.3129.32207.3734.53837l.79 3.27h-4.7zm-1.47 5.27h5.82l1.09 4h-8zm-2.77 10 1.11-4h9.14l1.11 4z" fill="#9e9e9e"/></svg>