<svg fill="none" height="24" viewBox="0 0 24 24" width="24" xmlns="http://www.w3.org/2000/svg"><path d="m12 15c-.5933 0-1.1734.1759-1.6667.5056-.49335.3296-.87787.7982-1.10493 1.3463-.22706.5482-.28647 1.1514-.17072 1.7334.11576.5819.40148 1.1165.82104 1.536.41951.4196.95411.7053 1.53601.821.582.1158 1.1852.0564 1.7334-.1707.5481-.227 1.0167-.6116 1.3463-1.1049.3297-.4933.5056-1.0734.5056-1.6667 0-.7957-.3161-1.5587-.8787-2.1213s-1.3256-.8787-2.1213-.8787zm0 4c-.1978 0-.3911-.0587-.5556-.1685-.1644-.1099-.2926-.2661-.3683-.4488-.0757-.1828-.0955-.3838-.0569-.5778s.1338-.3722.2737-.512c.1399-.1399.318-.2351.512-.2737s.3951-.0188.5778.0569.3389.2039.4488.3683c.1099.1645.1685.3578.1685.5556 0 .2652-.1053.5196-.2929.7071-.1875.1875-.4419.2929-.7071.2929zm0-8c-1.8553.0064-3.63344.7428-4.94999 2.05-.18625.1874-.29079.4408-.29079.705s.10454.5176.29079.705c.18736.1862.44081.2908.705.2908.26418 0 .51764-.1046.705-.2908.46446-.4656 1.01621-.8351 1.62369-1.0871.6074-.2521 1.2586-.3818 1.9163-.3818s1.3089.1297 1.9163.3818c.6075.252 1.1593.6215 1.6237 1.0871.1846.1884.4362.2962.7.3.2029.0117.4045-.0387.5781-.1445.1735-.1058.3106-.262.3932-.4477.0825-.1857.1065-.3922.0688-.5919-.0378-.1997-.1355-.3831-.2801-.5259-.658-.6533-1.4382-1.1706-2.2961-1.5223-.8579-.3518-1.7767-.5311-2.7039-.5277zm0-4.00001c-2.91601.00775-5.71141 1.16472-7.77999 3.22001-.09324.0932-.1672.2039-.21766.3257-.05046.1219-.07643.2524-.07643.3843 0 .2663.10578.5217.29409.71.1883.1883.4437.2941.71.2941s.52169-.1058.71-.2941c1.6875-1.68541 3.97499-2.63209 6.35999-2.63209s4.6725.94668 6.36 2.63209c.0934.0927.2043.166.3261.2158.1218.0497.2523.075.3839.0742.1316.0008.2621-.0245.3839-.0742.1219-.0498.2327-.1231.3261-.2158.0937-.093.1681-.2036.2189-.3254.0508-.1219.0769-.2526.0769-.3846s-.0261-.2627-.0769-.3846c-.0508-.1218-.1252-.2324-.2189-.3254-2.0686-2.05529-4.864-3.21226-7.78-3.22001zm10.61.39c-1.393-1.3939-3.047-2.49965-4.8675-3.25407s-3.7719-1.14273-5.7425-1.14273-3.92195.38831-5.74246 1.14273-3.47453 1.86017-4.86753 3.25407c-.18831.18831-.29409.4437-.29409.71s.10578.5217.29409.71c.1883.18831.4437.29409.71.29409s.52169-.10578.71-.29409c2.43778-2.43651 5.74335-3.80522 9.18999-3.80522 3.4467 0 6.7522 1.36871 9.19 3.80522.093.09373.2036.16813.3254.21889.1219.05077.2526.07691.3846.07691s.2627-.02614.3846-.07691c.1218-.05076.2324-.12516.3254-.21889.0937-.09296.1681-.20356.2189-.32542s.0769-.25257.0769-.38458-.0261-.26271-.0769-.38457-.1252-.23247-.2189-.32543z" fill="#9e9e9e"/></svg>