<svg fill="none" height="24" viewBox="0 0 24 24" width="24" xmlns="http://www.w3.org/2000/svg"><path d="m22 16h-2.18c.1164-.3207.1773-.6589.18-1v-5c0-.79565-.3161-1.55871-.8787-2.12132s-1.3257-.87868-2.1213-.87868h-6c-.7956 0-1.55871.31607-2.12132.87868s-.87868 1.32567-.87868 2.12132v5c.0027.3411.06358.6793.18 1h-1.18c-.26522 0-.51957-.1054-.70711-.2929-.18753-.1875-.29289-.4419-.29289-.7071v-10c0-.79565-.31607-1.55871-.87868-2.12132s-1.32567-.87868-2.12132-.87868h-1c-.26522 0-.51957.10536-.70711.29289-.18753.18754-.29289.44189-.29289.70711s.10536.51957.29289.70711c.18754.18753.44189.29289.70711.29289h1c.26522 0 .51957.10536.70711.29289.18753.18754.29289.44189.29289.70711v10c.00369.6569.22288 1.2944.62392 1.8147.40105.5203.96177.8945 1.59608 1.0653-.18417.4505-.25594.9391-.20913 1.4236.0468.4845.21079.9503.4778 1.3573.26701.4069.62904.7428 1.05483.9786s.90257.3645 1.38919.3749c.48662.0105.96847-.0977 1.40401-.315.4355-.2174.8115-.5375 1.0957-.9326.2843-.3951.468-.8535.5356-1.3355.0675-.4821.0167-.9733-.148-1.4313h3.36c-.1645.4531-.2173.9392-.1541 1.4171.0633.4779.2407.9335.5174 1.3283.2767.3947.6444.717 1.0721.9395.4276.2225.9025.3386 1.3846.3386s.957-.1161 1.3846-.3386c.4277-.2225.7954-.5448 1.0721-.9395.2767-.3948.4541-.8504.5174-1.3283.0632-.4779.0104-.964-.1541-1.4171h1.18c.2652 0 .5196-.1054.7071-.2929s.2929-.4419.2929-.7071-.1054-.5196-.2929-.7071-.4419-.2929-.7071-.2929zm-13 4c-.19778 0-.39112-.0586-.55557-.1685s-.29262-.2661-.36831-.4488-.09549-.3838-.05691-.5778c.03859-.194.13383-.3722.27368-.512.13986-.1399.31804-.2351.51202-.2737s.39505-.0188.57777.0569c.18273.0757.33891.2039.44879.3683.10988.1645.16853.3578.16853.5556 0 .2652-.10536.5196-.29289.7071-.18754.1875-.44189.2929-.70711.2929zm2-4c-.2652 0-.5196-.1054-.7071-.2929s-.2929-.4419-.2929-.7071v-5c0-.26522.1054-.51957.2929-.70711.1875-.18753.4419-.29289.7071-.29289h6c.2652 0 .5196.10536.7071.29289.1875.18754.2929.44189.2929.70711v5c0 .2652-.1054.5196-.2929.7071s-.4419.2929-.7071.2929zm7 4c-.1978 0-.3911-.0586-.5556-.1685-.1644-.1099-.2926-.2661-.3683-.4488s-.0955-.3838-.0569-.5778.1338-.3722.2737-.512c.1398-.1399.318-.2351.512-.2737s.3951-.0188.5778.0569.3389.2039.4488.3683c.1099.1645.1685.3578.1685.5556 0 .2652-.1054.5196-.2929.7071s-.4419.2929-.7071.2929z" fill="#9e9e9e"/></svg>