<svg fill="none" height="24" viewBox="0 0 24 24" width="24" xmlns="http://www.w3.org/2000/svg"><g clip-rule="evenodd" fill="#9e9e9e" fill-rule="evenodd"><path d="m21 8c.5523 0 1 .44772 1 1v9c0 1.6569-1.3431 3-3 3h-14c-1.65685 0-3-1.3431-3-3v-4c0-.5523.44772-1 1-1s1 .4477 1 1v4c0 .5523.44772 1 1 1h14c.5523 0 1-.4477 1-1v-9c0-.55228.4477-1 1-1z"/><path d="m3 4c-.55228 0-1 .44772-1 1s.44772 1 1 1h3c.55228 0 1 .44772 1 1v2.58579l-.29289-.2929c-.39053-.39052-1.02369-.39052-1.41422 0-.39052.39053-.39052 1.02371 0 1.41421l2 2c.39053.3905 1.02369.3905 1.41422 0l1.99999-2c.3905-.3905.3905-1.02368 0-1.41421-.3905-.39052-1.02368-.39052-1.41421 0l-.29289.2929v-2.58579c0-1.65685-1.34315-3-3-3z"/><path d="m17 3c-1.6569 0-3 1.34315-3 3v7.5858l-.2929-.2929c-.3905-.3905-1.0237-.3905-1.4142 0s-.3905 1.0237 0 1.4142l2 2c.3905.3905 1.0237.3905 1.4142 0l2-2c.3905-.3905.3905-1.0237 0-1.4142s-1.0237-.3905-1.4142 0l-.2929.2929v-7.5858c0-.55228.4477-1 1-1h4c.5523 0 1-.44772 1-1s-.4477-1-1-1z"/></g></svg>