<svg fill="none" height="24" viewBox="0 0 24 24" width="24" xmlns="http://www.w3.org/2000/svg"><path d="m6.92002 5.51-3.21-3.22c-.09324-.09324-.20393-.1672-.32576-.21766-.12182-.05046-.25239-.07643-.38424-.07643-.13186 0-.26243.02597-.38425.07643-.12183.05046-.23252.12442-.32575.21766-.18831.18831-.2941.4437-.2941.71s.10579.5217.2941.71l2.27 2.29c-1.15304.65548-2.21538 1.45897-3.16 2.39-.18626.18737-.2908.44082-.2908.705 0 .26419.10454.51764.2908.705.09261.09449.20305.16966.32493.2212.12188.0515.25276.0783.38507.0788.26233-.0011.51373-.10525.7-.29.95294-.94503 2.04575-1.73766 3.24-2.35l1.49 1.54c-1.23927.5417-2.36554 1.3118-3.32 2.27-.104.0904-.18819.2013-.24729.3258-.05909.1245-.09183.2598-.09615.3976-.00432.1377.01987.2748.07105.4027.05119.128.12826.244.22638.3407.09813.0967.21519.1722.34384.2215.12864.0494.26611.0716.40376.0654.13765-.0063.27252-.041.39615-.1018.12362-.0609.23334-.1466.32226-.2519.96956-.9652 2.15083-1.6911 3.45-2.12l1.61998 1.61c-1.38631.2667-2.66104.9424-3.65998 1.94-.104.0904-.18819.2013-.24729.3258-.05909.1245-.09183.2598-.09615.3976-.00432.1377.01987.2748.07105.4027.05119.128.12826.244.22638.3407.09813.0967.21519.1722.34384.2215.12864.0494.26611.0716.40376.0654.13765-.0063.27252-.041.39615-.1018.12362-.0609.23334-.1466.32226-.2519.4607-.4701 1.00968-.8445 1.61548-1.1019.6057-.2574 1.2564-.3927 1.9145-.3981.211.0006.4216.0173.63.05l7.66 7.66c.093.0937.2036.1681.3254.2189.1219.0508.2526.0769.3846.0769s.2627-.0261.3846-.0769.2325-.1252.3254-.2189c.0937-.093.1681-.2036.2189-.3254.0508-.1219.0769-.2526.0769-.3846s-.0261-.2627-.0769-.3846c-.0508-.1218-.1252-.2324-.2189-.3254zm5.07998 10.49c-.5933 0-1.1733.1759-1.6667.5056-.49334.3296-.87786.7982-1.10492 1.3464-.22707.5481-.28648 1.1513-.17072 1.7333.11576.5819.40148 1.1165.82103 1.536.41961.4196.95411.7053 1.53601.8211.582.1157 1.1852.0563 1.7334-.1708.5481-.227 1.0167-.6115 1.3463-1.1049.3297-.4933.5056-1.0734.5056-1.6667 0-.7956-.3161-1.5587-.8787-2.1213s-1.3256-.8787-2.1213-.8787zm0 4c-.1978 0-.3911-.0586-.5556-.1685-.1644-.1099-.2926-.2661-.3683-.4488s-.0955-.3838-.0569-.5778.1339-.3722.2737-.512c.1399-.1399.318-.2351.512-.2737s.3951-.0188.5778.0569.3389.2039.4488.3683c.1099.1645.1685.3578.1685.5556 0 .2652-.1053.5196-.2929.7071-.1875.1875-.4419.2929-.7071.2929zm10.61-11.61c-1.598-1.59658-3.5359-2.81163-5.6692-3.55446s-4.4068-.99427-6.6508-.73554c-.1313.01445-.2585.05462-.3743.11822-.11579.0636-.21793.14938-.30057.25246-.16691.20816-.24429.47411-.21512.73932.02918.26522.16251.50798.37068.67489s.47411.24429.73931.21511c1.946-.22209 3.917-.00399 5.7673.63817 1.8504.64217 3.5327 1.69198 4.9227 3.07183.1883.18698.4432.2915.7086.2906.2653-.001.5194-.10729.7064-.2956.187-.1883.2915-.44317.2906-.70853-.001-.26537-.1073-.51949-.2956-.70647zm-4.25 4.24c.1901.1653.4356.2527.6874.2448s.4914-.1105.6708-.2874.2854-.4149.2969-.6666c.0114-.2516-.0725-.4983-.2351-.6908-1.3358-1.3512-3.0058-2.32424-4.84-2.82-.1307-.05047-.2705-.07293-.4104-.06591s-.2768.04336-.4018.10666c-.1249.0633-.2352.15215-.3236.2608-.0885.10864-.1531.23465-.1897.36987s-.0444.27662-.0229.41504c.0215.13843.0719.27079.1478.3885.076.11774.1758.21814.293.29484.1173.0767.2493.1278.3876.1502 1.4902.413 2.8477 1.2055 3.94 2.3z" fill="#9e9e9e"/></svg>