<svg fill="none" height="24" viewBox="0 0 24 24" width="24" xmlns="http://www.w3.org/2000/svg"><g fill="#9e9e9e"><path d="m16 12c0 .5523-.4477 1-1 1s-1-.4477-1-1 .4477-1 1-1 1 .4477 1 1z"/><path clip-rule="evenodd" d="m22 18c0 1.6569-1.3431 3-3 3h-14c-1.65685 0-3-1.3431-3-3v-12c0-1.65685 1.34315-3 3-3h14c1.6569 0 3 1.34315 3 3zm-3-13h-14c-.55228 0-1 .44772-1 1v12c0 .5523.44772 1 1 1h14c.5523 0 1-.4477 1-1v-2h-8c-.5523 0-1-.4477-1-1v-6c0-.55228.4477-1 1-1h8v-2c0-.55229-.4477-1-1-1zm1 5h-7v4h7z" fill-rule="evenodd"/></g></svg>