<svg fill="none" height="24" viewBox="0 0 24 24" width="24" xmlns="http://www.w3.org/2000/svg"><path clip-rule="evenodd" d="m12.7343 3h3.2657c1.1046 0 2 .89543 2 2v7c0 1.1046-.8954 2-2 2h-3v1.18c.4194.1493.8003.3901 1.1151.7049s.5556.6957.7049 1.1151h6.18c.2652 0 .5196.1054.7071.2929s.2929.4419.2929.7071-.1054.5196-.2929.7071-.4419.2929-.7071.2929h-6.18c-.2102.5792-.5936 1.0795-1.0982 1.4332-.5045.3536-1.1057.5433-1.7218.5433s-1.2173-.1897-1.7218-.5433c-.50457-.3537-.888-.854-1.0982-1.4332h-6.18c-.26522 0-.51957-.1054-.70711-.2929-.18753-.1875-.29289-.4419-.29289-.7071s.10536-.5196.29289-.7071c.18754-.1875.44189-.2929.70711-.2929h6.18c.14932-.4194.39011-.8003.7049-1.1151.3148-.3148.6957-.5556 1.1151-.7049v-1.18h-3c-1.10457 0-2-.8954-2-2v-7c0-1.10457.89543-2 2-2h4.6961c.0127-.00024.0255-.00024.0382 0zm-.2609 3.43704.8212-1.43704h2.7054v7h-8v-7h2.9911l-.8593 1.50385c-.14868.26012-.17287.57318-.0659.85304.1069.27986.3337.49704.6179.59178l1.9061.63539-.4843.96871c-.247.49403-.0468 1.09463.4472 1.34163s1.0946.0468 1.3416-.4472l1-2c.1297-.25929.1404-.56207.0295-.8299-.111-.26782-.3327-.47432-.6077-.566zm-1.029 12.39446c.1645.1099.3578.1685.5556.1685.2652 0 .5196-.1054.7071-.2929s.2929-.4419.2929-.7071c0-.1978-.0586-.3911-.1685-.5556-.1099-.1644-.2661-.2926-.4488-.3683s-.3838-.0955-.5778-.0569-.3722.1338-.512.2737c-.1399.1398-.2351.318-.2737.512s-.0188.3951.0569.5778.2039.3389.3683.4488z" fill="#9e9e9e" fill-rule="evenodd"/></svg>