<svg fill="none" height="24" viewBox="0 0 24 24" width="24" xmlns="http://www.w3.org/2000/svg"><path d="m21.12 2.88002c-.5723-.543-1.3311-.84572-2.12-.84572s-1.5477.30272-2.12.84572l-2.42 2.41c-.4352.44016-.7236 1.00414-.8256 1.61464-.1021.61049-.0128 1.23761.2556 1.79536l-2.15 2.14998-2-1.99998c-.36079-.36949-.81086-.6396-1.30665-.78417-.49578-.14456-1.02049-.1587-1.52334-.04103-.50285.11766-.9668.36315-1.34697.71269-.38016.34953-.66365.79129-.82304 1.28249l-2.66 8c-.17677.5281-.20305 1.095-.07588 1.6372.12716.5423.40274 1.0384.79588 1.4328.2852.2938.62751.5261 1.00587.6826.37835.1565.78474.2339 1.19413.2274.34018.0064.67879-.0478 1-.16l8-2.66c.4912-.1594.933-.4429 1.2825-.823.3496-.3802.595-.8441.7127-1.347.1177-.5028.1035-1.0275-.041-1.5233-.1446-.4958-.4147-.9459-.7842-1.3067l-2-2 2.15-2.15c.5578.2684 1.1849.3577 1.7954.2556.6105-.102 1.1744-.3904 1.6146-.82558l2.41-2.42c.5351-.5615.8319-1.30841.8282-2.08403-.0038-.77561-.3077-1.51964-.8482-2.07597zm-7.42 12.74998c.119.1213.2052.2708.2503.4346.0452.1638.0479.3364.0079.5015-.0401.1651-.1215.3173-.2366.4422-.1152.1249-.2603.2184-.4216.2717l-7.98 2.72c-.17367.0531-.35852.0578-.53469.0138-.17618-.044-.33703-.1352-.46531-.2638-.12854-.1283-.21973-.2891-.26377-.4653-.04405-.1762-.03928-.361.01377-.5347l2.67-8c.03806-.1766.12324-.3395.24649-.4716.12325-.132.27997-.2282.45351-.2784.07645-.00824.15356-.00824.23 0 .26234.0011.51374.1053.7.29l2 2-.87.86c-.09373.093-.16812.2036-.21889.3254-.05077.1219-.07691.2526-.07691.3846s.02614.2627.07691.3846.12516.2325.21889.3254c.09296.0938.20357.1681.32542.2189.12186.0508.25258.0769.38458.0769s.2627-.0261.3846-.0769c.1218-.0508.2324-.1251.3254-.2189l.86-.87zm6-9.91998-2.41 2.41c-.1404.13761-.3182.23079-.5113.26789-.193.03711-.3927.01649-.5741-.05927-.1814-.07575-.3364-.2033-.4457-.36668-.1094-.16338-.1681-.35536-.1689-.55194.0011-.26234.1053-.51374.29-.7l2.41-2.42c.093-.09373.2036-.16812.3254-.21889.1219-.05077.2526-.0769.3846-.0769s.2627.02613.3846.0769c.1218.05077.2324.12516.3254.21889.0937.09297.1681.20357.2189.32543s.0769.25256.0769.38457c0 .13202-.0261.26272-.0769.38458s-.1252.23246-.2189.32542z" fill="#9e9e9e"/></svg>