<svg fill="none" height="24" viewBox="0 0 24 24" width="24" xmlns="http://www.w3.org/2000/svg"><path clip-rule="evenodd" d="m6 5c0-1.10457.89543-2 2-2h8c1.1046 0 2 .89543 2 2v7c0 1.1046-.8954 2-2 2h-3v1.18c.4194.1493.8003.3901 1.1151.7049s.5556.6957.7049 1.1151h6.18c.2652 0 .5196.1054.7071.2929s.2929.4419.2929.7071-.1054.5196-.2929.7071-.4419.2929-.7071.2929h-6.18c-.2102.5792-.5936 1.0795-1.0982 1.4332-.5045.3536-1.1057.5433-1.7218.5433s-1.2173-.1897-1.7218-.5433c-.50457-.3537-.888-.854-1.0982-1.4332h-6.18c-.26522 0-.51957-.1054-.70711-.2929-.18753-.1875-.29289-.4419-.29289-.7071s.10536-.5196.29289-.7071c.18754-.1875.44189-.2929.70711-.2929h6.18c.14932-.4194.39011-.8003.7049-1.1151.3148-.3148.6957-.5556 1.1151-.7049v-1.18h-3c-1.10457 0-2-.8954-2-2zm2 0h8v7h-8zm4 14c-.1978 0-.3911-.0586-.5556-.1685-.1644-.1099-.2926-.2661-.3683-.4488s-.0955-.3838-.0569-.5778.1338-.3722.2737-.512c.1398-.1399.318-.2351.512-.2737s.3951-.0188.5778.0569.3389.2039.4488.3683c.1099.1645.1685.3578.1685.5556 0 .2652-.1054.5196-.2929.7071s-.4419.2929-.7071.2929z" fill="#9e9e9e" fill-rule="evenodd"/></svg>