<svg fill="none" height="24" viewBox="0 0 24 24" width="24" xmlns="http://www.w3.org/2000/svg"><path d="m15 10h-3v-3c0-.26522-.1054-.51957-.2929-.70711s-.4419-.29289-.7071-.29289-.5196.10535-.7071.29289-.2929.44189-.2929.70711v3h-3c-.26522 0-.51957.1054-.70711.2929s-.29289.4419-.29289.7071.10535.5196.29289.7071.44189.2929.70711.2929h3v3c0 .2652.1054.5196.2929.7071s.4419.2929.7071.2929.5196-.1054.7071-.2929.2929-.4419.2929-.7071v-3h3c.2652 0 .5196-.1054.7071-.2929s.2929-.4419.2929-.7071-.1054-.5196-.2929-.7071-.4419-.2929-.7071-.2929zm6.71 10.29-3.71-3.68c1.4401-1.7956 2.1375-4.0747 1.9488-6.3687s-1.2491-4.42852-2.9633-5.96466c-1.7141-1.53614-3.9517-2.35713-6.2526-2.29417-2.30087.06296-4.49018 1.00509-6.11776 2.63267s-2.56971 3.81689-2.63267 6.11776c-.06296 2.3009.75803 4.5385 2.29417 6.2526 1.53614 1.7142 3.67066 2.7746 5.96466 2.9633s4.5731-.5087 6.3687-1.9488l3.68 3.68c.093.0937.2036.1681.3254.2189.1219.0508.2526.0769.3846.0769s.2627-.0261.3846-.0769c.1218-.0508.2324-.1252.3254-.2189.1802-.1865.281-.4357.281-.695s-.1008-.5085-.281-.695zm-10.71-2.29c-1.38447 0-2.73785-.4105-3.889-1.1797-1.15114-.7692-2.04835-1.8624-2.57816-3.1415s-.66844-2.6866-.39834-4.04444c.2701-1.35786.93678-2.60514 1.91575-3.58411s2.22625-1.64565 3.58411-1.91575c1.35784-.2701 2.76534-.13147 4.04444.39834s2.3723 1.42702 3.1415 2.57816c.7692 1.15115 1.1797 2.50453 1.1797 3.889 0 1.8565-.7375 3.637-2.0503 4.9497-1.3127 1.3128-3.0932 2.0503-4.9497 2.0503z" fill="#9e9e9e"/></svg>